%TF.GenerationSoftware,KiCad,Pcbnew,10.0.5-1.fc44*%
%TF.CreationDate,2026-08-14T11:34:10+02:00*%
%TF.ProjectId,stm_lora,73746d5f-6c6f-4726-912e-6b696361645f,rev?*%
%TF.SameCoordinates,Original*%
%TF.FileFunction,Copper,L2,Bot*%
%TF.FilePolarity,Positive*%
%FSLAX46Y46*%
G04 Gerber Fmt 4.6, Leading zero omitted, Abs format (unit mm)*
G04 Created by KiCad (PCBNEW 10.0.5-1.fc44) date 2026-08-14 11:34:10*
%MOMM*%
%LPD*%
G01*
G04 APERTURE LIST*
%TA.AperFunction,ComponentPad*%
%ADD10R,1.700000X1.700000*%
%TD*%
%TA.AperFunction,ComponentPad*%
%ADD11C,1.700000*%
%TD*%
%TA.AperFunction,ComponentPad*%
%ADD12O,1.800000X1.150000*%
%TD*%
%TA.AperFunction,ComponentPad*%
%ADD13O,2.000000X1.450000*%
%TD*%
%TA.AperFunction,SMDPad,CuDef*%
%ADD14R,3.500000X1.500000*%
%TD*%
%TA.AperFunction,ComponentPad*%
%ADD15C,2.000000*%
%TD*%
%TA.AperFunction,ViaPad*%
%ADD16C,0.600000*%
%TD*%
%TA.AperFunction,Conductor*%
%ADD17C,0.300000*%
%TD*%
%TA.AperFunction,Conductor*%
%ADD18C,0.200000*%
%TD*%
%TA.AperFunction,Conductor*%
%ADD19C,0.500000*%
%TD*%
G04 APERTURE END LIST*
D10*
%TO.P,J3,1,Pin_1_1*%
%TO.N,GND*%
X167629846Y-112250000D03*
D11*
%TO.P,J3,2,Pin_2_2*%
%TO.N,SWCLK*%
X165089846Y-112250000D03*
%TO.P,J3,3,Pin_3_3*%
%TO.N,SWDIO*%
X162549846Y-112250000D03*
%TO.P,J3,4,Pin_4_4*%
%TO.N,+3.3V*%
X160009846Y-112250000D03*
%TD*%
D10*
%TO.P,J4,1,Pin_1_1*%
%TO.N,GND*%
X166972526Y-122019309D03*
D11*
%TO.P,J4,2,Pin_2_2*%
%TO.N,+3.3V*%
X166972526Y-124559309D03*
%TO.P,J4,3,Pin_3_3*%
%TO.N,I2C1_SCL*%
X166972526Y-127099309D03*
%TO.P,J4,4,Pin_4_4*%
%TO.N,I2C1_SDA*%
X166972526Y-129639309D03*
%TD*%
D12*
%TO.P,J2,SH,Shield_SH*%
%TO.N,unconnected-(J2-Shield-PadSH)*%
X129900000Y-129275000D03*
D13*
%TO.N,unconnected-(J2-Shield-PadSH)_1*%
X133700000Y-129425000D03*
%TO.N,unconnected-(J2-Shield-PadSH)_3*%
X133700000Y-136875000D03*
D12*
%TO.N,unconnected-(J2-Shield-PadSH)_2*%
X129900000Y-137025000D03*
%TD*%
D10*
%TO.P,J1,1,Pin_1_1*%
%TO.N,GND*%
X141855991Y-112240538D03*
D11*
%TO.P,J1,2,Pin_2_2*%
%TO.N,/J_BOOT0*%
X144395991Y-112240538D03*
%TO.P,J1,3,Pin_3_3*%
%TO.N,+3.3V*%
X146935991Y-112240538D03*
%TD*%
D14*
%TO.P,J6,G3*%
%TO.N,GND*%
X199930000Y-128500000D03*
%TO.P,J6,G4*%
X199930000Y-123100000D03*
%TD*%
D15*
%TO.P,RST,1,1_1*%
%TO.N,/~{RST}*%
X137040000Y-115090000D03*
%TO.N,N/C*%
X130540000Y-115090000D03*
%TO.P,RST,2,2_2*%
%TO.N,GND*%
X137040000Y-110590000D03*
%TO.N,N/C*%
X130540000Y-110590000D03*
%TD*%
D16*
%TO.N,I2C1_SCL*%
X163450000Y-131160000D03*
%TO.N,+3.3V*%
X161185000Y-120415000D03*
X145017464Y-130636703D03*
X145800000Y-133200000D03*
X162120000Y-131150000D03*
%TO.N,GND*%
X184580500Y-125760500D03*
X175830500Y-138260500D03*
X199602500Y-121450000D03*
X129580500Y-135760500D03*
X147080500Y-110760500D03*
X200830500Y-138260500D03*
X154580500Y-110760500D03*
X188330500Y-133260500D03*
X198330500Y-113260500D03*
X185830500Y-118260500D03*
X144580500Y-115760500D03*
X130830500Y-133260500D03*
X192080500Y-125760500D03*
X132080500Y-120760500D03*
X182080500Y-110760500D03*
X173330500Y-128260500D03*
X172080500Y-110760500D03*
X175830500Y-118260500D03*
X169580500Y-110760500D03*
X190830500Y-133260500D03*
X133330500Y-113260500D03*
X143330500Y-138260500D03*
X165830500Y-138260500D03*
X178330500Y-118260500D03*
X157080500Y-110760500D03*
X138330500Y-113260500D03*
X142800000Y-119200000D03*
X175830500Y-123260500D03*
X193330500Y-123260500D03*
X148330500Y-133260500D03*
X134580500Y-120760500D03*
X140830500Y-118260500D03*
X140830500Y-138260500D03*
X134580500Y-110760500D03*
X153330500Y-138260500D03*
X160830500Y-138260500D03*
X195023259Y-126900000D03*
X187080500Y-125760500D03*
X135830500Y-138260500D03*
X129580500Y-130760500D03*
X198330500Y-133260500D03*
X147080500Y-115760500D03*
X188330500Y-123260500D03*
X162080500Y-115760500D03*
X177665000Y-127415000D03*
X189580500Y-120760500D03*
X158330500Y-113260500D03*
X197639888Y-124700000D03*
X197639888Y-126900000D03*
X195944607Y-124700000D03*
X189580500Y-125760500D03*
X188330500Y-113260500D03*
X159400000Y-122200000D03*
X195944607Y-126900000D03*
X170830500Y-138260500D03*
X135326430Y-133149999D03*
X195830500Y-138260500D03*
X149580500Y-135760500D03*
X153330500Y-113260500D03*
X183330500Y-138260500D03*
X194580500Y-110760500D03*
X200830500Y-113260500D03*
X129960000Y-126160000D03*
X172080500Y-125760500D03*
X142080500Y-130760500D03*
X190830500Y-123260500D03*
X197080500Y-130760500D03*
X194580500Y-135760500D03*
X156253858Y-118700000D03*
X163330500Y-138260500D03*
X158400000Y-120000000D03*
X174580500Y-125760500D03*
X197080500Y-120760500D03*
X196865955Y-124700000D03*
X130830500Y-118260500D03*
X137000000Y-126000000D03*
X143330500Y-128260500D03*
X179580500Y-125760500D03*
X182080500Y-125760500D03*
X148930000Y-115000000D03*
X150830500Y-133260500D03*
X195830500Y-113260500D03*
X185275000Y-116975000D03*
X169580500Y-120760500D03*
X189580500Y-135760500D03*
X192160000Y-116890000D03*
X195830500Y-118260500D03*
X130830500Y-113260500D03*
X174580500Y-130760500D03*
X145830500Y-118260500D03*
X193330500Y-133260500D03*
X168330500Y-138260500D03*
X199580500Y-110760500D03*
X152080500Y-135760500D03*
X170830500Y-128260500D03*
X154375735Y-118524265D03*
X150830500Y-138260500D03*
X192080500Y-135760500D03*
X146600000Y-132200000D03*
X172080500Y-115760500D03*
X176475000Y-115650000D03*
X169580500Y-130760500D03*
X154580500Y-115760500D03*
X132080500Y-115760500D03*
X139580500Y-130760500D03*
X169580500Y-115760500D03*
X162080500Y-110760500D03*
X138330500Y-118260500D03*
X148330500Y-113260500D03*
X188330500Y-138260500D03*
X185830500Y-138260500D03*
X142080500Y-115760500D03*
X183330500Y-118260500D03*
X147080500Y-135760500D03*
X188330500Y-128260500D03*
X196846055Y-123067569D03*
X190830500Y-128260500D03*
X172080500Y-120760500D03*
X133330500Y-138260500D03*
X138330500Y-138260500D03*
X167080500Y-120760500D03*
X174580500Y-120760500D03*
X129580500Y-120760500D03*
X135870000Y-118110000D03*
X185830500Y-113260500D03*
X159400000Y-118800000D03*
X144580500Y-110760500D03*
X147080500Y-125760500D03*
X199580500Y-135760500D03*
X133330500Y-118260500D03*
X193330500Y-118260500D03*
X189580500Y-110760500D03*
X200830500Y-133260500D03*
X192145000Y-127325000D03*
X170830500Y-123260500D03*
X193330500Y-138260500D03*
X139407031Y-128703560D03*
X177080500Y-125760500D03*
X188330500Y-118260500D03*
X145830500Y-138260500D03*
X182080500Y-120760500D03*
X148330500Y-138260500D03*
X133330500Y-123260500D03*
X195023259Y-124700000D03*
X137080500Y-135760500D03*
X195830500Y-133260500D03*
X180830500Y-118260500D03*
X173330500Y-138260500D03*
X189580500Y-130760500D03*
X169580500Y-125760500D03*
X193330500Y-113260500D03*
X159580500Y-110760500D03*
X187080500Y-110760500D03*
X142080500Y-120760500D03*
X130830500Y-138260500D03*
X189580500Y-115760500D03*
X157200000Y-114200000D03*
X196865955Y-126900000D03*
X162670000Y-128250000D03*
X178330500Y-123260500D03*
X134580500Y-130760500D03*
X174580500Y-115760500D03*
X158330500Y-138260500D03*
X155830500Y-113260500D03*
X187080500Y-135760500D03*
X190830500Y-113260500D03*
X199577500Y-130200000D03*
X172080500Y-130760500D03*
X149580500Y-110760500D03*
X184580500Y-110760500D03*
X200830500Y-118260500D03*
X170830500Y-118260500D03*
X177080500Y-120760500D03*
X142080500Y-135760500D03*
X135600000Y-135400000D03*
X152080500Y-110760500D03*
X197080500Y-115760500D03*
X173330500Y-123260500D03*
X173330500Y-118260500D03*
X137080500Y-120760500D03*
X174580500Y-110760500D03*
X139580500Y-135760500D03*
X197080500Y-110760500D03*
X144580500Y-135760500D03*
X134580500Y-115760500D03*
X192080500Y-110760500D03*
X136800000Y-131000000D03*
X197080500Y-135760500D03*
X199580500Y-115760500D03*
X192080500Y-120760500D03*
X149047426Y-113502574D03*
X135830500Y-123260500D03*
X190830500Y-138260500D03*
X180830500Y-138260500D03*
X190830500Y-118260500D03*
X130830500Y-123260500D03*
X185830500Y-123260500D03*
X135830500Y-113260500D03*
X155830500Y-138260500D03*
X149580500Y-115760500D03*
X175830500Y-128260500D03*
X184580500Y-135760500D03*
X184580500Y-120760500D03*
X164580500Y-110760500D03*
X179580500Y-120760500D03*
X168330500Y-128260500D03*
X198330500Y-118260500D03*
X194580500Y-120760500D03*
X187080500Y-120760500D03*
X178330500Y-138260500D03*
X198330500Y-138260500D03*
X157445350Y-127997497D03*
X168330500Y-118260500D03*
%TO.N,VRF*%
X139450000Y-123190000D03*
X139450000Y-120230000D03*
%TO.N,SWCLK*%
X162990000Y-125920000D03*
X156325000Y-132425000D03*
%TO.N,/~{RST}*%
X138230000Y-117270000D03*
X152280000Y-120440000D03*
%TO.N,/J_BOOT0*%
X158470000Y-127950000D03*
%TO.N,BUSY*%
X180229462Y-131417328D03*
X150396935Y-120804174D03*
%TO.N,~{NRST}*%
X181529462Y-131892328D03*
X149725000Y-120370000D03*
%TO.N,~{SS}*%
X186609462Y-131892328D03*
X149080000Y-119860000D03*
%TO.N,SPI1_SCK*%
X157700000Y-125330000D03*
X160460000Y-127380000D03*
X159484148Y-125795852D03*
X177810000Y-132690000D03*
X160504265Y-129774265D03*
X151080000Y-122810000D03*
%TO.N,SP1_MISO*%
X182769462Y-131417328D03*
X149075000Y-122484620D03*
%TO.N,SP1_MOSI*%
X184069462Y-131892328D03*
X148425000Y-123050000D03*
%TO.N,RXEN*%
X183340000Y-112990000D03*
X162642593Y-119805936D03*
%TO.N,TXEN*%
X163030000Y-120840000D03*
X182300000Y-113750000D03*
%TO.N,DIO1*%
X145680000Y-134450000D03*
X145126777Y-129426777D03*
%TD*%
%TO.N,I2C1_SCL*%
D17*
X166810000Y-126460000D02*
X167000000Y-126460000D01*
D18*
X166972526Y-127637474D02*
X166972526Y-127099309D01*
X163450000Y-131160000D02*
X166972526Y-127637474D01*
%TO.N,+3.3V*%
D17*
X163980500Y-127551335D02*
X166972526Y-124559309D01*
X165288574Y-124559309D02*
X161185000Y-120455735D01*
X166972526Y-124559309D02*
X165288574Y-124559309D01*
X145017464Y-132417464D02*
X145800000Y-133200000D01*
X163980500Y-129289500D02*
X163980500Y-127551335D01*
X161185000Y-120455735D02*
X161185000Y-120415000D01*
X145017464Y-130636703D02*
X145017464Y-132417464D01*
X162120000Y-131150000D02*
X163980500Y-129289500D01*
%TO.N,VRF*%
D19*
X139450000Y-123190000D02*
X139450000Y-120230000D01*
%TO.N,SWCLK*%
D18*
X156485000Y-132425000D02*
X156325000Y-132425000D01*
X162990000Y-125920000D02*
X156485000Y-132425000D01*
%TO.N,/~{RST}*%
X152280000Y-120440000D02*
X149110000Y-117270000D01*
X149110000Y-117270000D02*
X138230000Y-117270000D01*
%TO.N,/J_BOOT0*%
X158470000Y-127950000D02*
X158470000Y-121770000D01*
X158470000Y-121770000D02*
X151050000Y-114350000D01*
X151050000Y-114350000D02*
X146505453Y-114350000D01*
X146505453Y-114350000D02*
X144395991Y-112240538D01*
%TO.N,BUSY*%
X150390642Y-120810467D02*
X150390642Y-127915642D01*
X155825000Y-133350000D02*
X178296790Y-133350000D01*
X178296790Y-133350000D02*
X180229462Y-131417328D01*
X150390642Y-127915642D02*
X155825000Y-133350000D01*
X150396935Y-120804174D02*
X150390642Y-120810467D01*
%TO.N,~{NRST}*%
X155557893Y-133790000D02*
X179631790Y-133790000D01*
X179631790Y-133790000D02*
X181529462Y-131892328D01*
X149725000Y-127957107D02*
X155557893Y-133790000D01*
X149725000Y-120370000D02*
X149725000Y-127957107D01*
%TO.N,~{SS}*%
X147750000Y-128103425D02*
X154996575Y-135350000D01*
X149080000Y-119860000D02*
X149080000Y-121320000D01*
X183151790Y-135350000D02*
X186609462Y-131892328D01*
X147750000Y-122650000D02*
X147750000Y-128103425D01*
X149080000Y-121320000D02*
X147750000Y-122650000D01*
X154996575Y-135350000D02*
X183151790Y-135350000D01*
%TO.N,SPI1_SCK*%
X153600000Y-125330000D02*
X151080000Y-122810000D01*
X160504265Y-129774265D02*
X160504265Y-131994265D01*
X160504265Y-131994265D02*
X161200000Y-132690000D01*
X157700000Y-125330000D02*
X153600000Y-125330000D01*
X160460000Y-126771704D02*
X159484148Y-125795852D01*
X161200000Y-132690000D02*
X177810000Y-132690000D01*
X160460000Y-127380000D02*
X160460000Y-126771704D01*
%TO.N,SP1_MISO*%
X155390787Y-134330000D02*
X180520000Y-134330000D01*
X149075000Y-122484620D02*
X149075000Y-128014213D01*
X182769462Y-132080538D02*
X182769462Y-131417328D01*
X180520000Y-134330000D02*
X182769462Y-132080538D01*
X149075000Y-128014213D02*
X155390787Y-134330000D01*
%TO.N,SP1_MOSI*%
X148425000Y-123050000D02*
X148425000Y-128071319D01*
X148425000Y-128071319D02*
X155243681Y-134890000D01*
X181630000Y-134890000D02*
X184069462Y-132450538D01*
X155243681Y-134890000D02*
X181630000Y-134890000D01*
X184069462Y-132450538D02*
X184069462Y-131892328D01*
%TO.N,RXEN*%
X183340000Y-112990000D02*
X169458529Y-112990000D01*
X169458529Y-112990000D02*
X162642593Y-119805936D01*
%TO.N,TXEN*%
X163030000Y-120840000D02*
X170120000Y-113750000D01*
X170120000Y-113750000D02*
X182300000Y-113750000D01*
%TO.N,DIO1*%
X144940000Y-134450000D02*
X144180000Y-133690000D01*
X145680000Y-134450000D02*
X144940000Y-134450000D01*
X144180000Y-130370000D02*
X145123223Y-129426777D01*
X144180000Y-133690000D02*
X144180000Y-130370000D01*
X145123223Y-129426777D02*
X145126777Y-129426777D01*
%TD*%
%TA.AperFunction,Conductor*%
%TO.N,GND*%
G36*
X150907499Y-123286907D02*
G01*
X151169737Y-123408315D01*
X151301387Y-123469265D01*
X151344147Y-123499118D01*
X153359540Y-125514511D01*
X153415489Y-125570460D01*
X153484011Y-125610021D01*
X153560438Y-125630500D01*
X157025939Y-125630500D01*
X157077283Y-125639625D01*
X157503951Y-125796248D01*
X157503953Y-125796248D01*
X157503955Y-125796249D01*
X157504458Y-125796383D01*
X157517017Y-125799125D01*
X157634108Y-125830500D01*
X157765892Y-125830500D01*
X157893186Y-125796392D01*
X157929012Y-125775706D01*
X157964949Y-125760821D01*
X157978349Y-125757231D01*
X158055478Y-125757233D01*
X158122271Y-125795799D01*
X158160830Y-125862583D01*
X158164421Y-125875982D01*
X158169500Y-125914554D01*
X158169500Y-127275934D01*
X158160374Y-127327279D01*
X158003752Y-127753947D01*
X158003622Y-127754434D01*
X158000871Y-127767023D01*
X157997264Y-127780489D01*
X157997261Y-127780502D01*
X157969500Y-127884104D01*
X157969500Y-128015896D01*
X157978639Y-128050001D01*
X158003607Y-128143185D01*
X158013416Y-128160174D01*
X158013418Y-128160177D01*
X158065901Y-128251083D01*
X158069497Y-128257310D01*
X158069498Y-128257311D01*
X158069500Y-128257314D01*
X158162686Y-128350500D01*
X158276814Y-128416392D01*
X158404108Y-128450500D01*
X158535892Y-128450500D01*
X158663186Y-128416392D01*
X158777314Y-128350500D01*
X158870500Y-128257314D01*
X158936392Y-128143186D01*
X158970500Y-128015892D01*
X158970500Y-127884108D01*
X158939176Y-127767204D01*
X158936917Y-127756531D01*
X158936250Y-127753959D01*
X158936248Y-127753955D01*
X158936248Y-127753951D01*
X158779626Y-127327279D01*
X158770500Y-127275935D01*
X158770500Y-126136469D01*
X158775577Y-126097906D01*
X158778205Y-126088098D01*
X158816769Y-126021303D01*
X158883563Y-125982738D01*
X158960691Y-125982738D01*
X159027486Y-126021302D01*
X159027487Y-126021302D01*
X159034665Y-126028480D01*
X159058343Y-126059338D01*
X159073918Y-126086315D01*
X159083415Y-126102765D01*
X159083643Y-126103159D01*
X159083646Y-126103163D01*
X159083648Y-126103166D01*
X159176834Y-126196352D01*
X159176836Y-126196353D01*
X159176840Y-126196356D01*
X159281630Y-126256856D01*
X159290792Y-126262817D01*
X159293085Y-126264166D01*
X159705535Y-126455117D01*
X159748295Y-126484970D01*
X160048204Y-126784879D01*
X160086768Y-126851674D01*
X160086768Y-126928802D01*
X160082719Y-126941582D01*
X159993752Y-127183947D01*
X159993618Y-127184450D01*
X159990865Y-127197045D01*
X159959500Y-127314100D01*
X159959500Y-127314106D01*
X159959500Y-127314108D01*
X159959500Y-127445892D01*
X159993608Y-127573186D01*
X160018623Y-127616514D01*
X160059497Y-127687310D01*
X160059499Y-127687313D01*
X160152844Y-127780659D01*
X160153220Y-127780939D01*
X160156542Y-127782726D01*
X160172141Y-127791732D01*
X160180160Y-127796362D01*
X160266813Y-127846392D01*
X160275364Y-127848683D01*
X160291825Y-127853093D01*
X160327767Y-127867981D01*
X160339780Y-127874917D01*
X160394317Y-127929455D01*
X160414278Y-128003956D01*
X160394318Y-128078449D01*
X160387384Y-128090460D01*
X160363703Y-128121323D01*
X156649745Y-131835280D01*
X156614683Y-131861296D01*
X156513255Y-131915569D01*
X156438150Y-131933116D01*
X156404396Y-131928118D01*
X156390893Y-131924500D01*
X156390892Y-131924500D01*
X156259108Y-131924500D01*
X156259104Y-131924500D01*
X156150762Y-131953531D01*
X156130797Y-131956159D01*
X156114820Y-131968419D01*
X156017688Y-132024497D01*
X155924496Y-132117689D01*
X155863345Y-132223608D01*
X155863344Y-132223611D01*
X155858609Y-132231810D01*
X155858608Y-132231814D01*
X155849704Y-132265045D01*
X155849704Y-132265046D01*
X155849703Y-132265045D01*
X155824500Y-132359105D01*
X155824500Y-132490899D01*
X155834221Y-132527176D01*
X155839298Y-132565739D01*
X155839298Y-132575892D01*
X155819336Y-132650392D01*
X155764798Y-132704930D01*
X155690298Y-132724892D01*
X155615805Y-132704934D01*
X155607012Y-132699858D01*
X155576146Y-132676175D01*
X150748654Y-127848683D01*
X150724974Y-127817822D01*
X150711103Y-127793796D01*
X150691142Y-127719298D01*
X150691142Y-123437758D01*
X150696218Y-123399198D01*
X150700363Y-123383727D01*
X150738925Y-123316931D01*
X150805633Y-123278388D01*
X150806254Y-123278221D01*
X150883381Y-123278174D01*
X150907499Y-123286907D01*
G37*
%TD.AperFunction*%
%TA.AperFunction,Conductor*%
G36*
X201009947Y-108655077D02*
G01*
X201025417Y-108659222D01*
X201092212Y-108697785D01*
X201130776Y-108764576D01*
X201134922Y-108780047D01*
X201140000Y-108818616D01*
X201140000Y-138961383D01*
X201134922Y-138999952D01*
X201130776Y-139015423D01*
X201092209Y-139082216D01*
X201025425Y-139120775D01*
X201009955Y-139124921D01*
X200971384Y-139130000D01*
X129208616Y-139130000D01*
X129170049Y-139124922D01*
X129160127Y-139122263D01*
X129154576Y-139120776D01*
X129087783Y-139082209D01*
X129049221Y-139015414D01*
X129045076Y-138999943D01*
X129040000Y-138961383D01*
X129040000Y-137885401D01*
X129045076Y-137846841D01*
X129049221Y-137831370D01*
X129087783Y-137764574D01*
X129154575Y-137726008D01*
X129155441Y-137725776D01*
X129223072Y-137723562D01*
X129231623Y-137725262D01*
X129259574Y-137733741D01*
X129284836Y-137744205D01*
X129348795Y-137770698D01*
X129498620Y-137800500D01*
X130301380Y-137800500D01*
X130451205Y-137770698D01*
X130533170Y-137736747D01*
X130578867Y-137717818D01*
X130578932Y-137717799D01*
X130590818Y-137712868D01*
X130592329Y-137712243D01*
X130592332Y-137712240D01*
X130592337Y-137712239D01*
X130719352Y-137627370D01*
X130827370Y-137519352D01*
X130912239Y-137392337D01*
X130912240Y-137392334D01*
X130912241Y-137392330D01*
X130912243Y-137392329D01*
X130913741Y-137388711D01*
X130917804Y-137378919D01*
X130917820Y-137378863D01*
X130944944Y-137313380D01*
X130970698Y-137251205D01*
X131000500Y-137101380D01*
X131000500Y-136948620D01*
X130970698Y-136798795D01*
X130962813Y-136779759D01*
X130912243Y-136657670D01*
X130912234Y-136657655D01*
X130827372Y-136530651D01*
X130827370Y-136530648D01*
X130827369Y-136530647D01*
X130827367Y-136530644D01*
X130719360Y-136422637D01*
X130719355Y-136422633D01*
X130719352Y-136422630D01*
X130719348Y-136422627D01*
X130713252Y-136418554D01*
X130651298Y-136377157D01*
X130592344Y-136337765D01*
X130592343Y-136337764D01*
X130592337Y-136337760D01*
X130592329Y-136337756D01*
X130451206Y-136279302D01*
X130451205Y-136279301D01*
X130451201Y-136279300D01*
X130451190Y-136279298D01*
X130301380Y-136249500D01*
X129498620Y-136249500D01*
X129348803Y-136279299D01*
X129348795Y-136279301D01*
X129264143Y-136314365D01*
X129226564Y-136324433D01*
X129210682Y-136326523D01*
X129134214Y-136316452D01*
X129073029Y-136269498D01*
X129072449Y-136268742D01*
X129044562Y-136207153D01*
X129042860Y-136198595D01*
X129040000Y-136169541D01*
X129040000Y-135585927D01*
X131999500Y-135585927D01*
X131999500Y-135594287D01*
X131999500Y-135714076D01*
X132024497Y-135839742D01*
X132025116Y-135841550D01*
X132026523Y-135844632D01*
X132073524Y-135958106D01*
X132073526Y-135958110D01*
X132073531Y-135958119D01*
X132073533Y-135958123D01*
X132073535Y-135958127D01*
X132144724Y-136064669D01*
X132235331Y-136155276D01*
X132278640Y-136184214D01*
X132342549Y-136226917D01*
X132346738Y-136228480D01*
X132455384Y-136273483D01*
X132458452Y-136274883D01*
X132469693Y-136278734D01*
X132469611Y-136278970D01*
X132495005Y-136287589D01*
X132509372Y-136294674D01*
X132567359Y-136345527D01*
X132592150Y-136418554D01*
X132592632Y-136425902D01*
X132581610Y-136492675D01*
X132537091Y-136600152D01*
X132535686Y-136603229D01*
X132535065Y-136605043D01*
X132499500Y-136783841D01*
X132499500Y-136966157D01*
X132535065Y-137144955D01*
X132535684Y-137146762D01*
X132537091Y-137149845D01*
X132579076Y-137251206D01*
X132604830Y-137313383D01*
X132604831Y-137313385D01*
X132604833Y-137313389D01*
X132706117Y-137464972D01*
X132835028Y-137593883D01*
X132986611Y-137695167D01*
X133155042Y-137764933D01*
X133333846Y-137800500D01*
X133333850Y-137800500D01*
X134066150Y-137800500D01*
X134066154Y-137800500D01*
X134244958Y-137764933D01*
X134413389Y-137695167D01*
X134564972Y-137593883D01*
X134693883Y-137464972D01*
X134795167Y-137313389D01*
X134795170Y-137313379D01*
X134795173Y-137313376D01*
X134830908Y-137227101D01*
X134864933Y-137144958D01*
X134900500Y-136966154D01*
X134900500Y-136783846D01*
X134864933Y-136605042D01*
X134795167Y-136436611D01*
X134693883Y-136285028D01*
X134564972Y-136156117D01*
X134513985Y-136122048D01*
X134413387Y-136054831D01*
X134413382Y-136054828D01*
X134249846Y-135987091D01*
X134246764Y-135985684D01*
X134244955Y-135985065D01*
X134066157Y-135949500D01*
X134066154Y-135949500D01*
X133454843Y-135949500D01*
X133416276Y-135944422D01*
X133406354Y-135941763D01*
X133400803Y-135940276D01*
X133334010Y-135901709D01*
X133295449Y-135834919D01*
X133293542Y-135827803D01*
X133291329Y-135760175D01*
X133300499Y-135714075D01*
X133300500Y-135714064D01*
X133300500Y-135585935D01*
X133300499Y-135585927D01*
X133275501Y-135460256D01*
X133275500Y-135460254D01*
X133275499Y-135460253D01*
X133274883Y-135458452D01*
X133273483Y-135455384D01*
X133228480Y-135346738D01*
X133226917Y-135342549D01*
X133204122Y-135308435D01*
X133155276Y-135235331D01*
X133064669Y-135144724D01*
X132958127Y-135073535D01*
X132958123Y-135073533D01*
X132958119Y-135073531D01*
X132958117Y-135073530D01*
X132958110Y-135073526D01*
X132958106Y-135073524D01*
X132844632Y-135026523D01*
X132841550Y-135025116D01*
X132839742Y-135024497D01*
X132714076Y-134999500D01*
X132714072Y-134999500D01*
X132714069Y-134999500D01*
X132585931Y-134999500D01*
X132585927Y-134999500D01*
X132585922Y-134999500D01*
X132460256Y-135024497D01*
X132458447Y-135025117D01*
X132455367Y-135026523D01*
X132341881Y-135073530D01*
X132341863Y-135073540D01*
X132235330Y-135144724D01*
X132235323Y-135144730D01*
X132144730Y-135235323D01*
X132144724Y-135235330D01*
X132073540Y-135341863D01*
X132073530Y-135341881D01*
X132031755Y-135442735D01*
X132031754Y-135442737D01*
X132024499Y-135460254D01*
X132024498Y-135460256D01*
X131999500Y-135585927D01*
X129040000Y-135585927D01*
X129040000Y-130585927D01*
X131999500Y-130585927D01*
X131999500Y-130594287D01*
X131999500Y-130714076D01*
X132024497Y-130839742D01*
X132025116Y-130841550D01*
X132026523Y-130844632D01*
X132073524Y-130958106D01*
X132073526Y-130958110D01*
X132073531Y-130958119D01*
X132073533Y-130958123D01*
X132073535Y-130958127D01*
X132144724Y-131064669D01*
X132235331Y-131155276D01*
X132341873Y-131226465D01*
X132460256Y-131275501D01*
X132585931Y-131300500D01*
X132585935Y-131300500D01*
X132714065Y-131300500D01*
X132714069Y-131300500D01*
X132839744Y-131275501D01*
X132958127Y-131226465D01*
X133064669Y-131155276D01*
X133155276Y-131064669D01*
X133226465Y-130958127D01*
X133275501Y-130839744D01*
X133300500Y-130714069D01*
X133300500Y-130585931D01*
X133300499Y-130585924D01*
X133292916Y-130547806D01*
X133290372Y-130508997D01*
X133291420Y-130493003D01*
X133316215Y-130419972D01*
X133374202Y-130369121D01*
X133380818Y-130365859D01*
X133446705Y-130350500D01*
X134066150Y-130350500D01*
X134066154Y-130350500D01*
X134167011Y-130330438D01*
X143879500Y-130330438D01*
X143879500Y-133729562D01*
X143899979Y-133805989D01*
X143913589Y-133829562D01*
X143913590Y-133829563D01*
X143913590Y-133829564D01*
X143918680Y-133838381D01*
X143939540Y-133874511D01*
X144699540Y-134634511D01*
X144755489Y-134690460D01*
X144824011Y-134730021D01*
X144900438Y-134750500D01*
X145005939Y-134750500D01*
X145057283Y-134759625D01*
X145483951Y-134916248D01*
X145483953Y-134916248D01*
X145483955Y-134916249D01*
X145484458Y-134916383D01*
X145497017Y-134919125D01*
X145614108Y-134950500D01*
X145745892Y-134950500D01*
X145873186Y-134916392D01*
X145987314Y-134850500D01*
X146080500Y-134757314D01*
X146146392Y-134643186D01*
X146180500Y-134515892D01*
X146180500Y-134384108D01*
X146146392Y-134256814D01*
X146080500Y-134142686D01*
X145987314Y-134049500D01*
X145987311Y-134049498D01*
X145987310Y-134049497D01*
X145987309Y-134049496D01*
X145914427Y-134007417D01*
X145910635Y-134003625D01*
X145886371Y-133989615D01*
X145882745Y-133986833D01*
X145874560Y-133982796D01*
X145852591Y-133970111D01*
X145798055Y-133915571D01*
X145778096Y-133841070D01*
X145798061Y-133766571D01*
X145852596Y-133712039D01*
X145861405Y-133706953D01*
X145897326Y-133692076D01*
X145993186Y-133666392D01*
X146107314Y-133600500D01*
X146200500Y-133507314D01*
X146266392Y-133393186D01*
X146300500Y-133265892D01*
X146300500Y-133134108D01*
X146266392Y-133006814D01*
X146266390Y-133006811D01*
X146266390Y-133006809D01*
X146216360Y-132920157D01*
X146216359Y-132920156D01*
X146205011Y-132900500D01*
X146202720Y-132896530D01*
X146200938Y-132893219D01*
X146200659Y-132892844D01*
X146107312Y-132799498D01*
X146099080Y-132794745D01*
X146086370Y-132786518D01*
X146072653Y-132776615D01*
X145609857Y-132507190D01*
X145579463Y-132483781D01*
X145425476Y-132329794D01*
X145401796Y-132298933D01*
X145387925Y-132274907D01*
X145367964Y-132200409D01*
X145367964Y-131299087D01*
X145372903Y-131261042D01*
X145381467Y-131228613D01*
X145509763Y-130742801D01*
X145510985Y-130733538D01*
X145514780Y-130714472D01*
X145517964Y-130702595D01*
X145517964Y-130570811D01*
X145483856Y-130443517D01*
X145483854Y-130443514D01*
X145483854Y-130443512D01*
X145431805Y-130353363D01*
X145431803Y-130353360D01*
X145430152Y-130350500D01*
X145417966Y-130329392D01*
X145417965Y-130329391D01*
X145417964Y-130329389D01*
X145417413Y-130328838D01*
X145417412Y-130328836D01*
X145324781Y-130236205D01*
X145324771Y-130236198D01*
X145324768Y-130236196D01*
X145245952Y-130190692D01*
X145215111Y-130167032D01*
X145214383Y-130166304D01*
X145212389Y-130164310D01*
X145173814Y-130097524D01*
X145173800Y-130020396D01*
X145212352Y-129953594D01*
X145255746Y-129923439D01*
X145316881Y-129895476D01*
X145316896Y-129895465D01*
X145318337Y-129894637D01*
X145322972Y-129891672D01*
X145323345Y-129891279D01*
X145323799Y-129891143D01*
X145326850Y-129889191D01*
X145434091Y-129827277D01*
X145527277Y-129734091D01*
X145593169Y-129619963D01*
X145627277Y-129492669D01*
X145627277Y-129360885D01*
X145593169Y-129233591D01*
X145593167Y-129233588D01*
X145593167Y-129233586D01*
X145541629Y-129144321D01*
X145541628Y-129144320D01*
X145541627Y-129144318D01*
X145529494Y-129123302D01*
X145527715Y-129119997D01*
X145527435Y-129119620D01*
X145434089Y-129026275D01*
X145336017Y-128969654D01*
X145336015Y-128969653D01*
X145336010Y-128969650D01*
X145319964Y-128960385D01*
X145192669Y-128926277D01*
X145060885Y-128926277D01*
X145060881Y-128926277D01*
X144952539Y-128955308D01*
X144932574Y-128957936D01*
X144916597Y-128970196D01*
X144819465Y-129026274D01*
X144726273Y-129119466D01*
X144666968Y-129222185D01*
X144659871Y-129233041D01*
X144658851Y-129234756D01*
X144465900Y-129646551D01*
X144436336Y-129688690D01*
X143995490Y-130129539D01*
X143995489Y-130129540D01*
X143939541Y-130185486D01*
X143939538Y-130185490D01*
X143899980Y-130254007D01*
X143885254Y-130308967D01*
X143883655Y-130314933D01*
X143879500Y-130330438D01*
X134167011Y-130330438D01*
X134244958Y-130314933D01*
X134413389Y-130245167D01*
X134564972Y-130143883D01*
X134693883Y-130014972D01*
X134795167Y-129863389D01*
X134864933Y-129694958D01*
X134900500Y-129516154D01*
X134900500Y-129333846D01*
X134864933Y-129155042D01*
X134795167Y-128986611D01*
X134693883Y-128835028D01*
X134564972Y-128706117D01*
X134470157Y-128642764D01*
X134413387Y-128604831D01*
X134413382Y-128604828D01*
X134249846Y-128537091D01*
X134246764Y-128535684D01*
X134244955Y-128535065D01*
X134066157Y-128499500D01*
X134066154Y-128499500D01*
X133333846Y-128499500D01*
X133333842Y-128499500D01*
X133155043Y-128535065D01*
X133153230Y-128535686D01*
X133150152Y-128537091D01*
X132991505Y-128602804D01*
X132987433Y-128604323D01*
X132977429Y-128610506D01*
X132974403Y-128612989D01*
X132929843Y-128642764D01*
X132835025Y-128706119D01*
X132706117Y-128835027D01*
X132604838Y-128986601D01*
X132604824Y-128986627D01*
X132537091Y-129150152D01*
X132535686Y-129153230D01*
X132535065Y-129155043D01*
X132499500Y-129333841D01*
X132499500Y-129516158D01*
X132535065Y-129694954D01*
X132578496Y-129799805D01*
X132588564Y-129837381D01*
X132590654Y-129853260D01*
X132580584Y-129929728D01*
X132533637Y-129990911D01*
X132527795Y-129995394D01*
X132466171Y-130023321D01*
X132460266Y-130024496D01*
X132460253Y-130024499D01*
X132460248Y-130024501D01*
X132460236Y-130024505D01*
X132341881Y-130073530D01*
X132341874Y-130073534D01*
X132341873Y-130073535D01*
X132245489Y-130137936D01*
X132235333Y-130144722D01*
X132235323Y-130144730D01*
X132141219Y-130238834D01*
X132136570Y-130247533D01*
X132095526Y-130308961D01*
X132073533Y-130341876D01*
X132073530Y-130341881D01*
X132031755Y-130442735D01*
X132031754Y-130442737D01*
X132024499Y-130460254D01*
X132024498Y-130460256D01*
X131999500Y-130585927D01*
X129040000Y-130585927D01*
X129040000Y-130135401D01*
X129045076Y-130096841D01*
X129049221Y-130081370D01*
X129087783Y-130014574D01*
X129154575Y-129976008D01*
X129155441Y-129975776D01*
X129223072Y-129973562D01*
X129231623Y-129975262D01*
X129259574Y-129983741D01*
X129276884Y-129990911D01*
X129348795Y-130020698D01*
X129498620Y-130050500D01*
X130301380Y-130050500D01*
X130451205Y-130020698D01*
X130533170Y-129986747D01*
X130578867Y-129967818D01*
X130578932Y-129967799D01*
X130590818Y-129962868D01*
X130592329Y-129962243D01*
X130592332Y-129962240D01*
X130592337Y-129962239D01*
X130719352Y-129877370D01*
X130827370Y-129769352D01*
X130912239Y-129642337D01*
X130912240Y-129642332D01*
X130912243Y-129642329D01*
X130912580Y-129641516D01*
X130917799Y-129628932D01*
X130917819Y-129628866D01*
X130948156Y-129555626D01*
X130970698Y-129501205D01*
X131000500Y-129351380D01*
X131000500Y-129198620D01*
X131000499Y-129198611D01*
X130998380Y-129187961D01*
X130998378Y-129187953D01*
X130977422Y-129082600D01*
X130970698Y-129048797D01*
X130970697Y-129048793D01*
X130912243Y-128907670D01*
X130912234Y-128907655D01*
X130827372Y-128780651D01*
X130827370Y-128780648D01*
X130827369Y-128780647D01*
X130827367Y-128780644D01*
X130719360Y-128672637D01*
X130719355Y-128672633D01*
X130719352Y-128672630D01*
X130719348Y-128672627D01*
X130592344Y-128587765D01*
X130592343Y-128587764D01*
X130592337Y-128587760D01*
X130592329Y-128587756D01*
X130451206Y-128529302D01*
X130451205Y-128529301D01*
X130451201Y-128529300D01*
X130451190Y-128529298D01*
X130301380Y-128499500D01*
X129498620Y-128499500D01*
X129348803Y-128529299D01*
X129348795Y-128529301D01*
X129264143Y-128564365D01*
X129226564Y-128574433D01*
X129210682Y-128576523D01*
X129134214Y-128566452D01*
X129073029Y-128519498D01*
X129072449Y-128518742D01*
X129044562Y-128457153D01*
X129042860Y-128448595D01*
X129040000Y-128419541D01*
X129040000Y-120297556D01*
X138948739Y-120297556D01*
X138948915Y-120299629D01*
X138948915Y-120299635D01*
X138998965Y-120888697D01*
X138999500Y-120901311D01*
X138999500Y-122546884D01*
X138995018Y-122578557D01*
X138995660Y-122578676D01*
X138994328Y-122585873D01*
X138948739Y-123122444D01*
X138948797Y-123123039D01*
X138949500Y-123137495D01*
X138949500Y-123255893D01*
X138954934Y-123276173D01*
X138983608Y-123383186D01*
X138998116Y-123408314D01*
X138998117Y-123408315D01*
X138998117Y-123408316D01*
X139039729Y-123480392D01*
X139049497Y-123497310D01*
X139049498Y-123497311D01*
X139049500Y-123497314D01*
X139142686Y-123590500D01*
X139256814Y-123656392D01*
X139384108Y-123690500D01*
X139515892Y-123690500D01*
X139643186Y-123656392D01*
X139757314Y-123590500D01*
X139850500Y-123497314D01*
X139916392Y-123383186D01*
X139950500Y-123255892D01*
X139950500Y-123137545D01*
X139951232Y-123124431D01*
X139951258Y-123122454D01*
X139951260Y-123122443D01*
X139905672Y-122585880D01*
X139905502Y-122585243D01*
X139905327Y-122583904D01*
X139904552Y-122579447D01*
X139904741Y-122579414D01*
X139900500Y-122546958D01*
X139900500Y-120873111D01*
X139904981Y-120841436D01*
X139904340Y-120841318D01*
X139905668Y-120834131D01*
X139905672Y-120834120D01*
X139951260Y-120297556D01*
X139951234Y-120297296D01*
X139951202Y-120296955D01*
X139950500Y-120282513D01*
X139950500Y-120164108D01*
X139950499Y-120164106D01*
X139916392Y-120036814D01*
X139850500Y-119922686D01*
X139757314Y-119829500D01*
X139757311Y-119829498D01*
X139757310Y-119829497D01*
X139686514Y-119788623D01*
X139643186Y-119763608D01*
X139515892Y-119729500D01*
X139384104Y-119729500D01*
X139275762Y-119758531D01*
X139255797Y-119761159D01*
X139239820Y-119773419D01*
X139142688Y-119829497D01*
X139049496Y-119922689D01*
X138996491Y-120014499D01*
X138983608Y-120036811D01*
X138982888Y-120039500D01*
X138979221Y-120053187D01*
X138976676Y-120062686D01*
X138949500Y-120164104D01*
X138949500Y-120282445D01*
X138949198Y-120287835D01*
X138949372Y-120288609D01*
X138949155Y-120293843D01*
X138948739Y-120297556D01*
X129040000Y-120297556D01*
X129040000Y-117204105D01*
X137729500Y-117204105D01*
X137729500Y-117335895D01*
X137763607Y-117463185D01*
X137773416Y-117480174D01*
X137773418Y-117480177D01*
X137828495Y-117575576D01*
X137829497Y-117577310D01*
X137829498Y-117577311D01*
X137829500Y-117577314D01*
X137922686Y-117670500D01*
X138036814Y-117736392D01*
X138164108Y-117770500D01*
X138295887Y-117770500D01*
X138295892Y-117770500D01*
X138412801Y-117739173D01*
X138423450Y-117736921D01*
X138426045Y-117736248D01*
X138426048Y-117736248D01*
X138852716Y-117579625D01*
X138904061Y-117570500D01*
X148904195Y-117570500D01*
X148942754Y-117575575D01*
X148969553Y-117582756D01*
X149036346Y-117621318D01*
X149036349Y-117621320D01*
X151590880Y-120175851D01*
X151620733Y-120218611D01*
X151811685Y-120631061D01*
X151811931Y-120631487D01*
X151818909Y-120642367D01*
X151874284Y-120738282D01*
X151879497Y-120747310D01*
X151879498Y-120747311D01*
X151879500Y-120747314D01*
X151972686Y-120840500D01*
X151972688Y-120840501D01*
X151972689Y-120840502D01*
X151992660Y-120852032D01*
X152086814Y-120906392D01*
X152214108Y-120940500D01*
X152345892Y-120940500D01*
X152473186Y-120906392D01*
X152587314Y-120840500D01*
X152680500Y-120747314D01*
X152746392Y-120633186D01*
X152780500Y-120505892D01*
X152780500Y-120374108D01*
X152746392Y-120246814D01*
X152680500Y-120132686D01*
X152587314Y-120039500D01*
X152587311Y-120039498D01*
X152587310Y-120039497D01*
X152516514Y-119998623D01*
X152509856Y-119994779D01*
X152482523Y-119978998D01*
X152473363Y-119973039D01*
X152471061Y-119971685D01*
X152058611Y-119780733D01*
X152015851Y-119750880D01*
X149294510Y-117029539D01*
X149293524Y-117028970D01*
X149293521Y-117028968D01*
X149285064Y-117024085D01*
X149225990Y-116989979D01*
X149149562Y-116969500D01*
X149149561Y-116969500D01*
X138904064Y-116969500D01*
X138852719Y-116960374D01*
X138426048Y-116803751D01*
X138426045Y-116803750D01*
X138425574Y-116803625D01*
X138412961Y-116800867D01*
X138295897Y-116769500D01*
X138295892Y-116769500D01*
X138164108Y-116769500D01*
X138164104Y-116769500D01*
X138055762Y-116798531D01*
X138035797Y-116801159D01*
X138019820Y-116813419D01*
X137922688Y-116869497D01*
X137829496Y-116962689D01*
X137763609Y-117076810D01*
X137729500Y-117204105D01*
X129040000Y-117204105D01*
X129040000Y-114995519D01*
X129339500Y-114995519D01*
X129339500Y-115184481D01*
X129369060Y-115371118D01*
X129427453Y-115550832D01*
X129513240Y-115719199D01*
X129624310Y-115872073D01*
X129757927Y-116005690D01*
X129910801Y-116116760D01*
X130079168Y-116202547D01*
X130258882Y-116260940D01*
X130445519Y-116290500D01*
X130445524Y-116290500D01*
X130634476Y-116290500D01*
X130634481Y-116290500D01*
X130821118Y-116260940D01*
X131000832Y-116202547D01*
X131169199Y-116116760D01*
X131322073Y-116005690D01*
X131455690Y-115872073D01*
X131566760Y-115719199D01*
X131652547Y-115550832D01*
X131710940Y-115371118D01*
X131740500Y-115184481D01*
X131740500Y-114995519D01*
X135839500Y-114995519D01*
X135839500Y-115184481D01*
X135869060Y-115371118D01*
X135927453Y-115550832D01*
X136013240Y-115719199D01*
X136124310Y-115872073D01*
X136257927Y-116005690D01*
X136410801Y-116116760D01*
X136579168Y-116202547D01*
X136758882Y-116260940D01*
X136945519Y-116290500D01*
X136945524Y-116290500D01*
X137134476Y-116290500D01*
X137134481Y-116290500D01*
X137321118Y-116260940D01*
X137500832Y-116202547D01*
X137669199Y-116116760D01*
X137822073Y-116005690D01*
X137955690Y-115872073D01*
X138066760Y-115719199D01*
X138152547Y-115550832D01*
X138210940Y-115371118D01*
X138240500Y-115184481D01*
X138240500Y-114995519D01*
X138210940Y-114808882D01*
X138152547Y-114629168D01*
X138066760Y-114460801D01*
X137955690Y-114307927D01*
X137822073Y-114174310D01*
X137669199Y-114063240D01*
X137500832Y-113977453D01*
X137321118Y-113919060D01*
X137134481Y-113889500D01*
X137134476Y-113889500D01*
X136945524Y-113889500D01*
X136945519Y-113889500D01*
X136789988Y-113914133D01*
X136758881Y-113919060D01*
X136758879Y-113919060D01*
X136579194Y-113977443D01*
X136579170Y-113977452D01*
X136579161Y-113977455D01*
X136579128Y-113977472D01*
X136410803Y-114063238D01*
X136410800Y-114063240D01*
X136257943Y-114174298D01*
X136257922Y-114174314D01*
X136124314Y-114307922D01*
X136124298Y-114307943D01*
X136013240Y-114460800D01*
X136013238Y-114460802D01*
X135927461Y-114629149D01*
X135927458Y-114629157D01*
X135927451Y-114629174D01*
X135920522Y-114650499D01*
X135869060Y-114808882D01*
X135839500Y-114995519D01*
X131740500Y-114995519D01*
X131710940Y-114808882D01*
X131652547Y-114629168D01*
X131566760Y-114460801D01*
X131455690Y-114307927D01*
X131322073Y-114174310D01*
X131169199Y-114063240D01*
X131000832Y-113977453D01*
X130821118Y-113919060D01*
X130634481Y-113889500D01*
X130634476Y-113889500D01*
X130445524Y-113889500D01*
X130445519Y-113889500D01*
X130289988Y-113914133D01*
X130258881Y-113919060D01*
X130258879Y-113919060D01*
X130079194Y-113977443D01*
X130079170Y-113977452D01*
X130079161Y-113977455D01*
X130079128Y-113977472D01*
X129910803Y-114063238D01*
X129910800Y-114063240D01*
X129757943Y-114174298D01*
X129757922Y-114174314D01*
X129624314Y-114307922D01*
X129624298Y-114307943D01*
X129513240Y-114460800D01*
X129513238Y-114460802D01*
X129427461Y-114629149D01*
X129427458Y-114629157D01*
X129427451Y-114629174D01*
X129420522Y-114650499D01*
X129369060Y-114808882D01*
X129339500Y-114995519D01*
X129040000Y-114995519D01*
X129040000Y-110495519D01*
X129339500Y-110495519D01*
X129339500Y-110684481D01*
X129369060Y-110871118D01*
X129427453Y-111050832D01*
X129513240Y-111219199D01*
X129624310Y-111372073D01*
X129757927Y-111505690D01*
X129910801Y-111616760D01*
X130079168Y-111702547D01*
X130258882Y-111760940D01*
X130445519Y-111790500D01*
X130445524Y-111790500D01*
X130634476Y-111790500D01*
X130634481Y-111790500D01*
X130821118Y-111760940D01*
X131000832Y-111702547D01*
X131169199Y-111616760D01*
X131322073Y-111505690D01*
X131455690Y-111372073D01*
X131566760Y-111219199D01*
X131652547Y-111050832D01*
X131710940Y-110871118D01*
X131740500Y-110684481D01*
X131740500Y-110495519D01*
X131736767Y-110471950D01*
X135540000Y-110471950D01*
X135540000Y-110708049D01*
X135548265Y-110760233D01*
X135576933Y-110941247D01*
X135576935Y-110941253D01*
X135649885Y-111165769D01*
X135649894Y-111165796D01*
X135649897Y-111165802D01*
X135649898Y-111165805D01*
X135757086Y-111376171D01*
X135757090Y-111376178D01*
X135817340Y-111459105D01*
X136370709Y-110905735D01*
X136437502Y-110867173D01*
X136514630Y-110867173D01*
X136581425Y-110905737D01*
X136594279Y-110920394D01*
X136599887Y-110927704D01*
X136599890Y-110927708D01*
X136599893Y-110927711D01*
X136702294Y-111030112D01*
X136709604Y-111035721D01*
X136756558Y-111096909D01*
X136766627Y-111173377D01*
X136737112Y-111244635D01*
X136724260Y-111259291D01*
X136170893Y-111812657D01*
X136170893Y-111812658D01*
X136253828Y-111872913D01*
X136464194Y-111980101D01*
X136464200Y-111980103D01*
X136464202Y-111980104D01*
X136464229Y-111980113D01*
X136525435Y-112000000D01*
X136688749Y-112053065D01*
X136921951Y-112090000D01*
X137158044Y-112090000D01*
X137158049Y-112090000D01*
X137391250Y-112053065D01*
X137615793Y-111980105D01*
X137615810Y-111980098D01*
X137826167Y-111872916D01*
X137826172Y-111872913D01*
X137909105Y-111812659D01*
X137909105Y-111812658D01*
X137355738Y-111259291D01*
X137317174Y-111192496D01*
X137317174Y-111115368D01*
X137355738Y-111048573D01*
X137370401Y-111035715D01*
X137377699Y-111030115D01*
X137377708Y-111030110D01*
X137480110Y-110927708D01*
X137480115Y-110927699D01*
X137485715Y-110920401D01*
X137546901Y-110873444D01*
X137623368Y-110863370D01*
X137694628Y-110892880D01*
X137709290Y-110905737D01*
X138262658Y-111459105D01*
X138262659Y-111459105D01*
X138322913Y-111376172D01*
X138339961Y-111342715D01*
X140505991Y-111342715D01*
X140505991Y-111990538D01*
X141211160Y-111990538D01*
X141285660Y-112010500D01*
X141340198Y-112065038D01*
X141360160Y-112139538D01*
X141356811Y-112164974D01*
X141357266Y-112165034D01*
X141355992Y-112174708D01*
X141355991Y-112174712D01*
X141355991Y-112306364D01*
X141355992Y-112306368D01*
X141357266Y-112316042D01*
X141355083Y-112316329D01*
X141355082Y-112380107D01*
X141316515Y-112446900D01*
X141249719Y-112485462D01*
X141211160Y-112490538D01*
X140505991Y-112490538D01*
X140505991Y-113138365D01*
X140505994Y-113138403D01*
X140512391Y-113197911D01*
X140512392Y-113197918D01*
X140562630Y-113332608D01*
X140562636Y-113332622D01*
X140562641Y-113332632D01*
X140648800Y-113447725D01*
X140648803Y-113447728D01*
X140763896Y-113533887D01*
X140763906Y-113533892D01*
X140796035Y-113545875D01*
X140841082Y-113577952D01*
X140958116Y-113590533D01*
X140958154Y-113590537D01*
X140958166Y-113590537D01*
X140958168Y-113590538D01*
X141605991Y-113590538D01*
X141605991Y-112885368D01*
X141625953Y-112810868D01*
X141680491Y-112756330D01*
X141754991Y-112736368D01*
X141780427Y-112739718D01*
X141780487Y-112739263D01*
X141790160Y-112740536D01*
X141790165Y-112740538D01*
X141921812Y-112740538D01*
X141921817Y-112740538D01*
X141921821Y-112740536D01*
X141931495Y-112739263D01*
X141931782Y-112741448D01*
X141995538Y-112741440D01*
X142062337Y-112779996D01*
X142100909Y-112846787D01*
X142105991Y-112885368D01*
X142105991Y-113590538D01*
X142753807Y-113590538D01*
X142753814Y-113590538D01*
X142753833Y-113590536D01*
X142813368Y-113584136D01*
X142948075Y-113533892D01*
X142948085Y-113533887D01*
X143063178Y-113447728D01*
X143063181Y-113447725D01*
X143149340Y-113332632D01*
X143149345Y-113332622D01*
X143199589Y-113197915D01*
X143205989Y-113138380D01*
X143205991Y-113138360D01*
X143205991Y-112861229D01*
X143211066Y-112822670D01*
X143214127Y-112811247D01*
X143252690Y-112744455D01*
X143319484Y-112705890D01*
X143396612Y-112705888D01*
X143459903Y-112741061D01*
X143466367Y-112747115D01*
X143488400Y-112773083D01*
X143525039Y-112827916D01*
X143563426Y-112885368D01*
X143580014Y-112910193D01*
X143580017Y-112910196D01*
X143726336Y-113056515D01*
X143898394Y-113171480D01*
X143898399Y-113171482D01*
X143977583Y-113204281D01*
X144089759Y-113250746D01*
X144091968Y-113251447D01*
X144095266Y-113252541D01*
X144095270Y-113252544D01*
X145390664Y-113682545D01*
X145449081Y-113718599D01*
X146320942Y-114590460D01*
X146389465Y-114630022D01*
X146465891Y-114650500D01*
X146545015Y-114650500D01*
X150844195Y-114650500D01*
X150882754Y-114655575D01*
X150909553Y-114662756D01*
X150976346Y-114701318D01*
X150976349Y-114701320D01*
X158111987Y-121836958D01*
X158135664Y-121867815D01*
X158149536Y-121891841D01*
X158169500Y-121966340D01*
X158169500Y-124745445D01*
X158164423Y-124784009D01*
X158160833Y-124797407D01*
X158122269Y-124864202D01*
X158055474Y-124902766D01*
X157978356Y-124902769D01*
X157971349Y-124900892D01*
X157964954Y-124899178D01*
X157929015Y-124884293D01*
X157893189Y-124863609D01*
X157893188Y-124863608D01*
X157893187Y-124863608D01*
X157893181Y-124863606D01*
X157765895Y-124829500D01*
X157765892Y-124829500D01*
X157634108Y-124829500D01*
X157634102Y-124829500D01*
X157517215Y-124860820D01*
X157506492Y-124863091D01*
X157503955Y-124863749D01*
X157077280Y-125020374D01*
X157025935Y-125029500D01*
X153805805Y-125029500D01*
X153767241Y-125024423D01*
X153740445Y-125017243D01*
X153673650Y-124978679D01*
X151769119Y-123074148D01*
X151739266Y-123031388D01*
X151727277Y-123005492D01*
X151548316Y-122618941D01*
X151548056Y-122618493D01*
X151541092Y-122607636D01*
X151480500Y-122502686D01*
X151480498Y-122502684D01*
X151480497Y-122502682D01*
X151387313Y-122409499D01*
X151387310Y-122409497D01*
X151316514Y-122368623D01*
X151273186Y-122343608D01*
X151145892Y-122309500D01*
X151014104Y-122309500D01*
X150897654Y-122340703D01*
X150859089Y-122345780D01*
X150843073Y-122345780D01*
X150768573Y-122325818D01*
X150714035Y-122271280D01*
X150714027Y-122271265D01*
X150711096Y-122266187D01*
X150691142Y-122191702D01*
X150691142Y-121479860D01*
X150700865Y-121426918D01*
X150861372Y-121004667D01*
X150871649Y-120967394D01*
X150871650Y-120967389D01*
X150872421Y-120963973D01*
X150872547Y-120964001D01*
X150873891Y-120957931D01*
X150897435Y-120870066D01*
X150897435Y-120738282D01*
X150863327Y-120610988D01*
X150797435Y-120496860D01*
X150704249Y-120403674D01*
X150704246Y-120403672D01*
X150704245Y-120403671D01*
X150704244Y-120403670D01*
X150609738Y-120349108D01*
X150590121Y-120337782D01*
X150462827Y-120303674D01*
X150359331Y-120303674D01*
X150320768Y-120298597D01*
X150303777Y-120294044D01*
X150236984Y-120255481D01*
X150231729Y-120250226D01*
X150193165Y-120183431D01*
X150193164Y-120183428D01*
X150191391Y-120176812D01*
X150132045Y-120074020D01*
X150132043Y-120074018D01*
X150125502Y-120062689D01*
X150125501Y-120062688D01*
X150125500Y-120062686D01*
X150032314Y-119969500D01*
X150032311Y-119969498D01*
X150032310Y-119969497D01*
X149937051Y-119914500D01*
X149918187Y-119903608D01*
X149790892Y-119869500D01*
X149734649Y-119869500D01*
X149696086Y-119864423D01*
X149679095Y-119859870D01*
X149612302Y-119821307D01*
X149607045Y-119816050D01*
X149568482Y-119749257D01*
X149563977Y-119732443D01*
X149546392Y-119666814D01*
X149498894Y-119584545D01*
X149480502Y-119552689D01*
X149480501Y-119552688D01*
X149480500Y-119552686D01*
X149387314Y-119459500D01*
X149387311Y-119459498D01*
X149387310Y-119459497D01*
X149316514Y-119418623D01*
X149273186Y-119393608D01*
X149145892Y-119359500D01*
X149014104Y-119359500D01*
X148905762Y-119388531D01*
X148885797Y-119391159D01*
X148869820Y-119403419D01*
X148772688Y-119459497D01*
X148679496Y-119552689D01*
X148613616Y-119666798D01*
X148613614Y-119666801D01*
X148613606Y-119666818D01*
X148613604Y-119666822D01*
X148599994Y-119717621D01*
X148599994Y-119717623D01*
X148579500Y-119794105D01*
X148579500Y-119925897D01*
X148610821Y-120042789D01*
X148613090Y-120053503D01*
X148613750Y-120056046D01*
X148741823Y-120404942D01*
X148770374Y-120482720D01*
X148779500Y-120534065D01*
X148779500Y-121114194D01*
X148774423Y-121152758D01*
X148767243Y-121179554D01*
X148728679Y-121246349D01*
X147509542Y-122465485D01*
X147509540Y-122465487D01*
X147509540Y-122465488D01*
X147478467Y-122519309D01*
X147478466Y-122519311D01*
X147469979Y-122534009D01*
X147449500Y-122610438D01*
X147449500Y-128142987D01*
X147469979Y-128219414D01*
X147469980Y-128219416D01*
X147488263Y-128251083D01*
X147488268Y-128251092D01*
X147509535Y-128287931D01*
X147509537Y-128287933D01*
X147509539Y-128287935D01*
X147509540Y-128287936D01*
X154812064Y-135590460D01*
X154812066Y-135590461D01*
X154812067Y-135590462D01*
X154846325Y-135610241D01*
X154880587Y-135630022D01*
X154957013Y-135650500D01*
X154957015Y-135650500D01*
X183191347Y-135650500D01*
X183191352Y-135650500D01*
X183267779Y-135630021D01*
X183336301Y-135590460D01*
X183392250Y-135534511D01*
X186345312Y-132581445D01*
X186388066Y-132551596D01*
X186800522Y-132360643D01*
X186800532Y-132360635D01*
X186800989Y-132360371D01*
X186811805Y-132353431D01*
X186916776Y-132292828D01*
X187009962Y-132199642D01*
X187075854Y-132085514D01*
X187109962Y-131958220D01*
X187109962Y-131826436D01*
X187075854Y-131699142D01*
X187009962Y-131585014D01*
X186916776Y-131491828D01*
X186916773Y-131491826D01*
X186916772Y-131491825D01*
X186916771Y-131491824D01*
X186811658Y-131431138D01*
X186802648Y-131425936D01*
X186675354Y-131391828D01*
X186543566Y-131391828D01*
X186435224Y-131420859D01*
X186415259Y-131423487D01*
X186399282Y-131435747D01*
X186302147Y-131491827D01*
X186208961Y-131585014D01*
X186208954Y-131585023D01*
X186148456Y-131689809D01*
X186142484Y-131698990D01*
X186141147Y-131701262D01*
X185950194Y-132113715D01*
X185920341Y-132156475D01*
X183084830Y-134991988D01*
X183053974Y-135015665D01*
X183029950Y-135029536D01*
X182955450Y-135049500D01*
X182274805Y-135049500D01*
X182236241Y-135044423D01*
X182222843Y-135040833D01*
X182156048Y-135002269D01*
X182117484Y-134935474D01*
X182117475Y-134858381D01*
X182117857Y-134856950D01*
X182118437Y-134854789D01*
X182156981Y-134787989D01*
X183215409Y-133729562D01*
X184234336Y-132710633D01*
X184256916Y-132692104D01*
X184266016Y-132686025D01*
X184283834Y-132668208D01*
X184309403Y-132637050D01*
X184311939Y-132633254D01*
X184323037Y-132612488D01*
X184325387Y-132608262D01*
X184329382Y-132601342D01*
X184349483Y-132566527D01*
X184357523Y-132536519D01*
X184363076Y-132519818D01*
X184371808Y-132497965D01*
X184453814Y-132292719D01*
X184533477Y-132093340D01*
X184534641Y-132090039D01*
X184535853Y-132085515D01*
X184535854Y-132085514D01*
X184569962Y-131958220D01*
X184569962Y-131826436D01*
X184535854Y-131699142D01*
X184469962Y-131585014D01*
X184376776Y-131491828D01*
X184376773Y-131491826D01*
X184376772Y-131491825D01*
X184376771Y-131491824D01*
X184271658Y-131431138D01*
X184262648Y-131425936D01*
X184135354Y-131391828D01*
X184003566Y-131391828D01*
X183895224Y-131420859D01*
X183875259Y-131423487D01*
X183859282Y-131435747D01*
X183762150Y-131491825D01*
X183668958Y-131585017D01*
X183603078Y-131699126D01*
X183603076Y-131699129D01*
X183603069Y-131699143D01*
X183587240Y-131758219D01*
X183568962Y-131826430D01*
X183568962Y-131958222D01*
X183569066Y-131958609D01*
X183570998Y-131965820D01*
X183600680Y-132076594D01*
X183603683Y-132087801D01*
X183605556Y-132093614D01*
X183605706Y-132093991D01*
X183605707Y-132093992D01*
X183674053Y-132265049D01*
X183682129Y-132285260D01*
X183691234Y-132361849D01*
X183660824Y-132432729D01*
X183649124Y-132445903D01*
X181563040Y-134531988D01*
X181532184Y-134555665D01*
X181508160Y-134569536D01*
X181433660Y-134589500D01*
X181064805Y-134589500D01*
X181026241Y-134584423D01*
X181012843Y-134580833D01*
X180946048Y-134542269D01*
X180907484Y-134475474D01*
X180907475Y-134398381D01*
X180907857Y-134396950D01*
X180908437Y-134394789D01*
X180946981Y-134327989D01*
X181445409Y-133829562D01*
X183009922Y-132265049D01*
X183049484Y-132196526D01*
X183069962Y-132120100D01*
X183069962Y-132091388D01*
X183073153Y-132073431D01*
X183072432Y-132064369D01*
X183076154Y-132056545D01*
X183079088Y-132040043D01*
X183100272Y-131982335D01*
X183234961Y-131615413D01*
X183244632Y-131579094D01*
X183244635Y-131579073D01*
X183245360Y-131575751D01*
X183245520Y-131575785D01*
X183247050Y-131568726D01*
X183269962Y-131483220D01*
X183269962Y-131351436D01*
X183235854Y-131224142D01*
X183179910Y-131127245D01*
X183169964Y-131110017D01*
X183169963Y-131110016D01*
X183169962Y-131110014D01*
X183076776Y-131016828D01*
X183076773Y-131016826D01*
X183076772Y-131016825D01*
X183076771Y-131016824D01*
X182975089Y-130958119D01*
X182975087Y-130958118D01*
X182975066Y-130958106D01*
X182962649Y-130950936D01*
X182835354Y-130916828D01*
X182703570Y-130916828D01*
X182703566Y-130916828D01*
X182595224Y-130945859D01*
X182575259Y-130948487D01*
X182559282Y-130960747D01*
X182462150Y-131016825D01*
X182368958Y-131110017D01*
X182303078Y-131224126D01*
X182303074Y-131224132D01*
X182303069Y-131224143D01*
X182302606Y-131225875D01*
X182302601Y-131225882D01*
X182302601Y-131225894D01*
X182268962Y-131351432D01*
X182268962Y-131483222D01*
X182271267Y-131491826D01*
X182292588Y-131571398D01*
X182292982Y-131573054D01*
X182292998Y-131573050D01*
X182303975Y-131615413D01*
X182304014Y-131615560D01*
X182307990Y-131626390D01*
X182406926Y-131895912D01*
X182413859Y-131972728D01*
X182381455Y-132042719D01*
X182372411Y-132052616D01*
X182277141Y-132147886D01*
X182246291Y-132171560D01*
X182237497Y-132176638D01*
X182162998Y-132196605D01*
X182088497Y-132176648D01*
X182033955Y-132122114D01*
X182013988Y-132047615D01*
X182013988Y-132037452D01*
X182019065Y-131998887D01*
X182023500Y-131982335D01*
X182029962Y-131958220D01*
X182029962Y-131826436D01*
X181995854Y-131699142D01*
X181929962Y-131585014D01*
X181836776Y-131491828D01*
X181836773Y-131491826D01*
X181836772Y-131491825D01*
X181836771Y-131491824D01*
X181731658Y-131431138D01*
X181722648Y-131425936D01*
X181595354Y-131391828D01*
X181463566Y-131391828D01*
X181355224Y-131420859D01*
X181335259Y-131423487D01*
X181319282Y-131435747D01*
X181222150Y-131491825D01*
X181128958Y-131585017D01*
X181083357Y-131664000D01*
X181082418Y-131665526D01*
X181082429Y-131665533D01*
X181060172Y-131703369D01*
X181060170Y-131703372D01*
X180870194Y-132113716D01*
X180856834Y-132129726D01*
X180847756Y-132148498D01*
X180840341Y-132156476D01*
X179564830Y-133431988D01*
X179533974Y-133455665D01*
X179509950Y-133469536D01*
X179435450Y-133489500D01*
X178961595Y-133489500D01*
X178923031Y-133484423D01*
X178909633Y-133480833D01*
X178842838Y-133442269D01*
X178804274Y-133375474D01*
X178804265Y-133298381D01*
X178804647Y-133296950D01*
X178805227Y-133294789D01*
X178843771Y-133227989D01*
X179965314Y-132106444D01*
X180008068Y-132076595D01*
X180420522Y-131885643D01*
X180420532Y-131885635D01*
X180420989Y-131885371D01*
X180431805Y-131878431D01*
X180536776Y-131817828D01*
X180629962Y-131724642D01*
X180695854Y-131610514D01*
X180729962Y-131483220D01*
X180729962Y-131351436D01*
X180695854Y-131224142D01*
X180639910Y-131127245D01*
X180629964Y-131110017D01*
X180629963Y-131110016D01*
X180629962Y-131110014D01*
X180536776Y-131016828D01*
X180536773Y-131016826D01*
X180536772Y-131016825D01*
X180536771Y-131016824D01*
X180435089Y-130958119D01*
X180435087Y-130958118D01*
X180435066Y-130958106D01*
X180422649Y-130950936D01*
X180295354Y-130916828D01*
X180163570Y-130916828D01*
X180163566Y-130916828D01*
X180055224Y-130945859D01*
X180035259Y-130948487D01*
X180019282Y-130960747D01*
X179922147Y-131016827D01*
X179828961Y-131110014D01*
X179828954Y-131110023D01*
X179768456Y-131214809D01*
X179762484Y-131223990D01*
X179761147Y-131226262D01*
X179570194Y-131638716D01*
X179540341Y-131681476D01*
X178567552Y-132654265D01*
X178552202Y-132663127D01*
X178536687Y-132677947D01*
X178524674Y-132684882D01*
X178505732Y-132689956D01*
X178500757Y-132692829D01*
X178495010Y-132692829D01*
X178450173Y-132704841D01*
X178375674Y-132684875D01*
X178321139Y-132630335D01*
X178314204Y-132618322D01*
X178299322Y-132582390D01*
X178286005Y-132532689D01*
X178286003Y-132532686D01*
X178276392Y-132496814D01*
X178216355Y-132392827D01*
X178210502Y-132382689D01*
X178210501Y-132382688D01*
X178210500Y-132382686D01*
X178206002Y-132378188D01*
X178206001Y-132378186D01*
X178117312Y-132289498D01*
X178017399Y-132231814D01*
X178017394Y-132231811D01*
X178003190Y-132223609D01*
X177875892Y-132189500D01*
X177744108Y-132189500D01*
X177744102Y-132189500D01*
X177627215Y-132220820D01*
X177616492Y-132223091D01*
X177613955Y-132223749D01*
X177187280Y-132380374D01*
X177135935Y-132389500D01*
X161405805Y-132389500D01*
X161367241Y-132384423D01*
X161360758Y-132382686D01*
X161340445Y-132377243D01*
X161273650Y-132338679D01*
X160862277Y-131927306D01*
X160838597Y-131896445D01*
X160824726Y-131872419D01*
X160804765Y-131797921D01*
X160804765Y-130448327D01*
X160813891Y-130396982D01*
X160970513Y-129970312D01*
X160970514Y-129970304D01*
X160970653Y-129969783D01*
X160973395Y-129957228D01*
X161004765Y-129840157D01*
X161004765Y-129708373D01*
X160970657Y-129581079D01*
X160904765Y-129466951D01*
X160811579Y-129373765D01*
X160811576Y-129373763D01*
X160811575Y-129373762D01*
X160811574Y-129373761D01*
X160712731Y-129316695D01*
X160712726Y-129316692D01*
X160697455Y-129307874D01*
X160570157Y-129273765D01*
X160449794Y-129273765D01*
X160430328Y-129272488D01*
X160428607Y-129272261D01*
X160420702Y-129271219D01*
X160406598Y-129269361D01*
X160335344Y-129239837D01*
X160288399Y-129178641D01*
X160278341Y-129102172D01*
X160302183Y-129038848D01*
X160306255Y-129032755D01*
X160324763Y-129010205D01*
X162725852Y-126609116D01*
X162768606Y-126579267D01*
X163181060Y-126388315D01*
X163181070Y-126388307D01*
X163181527Y-126388043D01*
X163192343Y-126381103D01*
X163297314Y-126320500D01*
X163390500Y-126227314D01*
X163456392Y-126113186D01*
X163490500Y-125985892D01*
X163490500Y-125854108D01*
X163456392Y-125726814D01*
X163390500Y-125612686D01*
X163297314Y-125519500D01*
X163297311Y-125519498D01*
X163297310Y-125519497D01*
X163297309Y-125519496D01*
X163219978Y-125474850D01*
X163219977Y-125474849D01*
X163183190Y-125453609D01*
X163055892Y-125419500D01*
X162924108Y-125419500D01*
X162924104Y-125419500D01*
X162815762Y-125448531D01*
X162795797Y-125451159D01*
X162779820Y-125463419D01*
X162682688Y-125519497D01*
X162589496Y-125612689D01*
X162554020Y-125674138D01*
X162554018Y-125674142D01*
X162528997Y-125717477D01*
X162523020Y-125726665D01*
X162521685Y-125728936D01*
X162330732Y-126141387D01*
X162300879Y-126184147D01*
X161201325Y-127283701D01*
X161170464Y-127307381D01*
X161158450Y-127314317D01*
X161083949Y-127334278D01*
X161009450Y-127314314D01*
X160954914Y-127259777D01*
X160947979Y-127247765D01*
X160933096Y-127211836D01*
X160929173Y-127197194D01*
X160926914Y-127186519D01*
X160926250Y-127183959D01*
X160926248Y-127183955D01*
X160926248Y-127183951D01*
X160763080Y-126739447D01*
X160759040Y-126726696D01*
X160740021Y-126655715D01*
X160700460Y-126587193D01*
X160644511Y-126531244D01*
X160173267Y-126060000D01*
X160143414Y-126017240D01*
X160131425Y-125991344D01*
X159952464Y-125604793D01*
X159952203Y-125604344D01*
X159945240Y-125593487D01*
X159886882Y-125492406D01*
X159885090Y-125489077D01*
X159884806Y-125488695D01*
X159791461Y-125395351D01*
X159791458Y-125395349D01*
X159720662Y-125354475D01*
X159677334Y-125329460D01*
X159550040Y-125295352D01*
X159418252Y-125295352D01*
X159309910Y-125324383D01*
X159289945Y-125327011D01*
X159273968Y-125339271D01*
X159176836Y-125395349D01*
X159083644Y-125488541D01*
X159058345Y-125532362D01*
X159034666Y-125563221D01*
X159027487Y-125570400D01*
X158960692Y-125608964D01*
X158883564Y-125608964D01*
X158816769Y-125570400D01*
X158778205Y-125503605D01*
X158778205Y-125503604D01*
X158775577Y-125493796D01*
X158770500Y-125455233D01*
X158770500Y-121730442D01*
X158770500Y-121730439D01*
X158770499Y-121730435D01*
X158750022Y-121654012D01*
X158710460Y-121585489D01*
X157474077Y-120349106D01*
X160684500Y-120349106D01*
X160684500Y-120480893D01*
X160688779Y-120496863D01*
X160692922Y-120512328D01*
X160692923Y-120512330D01*
X160709944Y-120575852D01*
X160718608Y-120608186D01*
X160740909Y-120646812D01*
X160740910Y-120646814D01*
X160784496Y-120722309D01*
X160784498Y-120722311D01*
X160784498Y-120722312D01*
X160877680Y-120815495D01*
X160877682Y-120815496D01*
X160877686Y-120815500D01*
X160877802Y-120815567D01*
X160896321Y-120828208D01*
X160902721Y-120833323D01*
X160902723Y-120833324D01*
X160902724Y-120833325D01*
X161140407Y-120987699D01*
X161140406Y-120987699D01*
X161270434Y-121072151D01*
X161346393Y-121121486D01*
X161358012Y-121129032D01*
X161382213Y-121148630D01*
X165015447Y-124781864D01*
X165029681Y-124799713D01*
X165029873Y-124799561D01*
X165035086Y-124806098D01*
X165035088Y-124806101D01*
X165041420Y-124812433D01*
X165043068Y-124813534D01*
X165065646Y-124832063D01*
X165073362Y-124839779D01*
X165153286Y-124885923D01*
X165205880Y-124900014D01*
X165230385Y-124908945D01*
X165525475Y-125046832D01*
X165584518Y-125096455D01*
X165610840Y-125168952D01*
X165602270Y-125233167D01*
X165497164Y-125519487D01*
X165462650Y-125573500D01*
X163700029Y-127336122D01*
X163700026Y-127336126D01*
X163666079Y-127394928D01*
X163666070Y-127394944D01*
X163653895Y-127416025D01*
X163653889Y-127416037D01*
X163653887Y-127416040D01*
X163653887Y-127416041D01*
X163630000Y-127505188D01*
X163630000Y-129062983D01*
X163624923Y-129101547D01*
X163617743Y-129128343D01*
X163579179Y-129195138D01*
X162340535Y-130433781D01*
X162310141Y-130457190D01*
X161845331Y-130727789D01*
X161835132Y-130734131D01*
X161834110Y-130734808D01*
X161834111Y-130734809D01*
X161828855Y-130738303D01*
X161813791Y-130748859D01*
X161812701Y-130749488D01*
X161812685Y-130749500D01*
X161719496Y-130842689D01*
X161657001Y-130950937D01*
X161657000Y-130950939D01*
X161653608Y-130956813D01*
X161650930Y-130966810D01*
X161650929Y-130966813D01*
X161633469Y-131031976D01*
X161619500Y-131084106D01*
X161619500Y-131215893D01*
X161619500Y-131215895D01*
X161619501Y-131215898D01*
X161622179Y-131225892D01*
X161653607Y-131343185D01*
X161663416Y-131360174D01*
X161663418Y-131360177D01*
X161707047Y-131435747D01*
X161719497Y-131457310D01*
X161719498Y-131457311D01*
X161719500Y-131457314D01*
X161812686Y-131550500D01*
X161926814Y-131616392D01*
X162054108Y-131650500D01*
X162185892Y-131650500D01*
X162313186Y-131616392D01*
X162427314Y-131550500D01*
X162520500Y-131457314D01*
X162526470Y-131446971D01*
X162532870Y-131440570D01*
X162536236Y-131432165D01*
X162541180Y-131426091D01*
X162542201Y-131424676D01*
X162542210Y-131424667D01*
X162677538Y-131192211D01*
X162732272Y-131137871D01*
X162806843Y-131118178D01*
X162881271Y-131138409D01*
X162935612Y-131193143D01*
X162950229Y-131228613D01*
X162983607Y-131353185D01*
X162993416Y-131370174D01*
X162993418Y-131370177D01*
X163043723Y-131457310D01*
X163049497Y-131467310D01*
X163049498Y-131467311D01*
X163049500Y-131467314D01*
X163142686Y-131560500D01*
X163256814Y-131626392D01*
X163384108Y-131660500D01*
X163515892Y-131660500D01*
X163643186Y-131626392D01*
X163757314Y-131560500D01*
X163850500Y-131467314D01*
X163916392Y-131353186D01*
X163950500Y-131225892D01*
X163950500Y-131165804D01*
X163955576Y-131127245D01*
X163960192Y-131110017D01*
X163962756Y-131100447D01*
X164001317Y-131033653D01*
X165415007Y-129619963D01*
X165665846Y-129369123D01*
X165696695Y-129345452D01*
X165706942Y-129339536D01*
X165781438Y-129319577D01*
X165855938Y-129339540D01*
X165910475Y-129394079D01*
X165930356Y-129463697D01*
X165930646Y-129472547D01*
X165927863Y-129506494D01*
X165922026Y-129535840D01*
X165922026Y-129742774D01*
X165962394Y-129945723D01*
X165962396Y-129945729D01*
X166015334Y-130073535D01*
X166041583Y-130136905D01*
X166156548Y-130308963D01*
X166302871Y-130455286D01*
X166474929Y-130570251D01*
X166474934Y-130570253D01*
X166554118Y-130603052D01*
X166610111Y-130626245D01*
X166666106Y-130649439D01*
X166869061Y-130689809D01*
X167075991Y-130689809D01*
X167278946Y-130649439D01*
X167463379Y-130573043D01*
X167477138Y-130568121D01*
X167477185Y-130568106D01*
X167483680Y-130564635D01*
X167484080Y-130564469D01*
X167494760Y-130553788D01*
X167642181Y-130455286D01*
X167788503Y-130308964D01*
X167903467Y-130136907D01*
X167982656Y-129945729D01*
X168023026Y-129742774D01*
X168023026Y-129535844D01*
X168019109Y-129516154D01*
X168000936Y-129424788D01*
X167982656Y-129332889D01*
X167922624Y-129187959D01*
X167903468Y-129141712D01*
X167788503Y-128969654D01*
X167642180Y-128823331D01*
X167578305Y-128780651D01*
X167470127Y-128708368D01*
X167470117Y-128708363D01*
X167311747Y-128642764D01*
X167311747Y-128642765D01*
X167311745Y-128642764D01*
X167283830Y-128631201D01*
X167279880Y-128629399D01*
X167268438Y-128626697D01*
X167264550Y-128626315D01*
X167075991Y-128588809D01*
X167060785Y-128588809D01*
X166986285Y-128568847D01*
X166931747Y-128514309D01*
X166911785Y-128439809D01*
X166931747Y-128365309D01*
X166981695Y-128313533D01*
X167081404Y-128251083D01*
X167352865Y-128081059D01*
X167374934Y-128069679D01*
X167392543Y-128062384D01*
X167470124Y-128030250D01*
X167642181Y-127915286D01*
X167788503Y-127768964D01*
X167903467Y-127596907D01*
X167982656Y-127405729D01*
X168023026Y-127202774D01*
X168023026Y-126995844D01*
X167982656Y-126792889D01*
X167936268Y-126680900D01*
X167925836Y-126655715D01*
X167903470Y-126601717D01*
X167903468Y-126601712D01*
X167788503Y-126429654D01*
X167642180Y-126283331D01*
X167602557Y-126256856D01*
X167470127Y-126168368D01*
X167470117Y-126168363D01*
X167311747Y-126102764D01*
X167311747Y-126102765D01*
X167311745Y-126102764D01*
X167283837Y-126091205D01*
X167282196Y-126089946D01*
X167268438Y-126086697D01*
X167264550Y-126086315D01*
X167075991Y-126048809D01*
X166869061Y-126048809D01*
X166791145Y-126064307D01*
X166714182Y-126059262D01*
X166650052Y-126016412D01*
X166615940Y-125947238D01*
X166620985Y-125870275D01*
X166663835Y-125806145D01*
X166710731Y-125778297D01*
X166758341Y-125760820D01*
X167279768Y-125569408D01*
X167279778Y-125569401D01*
X167281632Y-125568524D01*
X167288381Y-125565530D01*
X167470124Y-125490250D01*
X167642181Y-125375286D01*
X167788503Y-125228964D01*
X167903467Y-125056907D01*
X167982656Y-124865729D01*
X168023026Y-124662774D01*
X168023026Y-124455844D01*
X167982656Y-124252889D01*
X167906264Y-124068463D01*
X167904287Y-124062938D01*
X167903468Y-124061712D01*
X167788503Y-123889654D01*
X167642180Y-123743331D01*
X167507126Y-123653092D01*
X167477887Y-123627448D01*
X167470089Y-123618557D01*
X167435980Y-123549382D01*
X167441028Y-123472419D01*
X167483880Y-123408292D01*
X167548286Y-123375211D01*
X167556914Y-123373199D01*
X167590744Y-123369309D01*
X167870342Y-123369309D01*
X167870349Y-123369309D01*
X167870368Y-123369307D01*
X167929903Y-123362907D01*
X168064610Y-123312663D01*
X168064620Y-123312658D01*
X168179713Y-123226499D01*
X168179716Y-123226496D01*
X168265875Y-123111403D01*
X168265880Y-123111393D01*
X168316124Y-122976686D01*
X168322524Y-122917151D01*
X168322526Y-122917131D01*
X168322526Y-122269309D01*
X167617357Y-122269309D01*
X167542857Y-122249347D01*
X167488319Y-122194809D01*
X167468357Y-122120309D01*
X167471705Y-122094872D01*
X167471251Y-122094813D01*
X167472524Y-122085139D01*
X167472526Y-122085135D01*
X167472526Y-121953483D01*
X167472524Y-121953479D01*
X167471251Y-121943805D01*
X167473433Y-121943517D01*
X167473435Y-121879740D01*
X167512002Y-121812947D01*
X167578798Y-121774385D01*
X167617357Y-121769309D01*
X168322526Y-121769309D01*
X168322526Y-121121487D01*
X168322525Y-121121472D01*
X168322522Y-121121449D01*
X168317223Y-121072153D01*
X168316124Y-121061931D01*
X168314385Y-121057269D01*
X168265885Y-120927237D01*
X168265878Y-120927220D01*
X168265875Y-120927214D01*
X168179716Y-120812121D01*
X168179713Y-120812118D01*
X168064620Y-120725959D01*
X168064616Y-120725957D01*
X168064613Y-120725955D01*
X168064601Y-120725950D01*
X168032480Y-120713970D01*
X167987437Y-120681895D01*
X167929903Y-120675710D01*
X167929904Y-120675710D01*
X167870368Y-120669310D01*
X167870350Y-120669309D01*
X167870349Y-120669309D01*
X167222526Y-120669309D01*
X167222526Y-121374478D01*
X167202564Y-121448978D01*
X167148026Y-121503516D01*
X167073526Y-121523478D01*
X167048089Y-121520129D01*
X167048030Y-121520584D01*
X167038355Y-121519310D01*
X167038352Y-121519309D01*
X167038348Y-121519309D01*
X166906704Y-121519309D01*
X166906700Y-121519309D01*
X166906696Y-121519310D01*
X166897022Y-121520584D01*
X166896734Y-121518401D01*
X166832957Y-121518400D01*
X166766164Y-121479833D01*
X166727602Y-121413037D01*
X166722526Y-121374478D01*
X166722526Y-120669309D01*
X166074703Y-120669309D01*
X166074698Y-120669309D01*
X166074688Y-120669309D01*
X166074683Y-120669310D01*
X166074677Y-120669310D01*
X166074659Y-120669312D01*
X166015151Y-120675709D01*
X166015144Y-120675710D01*
X165880454Y-120725948D01*
X165880437Y-120725955D01*
X165880428Y-120725961D01*
X165765336Y-120812119D01*
X165679178Y-120927211D01*
X165679172Y-120927220D01*
X165679165Y-120927237D01*
X165628927Y-121061927D01*
X165628926Y-121061934D01*
X165622529Y-121121442D01*
X165622527Y-121121462D01*
X165622527Y-121121466D01*
X165622526Y-121121486D01*
X165622526Y-121769309D01*
X166327695Y-121769309D01*
X166402195Y-121789271D01*
X166456733Y-121843809D01*
X166476695Y-121918309D01*
X166473346Y-121943745D01*
X166473801Y-121943805D01*
X166472527Y-121953479D01*
X166472526Y-121953483D01*
X166472526Y-122085135D01*
X166472527Y-122085139D01*
X166473801Y-122094813D01*
X166471618Y-122095100D01*
X166471617Y-122158878D01*
X166433050Y-122225671D01*
X166366254Y-122264233D01*
X166327695Y-122269309D01*
X165622526Y-122269309D01*
X165622526Y-122917136D01*
X165622529Y-122917174D01*
X165628926Y-122976682D01*
X165628927Y-122976689D01*
X165679165Y-123111379D01*
X165679171Y-123111393D01*
X165679176Y-123111403D01*
X165765335Y-123226496D01*
X165765338Y-123226499D01*
X165880431Y-123312658D01*
X165880441Y-123312663D01*
X165912570Y-123324646D01*
X165957617Y-123356723D01*
X166074651Y-123369304D01*
X166074689Y-123369308D01*
X166074701Y-123369308D01*
X166074703Y-123369309D01*
X166351834Y-123369309D01*
X166390400Y-123374387D01*
X166394311Y-123375435D01*
X166461105Y-123413999D01*
X166499668Y-123480795D01*
X166499667Y-123557923D01*
X166461103Y-123624717D01*
X166418822Y-123654347D01*
X165464177Y-124100425D01*
X165388231Y-124113878D01*
X165315734Y-124087556D01*
X165295741Y-124070794D01*
X162826603Y-121601656D01*
X162802923Y-121570795D01*
X162797846Y-121562001D01*
X162777885Y-121487500D01*
X162797849Y-121413001D01*
X162852387Y-121358464D01*
X162926885Y-121338503D01*
X162938751Y-121338503D01*
X162956958Y-121339620D01*
X162964106Y-121340500D01*
X162964108Y-121340500D01*
X163095892Y-121340500D01*
X163223186Y-121306392D01*
X163337314Y-121240500D01*
X163430500Y-121147314D01*
X163476098Y-121068333D01*
X163477010Y-121066857D01*
X163476997Y-121066850D01*
X163478875Y-121063656D01*
X163478878Y-121063653D01*
X163499293Y-121028946D01*
X163689265Y-120618608D01*
X163719113Y-120575855D01*
X170186962Y-114108008D01*
X170217816Y-114084333D01*
X170241845Y-114070460D01*
X170316343Y-114050500D01*
X181625939Y-114050500D01*
X181677284Y-114059626D01*
X182101906Y-114215497D01*
X182101915Y-114215500D01*
X182109729Y-114217580D01*
X182138232Y-114225170D01*
X182138248Y-114225172D01*
X182141589Y-114225901D01*
X182141555Y-114226055D01*
X182148634Y-114227596D01*
X182234108Y-114250500D01*
X182365892Y-114250500D01*
X182493186Y-114216392D01*
X182607314Y-114150500D01*
X182700500Y-114057314D01*
X182766392Y-113943186D01*
X182800500Y-113815892D01*
X182800500Y-113684108D01*
X182769647Y-113568961D01*
X182769647Y-113491837D01*
X182808211Y-113425042D01*
X182875005Y-113386477D01*
X182952133Y-113386477D01*
X182964894Y-113390519D01*
X183143951Y-113456248D01*
X183143955Y-113456248D01*
X183143959Y-113456250D01*
X183144458Y-113456383D01*
X183157017Y-113459125D01*
X183274108Y-113490500D01*
X183405892Y-113490500D01*
X183533186Y-113456392D01*
X183647314Y-113390500D01*
X183740500Y-113297314D01*
X183806392Y-113183186D01*
X183840500Y-113055892D01*
X183840500Y-112924108D01*
X183806392Y-112796814D01*
X183754228Y-112706463D01*
X183746232Y-112692613D01*
X183742730Y-112686547D01*
X183740942Y-112683225D01*
X183740658Y-112682843D01*
X183647313Y-112589499D01*
X183630439Y-112579757D01*
X183573621Y-112546953D01*
X183573621Y-112546952D01*
X183533189Y-112523609D01*
X183533186Y-112523608D01*
X183405892Y-112489500D01*
X183274102Y-112489500D01*
X183157215Y-112520820D01*
X183146492Y-112523091D01*
X183143955Y-112523749D01*
X182717280Y-112680374D01*
X182665935Y-112689500D01*
X169418966Y-112689500D01*
X169342538Y-112709979D01*
X169342536Y-112709979D01*
X169342536Y-112709980D01*
X169263129Y-112755824D01*
X169261149Y-112760605D01*
X169248303Y-112775253D01*
X169248075Y-112775481D01*
X169217215Y-112799160D01*
X169205203Y-112806095D01*
X169130703Y-112826057D01*
X169056203Y-112806094D01*
X169001666Y-112751556D01*
X169001648Y-112751525D01*
X168999790Y-112748305D01*
X168979846Y-112673837D01*
X168979846Y-112500000D01*
X168274677Y-112500000D01*
X168200177Y-112480038D01*
X168145639Y-112425500D01*
X168125677Y-112351000D01*
X168129025Y-112325563D01*
X168128571Y-112325504D01*
X168129844Y-112315830D01*
X168129846Y-112315826D01*
X168129846Y-112184174D01*
X168129844Y-112184170D01*
X168128571Y-112174496D01*
X168130753Y-112174208D01*
X168130755Y-112110431D01*
X168169322Y-112043638D01*
X168236118Y-112005076D01*
X168274677Y-112000000D01*
X168979846Y-112000000D01*
X168979846Y-111352178D01*
X168979845Y-111352163D01*
X168979842Y-111352140D01*
X168978824Y-111342671D01*
X168973444Y-111292622D01*
X168969913Y-111283156D01*
X168923205Y-111157928D01*
X168923198Y-111157911D01*
X168923195Y-111157905D01*
X168837036Y-111042812D01*
X168837033Y-111042809D01*
X168721940Y-110956650D01*
X168721936Y-110956648D01*
X168721933Y-110956646D01*
X168721921Y-110956641D01*
X168689800Y-110944661D01*
X168644757Y-110912586D01*
X168587223Y-110906401D01*
X168587224Y-110906401D01*
X168527688Y-110900001D01*
X168527670Y-110900000D01*
X168527669Y-110900000D01*
X167879846Y-110900000D01*
X167879846Y-111605169D01*
X167859884Y-111679669D01*
X167805346Y-111734207D01*
X167730846Y-111754169D01*
X167705409Y-111750820D01*
X167705350Y-111751275D01*
X167695675Y-111750001D01*
X167695672Y-111750000D01*
X167695668Y-111750000D01*
X167564024Y-111750000D01*
X167564020Y-111750000D01*
X167564016Y-111750001D01*
X167554342Y-111751275D01*
X167554054Y-111749092D01*
X167490277Y-111749091D01*
X167423484Y-111710524D01*
X167384922Y-111643728D01*
X167379846Y-111605169D01*
X167379846Y-110900000D01*
X166732023Y-110900000D01*
X166732018Y-110900000D01*
X166732008Y-110900000D01*
X166732003Y-110900001D01*
X166731997Y-110900001D01*
X166731979Y-110900003D01*
X166672471Y-110906400D01*
X166672464Y-110906401D01*
X166537774Y-110956639D01*
X166537757Y-110956646D01*
X166537748Y-110956652D01*
X166422656Y-111042810D01*
X166336498Y-111157902D01*
X166336492Y-111157911D01*
X166336485Y-111157928D01*
X166286247Y-111292618D01*
X166286246Y-111292625D01*
X166279849Y-111352133D01*
X166279846Y-111352171D01*
X166279846Y-111629307D01*
X166274767Y-111667878D01*
X166271707Y-111679296D01*
X166233140Y-111746089D01*
X166166343Y-111784650D01*
X166089215Y-111784646D01*
X166025932Y-111749476D01*
X166019467Y-111743421D01*
X165997436Y-111717455D01*
X165905823Y-111580345D01*
X165759500Y-111434022D01*
X165724994Y-111410966D01*
X165587447Y-111319059D01*
X165587437Y-111319054D01*
X165429067Y-111253455D01*
X165429067Y-111253456D01*
X165429065Y-111253455D01*
X165401150Y-111241892D01*
X165397200Y-111240090D01*
X165385758Y-111237388D01*
X165381870Y-111237006D01*
X165193311Y-111199500D01*
X164986381Y-111199500D01*
X164783430Y-111239868D01*
X164783424Y-111239870D01*
X164592257Y-111319053D01*
X164592251Y-111319055D01*
X164592249Y-111319057D01*
X164592246Y-111319058D01*
X164592244Y-111319060D01*
X164420192Y-111434021D01*
X164420187Y-111434025D01*
X164273871Y-111580341D01*
X164273867Y-111580346D01*
X164158906Y-111752398D01*
X164158899Y-111752411D01*
X164079716Y-111943578D01*
X164079714Y-111943584D01*
X164039346Y-112146533D01*
X164039346Y-112353465D01*
X164079714Y-112556414D01*
X164079716Y-112556420D01*
X164158890Y-112747566D01*
X164158903Y-112747596D01*
X164273868Y-112919654D01*
X164420191Y-113065977D01*
X164592249Y-113180942D01*
X164592254Y-113180944D01*
X164671438Y-113213743D01*
X164723265Y-113235210D01*
X164783426Y-113260130D01*
X164986381Y-113300500D01*
X165193311Y-113300500D01*
X165396266Y-113260130D01*
X165587444Y-113180941D01*
X165759501Y-113065977D01*
X165905823Y-112919655D01*
X165996062Y-112784600D01*
X166021702Y-112755363D01*
X166030595Y-112747564D01*
X166099766Y-112713453D01*
X166176729Y-112718498D01*
X166240858Y-112761348D01*
X166273939Y-112825744D01*
X166275951Y-112834370D01*
X166279846Y-112868216D01*
X166279846Y-113147827D01*
X166279849Y-113147865D01*
X166286246Y-113207373D01*
X166286247Y-113207380D01*
X166336485Y-113342070D01*
X166336491Y-113342084D01*
X166336496Y-113342094D01*
X166422655Y-113457187D01*
X166422658Y-113457190D01*
X166537751Y-113543349D01*
X166537761Y-113543354D01*
X166569890Y-113555337D01*
X166614937Y-113587414D01*
X166731971Y-113599995D01*
X166732009Y-113599999D01*
X166732021Y-113599999D01*
X166732023Y-113600000D01*
X167379846Y-113600000D01*
X167379846Y-112894830D01*
X167399808Y-112820330D01*
X167454346Y-112765792D01*
X167528846Y-112745830D01*
X167554282Y-112749180D01*
X167554342Y-112748725D01*
X167564015Y-112749998D01*
X167564020Y-112750000D01*
X167695667Y-112750000D01*
X167695672Y-112750000D01*
X167695676Y-112749998D01*
X167705350Y-112748725D01*
X167705637Y-112750910D01*
X167769393Y-112750902D01*
X167836192Y-112789458D01*
X167874764Y-112856249D01*
X167879846Y-112894830D01*
X167879846Y-113600000D01*
X168044224Y-113600000D01*
X168082779Y-113605074D01*
X168096180Y-113608665D01*
X168162975Y-113647225D01*
X168201542Y-113714018D01*
X168201551Y-113791128D01*
X168200590Y-113794717D01*
X168162037Y-113861519D01*
X168162019Y-113861537D01*
X165254057Y-116769500D01*
X162906739Y-119116816D01*
X162863979Y-119146669D01*
X162451533Y-119337619D01*
X162451095Y-119337873D01*
X162440238Y-119344836D01*
X162335285Y-119405430D01*
X162335279Y-119405435D01*
X162242090Y-119498623D01*
X162176202Y-119612746D01*
X162142093Y-119740041D01*
X162142093Y-119871831D01*
X162176200Y-119999121D01*
X162186009Y-120016110D01*
X162186011Y-120016113D01*
X162242089Y-120113245D01*
X162242091Y-120113247D01*
X162242091Y-120113248D01*
X162332063Y-120203221D01*
X162332065Y-120203222D01*
X162335279Y-120206436D01*
X162335281Y-120206437D01*
X162335282Y-120206438D01*
X162374662Y-120229174D01*
X162449407Y-120272328D01*
X162461518Y-120275573D01*
X162461522Y-120275575D01*
X162530151Y-120293963D01*
X162566083Y-120308845D01*
X162570768Y-120311549D01*
X162579954Y-120316853D01*
X162634493Y-120371387D01*
X162654459Y-120445886D01*
X162654459Y-120446782D01*
X162639093Y-120512684D01*
X162629799Y-120531530D01*
X162626284Y-120538103D01*
X162626230Y-120538320D01*
X162626094Y-120538459D01*
X162625203Y-120540127D01*
X162563612Y-120646805D01*
X162563607Y-120646815D01*
X162547778Y-120705891D01*
X162529500Y-120774102D01*
X162529500Y-120905894D01*
X162530222Y-120911379D01*
X162531496Y-120930825D01*
X162531496Y-120943115D01*
X162511534Y-121017615D01*
X162456996Y-121072153D01*
X162382496Y-121092115D01*
X162307997Y-121072153D01*
X162299196Y-121067071D01*
X162268344Y-121043397D01*
X161885359Y-120660412D01*
X161858066Y-120622909D01*
X161833995Y-120575852D01*
X161651133Y-120218371D01*
X161632862Y-120189478D01*
X161629759Y-120184345D01*
X161599935Y-120132688D01*
X161599934Y-120132686D01*
X161587726Y-120111542D01*
X161585937Y-120108217D01*
X161585662Y-120107847D01*
X161492312Y-120014498D01*
X161414367Y-119969497D01*
X161414365Y-119969495D01*
X161378189Y-119948609D01*
X161378186Y-119948608D01*
X161250892Y-119914500D01*
X161119104Y-119914500D01*
X161010762Y-119943531D01*
X160990797Y-119946159D01*
X160974820Y-119958419D01*
X160877688Y-120014497D01*
X160784497Y-120107688D01*
X160727484Y-120206439D01*
X160718609Y-120221810D01*
X160718608Y-120221814D01*
X160708242Y-120260500D01*
X160699699Y-120292379D01*
X160685039Y-120347091D01*
X160685039Y-120347093D01*
X160684500Y-120349106D01*
X157474077Y-120349106D01*
X151234511Y-114109540D01*
X151165989Y-114069979D01*
X151089562Y-114049500D01*
X146711258Y-114049500D01*
X146672694Y-114044423D01*
X146645898Y-114037243D01*
X146579103Y-113998679D01*
X145874052Y-113293628D01*
X145837998Y-113235210D01*
X145830872Y-113213743D01*
X145473475Y-112137072D01*
X145885491Y-112137072D01*
X145885491Y-112344003D01*
X145921216Y-112523609D01*
X145925860Y-112546955D01*
X145925862Y-112546961D01*
X145939445Y-112579755D01*
X146005045Y-112738129D01*
X146005050Y-112738139D01*
X146087297Y-112861229D01*
X146120013Y-112910192D01*
X146266336Y-113056515D01*
X146438394Y-113171480D01*
X146438399Y-113171482D01*
X146517583Y-113204281D01*
X146540427Y-113213743D01*
X146629571Y-113250668D01*
X146832526Y-113291038D01*
X147039456Y-113291038D01*
X147242411Y-113250668D01*
X147433589Y-113171479D01*
X147605646Y-113056515D01*
X147751968Y-112910193D01*
X147866932Y-112738136D01*
X147946121Y-112546958D01*
X147986491Y-112344003D01*
X147986491Y-112146533D01*
X158959346Y-112146533D01*
X158959346Y-112353465D01*
X158999714Y-112556414D01*
X158999716Y-112556420D01*
X159078890Y-112747566D01*
X159078903Y-112747596D01*
X159193868Y-112919654D01*
X159340191Y-113065977D01*
X159512249Y-113180942D01*
X159512254Y-113180944D01*
X159591438Y-113213743D01*
X159643265Y-113235210D01*
X159703426Y-113260130D01*
X159906381Y-113300500D01*
X160113311Y-113300500D01*
X160316266Y-113260130D01*
X160507444Y-113180941D01*
X160679501Y-113065977D01*
X160825823Y-112919655D01*
X160940787Y-112747598D01*
X160943335Y-112741448D01*
X160952841Y-112718498D01*
X161019976Y-112556420D01*
X161060346Y-112353465D01*
X161060346Y-112146535D01*
X161060346Y-112146533D01*
X161499346Y-112146533D01*
X161499346Y-112353465D01*
X161539714Y-112556414D01*
X161539716Y-112556420D01*
X161618890Y-112747566D01*
X161618903Y-112747596D01*
X161733868Y-112919654D01*
X161880191Y-113065977D01*
X162052249Y-113180942D01*
X162052254Y-113180944D01*
X162131438Y-113213743D01*
X162183265Y-113235210D01*
X162243426Y-113260130D01*
X162446381Y-113300500D01*
X162653311Y-113300500D01*
X162856266Y-113260130D01*
X163047444Y-113180941D01*
X163219501Y-113065977D01*
X163365823Y-112919655D01*
X163480787Y-112747598D01*
X163483335Y-112741448D01*
X163492841Y-112718498D01*
X163559976Y-112556420D01*
X163600346Y-112353465D01*
X163600346Y-112146535D01*
X163559976Y-111943580D01*
X163513588Y-111831591D01*
X163507539Y-111816988D01*
X163480790Y-111752408D01*
X163480788Y-111752403D01*
X163365823Y-111580345D01*
X163219500Y-111434022D01*
X163184994Y-111410966D01*
X163047447Y-111319059D01*
X163047437Y-111319054D01*
X162889067Y-111253455D01*
X162889067Y-111253456D01*
X162889065Y-111253455D01*
X162861150Y-111241892D01*
X162857200Y-111240090D01*
X162845758Y-111237388D01*
X162841870Y-111237006D01*
X162653311Y-111199500D01*
X162446381Y-111199500D01*
X162243430Y-111239868D01*
X162243424Y-111239870D01*
X162052257Y-111319053D01*
X162052251Y-111319055D01*
X162052249Y-111319057D01*
X162052246Y-111319058D01*
X162052244Y-111319060D01*
X161880192Y-111434021D01*
X161880187Y-111434025D01*
X161733871Y-111580341D01*
X161733867Y-111580346D01*
X161618906Y-111752398D01*
X161618899Y-111752411D01*
X161539716Y-111943578D01*
X161539714Y-111943584D01*
X161499346Y-112146533D01*
X161060346Y-112146533D01*
X161019976Y-111943580D01*
X160973588Y-111831591D01*
X160967539Y-111816988D01*
X160940790Y-111752408D01*
X160940788Y-111752403D01*
X160825823Y-111580345D01*
X160679500Y-111434022D01*
X160644994Y-111410966D01*
X160507447Y-111319059D01*
X160507437Y-111319054D01*
X160349067Y-111253455D01*
X160349067Y-111253456D01*
X160349065Y-111253455D01*
X160321150Y-111241892D01*
X160317200Y-111240090D01*
X160305758Y-111237388D01*
X160301870Y-111237006D01*
X160113311Y-111199500D01*
X159906381Y-111199500D01*
X159703430Y-111239868D01*
X159703424Y-111239870D01*
X159512257Y-111319053D01*
X159512251Y-111319055D01*
X159512249Y-111319057D01*
X159512246Y-111319058D01*
X159512244Y-111319060D01*
X159340192Y-111434021D01*
X159340187Y-111434025D01*
X159193871Y-111580341D01*
X159193867Y-111580346D01*
X159078906Y-111752398D01*
X159078899Y-111752411D01*
X158999716Y-111943578D01*
X158999714Y-111943584D01*
X158959346Y-112146533D01*
X147986491Y-112146533D01*
X147986491Y-112137073D01*
X147946121Y-111934118D01*
X147881439Y-111777962D01*
X147866933Y-111742941D01*
X147751968Y-111570883D01*
X147605645Y-111424560D01*
X147433587Y-111309595D01*
X147433580Y-111309592D01*
X147433578Y-111309591D01*
X147265252Y-111239869D01*
X147265248Y-111239866D01*
X147265248Y-111239867D01*
X147247295Y-111232430D01*
X147243347Y-111230628D01*
X147231903Y-111227926D01*
X147228015Y-111227544D01*
X147039456Y-111190038D01*
X146832526Y-111190038D01*
X146629575Y-111230406D01*
X146629569Y-111230408D01*
X146438402Y-111309591D01*
X146438396Y-111309593D01*
X146438394Y-111309595D01*
X146438391Y-111309596D01*
X146438389Y-111309598D01*
X146266337Y-111424559D01*
X146266332Y-111424563D01*
X146120016Y-111570879D01*
X146120012Y-111570884D01*
X146005051Y-111742936D01*
X146005044Y-111742949D01*
X145925861Y-111934116D01*
X145925859Y-111934122D01*
X145899819Y-112065038D01*
X145885491Y-112137072D01*
X145473475Y-112137072D01*
X145407997Y-111939817D01*
X145407996Y-111939815D01*
X145406897Y-111936504D01*
X145406199Y-111934307D01*
X145341439Y-111777962D01*
X145330385Y-111751275D01*
X145326933Y-111742941D01*
X145211968Y-111570883D01*
X145065645Y-111424560D01*
X144893587Y-111309595D01*
X144893580Y-111309592D01*
X144893578Y-111309591D01*
X144725252Y-111239869D01*
X144725248Y-111239866D01*
X144725248Y-111239867D01*
X144707295Y-111232430D01*
X144703347Y-111230628D01*
X144691903Y-111227926D01*
X144688015Y-111227544D01*
X144499456Y-111190038D01*
X144292526Y-111190038D01*
X144089575Y-111230406D01*
X144089569Y-111230408D01*
X143898402Y-111309591D01*
X143898396Y-111309593D01*
X143898394Y-111309595D01*
X143898391Y-111309596D01*
X143898389Y-111309598D01*
X143726337Y-111424559D01*
X143726332Y-111424563D01*
X143580015Y-111570881D01*
X143580008Y-111570888D01*
X143489776Y-111705933D01*
X143464124Y-111735181D01*
X143459417Y-111739310D01*
X143455238Y-111742975D01*
X143386062Y-111777084D01*
X143309099Y-111772035D01*
X143244972Y-111729181D01*
X143211893Y-111664775D01*
X143209882Y-111656149D01*
X143205991Y-111622319D01*
X143205991Y-111342716D01*
X143205990Y-111342701D01*
X143205979Y-111342591D01*
X143199589Y-111283163D01*
X143199588Y-111283156D01*
X143149350Y-111148466D01*
X143149343Y-111148449D01*
X143149340Y-111148443D01*
X143063181Y-111033350D01*
X143063178Y-111033347D01*
X142948085Y-110947188D01*
X142948081Y-110947186D01*
X142948078Y-110947184D01*
X142948066Y-110947179D01*
X142915945Y-110935199D01*
X142870902Y-110903124D01*
X142813368Y-110896939D01*
X142813369Y-110896939D01*
X142753833Y-110890539D01*
X142753815Y-110890538D01*
X142753814Y-110890538D01*
X142105991Y-110890538D01*
X142105991Y-111595707D01*
X142086029Y-111670207D01*
X142031491Y-111724745D01*
X141956991Y-111744707D01*
X141931554Y-111741358D01*
X141931495Y-111741813D01*
X141921820Y-111740539D01*
X141921817Y-111740538D01*
X141921813Y-111740538D01*
X141790169Y-111740538D01*
X141790165Y-111740538D01*
X141790161Y-111740539D01*
X141780487Y-111741813D01*
X141780199Y-111739630D01*
X141716422Y-111739629D01*
X141649629Y-111701062D01*
X141611067Y-111634266D01*
X141605991Y-111595707D01*
X141605991Y-110890538D01*
X140958168Y-110890538D01*
X140958163Y-110890538D01*
X140958153Y-110890538D01*
X140958148Y-110890539D01*
X140958142Y-110890539D01*
X140958124Y-110890541D01*
X140898616Y-110896938D01*
X140898609Y-110896939D01*
X140763919Y-110947177D01*
X140763902Y-110947184D01*
X140763893Y-110947190D01*
X140648801Y-111033348D01*
X140562643Y-111148440D01*
X140562637Y-111148449D01*
X140562630Y-111148466D01*
X140512392Y-111283156D01*
X140512391Y-111283163D01*
X140505994Y-111342671D01*
X140505992Y-111342691D01*
X140505992Y-111342695D01*
X140505991Y-111342715D01*
X138339961Y-111342715D01*
X138376464Y-111271075D01*
X138376465Y-111271073D01*
X138430098Y-111165811D01*
X138430105Y-111165793D01*
X138503065Y-110941250D01*
X138540000Y-110708049D01*
X138540000Y-110471950D01*
X138503065Y-110238749D01*
X138446489Y-110064630D01*
X138430113Y-110014229D01*
X138430104Y-110014202D01*
X138430103Y-110014200D01*
X138430101Y-110014194D01*
X138328236Y-109814276D01*
X138325228Y-109807014D01*
X138322913Y-109803827D01*
X138262658Y-109720893D01*
X138262657Y-109720893D01*
X137709290Y-110274260D01*
X137642495Y-110312824D01*
X137565367Y-110312824D01*
X137498572Y-110274260D01*
X137485716Y-110259599D01*
X137480109Y-110252291D01*
X137377711Y-110149893D01*
X137377708Y-110149890D01*
X137377704Y-110149887D01*
X137370394Y-110144279D01*
X137323440Y-110083090D01*
X137313370Y-110006622D01*
X137342883Y-109935364D01*
X137355729Y-109920715D01*
X137909105Y-109367340D01*
X137909105Y-109367339D01*
X137826178Y-109307090D01*
X137826171Y-109307086D01*
X137826168Y-109307084D01*
X137826165Y-109307083D01*
X137615805Y-109199898D01*
X137615802Y-109199897D01*
X137615796Y-109199894D01*
X137615769Y-109199885D01*
X137391253Y-109126935D01*
X137391247Y-109126933D01*
X137298291Y-109112211D01*
X137158049Y-109090000D01*
X137158044Y-109090000D01*
X136921955Y-109090000D01*
X136921951Y-109090000D01*
X136774219Y-109113397D01*
X136688753Y-109126933D01*
X136688745Y-109126935D01*
X136464229Y-109199885D01*
X136464202Y-109199894D01*
X136464196Y-109199897D01*
X136253832Y-109307083D01*
X136253828Y-109307086D01*
X136253823Y-109307089D01*
X136170893Y-109367339D01*
X136724261Y-109920707D01*
X136762825Y-109987502D01*
X136762825Y-110064630D01*
X136724261Y-110131425D01*
X136709611Y-110144273D01*
X136702294Y-110149887D01*
X136599887Y-110252294D01*
X136594273Y-110259611D01*
X136533081Y-110306562D01*
X136456613Y-110316627D01*
X136385357Y-110287109D01*
X136370707Y-110274261D01*
X135817339Y-109720893D01*
X135757088Y-109803825D01*
X135757083Y-109803832D01*
X135649897Y-110014196D01*
X135649894Y-110014202D01*
X135649885Y-110014229D01*
X135576935Y-110238745D01*
X135576933Y-110238751D01*
X135565826Y-110308882D01*
X135540000Y-110471950D01*
X131736767Y-110471950D01*
X131710940Y-110308882D01*
X131652547Y-110129168D01*
X131566760Y-109960801D01*
X131455690Y-109807927D01*
X131322073Y-109674310D01*
X131281156Y-109644582D01*
X131169200Y-109563240D01*
X131167183Y-109562213D01*
X131167170Y-109562205D01*
X131084558Y-109520113D01*
X131009517Y-109481878D01*
X131005751Y-109479639D01*
X131000840Y-109477455D01*
X130884295Y-109439587D01*
X130821118Y-109419060D01*
X130634481Y-109389500D01*
X130634476Y-109389500D01*
X130445524Y-109389500D01*
X130445519Y-109389500D01*
X130289988Y-109414133D01*
X130258881Y-109419060D01*
X130258879Y-109419060D01*
X130079194Y-109477443D01*
X130079170Y-109477452D01*
X130079161Y-109477455D01*
X130079128Y-109477472D01*
X129910803Y-109563238D01*
X129910800Y-109563240D01*
X129757943Y-109674298D01*
X129757922Y-109674314D01*
X129624314Y-109807922D01*
X129624298Y-109807943D01*
X129513240Y-109960800D01*
X129513238Y-109960803D01*
X129427472Y-110129128D01*
X129427455Y-110129161D01*
X129427452Y-110129170D01*
X129427443Y-110129194D01*
X129369060Y-110308879D01*
X129369060Y-110308881D01*
X129369060Y-110308882D01*
X129339500Y-110495519D01*
X129040000Y-110495519D01*
X129040000Y-108818616D01*
X129045076Y-108780056D01*
X129049221Y-108764585D01*
X129087783Y-108697789D01*
X129154575Y-108659223D01*
X129170056Y-108655076D01*
X129208616Y-108650000D01*
X200971384Y-108650000D01*
X201009947Y-108655077D01*
G37*
%TD.AperFunction*%
%TD*%
%TA.AperFunction,Conductor*%
%TO.N,+3.3V*%
G36*
X166577089Y-123819374D02*
G01*
X166974603Y-124553739D01*
X166975528Y-124562646D01*
X166974603Y-124564879D01*
X166577089Y-125299243D01*
X166570137Y-125304887D01*
X166561847Y-125304273D01*
X165288562Y-124709303D01*
X165186730Y-124667123D01*
X165180398Y-124660791D01*
X165180398Y-124651837D01*
X165182931Y-124648044D01*
X165271667Y-124559309D01*
X165382684Y-124448291D01*
X165382683Y-124448290D01*
X165313113Y-124419473D01*
X165306781Y-124413141D01*
X165306781Y-124404187D01*
X165312635Y-124398065D01*
X166561849Y-123814343D01*
X166570793Y-123813946D01*
X166577089Y-123819374D01*
G37*
%TD.AperFunction*%
%TD*%
%TA.AperFunction,Conductor*%
%TO.N,~{NRST}*%
G36*
X181260437Y-131781627D02*
G01*
X181264616Y-131782467D01*
X181525186Y-131887077D01*
X181529007Y-131889569D01*
X181531994Y-131892492D01*
X181534669Y-131896495D01*
X181639261Y-132157024D01*
X181640102Y-132161509D01*
X181640081Y-132163465D01*
X181636779Y-132171487D01*
X181635698Y-132172601D01*
X181632217Y-132175070D01*
X181187249Y-132381077D01*
X181182809Y-132382150D01*
X181179864Y-132382270D01*
X181173135Y-132380469D01*
X181173067Y-132380426D01*
X181171047Y-132378810D01*
X181043723Y-132251486D01*
X181041187Y-132247691D01*
X181040057Y-132244964D01*
X181039414Y-132238103D01*
X181039419Y-132238078D01*
X181039430Y-132238025D01*
X181040263Y-132235510D01*
X181246655Y-131789708D01*
X181249338Y-131786027D01*
X181250784Y-131784696D01*
X181258878Y-131781604D01*
X181260437Y-131781627D01*
G37*
%TD.AperFunction*%
%TD*%
%TA.AperFunction,Conductor*%
%TO.N,TXEN*%
G36*
X163386325Y-120351857D02*
G01*
X163386394Y-120351901D01*
X163388413Y-120353516D01*
X163515737Y-120480840D01*
X163518273Y-120484635D01*
X163519401Y-120487358D01*
X163519992Y-120494467D01*
X163519974Y-120494545D01*
X163519191Y-120496829D01*
X163312809Y-120942610D01*
X163310118Y-120946302D01*
X163308677Y-120947629D01*
X163300578Y-120950721D01*
X163299026Y-120950698D01*
X163294840Y-120949857D01*
X163034275Y-120845250D01*
X163030452Y-120842756D01*
X163027465Y-120839833D01*
X163024793Y-120835833D01*
X162920198Y-120575300D01*
X162919358Y-120570817D01*
X162919379Y-120568857D01*
X162922679Y-120560842D01*
X162923766Y-120559721D01*
X162927239Y-120557259D01*
X163369262Y-120352616D01*
X163372215Y-120351249D01*
X163376652Y-120350176D01*
X163379595Y-120350056D01*
X163386325Y-120351857D01*
G37*
%TD.AperFunction*%
%TD*%
%TA.AperFunction,Conductor*%
%TO.N,BUSY*%
G36*
X179962605Y-131306660D02*
G01*
X180227346Y-131412944D01*
X180233747Y-131419207D01*
X180233845Y-131419443D01*
X180340128Y-131684183D01*
X180340030Y-131693137D01*
X180334186Y-131699159D01*
X179885137Y-131907055D01*
X179876189Y-131907421D01*
X179871948Y-131904711D01*
X179742078Y-131774841D01*
X179738651Y-131766568D01*
X179739732Y-131761657D01*
X179947632Y-131312600D01*
X179954215Y-131306536D01*
X179962605Y-131306660D01*
G37*
%TD.AperFunction*%
%TD*%
%TA.AperFunction,Conductor*%
%TO.N,+3.3V*%
G36*
X162442754Y-130627856D02*
G01*
X162642143Y-130827245D01*
X162645570Y-130835518D01*
X162643981Y-130841405D01*
X162364614Y-131321276D01*
X162357490Y-131326701D01*
X162348616Y-131325500D01*
X162347490Y-131324754D01*
X162118819Y-131153526D01*
X162116473Y-131151180D01*
X161945244Y-130922507D01*
X161943029Y-130913832D01*
X161947597Y-130906131D01*
X161948713Y-130905391D01*
X162428597Y-130626017D01*
X162437468Y-130624817D01*
X162442754Y-130627856D01*
G37*
%TD.AperFunction*%
%TD*%
%TA.AperFunction,Conductor*%
%TO.N,/~{RST}*%
G36*
X138819765Y-117167185D02*
G01*
X138826350Y-117173252D01*
X138827433Y-117178168D01*
X138827433Y-117361831D01*
X138824006Y-117370104D01*
X138819765Y-117372814D01*
X138355233Y-117543335D01*
X138346285Y-117542969D01*
X138340441Y-117536947D01*
X138269185Y-117370104D01*
X138228394Y-117274593D01*
X138228297Y-117265641D01*
X138228395Y-117265405D01*
X138340442Y-117003050D01*
X138346842Y-116996789D01*
X138355233Y-116996664D01*
X138819765Y-117167185D01*
G37*
%TD.AperFunction*%
%TD*%
%TA.AperFunction,Conductor*%
%TO.N,DIO1*%
G36*
X145563714Y-134177030D02*
G01*
X145569558Y-134183052D01*
X145681604Y-134445405D01*
X145681702Y-134454359D01*
X145681604Y-134454595D01*
X145569558Y-134716947D01*
X145563157Y-134723210D01*
X145554766Y-134723335D01*
X145090235Y-134552814D01*
X145083650Y-134546747D01*
X145082567Y-134541831D01*
X145082567Y-134358168D01*
X145085994Y-134349895D01*
X145090234Y-134347185D01*
X145554766Y-134176664D01*
X145563714Y-134177030D01*
G37*
%TD.AperFunction*%
%TD*%
%TA.AperFunction,Conductor*%
%TO.N,/J_BOOT0*%
G36*
X145207428Y-111997955D02*
G01*
X145212962Y-112004558D01*
X145663614Y-113362161D01*
X145662968Y-113371092D01*
X145660783Y-113374120D01*
X145529573Y-113505330D01*
X145521300Y-113508757D01*
X145517614Y-113508161D01*
X144160011Y-113057509D01*
X144153239Y-113051650D01*
X144152483Y-113043069D01*
X144390583Y-112243005D01*
X144396227Y-112236055D01*
X144398455Y-112235131D01*
X145198522Y-111997030D01*
X145207428Y-111997955D01*
G37*
%TD.AperFunction*%
%TD*%
%TA.AperFunction,Conductor*%
%TO.N,SWCLK*%
G36*
X162723143Y-125809332D02*
G01*
X162987884Y-125915616D01*
X162994285Y-125921879D01*
X162994383Y-125922115D01*
X163100666Y-126186855D01*
X163100568Y-126195809D01*
X163094724Y-126201831D01*
X162645675Y-126409727D01*
X162636727Y-126410093D01*
X162632486Y-126407383D01*
X162502616Y-126277513D01*
X162499189Y-126269240D01*
X162500270Y-126264329D01*
X162708170Y-125815272D01*
X162714753Y-125809208D01*
X162723143Y-125809332D01*
G37*
%TD.AperFunction*%
%TD*%
%TA.AperFunction,Conductor*%
%TO.N,DIO1*%
G36*
X144859853Y-129316043D02*
G01*
X145122878Y-129420631D01*
X145129300Y-129426872D01*
X145129398Y-129427109D01*
X145237376Y-129693564D01*
X145237308Y-129702518D01*
X145231400Y-129708598D01*
X144780653Y-129914777D01*
X144771704Y-129915102D01*
X144767513Y-129912410D01*
X144637645Y-129782542D01*
X144634218Y-129774269D01*
X144635322Y-129769308D01*
X144844937Y-129321950D01*
X144851550Y-129315914D01*
X144859853Y-129316043D01*
G37*
%TD.AperFunction*%
%TD*%
%TA.AperFunction,Conductor*%
%TO.N,VRF*%
G36*
X139697525Y-122595994D02*
G01*
X139700910Y-122603277D01*
X139746498Y-123139840D01*
X139743784Y-123148373D01*
X139736504Y-123152411D01*
X139451664Y-123193327D01*
X139448336Y-123193327D01*
X139163495Y-123152411D01*
X139155794Y-123147843D01*
X139153501Y-123139841D01*
X139199090Y-122603275D01*
X139203205Y-122595323D01*
X139210748Y-122592567D01*
X139689252Y-122592567D01*
X139697525Y-122595994D01*
G37*
%TD.AperFunction*%
%TD*%
%TA.AperFunction,Conductor*%
%TO.N,+3.3V*%
G36*
X161464461Y-120307570D02*
G01*
X161465598Y-120308595D01*
X161468180Y-120311957D01*
X161688210Y-120742098D01*
X161689456Y-120746488D01*
X161689682Y-120749299D01*
X161687994Y-120756353D01*
X161687845Y-120756596D01*
X161686144Y-120758753D01*
X161489360Y-120955537D01*
X161485564Y-120958074D01*
X161483270Y-120959024D01*
X161475470Y-120959432D01*
X161474697Y-120959203D01*
X161471647Y-120957797D01*
X161252341Y-120815359D01*
X161014655Y-120660983D01*
X161011383Y-120657794D01*
X161010375Y-120656326D01*
X161008515Y-120647575D01*
X161008789Y-120646094D01*
X161010821Y-120641359D01*
X161159352Y-120436647D01*
X161161459Y-120434427D01*
X161163792Y-120432541D01*
X161166404Y-120430947D01*
X161449926Y-120305604D01*
X161454379Y-120304609D01*
X161456354Y-120304563D01*
X161464461Y-120307570D01*
G37*
%TD.AperFunction*%
%TD*%
%TA.AperFunction,Conductor*%
%TO.N,+3.3V*%
G36*
X166970056Y-124553901D02*
G01*
X166977008Y-124559545D01*
X166977933Y-124561778D01*
X167216133Y-125362175D01*
X167215208Y-125371082D01*
X167208951Y-125376495D01*
X165886423Y-125861985D01*
X165877476Y-125861619D01*
X165874118Y-125859275D01*
X165672559Y-125657716D01*
X165669132Y-125649443D01*
X165669848Y-125645414D01*
X166155340Y-124322881D01*
X166161407Y-124316298D01*
X166169658Y-124315701D01*
X166970056Y-124553901D01*
G37*
%TD.AperFunction*%
%TD*%
%TA.AperFunction,Conductor*%
%TO.N,~{NRST}*%
G36*
X149731625Y-120369262D02*
G01*
X149935585Y-120456370D01*
X149988874Y-120479129D01*
X149992643Y-120481708D01*
X149993890Y-120482983D01*
X149997225Y-120491289D01*
X149997212Y-120492502D01*
X149995645Y-120498227D01*
X149930541Y-120610987D01*
X149930539Y-120610991D01*
X149896435Y-120738276D01*
X149896435Y-120769720D01*
X149896254Y-120771765D01*
X149895968Y-120773373D01*
X149895898Y-120773770D01*
X149895362Y-120775750D01*
X149828617Y-120957579D01*
X149826238Y-120961476D01*
X149824240Y-120963644D01*
X149818299Y-120967108D01*
X149818222Y-120967126D01*
X149815559Y-120967433D01*
X149635495Y-120967433D01*
X149631017Y-120966542D01*
X149628294Y-120965414D01*
X149622908Y-120960897D01*
X149622860Y-120960822D01*
X149621747Y-120958572D01*
X149552801Y-120770751D01*
X149452465Y-120497417D01*
X149451759Y-120492908D01*
X149451839Y-120490951D01*
X149455380Y-120483032D01*
X149456494Y-120481951D01*
X149460047Y-120479589D01*
X149461124Y-120479129D01*
X149718270Y-120369306D01*
X149722731Y-120368368D01*
X149726906Y-120368323D01*
X149731625Y-120369262D01*
G37*
%TD.AperFunction*%
%TD*%
%TA.AperFunction,Conductor*%
%TO.N,SP1_MOSI*%
G36*
X148431625Y-123049262D02*
G01*
X148689805Y-123159526D01*
X148693572Y-123162103D01*
X148694942Y-123163503D01*
X148698279Y-123171513D01*
X148698302Y-123173066D01*
X148697586Y-123177271D01*
X148528617Y-123637579D01*
X148526238Y-123641476D01*
X148524240Y-123643644D01*
X148518299Y-123647108D01*
X148518222Y-123647126D01*
X148515559Y-123647433D01*
X148335495Y-123647433D01*
X148331017Y-123646542D01*
X148328294Y-123645414D01*
X148322908Y-123640897D01*
X148322860Y-123640822D01*
X148321747Y-123638572D01*
X148152465Y-123177417D01*
X148151759Y-123172908D01*
X148151839Y-123170951D01*
X148155380Y-123163032D01*
X148156494Y-123161951D01*
X148160047Y-123159589D01*
X148160195Y-123159526D01*
X148418270Y-123049306D01*
X148422731Y-123048368D01*
X148426906Y-123048323D01*
X148431625Y-123049262D01*
G37*
%TD.AperFunction*%
%TD*%
%TA.AperFunction,Conductor*%
%TO.N,+3.3V*%
G36*
X145019956Y-130633494D02*
G01*
X145299591Y-130673662D01*
X145303892Y-130675178D01*
X145305424Y-130676086D01*
X145310794Y-130683252D01*
X145310796Y-130683260D01*
X145311100Y-130684452D01*
X145311075Y-130690330D01*
X145170359Y-131223173D01*
X145168355Y-131227275D01*
X145166754Y-131229377D01*
X145160512Y-131233579D01*
X145159967Y-131233727D01*
X145156901Y-131234136D01*
X144878802Y-131234136D01*
X144874324Y-131233245D01*
X144871881Y-131232233D01*
X144866212Y-131227248D01*
X144865930Y-131226758D01*
X144864767Y-131223923D01*
X144723978Y-130690808D01*
X144723695Y-130686259D01*
X144723934Y-130684489D01*
X144728435Y-130676755D01*
X144729425Y-130676000D01*
X144734841Y-130673732D01*
X145014972Y-130633494D01*
X145016636Y-130633375D01*
X145018292Y-130633375D01*
X145019956Y-130633494D01*
G37*
%TD.AperFunction*%
%TD*%
%TA.AperFunction,Conductor*%
%TO.N,SWCLK*%
G36*
X156748860Y-132031995D02*
G01*
X156877021Y-132160156D01*
X156880448Y-132168429D01*
X156878159Y-132175380D01*
X156544257Y-132627484D01*
X156536586Y-132632103D01*
X156527895Y-132629944D01*
X156527664Y-132629770D01*
X156394505Y-132526236D01*
X156390078Y-132518452D01*
X156390346Y-132514121D01*
X156477224Y-132172238D01*
X156482582Y-132165066D01*
X156483011Y-132164823D01*
X156735069Y-132029951D01*
X156743978Y-132029070D01*
X156748860Y-132031995D01*
G37*
%TD.AperFunction*%
%TD*%
%TA.AperFunction,Conductor*%
%TO.N,/~{RST}*%
G36*
X151935670Y-119950271D02*
G01*
X152384725Y-120158169D01*
X152390791Y-120164753D01*
X152390666Y-120173144D01*
X152284383Y-120437884D01*
X152278120Y-120444285D01*
X152277884Y-120444383D01*
X152013144Y-120550666D01*
X152004190Y-120550568D01*
X151998169Y-120544725D01*
X151790271Y-120095672D01*
X151789906Y-120086727D01*
X151792614Y-120082488D01*
X151922487Y-119952615D01*
X151930759Y-119949189D01*
X151935670Y-119950271D01*
G37*
%TD.AperFunction*%
%TD*%
%TA.AperFunction,Conductor*%
%TO.N,/J_BOOT0*%
G36*
X158570105Y-127355994D02*
G01*
X158572815Y-127360235D01*
X158743335Y-127824766D01*
X158742969Y-127833714D01*
X158736947Y-127839558D01*
X158474595Y-127951604D01*
X158465641Y-127951702D01*
X158465405Y-127951604D01*
X158203052Y-127839558D01*
X158196789Y-127833157D01*
X158196664Y-127824766D01*
X158367185Y-127360235D01*
X158373252Y-127353650D01*
X158378168Y-127352567D01*
X158561832Y-127352567D01*
X158570105Y-127355994D01*
G37*
%TD.AperFunction*%
%TD*%
%TA.AperFunction,Conductor*%
%TO.N,I2C1_SCL*%
G36*
X167307856Y-127306068D02*
G01*
X167312344Y-127310025D01*
X167566859Y-127690328D01*
X167568613Y-127699109D01*
X167563643Y-127706558D01*
X167563346Y-127706751D01*
X166183202Y-128571169D01*
X166174372Y-128572656D01*
X166168719Y-128569526D01*
X166039070Y-128439877D01*
X166035643Y-128431604D01*
X166036289Y-128427771D01*
X166310018Y-127639614D01*
X166315968Y-127632926D01*
X166317361Y-127632359D01*
X167298926Y-127305432D01*
X167307856Y-127306068D01*
G37*
%TD.AperFunction*%
%TD*%
%TA.AperFunction,Conductor*%
%TO.N,SPI1_SCK*%
G36*
X177693714Y-132417030D02*
G01*
X177699558Y-132423052D01*
X177811604Y-132685405D01*
X177811702Y-132694359D01*
X177811604Y-132694595D01*
X177699558Y-132956947D01*
X177693157Y-132963210D01*
X177684766Y-132963335D01*
X177220235Y-132792814D01*
X177213650Y-132786747D01*
X177212567Y-132781831D01*
X177212567Y-132598168D01*
X177215994Y-132589895D01*
X177220234Y-132587185D01*
X177684766Y-132416664D01*
X177693714Y-132417030D01*
G37*
%TD.AperFunction*%
%TD*%
%TA.AperFunction,Conductor*%
%TO.N,~{SS}*%
G36*
X186342605Y-131781660D02*
G01*
X186607346Y-131887944D01*
X186613747Y-131894207D01*
X186613845Y-131894443D01*
X186720128Y-132159183D01*
X186720030Y-132168137D01*
X186714186Y-132174159D01*
X186265137Y-132382055D01*
X186256189Y-132382421D01*
X186251948Y-132379711D01*
X186122078Y-132249841D01*
X186118651Y-132241568D01*
X186119732Y-132236657D01*
X186327632Y-131787600D01*
X186334215Y-131781536D01*
X186342605Y-131781660D01*
G37*
%TD.AperFunction*%
%TD*%
%TA.AperFunction,Conductor*%
%TO.N,SP1_MISO*%
G36*
X149079557Y-122482999D02*
G01*
X149341947Y-122595061D01*
X149348210Y-122601462D01*
X149348335Y-122609853D01*
X149177815Y-123074385D01*
X149171748Y-123080970D01*
X149166832Y-123082053D01*
X148983168Y-123082053D01*
X148974895Y-123078626D01*
X148972185Y-123074385D01*
X148801664Y-122609853D01*
X148802030Y-122600905D01*
X148808050Y-122595062D01*
X149070406Y-122483014D01*
X149079359Y-122482917D01*
X149079557Y-122482999D01*
G37*
%TD.AperFunction*%
%TD*%
%TA.AperFunction,Conductor*%
%TO.N,BUSY*%
G36*
X150397293Y-120803384D02*
G01*
X150661499Y-120913717D01*
X150665285Y-120916262D01*
X150666618Y-120917602D01*
X150670022Y-120925696D01*
X150670044Y-120927335D01*
X150669282Y-120931649D01*
X150494335Y-121391889D01*
X150491911Y-121395758D01*
X150489864Y-121397929D01*
X150484189Y-121401254D01*
X150484173Y-121401258D01*
X150481335Y-121401607D01*
X150301238Y-121401607D01*
X150296760Y-121400716D01*
X150294071Y-121399602D01*
X150288651Y-121395031D01*
X150288576Y-121394912D01*
X150287445Y-121392579D01*
X150124256Y-120931649D01*
X150124180Y-120931434D01*
X150123526Y-120926925D01*
X150123633Y-120924894D01*
X150127178Y-120917103D01*
X150128234Y-120916082D01*
X150131674Y-120913776D01*
X150383931Y-120803538D01*
X150388388Y-120802562D01*
X150392560Y-120802482D01*
X150397293Y-120803384D01*
G37*
%TD.AperFunction*%
%TD*%
%TA.AperFunction,Conductor*%
%TO.N,TXEN*%
G36*
X182179048Y-113476839D02*
G01*
X182186961Y-113480376D01*
X182188046Y-113481494D01*
X182190410Y-113485046D01*
X182300690Y-113743266D01*
X182301629Y-113747732D01*
X182301675Y-113751903D01*
X182300736Y-113756627D01*
X182190472Y-114014805D01*
X182187895Y-114018572D01*
X182186495Y-114019942D01*
X182178485Y-114023279D01*
X182176932Y-114023302D01*
X182172727Y-114022586D01*
X181712420Y-113853616D01*
X181708523Y-113851237D01*
X181706355Y-113849239D01*
X181702852Y-113843128D01*
X181702834Y-113843046D01*
X181702567Y-113840557D01*
X181702567Y-113660495D01*
X181703457Y-113656019D01*
X181704586Y-113653293D01*
X181709112Y-113647901D01*
X181709184Y-113647855D01*
X181711426Y-113646747D01*
X182172582Y-113477465D01*
X182177089Y-113476759D01*
X182179048Y-113476839D01*
G37*
%TD.AperFunction*%
%TD*%
%TA.AperFunction,Conductor*%
%TO.N,SPI1_SCK*%
G36*
X157583714Y-125057030D02*
G01*
X157589558Y-125063052D01*
X157701604Y-125325405D01*
X157701702Y-125334359D01*
X157701604Y-125334595D01*
X157589558Y-125596947D01*
X157583157Y-125603210D01*
X157574766Y-125603335D01*
X157110235Y-125432814D01*
X157103650Y-125426747D01*
X157102567Y-125421831D01*
X157102567Y-125238168D01*
X157105994Y-125229895D01*
X157110234Y-125227185D01*
X157574766Y-125056664D01*
X157583714Y-125057030D01*
G37*
%TD.AperFunction*%
%TD*%
%TA.AperFunction,Conductor*%
%TO.N,VRF*%
G36*
X139736504Y-120267588D02*
G01*
X139744205Y-120272156D01*
X139746498Y-120280159D01*
X139700910Y-120816723D01*
X139696795Y-120824677D01*
X139689252Y-120827433D01*
X139210748Y-120827433D01*
X139202475Y-120824006D01*
X139199090Y-120816724D01*
X139199090Y-120816723D01*
X139153501Y-120280158D01*
X139156215Y-120271626D01*
X139163494Y-120267588D01*
X139448336Y-120226672D01*
X139451664Y-120226672D01*
X139736504Y-120267588D01*
G37*
%TD.AperFunction*%
%TD*%
%TA.AperFunction,Conductor*%
%TO.N,SP1_MOSI*%
G36*
X184074019Y-131890707D02*
G01*
X184301357Y-131987799D01*
X184336115Y-132002644D01*
X184342378Y-132009045D01*
X184342385Y-132017745D01*
X184169471Y-132450515D01*
X184169415Y-132450651D01*
X184141064Y-132519097D01*
X184138528Y-132522893D01*
X184120710Y-132540710D01*
X184112437Y-132544137D01*
X184104164Y-132540710D01*
X183982504Y-132419050D01*
X183982503Y-132419050D01*
X183980466Y-132423970D01*
X183974134Y-132430301D01*
X183965179Y-132430301D01*
X183958848Y-132423969D01*
X183958792Y-132423833D01*
X183796538Y-132017745D01*
X183796651Y-132008791D01*
X183802807Y-132002644D01*
X184064868Y-131890722D01*
X184073821Y-131890625D01*
X184074019Y-131890707D01*
G37*
%TD.AperFunction*%
%TD*%
%TA.AperFunction,Conductor*%
%TO.N,RXEN*%
G36*
X183223714Y-112717030D02*
G01*
X183229558Y-112723052D01*
X183341604Y-112985405D01*
X183341702Y-112994359D01*
X183341604Y-112994595D01*
X183229558Y-113256947D01*
X183223157Y-113263210D01*
X183214766Y-113263335D01*
X182750235Y-113092814D01*
X182743650Y-113086747D01*
X182742567Y-113081831D01*
X182742567Y-112898168D01*
X182745994Y-112889895D01*
X182750234Y-112887185D01*
X183214766Y-112716664D01*
X183223714Y-112717030D01*
G37*
%TD.AperFunction*%
%TD*%
%TA.AperFunction,Conductor*%
%TO.N,RXEN*%
G36*
X163000106Y-119318552D02*
G01*
X163129976Y-119448422D01*
X163133403Y-119456695D01*
X163132320Y-119461611D01*
X162924424Y-119910660D01*
X162917839Y-119916727D01*
X162909448Y-119916602D01*
X162644708Y-119810319D01*
X162638307Y-119804056D01*
X162638209Y-119803820D01*
X162531926Y-119539080D01*
X162532024Y-119530126D01*
X162537865Y-119524106D01*
X162986920Y-119316207D01*
X162995865Y-119315842D01*
X163000106Y-119318552D01*
G37*
%TD.AperFunction*%
%TD*%
%TA.AperFunction,Conductor*%
%TO.N,SPI1_SCK*%
G36*
X160560105Y-126785994D02*
G01*
X160562815Y-126790235D01*
X160733335Y-127254766D01*
X160732969Y-127263714D01*
X160726947Y-127269558D01*
X160464595Y-127381604D01*
X160455641Y-127381702D01*
X160455405Y-127381604D01*
X160193052Y-127269558D01*
X160186789Y-127263157D01*
X160186664Y-127254766D01*
X160357185Y-126790235D01*
X160363252Y-126783650D01*
X160368168Y-126782567D01*
X160551832Y-126782567D01*
X160560105Y-126785994D01*
G37*
%TD.AperFunction*%
%TD*%
%TA.AperFunction,Conductor*%
%TO.N,SPI1_SCK*%
G36*
X159759957Y-125685283D02*
G01*
X159765978Y-125691126D01*
X159944942Y-126077683D01*
X159973875Y-126140176D01*
X159974241Y-126149124D01*
X159971531Y-126153365D01*
X159841661Y-126283235D01*
X159833388Y-126286662D01*
X159828473Y-126285579D01*
X159379422Y-126077682D01*
X159373356Y-126071098D01*
X159373480Y-126062708D01*
X159479764Y-125797966D01*
X159486027Y-125791566D01*
X159486232Y-125791480D01*
X159751004Y-125685185D01*
X159759957Y-125685283D01*
G37*
%TD.AperFunction*%
%TD*%
%TA.AperFunction,Conductor*%
%TO.N,~{SS}*%
G36*
X149084557Y-119858379D02*
G01*
X149346947Y-119970441D01*
X149353210Y-119976842D01*
X149353335Y-119985233D01*
X149325889Y-120060001D01*
X149324805Y-120061979D01*
X149324882Y-120062024D01*
X149258608Y-120176811D01*
X149258606Y-120176815D01*
X149224500Y-120304105D01*
X149224500Y-120334127D01*
X149223783Y-120338159D01*
X149182815Y-120449765D01*
X149176748Y-120456350D01*
X149171832Y-120457433D01*
X148988168Y-120457433D01*
X148979895Y-120454006D01*
X148977185Y-120449765D01*
X148934736Y-120334127D01*
X148806664Y-119985233D01*
X148807030Y-119976285D01*
X148813050Y-119970442D01*
X149075406Y-119858394D01*
X149084359Y-119858297D01*
X149084557Y-119858379D01*
G37*
%TD.AperFunction*%
%TD*%
%TA.AperFunction,Conductor*%
%TO.N,SP1_MISO*%
G36*
X182776087Y-131416590D02*
G01*
X183034267Y-131526854D01*
X183038034Y-131529431D01*
X183039404Y-131530831D01*
X183042741Y-131538841D01*
X183042764Y-131540394D01*
X183042048Y-131544599D01*
X182873079Y-132004907D01*
X182870700Y-132008804D01*
X182868702Y-132010972D01*
X182862761Y-132014436D01*
X182862684Y-132014454D01*
X182860021Y-132014761D01*
X182679957Y-132014761D01*
X182675479Y-132013870D01*
X182672756Y-132012742D01*
X182667370Y-132008225D01*
X182667322Y-132008150D01*
X182666209Y-132005900D01*
X182496927Y-131544745D01*
X182496221Y-131540236D01*
X182496301Y-131538279D01*
X182499842Y-131530360D01*
X182500956Y-131529279D01*
X182504509Y-131526917D01*
X182504657Y-131526854D01*
X182762732Y-131416634D01*
X182767193Y-131415696D01*
X182771368Y-131415651D01*
X182776087Y-131416590D01*
G37*
%TD.AperFunction*%
%TD*%
%TA.AperFunction,Conductor*%
%TO.N,+3.3V*%
G36*
X145489904Y-132675613D02*
G01*
X145492742Y-132676798D01*
X145969264Y-132954214D01*
X145972684Y-132957234D01*
X145973763Y-132958651D01*
X145976052Y-132967307D01*
X145976051Y-132967310D01*
X145975886Y-132968529D01*
X145973657Y-132973973D01*
X145804029Y-133200508D01*
X145802937Y-133201768D01*
X145801768Y-133202937D01*
X145800508Y-133204029D01*
X145574372Y-133373358D01*
X145570255Y-133375329D01*
X145568529Y-133375770D01*
X145559668Y-133374499D01*
X145558610Y-133373872D01*
X145554464Y-133369693D01*
X145457728Y-133203528D01*
X145457728Y-133203529D01*
X145277185Y-132893409D01*
X145275705Y-132889097D01*
X145275350Y-132886474D01*
X145276800Y-132879080D01*
X145277085Y-132878584D01*
X145278947Y-132876153D01*
X145475602Y-132679498D01*
X145479395Y-132676964D01*
X145481841Y-132675952D01*
X145489363Y-132675467D01*
X145489904Y-132675613D01*
G37*
%TD.AperFunction*%
%TD*%
%TA.AperFunction,Conductor*%
%TO.N,SPI1_SCK*%
G36*
X151355809Y-122699431D02*
G01*
X151361830Y-122705274D01*
X151540794Y-123091831D01*
X151569727Y-123154324D01*
X151570093Y-123163272D01*
X151567383Y-123167513D01*
X151437513Y-123297383D01*
X151429240Y-123300810D01*
X151424325Y-123299727D01*
X150975274Y-123091830D01*
X150969208Y-123085246D01*
X150969332Y-123076856D01*
X151075616Y-122812114D01*
X151081879Y-122805714D01*
X151082084Y-122805628D01*
X151346856Y-122699333D01*
X151355809Y-122699431D01*
G37*
%TD.AperFunction*%
%TD*%
%TA.AperFunction,Conductor*%
%TO.N,SPI1_SCK*%
G36*
X160508822Y-129772644D02*
G01*
X160771212Y-129884706D01*
X160777475Y-129891107D01*
X160777600Y-129899498D01*
X160607080Y-130364030D01*
X160601013Y-130370615D01*
X160596097Y-130371698D01*
X160412433Y-130371698D01*
X160404160Y-130368271D01*
X160401450Y-130364030D01*
X160230929Y-129899498D01*
X160231295Y-129890550D01*
X160237315Y-129884707D01*
X160499671Y-129772659D01*
X160508624Y-129772562D01*
X160508822Y-129772644D01*
G37*
%TD.AperFunction*%
%TD*%
M02*
