M48
; DRILL file KiCad 10.0.5-10.0.5~ubuntu26.04.1 date 2026-08-23T12:12:44
; FORMAT={-:-/ absolute / metric / decimal}
; #@! TF.CreationDate,2026-08-23T12:12:44+02:00
; #@! TF.GenerationSoftware,Kicad,Pcbnew,10.0.5-10.0.5~ubuntu26.04.1
; #@! TF.FileFunction,Plated,1,2,PTH
FMAT,2
METRIC
; #@! TA.AperFunction,Plated,PTH,ViaDrill
T1C0.300
; #@! TA.AperFunction,Plated,PTH,ComponentDrill
T2C0.550
; #@! TA.AperFunction,Plated,PTH,ComponentDrill
T3C0.850
; #@! TA.AperFunction,Plated,PTH,ComponentDrill
T4C1.000
; #@! TA.AperFunction,Plated,PTH,ComponentDrill
T5C1.100
%
G90
G05
T1
X84.0Y-78.0
X84.0Y-82.0
X84.0Y-84.0
X84.0Y-88.0
X84.0Y-92.0
X84.0Y-94.0
X84.0Y-96.0
X84.0Y-100.0
X84.0Y-104.0
X84.0Y-106.0
X86.0Y-78.0
X86.0Y-82.0
X86.0Y-84.0
X86.0Y-88.0
X86.0Y-90.0
X86.0Y-94.0
X86.0Y-96.0
X86.0Y-98.0
X86.0Y-100.0
X86.0Y-104.0
X86.0Y-106.0
X88.0Y-78.0
X88.0Y-82.0
X88.0Y-84.0
X88.0Y-88.0
X88.0Y-100.0
X88.0Y-104.0
X88.0Y-106.0
X88.0Y-108.0
X88.0Y-110.0
X90.0Y-78.0
X90.0Y-82.0
X90.0Y-84.0
X90.0Y-88.0
X90.0Y-90.0
X90.0Y-96.0
X90.0Y-98.0
X90.0Y-100.0
X90.0Y-104.0
X90.0Y-106.0
X90.5Y-92.5
X92.0Y-78.0
X92.0Y-80.0
X92.0Y-82.0
X92.0Y-84.0
X92.0Y-96.0
X92.0Y-98.0
X92.0Y-100.0
X92.0Y-102.0
X92.0Y-104.0
X92.0Y-108.0
X92.0Y-110.0
X92.75Y-89.25
X93.5Y-85.5
X93.925Y-94.25
X94.0Y-78.0
X94.0Y-80.0
X94.0Y-82.0
X94.0Y-88.0
X94.0Y-102.0
X94.0Y-106.0
X94.0Y-108.0
X94.0Y-110.0
X95.675Y-95.8
X96.0Y-78.0
X96.0Y-80.0
X96.0Y-82.0
X96.0Y-86.0
X96.0Y-88.0
X96.0Y-104.0
X96.0Y-106.0
X96.0Y-108.0
X96.0Y-110.0
X98.0Y-78.0
X98.0Y-80.0
X98.0Y-82.0
X98.0Y-86.0
X98.0Y-88.0
X98.0Y-106.0
X98.0Y-108.0
X98.0Y-110.0
X98.525Y-99.0
X98.595Y-100.605
X99.0Y-93.45
X100.0Y-80.0
X100.0Y-86.0
X100.0Y-104.0
X100.0Y-108.0
X100.12Y-106.01
X101.5Y-104.0
X101.5Y-105.5
X102.0Y-86.0
X102.0Y-87.975
X103.525Y-92.15
X104.0Y-86.0
X104.225Y-100.15
X105.35Y-90.65
X106.265Y-99.825
X106.265Y-102.375
X106.265Y-103.885
X106.74Y-80.085
X107.215Y-84.69
X107.9Y-88.761
X108.0Y-80.0
X108.0Y-92.0
X109.0Y-84.0
X109.25Y-92.782
X109.45Y-97.65
X110.0Y-80.0
X110.0Y-88.0
X110.0Y-91.55
X110.554Y-94.879
X110.725Y-93.66
X110.775Y-92.125
X110.85Y-96.8
X111.725Y-88.761
X111.889Y-90.95
X112.464Y-97.375
X113.039Y-96.228
X113.039Y-98.575
X113.039Y-102.3
X113.064Y-94.235
X114.0Y-84.0
X114.157Y-88.743
X114.552Y-96.852
X114.712Y-94.1
X114.927Y-86.7
X114.975Y-98.7
X114.975Y-99.9
X115.162Y-105.762
X115.225Y-108.875
X115.625Y-84.175
X115.875Y-87.3
X116.35Y-84.95
X116.525Y-108.548
X116.8Y-87.25
X116.9Y-89.75
X117.0Y-106.775
X117.8Y-91.859
X118.125Y-107.975
X118.322Y-87.178
X118.847Y-90.047
X118.869Y-95.301
X118.977Y-98.625
X119.275Y-91.65
X120.568Y-84.268
X120.776Y-91.734
X121.374Y-96.606
X121.376Y-92.391
X122.2Y-86.875
X123.096Y-93.664
X123.975Y-79.8
X124.219Y-86.21
X124.96Y-90.594
X125.14Y-94.27
X125.308Y-82.208
X126.0Y-80.0
X126.0Y-84.0
X126.0Y-104.0
X126.0Y-106.0
X126.0Y-108.0
X127.56Y-99.36
X128.0Y-80.0
X128.0Y-86.0
X128.0Y-106.0
X129.0Y-82.208
X129.317Y-95.625
X129.467Y-91.4
X129.475Y-92.2
X129.57Y-100.52
X130.0Y-80.0
X130.0Y-84.0
X130.0Y-88.0
X130.0Y-106.0
X130.0Y-108.0
X131.02Y-95.63
X132.0Y-78.0
X132.0Y-80.0
X132.0Y-84.0
X132.0Y-86.0
X132.0Y-92.0
X132.0Y-94.0
X132.258Y-110.684
X134.0Y-78.0
X134.0Y-80.0
X134.0Y-84.0
X134.0Y-90.0
X134.0Y-92.0
X134.0Y-94.0
X134.0Y-96.0
X134.0Y-106.0
X134.0Y-108.0
X134.0Y-110.0
X136.0Y-78.0
X136.0Y-80.0
X136.0Y-88.0
X136.0Y-90.0
X136.0Y-92.0
X136.0Y-94.0
X136.0Y-96.0
X136.0Y-98.0
X136.0Y-106.0
X136.0Y-108.0
X136.0Y-110.0
X138.0Y-78.0
X138.0Y-80.0
X138.0Y-88.0
X138.0Y-90.0
X138.0Y-92.0
X138.0Y-94.0
X138.0Y-96.0
X138.0Y-98.0
X138.0Y-100.0
X138.0Y-108.0
X138.0Y-110.0
X140.0Y-78.0
X140.0Y-80.0
X140.0Y-88.0
X140.0Y-90.0
X140.0Y-92.0
X140.0Y-94.0
X140.0Y-96.0
X140.0Y-98.0
X140.0Y-100.0
X140.0Y-102.0
X140.0Y-108.0
X140.0Y-110.0
X140.684Y-103.975
X141.24Y-103.4
X141.24Y-104.55
X142.0Y-78.0
X142.0Y-80.0
X142.0Y-82.0
X142.0Y-90.0
X142.0Y-92.0
X142.0Y-94.0
X142.0Y-96.0
X142.0Y-98.0
X142.0Y-108.0
X142.0Y-110.0
X144.0Y-78.0
X144.0Y-80.0
X144.0Y-82.0
X144.0Y-84.0
X144.0Y-90.0
X144.0Y-92.0
X144.0Y-98.0
X144.0Y-108.0
X144.0Y-110.0
X144.95Y-85.22
X146.0Y-78.0
X146.0Y-80.0
X146.0Y-82.0
X146.0Y-84.0
X146.0Y-90.0
X146.0Y-92.0
X146.0Y-98.0
X146.0Y-108.0
X146.0Y-110.0
X147.22Y-85.8
X148.0Y-78.0
X148.0Y-80.0
X148.0Y-82.0
X148.0Y-84.0
X148.0Y-90.0
X148.0Y-92.0
X148.0Y-94.0
X148.0Y-96.0
X148.0Y-98.0
X148.0Y-106.0
X148.0Y-108.0
X148.0Y-110.0
X150.0Y-78.0
X150.0Y-80.0
X150.0Y-82.0
X150.0Y-84.0
X150.0Y-90.0
X150.0Y-92.0
X150.0Y-94.0
X150.0Y-96.0
X150.0Y-98.0
X150.0Y-104.0
X150.0Y-106.0
X150.0Y-108.0
X150.0Y-110.0
X152.0Y-78.0
X152.0Y-80.0
X152.0Y-82.0
X152.0Y-84.0
X152.0Y-86.0
X152.0Y-88.0
X152.0Y-90.0
X152.0Y-92.0
X152.0Y-94.0
X152.0Y-96.0
X152.0Y-98.0
X152.0Y-100.0
X152.0Y-102.0
X152.0Y-104.0
X152.0Y-106.0
X152.0Y-108.0
X152.0Y-110.0
X154.0Y-78.0
X154.0Y-80.0
X154.0Y-82.0
X154.0Y-84.0
X154.0Y-86.0
X154.0Y-88.0
X154.0Y-90.0
X154.0Y-92.0
X154.0Y-94.0
X154.0Y-96.0
X154.0Y-98.0
X154.0Y-100.0
X154.0Y-102.0
X154.0Y-104.0
X154.0Y-106.0
X154.0Y-108.0
X154.0Y-110.0
X156.0Y-78.0
X156.0Y-80.0
X156.0Y-82.0
X156.0Y-84.0
X156.0Y-90.0
X156.0Y-92.0
X156.0Y-94.0
X156.0Y-104.0
X156.0Y-106.0
X156.0Y-108.0
X156.0Y-110.0
X156.13Y-98.539
X156.13Y-99.484
X156.194Y-97.726
X156.385Y-96.932
X156.697Y-96.178
X157.123Y-95.482
X157.653Y-94.862
X158.0Y-78.0
X158.0Y-80.0
X158.0Y-82.0
X158.0Y-84.0
X158.0Y-90.0
X158.0Y-92.0
X158.0Y-104.0
X158.0Y-106.0
X158.0Y-108.0
X158.0Y-110.0
X158.23Y-98.539
X158.23Y-99.484
X158.274Y-94.332
X158.336Y-97.737
X158.645Y-96.989
X158.969Y-93.906
X159.138Y-96.347
X159.723Y-93.593
X159.78Y-95.854
X160.0Y-78.0
X160.0Y-80.0
X160.0Y-82.0
X160.0Y-84.0
X160.0Y-86.0
X160.0Y-88.0
X160.0Y-90.0
X160.0Y-92.0
X160.0Y-98.0
X160.0Y-100.0
X160.0Y-102.0
X160.0Y-104.0
X160.0Y-106.0
X160.0Y-108.0
X160.0Y-110.0
X160.517Y-93.403
X160.528Y-95.544
X162.0Y-78.0
X162.0Y-80.0
X162.0Y-82.0
X162.0Y-84.0
X162.0Y-86.0
X162.0Y-88.0
X162.0Y-90.0
X162.0Y-100.0
X162.0Y-102.0
X162.0Y-104.0
X162.0Y-106.0
X162.0Y-108.0
X162.0Y-110.0
X164.0Y-78.0
X164.0Y-80.0
X164.0Y-82.0
X164.0Y-84.0
X164.0Y-86.0
X164.0Y-88.0
X164.0Y-90.0
X164.0Y-100.0
X164.0Y-102.0
X164.0Y-104.0
X164.0Y-106.0
X164.0Y-108.0
X164.0Y-110.0
T4
X101.305Y-78.375
X101.305Y-110.114
X101.32Y-82.22
X103.845Y-78.375
X103.845Y-110.114
X103.86Y-82.22
X105.123Y-105.959
X106.385Y-78.375
X106.385Y-110.114
X106.4Y-82.22
X107.664Y-105.959
X108.925Y-78.375
X108.925Y-110.114
X110.203Y-105.959
X111.465Y-78.375
X111.465Y-110.114
X111.47Y-82.22
X112.743Y-105.959
X114.005Y-78.375
X114.005Y-110.114
X114.01Y-82.22
X116.545Y-78.375
X116.545Y-110.114
X116.55Y-82.22
X119.085Y-78.375
X119.085Y-110.114
X119.09Y-82.22
X121.625Y-78.375
X121.625Y-110.114
X121.63Y-82.22
X124.165Y-78.375
X124.165Y-110.114
X126.705Y-78.375
X126.705Y-110.114
X129.245Y-78.375
X129.245Y-110.114
T5
X84.85Y-79.698
X84.85Y-102.448
X84.85Y-86.198
X84.85Y-108.948
X89.35Y-79.698
X89.35Y-86.198
X89.35Y-102.448
X89.35Y-108.948
T2
G00X84.475Y-90.368
M15
G01X83.825Y-90.368
M16
G05
G00X84.475Y-98.118
M15
G01X83.825Y-98.118
M16
G05
T3
G00X88.225Y-90.518
M15
G01X87.675Y-90.518
M16
G05
G00X88.225Y-97.968
M15
G01X87.675Y-97.968
M16
G05
M30
