%TF.GenerationSoftware,KiCad,Pcbnew,10.0.5-1.fc44*%
%TF.CreationDate,2026-08-15T10:25:55+02:00*%
%TF.ProjectId,IRIS-868,49524953-2d38-4363-982e-6b696361645f,rev?*%
%TF.SameCoordinates,Original*%
%TF.FileFunction,Legend,Top*%
%TF.FilePolarity,Positive*%
%FSLAX46Y46*%
G04 Gerber Fmt 4.6, Leading zero omitted, Abs format (unit mm)*
G04 Created by KiCad (PCBNEW 10.0.5-1.fc44) date 2026-08-15 10:25:55*
%MOMM*%
%LPD*%
G01*
G04 APERTURE LIST*
G04 Aperture macros list*
%AMRoundRect*
0 Rectangle with rounded corners*
0 $1 Rounding radius*
0 $2 $3 $4 $5 $6 $7 $8 $9 X,Y pos of 4 corners*
0 Add a 4 corners polygon primitive as box body*
4,1,4,$2,$3,$4,$5,$6,$7,$8,$9,$2,$3,0*
0 Add four circle primitives for the rounded corners*
1,1,$1+$1,$2,$3*
1,1,$1+$1,$4,$5*
1,1,$1+$1,$6,$7*
1,1,$1+$1,$8,$9*
0 Add four rect primitives between the rounded corners*
20,1,$1+$1,$2,$3,$4,$5,0*
20,1,$1+$1,$4,$5,$6,$7,0*
20,1,$1+$1,$6,$7,$8,$9,0*
20,1,$1+$1,$8,$9,$2,$3,0*%
G04 Aperture macros list end*
%ADD10C,0.000000*%
%ADD11C,0.600000*%
%ADD12C,0.100000*%
%ADD13C,0.150000*%
%ADD14C,0.200000*%
%ADD15C,0.120000*%
%ADD16C,0.127000*%
%ADD17RoundRect,0.135000X0.035355X-0.226274X0.226274X-0.035355X-0.035355X0.226274X-0.226274X0.035355X0*%
%ADD18RoundRect,0.140000X-0.219203X-0.021213X-0.021213X-0.219203X0.219203X0.021213X0.021213X0.219203X0*%
%ADD19RoundRect,0.250000X0.250000X0.475000X-0.250000X0.475000X-0.250000X-0.475000X0.250000X-0.475000X0*%
%ADD20RoundRect,0.140000X-0.170000X0.140000X-0.170000X-0.140000X0.170000X-0.140000X0.170000X0.140000X0*%
%ADD21R,1.700000X1.700000*%
%ADD22C,1.700000*%
%ADD23RoundRect,0.147500X0.172500X-0.147500X0.172500X0.147500X-0.172500X0.147500X-0.172500X-0.147500X0*%
%ADD24RoundRect,0.140000X0.219203X0.021213X0.021213X0.219203X-0.219203X-0.021213X-0.021213X-0.219203X0*%
%ADD25RoundRect,0.140000X0.021213X-0.219203X0.219203X-0.021213X-0.021213X0.219203X-0.219203X0.021213X0*%
%ADD26RoundRect,0.135000X-0.185000X0.135000X-0.185000X-0.135000X0.185000X-0.135000X0.185000X0.135000X0*%
%ADD27RoundRect,0.225000X0.017678X-0.335876X0.335876X-0.017678X-0.017678X0.335876X-0.335876X0.017678X0*%
%ADD28O,0.800000X0.800000*%
%ADD29RoundRect,0.112500X-0.537500X0.112500X-0.537500X-0.112500X0.537500X-0.112500X0.537500X0.112500X0*%
%ADD30O,1.800000X1.150000*%
%ADD31O,2.000000X1.450000*%
%ADD32RoundRect,0.140000X0.140000X0.170000X-0.140000X0.170000X-0.140000X-0.170000X0.140000X-0.170000X0*%
%ADD33RoundRect,0.150000X-0.512500X-0.150000X0.512500X-0.150000X0.512500X0.150000X-0.512500X0.150000X0*%
%ADD34RoundRect,0.250000X0.565685X-0.070711X-0.070711X0.565685X-0.565685X0.070711X0.070711X-0.565685X0*%
%ADD35RoundRect,0.218750X-0.218750X-0.256250X0.218750X-0.256250X0.218750X0.256250X-0.218750X0.256250X0*%
%ADD36R,4.000000X2.640000*%
%ADD37RoundRect,0.147500X-0.147500X-0.172500X0.147500X-0.172500X0.147500X0.172500X-0.147500X0.172500X0*%
%ADD38RoundRect,0.102000X1.750000X0.750000X-1.750000X0.750000X-1.750000X-0.750000X1.750000X-0.750000X0*%
%ADD39RoundRect,0.075000X0.441942X0.548008X-0.548008X-0.441942X-0.441942X-0.548008X0.548008X0.441942X0*%
%ADD40RoundRect,0.075000X-0.441942X0.548008X-0.548008X0.441942X0.441942X-0.548008X0.548008X-0.441942X0*%
%ADD41C,2.000000*%
%ADD42RoundRect,0.135000X0.226274X0.035355X0.035355X0.226274X-0.226274X-0.035355X-0.035355X-0.226274X0*%
%ADD43RoundRect,0.140000X-0.021213X0.219203X-0.219203X0.021213X0.021213X-0.219203X0.219203X-0.021213X0*%
%ADD44RoundRect,0.135000X-0.035355X0.226274X-0.226274X0.035355X0.035355X-0.226274X0.226274X-0.035355X0*%
%ADD45RoundRect,0.102000X0.400000X-1.000000X0.400000X1.000000X-0.400000X1.000000X-0.400000X-1.000000X0*%
%ADD46RoundRect,0.135000X0.135000X0.185000X-0.135000X0.185000X-0.135000X-0.185000X0.135000X-0.185000X0*%
G04 APERTURE END LIST*
D10*
G36*
X170128380Y-119392971D02*
G01*
X170132089Y-119393263D01*
X170135554Y-119393734D01*
X170138761Y-119394380D01*
X170141697Y-119395187D01*
X170144347Y-119396147D01*
X170146695Y-119397249D01*
X170147751Y-119397851D01*
X170148730Y-119398484D01*
X170149624Y-119399149D01*
X170150434Y-119399843D01*
X170151158Y-119400567D01*
X170151796Y-119401315D01*
X170152343Y-119402092D01*
X170152800Y-119402891D01*
X170153164Y-119403715D01*
X170153430Y-119404560D01*
X170153603Y-119405425D01*
X170153677Y-119406314D01*
X170153650Y-119407218D01*
X170153523Y-119408140D01*
X170153289Y-119409078D01*
X170152952Y-119410031D01*
X170152507Y-119410999D01*
X170151954Y-119411978D01*
X170151312Y-119412956D01*
X170150607Y-119413925D01*
X170149841Y-119414879D01*
X170149016Y-119415816D01*
X170148137Y-119416737D01*
X170147202Y-119417643D01*
X170145187Y-119419396D01*
X170142987Y-119421066D01*
X170140626Y-119422640D01*
X170138122Y-119424114D01*
X170135500Y-119425472D01*
X170132774Y-119426707D01*
X170129970Y-119427810D01*
X170127103Y-119428768D01*
X170124201Y-119429577D01*
X170121277Y-119430222D01*
X170118354Y-119430694D01*
X170115453Y-119430984D01*
X170114017Y-119431059D01*
X170112596Y-119431083D01*
X170109799Y-119430984D01*
X170107081Y-119430694D01*
X170104451Y-119430222D01*
X170101929Y-119429577D01*
X170099527Y-119428768D01*
X170097258Y-119427810D01*
X170095137Y-119426707D01*
X170093179Y-119425472D01*
X170091398Y-119424114D01*
X170089809Y-119422640D01*
X170089089Y-119421866D01*
X170088424Y-119421066D01*
X170087814Y-119420241D01*
X170087260Y-119419396D01*
X170086764Y-119418530D01*
X170086328Y-119417643D01*
X170085957Y-119416737D01*
X170085644Y-119415816D01*
X170085402Y-119414879D01*
X170085227Y-119413925D01*
X170085120Y-119412956D01*
X170085084Y-119411978D01*
X170085134Y-119410999D01*
X170085288Y-119410031D01*
X170085540Y-119409078D01*
X170085889Y-119408140D01*
X170086332Y-119407218D01*
X170086865Y-119406314D01*
X170087487Y-119405425D01*
X170088196Y-119404560D01*
X170088989Y-119403715D01*
X170089863Y-119402891D01*
X170090815Y-119402092D01*
X170091844Y-119401315D01*
X170092946Y-119400567D01*
X170094119Y-119399843D01*
X170095359Y-119399149D01*
X170096666Y-119398484D01*
X170098036Y-119397851D01*
X170099468Y-119397249D01*
X170100957Y-119396680D01*
X170102500Y-119396147D01*
X170104098Y-119395648D01*
X170105746Y-119395187D01*
X170107442Y-119394764D01*
X170109184Y-119394380D01*
X170110968Y-119394037D01*
X170112791Y-119393734D01*
X170114653Y-119393476D01*
X170116552Y-119393263D01*
X170118481Y-119393094D01*
X170120441Y-119392971D01*
X170122428Y-119392898D01*
X170124441Y-119392873D01*
X170128380Y-119392971D01*
G37*
G36*
X173226092Y-112841405D02*
G01*
X173235950Y-112842431D01*
X173246646Y-112844306D01*
X173258195Y-112847033D01*
X173270612Y-112850625D01*
X173283909Y-112855081D01*
X173298105Y-112860410D01*
X173313211Y-112866618D01*
X173329240Y-112873711D01*
X173346209Y-112881696D01*
X173364131Y-112890578D01*
X173383023Y-112900361D01*
X173423760Y-112922664D01*
X173468541Y-112948651D01*
X173517478Y-112978373D01*
X173570683Y-113011875D01*
X173628273Y-113049209D01*
X173690360Y-113090421D01*
X173773275Y-113146793D01*
X173842579Y-113195852D01*
X173872989Y-113218385D01*
X173901024Y-113239990D01*
X173927027Y-113260959D01*
X173951346Y-113281598D01*
X173974321Y-113302204D01*
X173996297Y-113323073D01*
X174017616Y-113344508D01*
X174038619Y-113366807D01*
X174059652Y-113390269D01*
X174081057Y-113415195D01*
X174126355Y-113470628D01*
X174161220Y-113515603D01*
X174193335Y-113559768D01*
X174222747Y-113603248D01*
X174249500Y-113646162D01*
X174273640Y-113688637D01*
X174295213Y-113730799D01*
X174314264Y-113772770D01*
X174330838Y-113814675D01*
X174344979Y-113856639D01*
X174356735Y-113898786D01*
X174366150Y-113941238D01*
X174373269Y-113984120D01*
X174378139Y-114027560D01*
X174380804Y-114071678D01*
X174381309Y-114116600D01*
X174379700Y-114162449D01*
X174375391Y-114214241D01*
X174368368Y-114265970D01*
X174358556Y-114317778D01*
X174345889Y-114369818D01*
X174330295Y-114422231D01*
X174311704Y-114475165D01*
X174290049Y-114528769D01*
X174265256Y-114583185D01*
X174237256Y-114638563D01*
X174205981Y-114695047D01*
X174171362Y-114752783D01*
X174133323Y-114811921D01*
X174091800Y-114872603D01*
X174046722Y-114934979D01*
X173998017Y-114999194D01*
X173945614Y-115065394D01*
X173887920Y-115135905D01*
X173825032Y-115211251D01*
X173697429Y-115360603D01*
X173590317Y-115481761D01*
X173553043Y-115521866D01*
X173531208Y-115543041D01*
X173522505Y-115550950D01*
X173510878Y-115563047D01*
X173480652Y-115597494D01*
X173444127Y-115641762D01*
X173404895Y-115691229D01*
X173366549Y-115741281D01*
X173332684Y-115787293D01*
X173306892Y-115824651D01*
X173298147Y-115838641D01*
X173292767Y-115848734D01*
X173288916Y-115857008D01*
X173284486Y-115865884D01*
X173279636Y-115875089D01*
X173274521Y-115884343D01*
X173269300Y-115893373D01*
X173264127Y-115901906D01*
X173259161Y-115909662D01*
X173254556Y-115916369D01*
X173253071Y-115918526D01*
X173251734Y-115920707D01*
X173250547Y-115922917D01*
X173249513Y-115925165D01*
X173248636Y-115927458D01*
X173247918Y-115929802D01*
X173247360Y-115932209D01*
X173246964Y-115934683D01*
X173246734Y-115937234D01*
X173246674Y-115939867D01*
X173246785Y-115942592D01*
X173247069Y-115945416D01*
X173247530Y-115948346D01*
X173248170Y-115951391D01*
X173248989Y-115954557D01*
X173249993Y-115957852D01*
X173251186Y-115961285D01*
X173252564Y-115964863D01*
X173254137Y-115968593D01*
X173255900Y-115972483D01*
X173257863Y-115976541D01*
X173260024Y-115980775D01*
X173264952Y-115989799D01*
X173270709Y-115999615D01*
X173277314Y-116010288D01*
X173284788Y-116021875D01*
X173293149Y-116034443D01*
X173316282Y-116070430D01*
X173338323Y-116108098D01*
X173359174Y-116147125D01*
X173378731Y-116187180D01*
X173396898Y-116227937D01*
X173413570Y-116269067D01*
X173428648Y-116310245D01*
X173442032Y-116351146D01*
X173453620Y-116391440D01*
X173463311Y-116430798D01*
X173471006Y-116468896D01*
X173476601Y-116505407D01*
X173480000Y-116540000D01*
X173481097Y-116572352D01*
X173479796Y-116602132D01*
X173475993Y-116629018D01*
X173454961Y-116728780D01*
X173434275Y-116814891D01*
X173423721Y-116853723D01*
X173412847Y-116890215D01*
X173401514Y-116924726D01*
X173389587Y-116957615D01*
X173376930Y-116989238D01*
X173363406Y-117019954D01*
X173348882Y-117050123D01*
X173333217Y-117080098D01*
X173316282Y-117110241D01*
X173297933Y-117140909D01*
X173256466Y-117205251D01*
X173217820Y-117265093D01*
X173181908Y-117324682D01*
X173149475Y-117382513D01*
X173121268Y-117437075D01*
X173098032Y-117486867D01*
X173088509Y-117509500D01*
X173080509Y-117530375D01*
X173074127Y-117549304D01*
X173069451Y-117566098D01*
X173066579Y-117580568D01*
X173065597Y-117592526D01*
X173065933Y-117605194D01*
X173066371Y-117611212D01*
X173067004Y-117617044D01*
X173067847Y-117622696D01*
X173068910Y-117628189D01*
X173070209Y-117633532D01*
X173071754Y-117638742D01*
X173073558Y-117643830D01*
X173075634Y-117648812D01*
X173077994Y-117653699D01*
X173080651Y-117658511D01*
X173083618Y-117663255D01*
X173086904Y-117667947D01*
X173090527Y-117672606D01*
X173094497Y-117677237D01*
X173098825Y-117681861D01*
X173103524Y-117686487D01*
X173108610Y-117691133D01*
X173114091Y-117695811D01*
X173119982Y-117700535D01*
X173126293Y-117705321D01*
X173140237Y-117715124D01*
X173156016Y-117725333D01*
X173173735Y-117736060D01*
X173193492Y-117747416D01*
X173215389Y-117759512D01*
X173232695Y-117769448D01*
X173249186Y-117779951D01*
X173264824Y-117790963D01*
X173279566Y-117802437D01*
X173293371Y-117814317D01*
X173306194Y-117826548D01*
X173317997Y-117839083D01*
X173328735Y-117851864D01*
X173338367Y-117864841D01*
X173346851Y-117877959D01*
X173354143Y-117891165D01*
X173360205Y-117904410D01*
X173364993Y-117917634D01*
X173366895Y-117924226D01*
X173368465Y-117930793D01*
X173369692Y-117937327D01*
X173370579Y-117943826D01*
X173371113Y-117950280D01*
X173371292Y-117956685D01*
X173371065Y-117960338D01*
X173370391Y-117964588D01*
X173367739Y-117974801D01*
X173363419Y-117987178D01*
X173357518Y-118001568D01*
X173350113Y-118017825D01*
X173341289Y-118035799D01*
X173331125Y-118055344D01*
X173319707Y-118076312D01*
X173307115Y-118098551D01*
X173293431Y-118121919D01*
X173278742Y-118146262D01*
X173263122Y-118171437D01*
X173229438Y-118223683D01*
X173211535Y-118250458D01*
X173193035Y-118277471D01*
X173176834Y-118301330D01*
X173157885Y-118329992D01*
X173112600Y-118400442D01*
X173058857Y-118486260D01*
X172998345Y-118584885D01*
X172989463Y-118599010D01*
X172978981Y-118614811D01*
X172967283Y-118631756D01*
X172954761Y-118649321D01*
X172941798Y-118666974D01*
X172928786Y-118684188D01*
X172916107Y-118700435D01*
X172904155Y-118715188D01*
X172891851Y-118730213D01*
X172878305Y-118747381D01*
X172863957Y-118766088D01*
X172849249Y-118785736D01*
X172834620Y-118805724D01*
X172820515Y-118825451D01*
X172807370Y-118844320D01*
X172795632Y-118861730D01*
X172783462Y-118879544D01*
X172771522Y-118895771D01*
X172759708Y-118910477D01*
X172747910Y-118923714D01*
X172741982Y-118929807D01*
X172736018Y-118935555D01*
X172730005Y-118940967D01*
X172723929Y-118946054D01*
X172717776Y-118950819D01*
X172711531Y-118955274D01*
X172705184Y-118959423D01*
X172698718Y-118963277D01*
X172692121Y-118966841D01*
X172685381Y-118970126D01*
X172678480Y-118973135D01*
X172671410Y-118975878D01*
X172664156Y-118978366D01*
X172656701Y-118980601D01*
X172649036Y-118982596D01*
X172641144Y-118984352D01*
X172633013Y-118985884D01*
X172624631Y-118987196D01*
X172607052Y-118989191D01*
X172588302Y-118990400D01*
X172568273Y-118990884D01*
X172549882Y-118990660D01*
X172532513Y-118989614D01*
X172516135Y-118987730D01*
X172500713Y-118984986D01*
X172486214Y-118981365D01*
X172472609Y-118976848D01*
X172459856Y-118971413D01*
X172447930Y-118965045D01*
X172436792Y-118957722D01*
X172426415Y-118949426D01*
X172416757Y-118940139D01*
X172407793Y-118929841D01*
X172399484Y-118918514D01*
X172391801Y-118906136D01*
X172384707Y-118892693D01*
X172378170Y-118878161D01*
X172372078Y-118862073D01*
X172369585Y-118854305D01*
X172367483Y-118846689D01*
X172365782Y-118839193D01*
X172364494Y-118831792D01*
X172363636Y-118824455D01*
X172363216Y-118817157D01*
X172363251Y-118809867D01*
X172363756Y-118802563D01*
X172364738Y-118795211D01*
X172366217Y-118787788D01*
X172368201Y-118780264D01*
X172370707Y-118772613D01*
X172373747Y-118764805D01*
X172377333Y-118756815D01*
X172381480Y-118748612D01*
X172386201Y-118740172D01*
X172391507Y-118731466D01*
X172397414Y-118722464D01*
X172403937Y-118713141D01*
X172411082Y-118703469D01*
X172427310Y-118682967D01*
X172446203Y-118660733D01*
X172467867Y-118636551D01*
X172492409Y-118610195D01*
X172519935Y-118581446D01*
X172551258Y-118548227D01*
X172580223Y-118515799D01*
X172606479Y-118484635D01*
X172629674Y-118455204D01*
X172640014Y-118441285D01*
X172649457Y-118427975D01*
X172657958Y-118415335D01*
X172665477Y-118403421D01*
X172671965Y-118392293D01*
X172677381Y-118382009D01*
X172681680Y-118372630D01*
X172684819Y-118364212D01*
X172690460Y-118348007D01*
X172697995Y-118328678D01*
X172707098Y-118306954D01*
X172717442Y-118283562D01*
X172728699Y-118259229D01*
X172740543Y-118234683D01*
X172752646Y-118210652D01*
X172764681Y-118187865D01*
X172822190Y-118081636D01*
X172737932Y-117968147D01*
X172720489Y-117944425D01*
X172703273Y-117920412D01*
X172686731Y-117896766D01*
X172671300Y-117874147D01*
X172657429Y-117853209D01*
X172645562Y-117834616D01*
X172636138Y-117819021D01*
X172629603Y-117807084D01*
X172624053Y-117796605D01*
X172617590Y-117785182D01*
X172610445Y-117773181D01*
X172602854Y-117760969D01*
X172595049Y-117748907D01*
X172587260Y-117737363D01*
X172579720Y-117726701D01*
X172572666Y-117717287D01*
X172540187Y-117675255D01*
X172435105Y-117772312D01*
X172412601Y-117792689D01*
X172388845Y-117813453D01*
X172364550Y-117834024D01*
X172340436Y-117853824D01*
X172317215Y-117872270D01*
X172295607Y-117888783D01*
X172276329Y-117902786D01*
X172260095Y-117913696D01*
X172249581Y-117920773D01*
X172244499Y-117924498D01*
X172239513Y-117928380D01*
X172234608Y-117932447D01*
X172229767Y-117936721D01*
X172224972Y-117941227D01*
X172220209Y-117945992D01*
X172215462Y-117951038D01*
X172210714Y-117956392D01*
X172205950Y-117962078D01*
X172201152Y-117968123D01*
X172196304Y-117974550D01*
X172191391Y-117981384D01*
X172181307Y-117996377D01*
X172170768Y-118013298D01*
X172159645Y-118032350D01*
X172147810Y-118053732D01*
X172135134Y-118077642D01*
X172121487Y-118104282D01*
X172106740Y-118133852D01*
X172090765Y-118166550D01*
X172073431Y-118202576D01*
X171978523Y-118400131D01*
X171914280Y-118531770D01*
X171904440Y-118552327D01*
X171892566Y-118578334D01*
X171864531Y-118642465D01*
X171833810Y-118715734D01*
X171804039Y-118789700D01*
X171783282Y-118841939D01*
X171766241Y-118882518D01*
X171758818Y-118898872D01*
X171751973Y-118912834D01*
X171745582Y-118924581D01*
X171739533Y-118934285D01*
X171733703Y-118942121D01*
X171727978Y-118948264D01*
X171722240Y-118952889D01*
X171716368Y-118956171D01*
X171710249Y-118958285D01*
X171703762Y-118959406D01*
X171696787Y-118959705D01*
X171689212Y-118959361D01*
X171684278Y-118959052D01*
X171679868Y-118958848D01*
X171675986Y-118958742D01*
X171672636Y-118958733D01*
X171669826Y-118958821D01*
X171667557Y-118959004D01*
X171665834Y-118959281D01*
X171664660Y-118959646D01*
X171664283Y-118959863D01*
X171664043Y-118960104D01*
X171663945Y-118960365D01*
X171663985Y-118960648D01*
X171664168Y-118960952D01*
X171664492Y-118961278D01*
X171665569Y-118961993D01*
X171667216Y-118962792D01*
X171669443Y-118963670D01*
X171672252Y-118964629D01*
X171675648Y-118965667D01*
X171678977Y-118966706D01*
X171682129Y-118967854D01*
X171685097Y-118969109D01*
X171687888Y-118970470D01*
X171690495Y-118971938D01*
X171692923Y-118973506D01*
X171695169Y-118975179D01*
X171697233Y-118976953D01*
X171699116Y-118978825D01*
X171700817Y-118980798D01*
X171702336Y-118982868D01*
X171703673Y-118985033D01*
X171704828Y-118987294D01*
X171705799Y-118989648D01*
X171706588Y-118992096D01*
X171707196Y-118994633D01*
X171707618Y-118997263D01*
X171707859Y-118999980D01*
X171707916Y-119002786D01*
X171707789Y-119005678D01*
X171707478Y-119008654D01*
X171706984Y-119011715D01*
X171706306Y-119014859D01*
X171705443Y-119018084D01*
X171704397Y-119021389D01*
X171703163Y-119024774D01*
X171701748Y-119028236D01*
X171700145Y-119031776D01*
X171698360Y-119035391D01*
X171696387Y-119039079D01*
X171694230Y-119042841D01*
X171691886Y-119046674D01*
X171690934Y-119048095D01*
X171689939Y-119049450D01*
X171688904Y-119050742D01*
X171687830Y-119051970D01*
X171686719Y-119053134D01*
X171685574Y-119054232D01*
X171684395Y-119055263D01*
X171683185Y-119056230D01*
X171681944Y-119057130D01*
X171680674Y-119057961D01*
X171679380Y-119058724D01*
X171678060Y-119059420D01*
X171676717Y-119060046D01*
X171675353Y-119060601D01*
X171673968Y-119061088D01*
X171672566Y-119061505D01*
X171671148Y-119061850D01*
X171669714Y-119062124D01*
X171668269Y-119062325D01*
X171666811Y-119062453D01*
X171665345Y-119062509D01*
X171663872Y-119062489D01*
X171662392Y-119062399D01*
X171660909Y-119062230D01*
X171659421Y-119061988D01*
X171657934Y-119061669D01*
X171656449Y-119061275D01*
X171654963Y-119060805D01*
X171653485Y-119060255D01*
X171652010Y-119059627D01*
X171650545Y-119058922D01*
X171649089Y-119058137D01*
X171645520Y-119056148D01*
X171642406Y-119054482D01*
X171639745Y-119053143D01*
X171637537Y-119052137D01*
X171635777Y-119051470D01*
X171635066Y-119051266D01*
X171634467Y-119051145D01*
X171633979Y-119051114D01*
X171633603Y-119051168D01*
X171633337Y-119051312D01*
X171633184Y-119051546D01*
X171633140Y-119051867D01*
X171633209Y-119052280D01*
X171633385Y-119052785D01*
X171633674Y-119053379D01*
X171634073Y-119054066D01*
X171634580Y-119054846D01*
X171635925Y-119056686D01*
X171637704Y-119058904D01*
X171639920Y-119061507D01*
X171642570Y-119064498D01*
X171645650Y-119067881D01*
X171647242Y-119069645D01*
X171648720Y-119071398D01*
X171650083Y-119073140D01*
X171651333Y-119074876D01*
X171652466Y-119076612D01*
X171653486Y-119078350D01*
X171654388Y-119080098D01*
X171655177Y-119081855D01*
X171655846Y-119083630D01*
X171656399Y-119085424D01*
X171656837Y-119087242D01*
X171657152Y-119089091D01*
X171657351Y-119090971D01*
X171657432Y-119092887D01*
X171657393Y-119094845D01*
X171657233Y-119096851D01*
X171656954Y-119098905D01*
X171656554Y-119101013D01*
X171656030Y-119103180D01*
X171655387Y-119105408D01*
X171654623Y-119107704D01*
X171653735Y-119110071D01*
X171652722Y-119112513D01*
X171651587Y-119115033D01*
X171650328Y-119117639D01*
X171648946Y-119120333D01*
X171645805Y-119125999D01*
X171642160Y-119132069D01*
X171638008Y-119138574D01*
X171633842Y-119144816D01*
X171629932Y-119150362D01*
X171626259Y-119155224D01*
X171622803Y-119159406D01*
X171619550Y-119162924D01*
X171617991Y-119164434D01*
X171616477Y-119165780D01*
X171615004Y-119166964D01*
X171613569Y-119167986D01*
X171612170Y-119168846D01*
X171610807Y-119169548D01*
X171609474Y-119170091D01*
X171608172Y-119170477D01*
X171606897Y-119170709D01*
X171605646Y-119170782D01*
X171604419Y-119170703D01*
X171603212Y-119170470D01*
X171602021Y-119170087D01*
X171600851Y-119169551D01*
X171599692Y-119168867D01*
X171598544Y-119168034D01*
X171597406Y-119167053D01*
X171596272Y-119165925D01*
X171595147Y-119164652D01*
X171594024Y-119163235D01*
X171591772Y-119159972D01*
X171590786Y-119158449D01*
X171589831Y-119157073D01*
X171588908Y-119155840D01*
X171588019Y-119154753D01*
X171587160Y-119153811D01*
X171586333Y-119153016D01*
X171585539Y-119152366D01*
X171584777Y-119151861D01*
X171584046Y-119151504D01*
X171583347Y-119151292D01*
X171583010Y-119151241D01*
X171582679Y-119151228D01*
X171582357Y-119151250D01*
X171582042Y-119151310D01*
X171581736Y-119151407D01*
X171581437Y-119151540D01*
X171581146Y-119151711D01*
X171580862Y-119151917D01*
X171580319Y-119152445D01*
X171579806Y-119153119D01*
X171579325Y-119153940D01*
X171578876Y-119154910D01*
X171578454Y-119156029D01*
X171578065Y-119157298D01*
X171577703Y-119158715D01*
X171577374Y-119160283D01*
X171577076Y-119162000D01*
X171576806Y-119163866D01*
X171576568Y-119165886D01*
X171576358Y-119168054D01*
X171576180Y-119170372D01*
X171576029Y-119172842D01*
X171575908Y-119175462D01*
X171575818Y-119178236D01*
X171575723Y-119184236D01*
X171575538Y-119188888D01*
X171575059Y-119193600D01*
X171574294Y-119198364D01*
X171573242Y-119203176D01*
X171571913Y-119208027D01*
X171570312Y-119212913D01*
X171568442Y-119217828D01*
X171566306Y-119222764D01*
X171563915Y-119227718D01*
X171561272Y-119232680D01*
X171555243Y-119242613D01*
X171548265Y-119252514D01*
X171540377Y-119262331D01*
X171531621Y-119272021D01*
X171522037Y-119281531D01*
X171511665Y-119290814D01*
X171500547Y-119299822D01*
X171488725Y-119308502D01*
X171476238Y-119316812D01*
X171463126Y-119324699D01*
X171449434Y-119332116D01*
X171441370Y-119335832D01*
X171432795Y-119338971D01*
X171423757Y-119341548D01*
X171414303Y-119343577D01*
X171404484Y-119345078D01*
X171394347Y-119346060D01*
X171373311Y-119346543D01*
X171351581Y-119345157D01*
X171329547Y-119342026D01*
X171307592Y-119337279D01*
X171286103Y-119331041D01*
X171265466Y-119323439D01*
X171246070Y-119314600D01*
X171228299Y-119304653D01*
X171212541Y-119293722D01*
X171205538Y-119287927D01*
X171199182Y-119281933D01*
X171193524Y-119275758D01*
X171188609Y-119269416D01*
X171184489Y-119262924D01*
X171181209Y-119256296D01*
X171178818Y-119249550D01*
X171177364Y-119242699D01*
X171175836Y-119229099D01*
X171175100Y-119215777D01*
X171175137Y-119202783D01*
X171175930Y-119190167D01*
X171177456Y-119177986D01*
X171179693Y-119166293D01*
X171182623Y-119155133D01*
X171186226Y-119144568D01*
X171190479Y-119134644D01*
X171195365Y-119125413D01*
X171200861Y-119116931D01*
X171206947Y-119109248D01*
X171213603Y-119102417D01*
X171220809Y-119096491D01*
X171224610Y-119093883D01*
X171228542Y-119091521D01*
X171232600Y-119089410D01*
X171236785Y-119087559D01*
X171242292Y-119085286D01*
X171247133Y-119083192D01*
X171251314Y-119081267D01*
X171254838Y-119079509D01*
X171257706Y-119077911D01*
X171259921Y-119076467D01*
X171260786Y-119075802D01*
X171261488Y-119075173D01*
X171262029Y-119074578D01*
X171262411Y-119074020D01*
X171262630Y-119073495D01*
X171262690Y-119073003D01*
X171262590Y-119072544D01*
X171262330Y-119072117D01*
X171261911Y-119071721D01*
X171261333Y-119071358D01*
X171260596Y-119071020D01*
X171259703Y-119070715D01*
X171257443Y-119070185D01*
X171254556Y-119069763D01*
X171251043Y-119069443D01*
X171246910Y-119069218D01*
X171242763Y-119069291D01*
X171238605Y-119069786D01*
X171234444Y-119070689D01*
X171230291Y-119071987D01*
X171226153Y-119073660D01*
X171222040Y-119075702D01*
X171217964Y-119078092D01*
X171213932Y-119080819D01*
X171209954Y-119083869D01*
X171206040Y-119087225D01*
X171202198Y-119090875D01*
X171198439Y-119094803D01*
X171194771Y-119098997D01*
X171191205Y-119103440D01*
X171187748Y-119108120D01*
X171184411Y-119113018D01*
X171181204Y-119118127D01*
X171178134Y-119123426D01*
X171175214Y-119128904D01*
X171172451Y-119134548D01*
X171169855Y-119140340D01*
X171167436Y-119146268D01*
X171165203Y-119152318D01*
X171163164Y-119158474D01*
X171161331Y-119164721D01*
X171159710Y-119171046D01*
X171158314Y-119177437D01*
X171157150Y-119183876D01*
X171156230Y-119190349D01*
X171155559Y-119196844D01*
X171155150Y-119203346D01*
X171155012Y-119209839D01*
X171154941Y-119217113D01*
X171154729Y-119223685D01*
X171154369Y-119229563D01*
X171153857Y-119234747D01*
X171153189Y-119239253D01*
X171152362Y-119243087D01*
X171151371Y-119246255D01*
X171150812Y-119247592D01*
X171150212Y-119248766D01*
X171149568Y-119249778D01*
X171148880Y-119250629D01*
X171148148Y-119251317D01*
X171147372Y-119251849D01*
X171146549Y-119252220D01*
X171145682Y-119252435D01*
X171144768Y-119252494D01*
X171143809Y-119252397D01*
X171142799Y-119252145D01*
X171141745Y-119251739D01*
X171140642Y-119251182D01*
X171139487Y-119250471D01*
X171137034Y-119248603D01*
X171134377Y-119246139D01*
X171131374Y-119242599D01*
X171128876Y-119238514D01*
X171126875Y-119233903D01*
X171125364Y-119228785D01*
X171124340Y-119223179D01*
X171123786Y-119217107D01*
X171123701Y-119210584D01*
X171124074Y-119203634D01*
X171124901Y-119196275D01*
X171126169Y-119188526D01*
X171127875Y-119180407D01*
X171130008Y-119171937D01*
X171135528Y-119154024D01*
X171142665Y-119134942D01*
X171151358Y-119114849D01*
X171161547Y-119093901D01*
X171173165Y-119072252D01*
X171186151Y-119050059D01*
X171200445Y-119027479D01*
X171215983Y-119004669D01*
X171232702Y-118981784D01*
X171250540Y-118958978D01*
X171269561Y-118935060D01*
X171286843Y-118912492D01*
X171302360Y-118891333D01*
X171316090Y-118871637D01*
X171328006Y-118853464D01*
X171338085Y-118836868D01*
X171346304Y-118821908D01*
X171352639Y-118808639D01*
X171357062Y-118797118D01*
X171359552Y-118787405D01*
X171360062Y-118783241D01*
X171360082Y-118779552D01*
X171359604Y-118776342D01*
X171358630Y-118773618D01*
X171357152Y-118771390D01*
X171355171Y-118769662D01*
X171352680Y-118768440D01*
X171349679Y-118767737D01*
X171346164Y-118767555D01*
X171342133Y-118767901D01*
X171332504Y-118770213D01*
X171328079Y-118771404D01*
X171322389Y-118772610D01*
X171307553Y-118775034D01*
X171288717Y-118777416D01*
X171266590Y-118779695D01*
X171241883Y-118781801D01*
X171215308Y-118783674D01*
X171187578Y-118785244D01*
X171159406Y-118786453D01*
X171022990Y-118791038D01*
X170989936Y-118864022D01*
X170984814Y-118874785D01*
X170979194Y-118885511D01*
X170966465Y-118906835D01*
X170951777Y-118927976D01*
X170935148Y-118948917D01*
X170916601Y-118969643D01*
X170896159Y-118990131D01*
X170873843Y-119010371D01*
X170849677Y-119030338D01*
X170823681Y-119050021D01*
X170795878Y-119069397D01*
X170766288Y-119088455D01*
X170734936Y-119107175D01*
X170701843Y-119125536D01*
X170667033Y-119143526D01*
X170630526Y-119161122D01*
X170592345Y-119178314D01*
X170553773Y-119195801D01*
X170515801Y-119214226D01*
X170479406Y-119233036D01*
X170445562Y-119251679D01*
X170415249Y-119269608D01*
X170389440Y-119286268D01*
X170378529Y-119293950D01*
X170369113Y-119301110D01*
X170361308Y-119307676D01*
X170355240Y-119313583D01*
X170340943Y-119328490D01*
X170327310Y-119341918D01*
X170314283Y-119353894D01*
X170301791Y-119364443D01*
X170289774Y-119373593D01*
X170278171Y-119381367D01*
X170272502Y-119384746D01*
X170266911Y-119387793D01*
X170261394Y-119390509D01*
X170255938Y-119392897D01*
X170250536Y-119394961D01*
X170245182Y-119396705D01*
X170239868Y-119398129D01*
X170234583Y-119399241D01*
X170229322Y-119400041D01*
X170224074Y-119400533D01*
X170218834Y-119400720D01*
X170213594Y-119400608D01*
X170208343Y-119400196D01*
X170203078Y-119399489D01*
X170197786Y-119398490D01*
X170192462Y-119397205D01*
X170187098Y-119395635D01*
X170181683Y-119393782D01*
X170170678Y-119389242D01*
X170163560Y-119386120D01*
X170156864Y-119383412D01*
X170150549Y-119381124D01*
X170144572Y-119379251D01*
X170138888Y-119377796D01*
X170133455Y-119376760D01*
X170128234Y-119376140D01*
X170123176Y-119375940D01*
X170118242Y-119376158D01*
X170113388Y-119376794D01*
X170108572Y-119377851D01*
X170103750Y-119379329D01*
X170098880Y-119381224D01*
X170093920Y-119383541D01*
X170088825Y-119386275D01*
X170083556Y-119389433D01*
X170077965Y-119392725D01*
X170075235Y-119394178D01*
X170072536Y-119395499D01*
X170069859Y-119396690D01*
X170067195Y-119397747D01*
X170064531Y-119398669D01*
X170061860Y-119399456D01*
X170059174Y-119400103D01*
X170056462Y-119400614D01*
X170053713Y-119400983D01*
X170050920Y-119401211D01*
X170048073Y-119401296D01*
X170045162Y-119401239D01*
X170042177Y-119401034D01*
X170039109Y-119400682D01*
X170035950Y-119400183D01*
X170032687Y-119399533D01*
X170029314Y-119398733D01*
X170025820Y-119397778D01*
X170022197Y-119396672D01*
X170018432Y-119395411D01*
X170010448Y-119392416D01*
X170001791Y-119388784D01*
X169992382Y-119384503D01*
X169982153Y-119379565D01*
X169971022Y-119373958D01*
X169955467Y-119366273D01*
X169940167Y-119359090D01*
X169925518Y-119352570D01*
X169911912Y-119346875D01*
X169899748Y-119342165D01*
X169889424Y-119338600D01*
X169885075Y-119337298D01*
X169881335Y-119336343D01*
X169878250Y-119335753D01*
X169875874Y-119335555D01*
X169874784Y-119335659D01*
X169873560Y-119335967D01*
X169872202Y-119336474D01*
X169870724Y-119337176D01*
X169869123Y-119338065D01*
X169867408Y-119339140D01*
X169863653Y-119341818D01*
X169859494Y-119345171D01*
X169854977Y-119349157D01*
X169850139Y-119353735D01*
X169845018Y-119358865D01*
X169839656Y-119364504D01*
X169834091Y-119370613D01*
X169828365Y-119377152D01*
X169822515Y-119384079D01*
X169816583Y-119391351D01*
X169810607Y-119398930D01*
X169804628Y-119406775D01*
X169798686Y-119414845D01*
X169787101Y-119430412D01*
X169776285Y-119444267D01*
X169766472Y-119456153D01*
X169757896Y-119465810D01*
X169754143Y-119469720D01*
X169750787Y-119472975D01*
X169747857Y-119475543D01*
X169745380Y-119477392D01*
X169743389Y-119478488D01*
X169742583Y-119478742D01*
X169741908Y-119478800D01*
X169741370Y-119478651D01*
X169740972Y-119478294D01*
X169740715Y-119477725D01*
X169740605Y-119476937D01*
X169740536Y-119476110D01*
X169740397Y-119475385D01*
X169740192Y-119474759D01*
X169740066Y-119474482D01*
X169739924Y-119474231D01*
X169739766Y-119474005D01*
X169739594Y-119473801D01*
X169739405Y-119473621D01*
X169739202Y-119473466D01*
X169738983Y-119473336D01*
X169738749Y-119473228D01*
X169738502Y-119473144D01*
X169738241Y-119473083D01*
X169737675Y-119473034D01*
X169737056Y-119473074D01*
X169736384Y-119473207D01*
X169735660Y-119473428D01*
X169734888Y-119473741D01*
X169734069Y-119474138D01*
X169733202Y-119474623D01*
X169732293Y-119475195D01*
X169731341Y-119475850D01*
X169730347Y-119476588D01*
X169729314Y-119477411D01*
X169728245Y-119478315D01*
X169727140Y-119479296D01*
X169725999Y-119480357D01*
X169724827Y-119481497D01*
X169723623Y-119482714D01*
X169722392Y-119484007D01*
X169721132Y-119485376D01*
X169719847Y-119486816D01*
X169718536Y-119488330D01*
X169717205Y-119489914D01*
X169715853Y-119491570D01*
X169714481Y-119493296D01*
X169713092Y-119495088D01*
X169710263Y-119498634D01*
X169707312Y-119501952D01*
X169704258Y-119505030D01*
X169701129Y-119507859D01*
X169697948Y-119510427D01*
X169694738Y-119512720D01*
X169691524Y-119514729D01*
X169688325Y-119516439D01*
X169685173Y-119517842D01*
X169682084Y-119518922D01*
X169680573Y-119519338D01*
X169679086Y-119519669D01*
X169677628Y-119519917D01*
X169676203Y-119520075D01*
X169674811Y-119520145D01*
X169673457Y-119520125D01*
X169672142Y-119520012D01*
X169670872Y-119519805D01*
X169669648Y-119519503D01*
X169668474Y-119519105D01*
X169667349Y-119518610D01*
X169666282Y-119518016D01*
X169665196Y-119517374D01*
X169664155Y-119516808D01*
X169663160Y-119516318D01*
X169662213Y-119515903D01*
X169661312Y-119515564D01*
X169660459Y-119515298D01*
X169659656Y-119515105D01*
X169658900Y-119514986D01*
X169658194Y-119514938D01*
X169657536Y-119514961D01*
X169656930Y-119515054D01*
X169656372Y-119515218D01*
X169655864Y-119515452D01*
X169655410Y-119515753D01*
X169655005Y-119516122D01*
X169654651Y-119516559D01*
X169654352Y-119517062D01*
X169654102Y-119517632D01*
X169653908Y-119518266D01*
X169653764Y-119518965D01*
X169653676Y-119519729D01*
X169653641Y-119520555D01*
X169653661Y-119521445D01*
X169653734Y-119522395D01*
X169653865Y-119523408D01*
X169654051Y-119524480D01*
X169654290Y-119525614D01*
X169654588Y-119526806D01*
X169654942Y-119528056D01*
X169655352Y-119529365D01*
X169655821Y-119530731D01*
X169656348Y-119532154D01*
X169656825Y-119533541D01*
X169657223Y-119534972D01*
X169657538Y-119536450D01*
X169657776Y-119537966D01*
X169657934Y-119539521D01*
X169658016Y-119541106D01*
X169657955Y-119544370D01*
X169657598Y-119547726D01*
X169656959Y-119551150D01*
X169656046Y-119554614D01*
X169654867Y-119558088D01*
X169653432Y-119561554D01*
X169651753Y-119564978D01*
X169649838Y-119568334D01*
X169647696Y-119571596D01*
X169645337Y-119574737D01*
X169642771Y-119577732D01*
X169640006Y-119580548D01*
X169637051Y-119583167D01*
X169634042Y-119585616D01*
X169631116Y-119587870D01*
X169628287Y-119589924D01*
X169625572Y-119591773D01*
X169622986Y-119593410D01*
X169620545Y-119594830D01*
X169618261Y-119596028D01*
X169616153Y-119596994D01*
X169614236Y-119597726D01*
X169612525Y-119598217D01*
X169611034Y-119598462D01*
X169610377Y-119598490D01*
X169609781Y-119598454D01*
X169609248Y-119598355D01*
X169608778Y-119598187D01*
X169608375Y-119597954D01*
X169608044Y-119597656D01*
X169607781Y-119597289D01*
X169607591Y-119596854D01*
X169607475Y-119596350D01*
X169607437Y-119595777D01*
X169607386Y-119595223D01*
X169607235Y-119594774D01*
X169606989Y-119594431D01*
X169606648Y-119594191D01*
X169606214Y-119594053D01*
X169605690Y-119594016D01*
X169605081Y-119594079D01*
X169604385Y-119594236D01*
X169603608Y-119594490D01*
X169602751Y-119594837D01*
X169601816Y-119595274D01*
X169600805Y-119595802D01*
X169599725Y-119596420D01*
X169598573Y-119597125D01*
X169596069Y-119598786D01*
X169593313Y-119600773D01*
X169590327Y-119603076D01*
X169587129Y-119605678D01*
X169583740Y-119608567D01*
X169580178Y-119611727D01*
X169576462Y-119615148D01*
X169572613Y-119618815D01*
X169568652Y-119622715D01*
X169564397Y-119626736D01*
X169559689Y-119630759D01*
X169554576Y-119634757D01*
X169549107Y-119638705D01*
X169543330Y-119642576D01*
X169537294Y-119646346D01*
X169531047Y-119649988D01*
X169524636Y-119653476D01*
X169518112Y-119656785D01*
X169511523Y-119659890D01*
X169504915Y-119662763D01*
X169498339Y-119665381D01*
X169491842Y-119667717D01*
X169485475Y-119669745D01*
X169479281Y-119671438D01*
X169473314Y-119672773D01*
X169467628Y-119674015D01*
X169462196Y-119675371D01*
X169457040Y-119676825D01*
X169452183Y-119678364D01*
X169447652Y-119679977D01*
X169443470Y-119681650D01*
X169439660Y-119683368D01*
X169436249Y-119685120D01*
X169433256Y-119686892D01*
X169430709Y-119688671D01*
X169428631Y-119690444D01*
X169427047Y-119692198D01*
X169426448Y-119693064D01*
X169425980Y-119693920D01*
X169425647Y-119694763D01*
X169425453Y-119695595D01*
X169425401Y-119696413D01*
X169425492Y-119697212D01*
X169425732Y-119697995D01*
X169426121Y-119698757D01*
X169426545Y-119699539D01*
X169426884Y-119700372D01*
X169427143Y-119701260D01*
X169427318Y-119702196D01*
X169427416Y-119703178D01*
X169427435Y-119704206D01*
X169427377Y-119705276D01*
X169427244Y-119706384D01*
X169427037Y-119707530D01*
X169426758Y-119708709D01*
X169426407Y-119709920D01*
X169425989Y-119711159D01*
X169425499Y-119712426D01*
X169424943Y-119713716D01*
X169423639Y-119716358D01*
X169422082Y-119719065D01*
X169420286Y-119721816D01*
X169418260Y-119724592D01*
X169416020Y-119727371D01*
X169413573Y-119730134D01*
X169410929Y-119732858D01*
X169408105Y-119735527D01*
X169405106Y-119738115D01*
X169400671Y-119741704D01*
X169396589Y-119744802D01*
X169392825Y-119747410D01*
X169391055Y-119748527D01*
X169389349Y-119749523D01*
X169387708Y-119750392D01*
X169386125Y-119751140D01*
X169384597Y-119751761D01*
X169383120Y-119752257D01*
X169381690Y-119752630D01*
X169380304Y-119752878D01*
X169378956Y-119752999D01*
X169377640Y-119752994D01*
X169376357Y-119752864D01*
X169375099Y-119752607D01*
X169373863Y-119752225D01*
X169372644Y-119751715D01*
X169371439Y-119751079D01*
X169370244Y-119750315D01*
X169369055Y-119749424D01*
X169367868Y-119748405D01*
X169366675Y-119747260D01*
X169365479Y-119745984D01*
X169364269Y-119744580D01*
X169363046Y-119743050D01*
X169360535Y-119739599D01*
X169357914Y-119735632D01*
X169355357Y-119731645D01*
X169353053Y-119728211D01*
X169350987Y-119725337D01*
X169349148Y-119723025D01*
X169348311Y-119722080D01*
X169347526Y-119721277D01*
X169346789Y-119720616D01*
X169346106Y-119720098D01*
X169345468Y-119719724D01*
X169344875Y-119719494D01*
X169344327Y-119719406D01*
X169343823Y-119719464D01*
X169343360Y-119719665D01*
X169342936Y-119720014D01*
X169342551Y-119720508D01*
X169342205Y-119721148D01*
X169341892Y-119721934D01*
X169341612Y-119722869D01*
X169341366Y-119723951D01*
X169341148Y-119725181D01*
X169340801Y-119728086D01*
X169340558Y-119731590D01*
X169340408Y-119735697D01*
X169340335Y-119740408D01*
X169340166Y-119745010D01*
X169339769Y-119749391D01*
X169339154Y-119753550D01*
X169338331Y-119757482D01*
X169337309Y-119761186D01*
X169336098Y-119764655D01*
X169334708Y-119767891D01*
X169333144Y-119770888D01*
X169331421Y-119773643D01*
X169329545Y-119776156D01*
X169327525Y-119778421D01*
X169325374Y-119780434D01*
X169323099Y-119782196D01*
X169320708Y-119783700D01*
X169318211Y-119784945D01*
X169315618Y-119785928D01*
X169312938Y-119786646D01*
X169310182Y-119787095D01*
X169307357Y-119787272D01*
X169304474Y-119787176D01*
X169301541Y-119786804D01*
X169298567Y-119786149D01*
X169295564Y-119785212D01*
X169292540Y-119783987D01*
X169289502Y-119782475D01*
X169286461Y-119780669D01*
X169283429Y-119778566D01*
X169280411Y-119776167D01*
X169277420Y-119773467D01*
X169274464Y-119770462D01*
X169271549Y-119767149D01*
X169268689Y-119763525D01*
X169259855Y-119751866D01*
X169256293Y-119747288D01*
X169253263Y-119743547D01*
X169250731Y-119740640D01*
X169248674Y-119738569D01*
X169247812Y-119737848D01*
X169247059Y-119737337D01*
X169246408Y-119737037D01*
X169245858Y-119736946D01*
X169245404Y-119737064D01*
X169245042Y-119737393D01*
X169244770Y-119737930D01*
X169244583Y-119738679D01*
X169244478Y-119739639D01*
X169244451Y-119740809D01*
X169244615Y-119743779D01*
X169245049Y-119747593D01*
X169245723Y-119752250D01*
X169247673Y-119764099D01*
X169248092Y-119766746D01*
X169248415Y-119769277D01*
X169248638Y-119771696D01*
X169248757Y-119774005D01*
X169248769Y-119776208D01*
X169248675Y-119778306D01*
X169248465Y-119780303D01*
X169248139Y-119782198D01*
X169247693Y-119783999D01*
X169247124Y-119785706D01*
X169246431Y-119787321D01*
X169245604Y-119788848D01*
X169244647Y-119790288D01*
X169243551Y-119791644D01*
X169242316Y-119792921D01*
X169240937Y-119794119D01*
X169239413Y-119795243D01*
X169237739Y-119796291D01*
X169235910Y-119797270D01*
X169233926Y-119798182D01*
X169231780Y-119799029D01*
X169229473Y-119799813D01*
X169226998Y-119800538D01*
X169224351Y-119801203D01*
X169221534Y-119801815D01*
X169218537Y-119802375D01*
X169212002Y-119803351D01*
X169204719Y-119804150D01*
X169196660Y-119804795D01*
X169190680Y-119805071D01*
X169184594Y-119805122D01*
X169178439Y-119804950D01*
X169172264Y-119804572D01*
X169166113Y-119803991D01*
X169160026Y-119803219D01*
X169154050Y-119802267D01*
X169148227Y-119801142D01*
X169142601Y-119799852D01*
X169137216Y-119798408D01*
X169132116Y-119796820D01*
X169127342Y-119795096D01*
X169122941Y-119793245D01*
X169118954Y-119791276D01*
X169115428Y-119789201D01*
X169112404Y-119787026D01*
X169108706Y-119784179D01*
X169105274Y-119781725D01*
X169102093Y-119779668D01*
X169100589Y-119778787D01*
X169099146Y-119778008D01*
X169097757Y-119777326D01*
X169096422Y-119776744D01*
X169095140Y-119776262D01*
X169093910Y-119775880D01*
X169092725Y-119775597D01*
X169091590Y-119775414D01*
X169090499Y-119775331D01*
X169089452Y-119775348D01*
X169088448Y-119775465D01*
X169087483Y-119775682D01*
X169086558Y-119776001D01*
X169085669Y-119776420D01*
X169084815Y-119776938D01*
X169083994Y-119777558D01*
X169083205Y-119778279D01*
X169082445Y-119779100D01*
X169081715Y-119780024D01*
X169081010Y-119781046D01*
X169080333Y-119782172D01*
X169079678Y-119783399D01*
X169079040Y-119784726D01*
X169078427Y-119786155D01*
X169077249Y-119789319D01*
X169076286Y-119792041D01*
X169075293Y-119794585D01*
X169074264Y-119796947D01*
X169073198Y-119799131D01*
X169072088Y-119801135D01*
X169070931Y-119802957D01*
X169069720Y-119804600D01*
X169068454Y-119806061D01*
X169067126Y-119807340D01*
X169065733Y-119808438D01*
X169064270Y-119809354D01*
X169062735Y-119810087D01*
X169061117Y-119810638D01*
X169059418Y-119811007D01*
X169057633Y-119811193D01*
X169055754Y-119811195D01*
X169053781Y-119811014D01*
X169051705Y-119810648D01*
X169049526Y-119810100D01*
X169047235Y-119809365D01*
X169044832Y-119808447D01*
X169042310Y-119807343D01*
X169039665Y-119806053D01*
X169036895Y-119804580D01*
X169033990Y-119802920D01*
X169030950Y-119801074D01*
X169027772Y-119799041D01*
X169024447Y-119796821D01*
X169020972Y-119794414D01*
X169017347Y-119791821D01*
X169009614Y-119786071D01*
X169006255Y-119783299D01*
X169002885Y-119780088D01*
X168996159Y-119772482D01*
X168989523Y-119763496D01*
X168983071Y-119753375D01*
X168976895Y-119742370D01*
X168971082Y-119730723D01*
X168965726Y-119718683D01*
X168960917Y-119706494D01*
X168956747Y-119694405D01*
X168953306Y-119682661D01*
X168950685Y-119671506D01*
X168948974Y-119661191D01*
X168948266Y-119651957D01*
X168948317Y-119647824D01*
X168948649Y-119644055D01*
X168949279Y-119640678D01*
X168950216Y-119637729D01*
X168951473Y-119635232D01*
X168953060Y-119633224D01*
X168953652Y-119632703D01*
X168954316Y-119632249D01*
X168955047Y-119631862D01*
X168955845Y-119631541D01*
X168956705Y-119631284D01*
X168957628Y-119631091D01*
X168958608Y-119630961D01*
X168959643Y-119630896D01*
X168960731Y-119630890D01*
X168961872Y-119630945D01*
X168963056Y-119631061D01*
X168964289Y-119631235D01*
X168966874Y-119631759D01*
X168969611Y-119632507D01*
X168972474Y-119633476D01*
X168975444Y-119634656D01*
X168978501Y-119636044D01*
X168981620Y-119637632D01*
X168984785Y-119639410D01*
X168987972Y-119641374D01*
X168991161Y-119643518D01*
X168994329Y-119645834D01*
X168998725Y-119649193D01*
X169002522Y-119652027D01*
X169005724Y-119654329D01*
X169008328Y-119656085D01*
X169010331Y-119657290D01*
X169011109Y-119657681D01*
X169011737Y-119657931D01*
X169012214Y-119658037D01*
X169012540Y-119658001D01*
X169012646Y-119657927D01*
X169012717Y-119657818D01*
X169012744Y-119657487D01*
X169012617Y-119657012D01*
X169012342Y-119656386D01*
X169011917Y-119655609D01*
X169011340Y-119654682D01*
X169009732Y-119652368D01*
X169007521Y-119649434D01*
X169004705Y-119645872D01*
X169001279Y-119641671D01*
X168992609Y-119631314D01*
X168988200Y-119625883D01*
X168984296Y-119620575D01*
X168980916Y-119615375D01*
X168978077Y-119610261D01*
X168975800Y-119605214D01*
X168974100Y-119600219D01*
X168972996Y-119595255D01*
X168972508Y-119590304D01*
X168972650Y-119585349D01*
X168973441Y-119580373D01*
X168974901Y-119575353D01*
X168977047Y-119570274D01*
X168979896Y-119565116D01*
X168983467Y-119559862D01*
X168987779Y-119554493D01*
X168992848Y-119548991D01*
X168998695Y-119543336D01*
X169005333Y-119537512D01*
X169012784Y-119531500D01*
X169021064Y-119525282D01*
X169030191Y-119518837D01*
X169040186Y-119512150D01*
X169051062Y-119505200D01*
X169062842Y-119497970D01*
X169075541Y-119490441D01*
X169089176Y-119482596D01*
X169119334Y-119465879D01*
X169153460Y-119447674D01*
X169191693Y-119427835D01*
X169242272Y-119401051D01*
X169288987Y-119374554D01*
X169332511Y-119347878D01*
X169353281Y-119334326D01*
X169373509Y-119320556D01*
X169393272Y-119306508D01*
X169412654Y-119292123D01*
X169431741Y-119277347D01*
X169450616Y-119262117D01*
X169488063Y-119230068D01*
X169525664Y-119195509D01*
X169665136Y-119062913D01*
X169617562Y-118977702D01*
X169607187Y-118957544D01*
X169597646Y-118935694D01*
X169588966Y-118912381D01*
X169581174Y-118887826D01*
X169574301Y-118862259D01*
X169568371Y-118835901D01*
X169563413Y-118808980D01*
X169559457Y-118781725D01*
X169559443Y-118781584D01*
X169656424Y-118781584D01*
X169656440Y-118785260D01*
X169656733Y-118789358D01*
X169657317Y-118793880D01*
X169658204Y-118798832D01*
X169659405Y-118804220D01*
X169662296Y-118814536D01*
X169665929Y-118824811D01*
X169670255Y-118834997D01*
X169675235Y-118845038D01*
X169680824Y-118854884D01*
X169686974Y-118864481D01*
X169693644Y-118873780D01*
X169700793Y-118882722D01*
X169708373Y-118891260D01*
X169716340Y-118899342D01*
X169724651Y-118906913D01*
X169733264Y-118913921D01*
X169742131Y-118920315D01*
X169751213Y-118926044D01*
X169760462Y-118931050D01*
X169769836Y-118935287D01*
X169780599Y-118939637D01*
X169790153Y-118943278D01*
X169798569Y-118946164D01*
X169805917Y-118948261D01*
X169809212Y-118949000D01*
X169812267Y-118949527D01*
X169815093Y-118949836D01*
X169817694Y-118949922D01*
X169820083Y-118949781D01*
X169822267Y-118949409D01*
X169824254Y-118948797D01*
X169826057Y-118947945D01*
X169827679Y-118946843D01*
X169829131Y-118945492D01*
X169830425Y-118943880D01*
X169831567Y-118942006D01*
X169832568Y-118939868D01*
X169833434Y-118937456D01*
X169833764Y-118936266D01*
X170262304Y-118936266D01*
X170262309Y-118938382D01*
X170262448Y-118940292D01*
X170262720Y-118941999D01*
X170263133Y-118943510D01*
X170263689Y-118944828D01*
X170264392Y-118945962D01*
X170265247Y-118946916D01*
X170266262Y-118947697D01*
X170267434Y-118948310D01*
X170268773Y-118948758D01*
X170270280Y-118949050D01*
X170271961Y-118949191D01*
X170273819Y-118949187D01*
X170275861Y-118949041D01*
X170280507Y-118948349D01*
X170285933Y-118947168D01*
X170292172Y-118945538D01*
X170299260Y-118943502D01*
X170308918Y-118940306D01*
X170319599Y-118936273D01*
X170330948Y-118931567D01*
X170342607Y-118926355D01*
X170354221Y-118920803D01*
X170365436Y-118915077D01*
X170375892Y-118909341D01*
X170385236Y-118903760D01*
X170390080Y-118900593D01*
X170394824Y-118897258D01*
X170403981Y-118890145D01*
X170412643Y-118882538D01*
X170420741Y-118874557D01*
X170428207Y-118866318D01*
X170434979Y-118857936D01*
X170440985Y-118849528D01*
X170446160Y-118841214D01*
X170450438Y-118833107D01*
X170453751Y-118825326D01*
X170455024Y-118821592D01*
X170456032Y-118817985D01*
X170456765Y-118814517D01*
X170457215Y-118811203D01*
X170457373Y-118808058D01*
X170457232Y-118805097D01*
X170456783Y-118802331D01*
X170456017Y-118799782D01*
X170454927Y-118797457D01*
X170453503Y-118795374D01*
X170451738Y-118793548D01*
X170449624Y-118791992D01*
X170448661Y-118791500D01*
X170447603Y-118791166D01*
X170446451Y-118790984D01*
X170445213Y-118790957D01*
X170443890Y-118791079D01*
X170442486Y-118791345D01*
X170441006Y-118791757D01*
X170439452Y-118792306D01*
X170437830Y-118792993D01*
X170436141Y-118793814D01*
X170434394Y-118794764D01*
X170432588Y-118795845D01*
X170430725Y-118797049D01*
X170428813Y-118798374D01*
X170424857Y-118801378D01*
X170420746Y-118804832D01*
X170416512Y-118808711D01*
X170412183Y-118812992D01*
X170407790Y-118817651D01*
X170403366Y-118822662D01*
X170398940Y-118828002D01*
X170394543Y-118833645D01*
X170390205Y-118839566D01*
X170383322Y-118849194D01*
X170377167Y-118857605D01*
X170371663Y-118864829D01*
X170366727Y-118870895D01*
X170362286Y-118875827D01*
X170360225Y-118877880D01*
X170358257Y-118879660D01*
X170356375Y-118881170D01*
X170354566Y-118882417D01*
X170352822Y-118883403D01*
X170351132Y-118884131D01*
X170349488Y-118884603D01*
X170347878Y-118884827D01*
X170346292Y-118884803D01*
X170344722Y-118884538D01*
X170343159Y-118884028D01*
X170341591Y-118883285D01*
X170340009Y-118882310D01*
X170338404Y-118881104D01*
X170336763Y-118879672D01*
X170335081Y-118878019D01*
X170331546Y-118874063D01*
X170327719Y-118869259D01*
X170323526Y-118863639D01*
X170318250Y-118856659D01*
X170315788Y-118853582D01*
X170313434Y-118850785D01*
X170311182Y-118848273D01*
X170309027Y-118846050D01*
X170306963Y-118844119D01*
X170304987Y-118842484D01*
X170303087Y-118841148D01*
X170301266Y-118840117D01*
X170299511Y-118839395D01*
X170297819Y-118838986D01*
X170296185Y-118838891D01*
X170295388Y-118838964D01*
X170294601Y-118839116D01*
X170293828Y-118839352D01*
X170293065Y-118839667D01*
X170291570Y-118840546D01*
X170290108Y-118841755D01*
X170288675Y-118843302D01*
X170287267Y-118845186D01*
X170285876Y-118847416D01*
X170284496Y-118849993D01*
X170283124Y-118852922D01*
X170281752Y-118856207D01*
X170280374Y-118859852D01*
X170278987Y-118863860D01*
X170277583Y-118868235D01*
X170274704Y-118878102D01*
X170271691Y-118889489D01*
X170268498Y-118902425D01*
X170266452Y-118911171D01*
X170264774Y-118918882D01*
X170263502Y-118925607D01*
X170262665Y-118931385D01*
X170262304Y-118936266D01*
X169833764Y-118936266D01*
X169834177Y-118934765D01*
X169834802Y-118931793D01*
X169835321Y-118928536D01*
X169835742Y-118924984D01*
X169836326Y-118916986D01*
X169836623Y-118907759D01*
X169836706Y-118897266D01*
X169836385Y-118885905D01*
X169835460Y-118875362D01*
X169833986Y-118865700D01*
X169832026Y-118856983D01*
X169829635Y-118849270D01*
X169826874Y-118842624D01*
X169825371Y-118839722D01*
X169823797Y-118837108D01*
X169822161Y-118834792D01*
X169820466Y-118832785D01*
X169818722Y-118831089D01*
X169816940Y-118829713D01*
X169815119Y-118828669D01*
X169813273Y-118827960D01*
X169811406Y-118827595D01*
X169809525Y-118827583D01*
X169807640Y-118827931D01*
X169805756Y-118828646D01*
X169803879Y-118829738D01*
X169802022Y-118831213D01*
X169800186Y-118833078D01*
X169798382Y-118835344D01*
X169796615Y-118838014D01*
X169794895Y-118841100D01*
X169793226Y-118844609D01*
X169791617Y-118848547D01*
X169790024Y-118852443D01*
X169788361Y-118856032D01*
X169786630Y-118859319D01*
X169784836Y-118862301D01*
X169782981Y-118864983D01*
X169781064Y-118867361D01*
X169779092Y-118869438D01*
X169777064Y-118871218D01*
X169774983Y-118872696D01*
X169772855Y-118873874D01*
X169770676Y-118874754D01*
X169768454Y-118875340D01*
X169766188Y-118875627D01*
X169763882Y-118875621D01*
X169761540Y-118875318D01*
X169759161Y-118874721D01*
X169756748Y-118873830D01*
X169754307Y-118872648D01*
X169751835Y-118871175D01*
X169749340Y-118869410D01*
X169746820Y-118867355D01*
X169744280Y-118865008D01*
X169741721Y-118862375D01*
X169739145Y-118859455D01*
X169736554Y-118856246D01*
X169733955Y-118852751D01*
X169731346Y-118848970D01*
X169728731Y-118844904D01*
X169726111Y-118840555D01*
X169723490Y-118835923D01*
X169720868Y-118831008D01*
X169718251Y-118825811D01*
X169715200Y-118819746D01*
X169712109Y-118813986D01*
X169708991Y-118808534D01*
X169705856Y-118803395D01*
X169702716Y-118798575D01*
X169699587Y-118794075D01*
X169696473Y-118789902D01*
X169693392Y-118786058D01*
X169690353Y-118782549D01*
X169687370Y-118779379D01*
X169684451Y-118776556D01*
X169681612Y-118774077D01*
X169678863Y-118771951D01*
X169676218Y-118770181D01*
X169673683Y-118768772D01*
X169671274Y-118767728D01*
X169669003Y-118767053D01*
X169666879Y-118766754D01*
X169664917Y-118766829D01*
X169663129Y-118767290D01*
X169661524Y-118768138D01*
X169660115Y-118769375D01*
X169658915Y-118771009D01*
X169657933Y-118773041D01*
X169657182Y-118775479D01*
X169656676Y-118778325D01*
X169656424Y-118781584D01*
X169559443Y-118781584D01*
X169556528Y-118754354D01*
X169554653Y-118727098D01*
X169553861Y-118700181D01*
X169554182Y-118673827D01*
X169555639Y-118648267D01*
X169558265Y-118623722D01*
X169562084Y-118600418D01*
X169567123Y-118578580D01*
X169570126Y-118567110D01*
X169572688Y-118556350D01*
X169574800Y-118546214D01*
X169576462Y-118536612D01*
X169577665Y-118527458D01*
X169578407Y-118518659D01*
X169578684Y-118510126D01*
X169578491Y-118501775D01*
X169577824Y-118493512D01*
X169576677Y-118485248D01*
X169575044Y-118476897D01*
X169572926Y-118468369D01*
X169570315Y-118459575D01*
X169567207Y-118450424D01*
X169563596Y-118440829D01*
X169559481Y-118430701D01*
X169553011Y-118411959D01*
X169546955Y-118388024D01*
X169541343Y-118359497D01*
X169536217Y-118326981D01*
X169531607Y-118291079D01*
X169527553Y-118252394D01*
X169521245Y-118169094D01*
X169520083Y-118141438D01*
X170987836Y-118141438D01*
X170987946Y-118156114D01*
X170988396Y-118168497D01*
X170989152Y-118178408D01*
X170989632Y-118182382D01*
X170990176Y-118185668D01*
X170990777Y-118188248D01*
X170991432Y-118190098D01*
X170992137Y-118191196D01*
X170992506Y-118191455D01*
X170992886Y-118191520D01*
X170993277Y-118191382D01*
X170993676Y-118191046D01*
X170994501Y-118189753D01*
X170995359Y-118187618D01*
X170996241Y-118184618D01*
X170997085Y-118181029D01*
X170997819Y-118177101D01*
X170998445Y-118172869D01*
X170998963Y-118168377D01*
X170999371Y-118163659D01*
X170999671Y-118158757D01*
X170999863Y-118153710D01*
X170999945Y-118148555D01*
X170999916Y-118143333D01*
X170999778Y-118138084D01*
X170999529Y-118132846D01*
X170999171Y-118127658D01*
X170998701Y-118122560D01*
X170998121Y-118117590D01*
X170997428Y-118112789D01*
X170996625Y-118108194D01*
X170995771Y-118104201D01*
X170995351Y-118102539D01*
X170994938Y-118101096D01*
X170994529Y-118099871D01*
X170994127Y-118098863D01*
X170993731Y-118098066D01*
X170993343Y-118097483D01*
X170992962Y-118097107D01*
X170992592Y-118096939D01*
X170992409Y-118096934D01*
X170992231Y-118096977D01*
X170991879Y-118097219D01*
X170991537Y-118097660D01*
X170991207Y-118098300D01*
X170990887Y-118099138D01*
X170990582Y-118100170D01*
X170990289Y-118101394D01*
X170990008Y-118102808D01*
X170989491Y-118106201D01*
X170989035Y-118110330D01*
X170988643Y-118115180D01*
X170988325Y-118120731D01*
X170988080Y-118126970D01*
X170987916Y-118133877D01*
X170987836Y-118141438D01*
X169520083Y-118141438D01*
X169518227Y-118097304D01*
X170409882Y-118097304D01*
X170409907Y-118098520D01*
X170409976Y-118099661D01*
X170410095Y-118100727D01*
X170410258Y-118101719D01*
X170410470Y-118102635D01*
X170410727Y-118103473D01*
X170411033Y-118104239D01*
X170411385Y-118104928D01*
X170411783Y-118105541D01*
X170412228Y-118106081D01*
X170412718Y-118106543D01*
X170413258Y-118106929D01*
X170413843Y-118107240D01*
X170414475Y-118107474D01*
X170415152Y-118107633D01*
X170415878Y-118107716D01*
X170416648Y-118107722D01*
X170417465Y-118107653D01*
X170418330Y-118107509D01*
X170419240Y-118107286D01*
X170420197Y-118106987D01*
X170421199Y-118106612D01*
X170422247Y-118106161D01*
X170423344Y-118105633D01*
X170424485Y-118105028D01*
X170425672Y-118104345D01*
X170426906Y-118103588D01*
X170428186Y-118102752D01*
X170429512Y-118101840D01*
X170430883Y-118100851D01*
X170432302Y-118099784D01*
X170433766Y-118098641D01*
X170452104Y-118084418D01*
X170484324Y-118059809D01*
X170572283Y-117993176D01*
X170620614Y-117956060D01*
X170667478Y-117918925D01*
X170707535Y-117886056D01*
X170723342Y-117872557D01*
X170735446Y-117861727D01*
X170746171Y-117851992D01*
X170758159Y-117841626D01*
X170771007Y-117830944D01*
X170784310Y-117820269D01*
X170797666Y-117809915D01*
X170810676Y-117800201D01*
X170822932Y-117791446D01*
X170834033Y-117783967D01*
X170842578Y-117778399D01*
X170850155Y-117773596D01*
X170856865Y-117769568D01*
X170862812Y-117766330D01*
X170865529Y-117765011D01*
X170868094Y-117763894D01*
X170870519Y-117762980D01*
X170872817Y-117762271D01*
X170875000Y-117761770D01*
X170877079Y-117761475D01*
X170879072Y-117761391D01*
X170880987Y-117761517D01*
X170882838Y-117761857D01*
X170884637Y-117762411D01*
X170886398Y-117763182D01*
X170888136Y-117764167D01*
X170889857Y-117765373D01*
X170891580Y-117766799D01*
X170893314Y-117768447D01*
X170895077Y-117770319D01*
X170896875Y-117772415D01*
X170898725Y-117774739D01*
X170902627Y-117780070D01*
X170906886Y-117786327D01*
X170911602Y-117793520D01*
X170914519Y-117798300D01*
X170917520Y-117803923D01*
X170920583Y-117810316D01*
X170923688Y-117817410D01*
X170926809Y-117825131D01*
X170929928Y-117833410D01*
X170933018Y-117842180D01*
X170936058Y-117851364D01*
X170941903Y-117870693D01*
X170947284Y-117890835D01*
X170949742Y-117901032D01*
X170952019Y-117911217D01*
X170954088Y-117921322D01*
X170955929Y-117931273D01*
X170972551Y-118026803D01*
X170978664Y-117949998D01*
X170979336Y-117933492D01*
X170978835Y-117916109D01*
X170977256Y-117898115D01*
X170974693Y-117879781D01*
X170971242Y-117861373D01*
X170966996Y-117843161D01*
X170962052Y-117825413D01*
X170956501Y-117808399D01*
X170950441Y-117792384D01*
X170943965Y-117777640D01*
X170937166Y-117764433D01*
X170930141Y-117753030D01*
X170922986Y-117743705D01*
X170919387Y-117739903D01*
X170915790Y-117736718D01*
X170912209Y-117734189D01*
X170908653Y-117732346D01*
X170905136Y-117731222D01*
X170901668Y-117730854D01*
X170898118Y-117731078D01*
X170894168Y-117731713D01*
X170889823Y-117732757D01*
X170885087Y-117734209D01*
X170874442Y-117738328D01*
X170862259Y-117744054D01*
X170848562Y-117751371D01*
X170833374Y-117760266D01*
X170816717Y-117770722D01*
X170798616Y-117782726D01*
X170779093Y-117796260D01*
X170758171Y-117811311D01*
X170735873Y-117827864D01*
X170712224Y-117845901D01*
X170687245Y-117865410D01*
X170660962Y-117886374D01*
X170633396Y-117908780D01*
X170604572Y-117932611D01*
X170589142Y-117945221D01*
X170572301Y-117958699D01*
X170536553Y-117986560D01*
X170518733Y-118000099D01*
X170501668Y-118012811D01*
X170485902Y-118024273D01*
X170471977Y-118034062D01*
X170465644Y-118038556D01*
X170459490Y-118043128D01*
X170453547Y-118047746D01*
X170447848Y-118052381D01*
X170442420Y-118056996D01*
X170437299Y-118061562D01*
X170432519Y-118066043D01*
X170428105Y-118070412D01*
X170424092Y-118074630D01*
X170420511Y-118078671D01*
X170417396Y-118082497D01*
X170414776Y-118086079D01*
X170412682Y-118089382D01*
X170411149Y-118092376D01*
X170410205Y-118095027D01*
X170409965Y-118096214D01*
X170409882Y-118097304D01*
X169518227Y-118097304D01*
X169517579Y-118081907D01*
X169516841Y-117995661D01*
X169517658Y-117954399D01*
X169519315Y-117915182D01*
X169521844Y-117878613D01*
X169525281Y-117845297D01*
X169530280Y-117806417D01*
X169532620Y-117790414D01*
X169534962Y-117776495D01*
X169537390Y-117764502D01*
X169539982Y-117754280D01*
X169542821Y-117745670D01*
X169545988Y-117738518D01*
X169547718Y-117735442D01*
X169549565Y-117732667D01*
X169551533Y-117730183D01*
X169553634Y-117727961D01*
X169555877Y-117725989D01*
X169558273Y-117724244D01*
X169563567Y-117721357D01*
X169569597Y-117719145D01*
X169576445Y-117717451D01*
X169584191Y-117716121D01*
X169592916Y-117714995D01*
X169596901Y-117714627D01*
X169600846Y-117714426D01*
X169604761Y-117714400D01*
X169608664Y-117714561D01*
X169612569Y-117714918D01*
X169616489Y-117715482D01*
X169620442Y-117716260D01*
X169624439Y-117717263D01*
X169628494Y-117718501D01*
X169632626Y-117719985D01*
X169636848Y-117721725D01*
X169641173Y-117723728D01*
X169645617Y-117726005D01*
X169650197Y-117728566D01*
X169654922Y-117731420D01*
X169659810Y-117734578D01*
X169664876Y-117738050D01*
X169670135Y-117741846D01*
X169681286Y-117750446D01*
X169693382Y-117760455D01*
X169706539Y-117771955D01*
X169720875Y-117785020D01*
X169736509Y-117799732D01*
X169753554Y-117816168D01*
X169772129Y-117834406D01*
X169821948Y-117883198D01*
X169863885Y-117923106D01*
X169880533Y-117938451D01*
X169893571Y-117950046D01*
X169902453Y-117957374D01*
X169905165Y-117959283D01*
X169906635Y-117959933D01*
X169908110Y-117959538D01*
X169910908Y-117958382D01*
X169920184Y-117953938D01*
X169933881Y-117946915D01*
X169951414Y-117937627D01*
X169972198Y-117926384D01*
X169995648Y-117913504D01*
X170021179Y-117899299D01*
X170048209Y-117884081D01*
X170076776Y-117868333D01*
X170106583Y-117852739D01*
X170136758Y-117837705D01*
X170166426Y-117823635D01*
X170194715Y-117810936D01*
X170220754Y-117800013D01*
X170243664Y-117791270D01*
X170262576Y-117785115D01*
X170294248Y-117775835D01*
X170320922Y-117767775D01*
X170339822Y-117761794D01*
X170345489Y-117759849D01*
X170348172Y-117758748D01*
X170348457Y-117758445D01*
X170348812Y-117757869D01*
X170349725Y-117755912D01*
X170350889Y-117752937D01*
X170352287Y-117749000D01*
X170355723Y-117738466D01*
X170359898Y-117724763D01*
X170364670Y-117708348D01*
X170369906Y-117689671D01*
X170375470Y-117669190D01*
X170381224Y-117647360D01*
X170396369Y-117595512D01*
X170414523Y-117544430D01*
X170435592Y-117494224D01*
X170459494Y-117444997D01*
X170486141Y-117396859D01*
X170515444Y-117349920D01*
X170547316Y-117304284D01*
X170581669Y-117260059D01*
X170618414Y-117217358D01*
X170657466Y-117176283D01*
X170698736Y-117136944D01*
X170742137Y-117099450D01*
X170787580Y-117063904D01*
X170834979Y-117030419D01*
X170884247Y-116999102D01*
X170935294Y-116970058D01*
X170950083Y-116961910D01*
X170963595Y-116954052D01*
X170975970Y-116946322D01*
X170987350Y-116938557D01*
X170997874Y-116930595D01*
X171007687Y-116922272D01*
X171016927Y-116913430D01*
X171025737Y-116903903D01*
X171034259Y-116893529D01*
X171042633Y-116882147D01*
X171051001Y-116869595D01*
X171059503Y-116855709D01*
X171068283Y-116840327D01*
X171077481Y-116823287D01*
X171087238Y-116804427D01*
X171097693Y-116783584D01*
X171130438Y-116720789D01*
X171166273Y-116658364D01*
X171204986Y-116596531D01*
X171246377Y-116535512D01*
X171290235Y-116475531D01*
X171336356Y-116416808D01*
X171384532Y-116359565D01*
X171434554Y-116304027D01*
X171486218Y-116250413D01*
X171539318Y-116198949D01*
X171593644Y-116149852D01*
X171648991Y-116103350D01*
X171705152Y-116059660D01*
X171761920Y-116019009D01*
X171819088Y-115981615D01*
X171876449Y-115947703D01*
X171970395Y-115895388D01*
X172046961Y-115853537D01*
X172109684Y-115820469D01*
X172162107Y-115794497D01*
X172207766Y-115773945D01*
X172250205Y-115757129D01*
X172292961Y-115742370D01*
X172339576Y-115727984D01*
X172383960Y-115714936D01*
X172425120Y-115703226D01*
X172466059Y-115692106D01*
X172509784Y-115680818D01*
X172559307Y-115668606D01*
X172617628Y-115654717D01*
X172772706Y-115618890D01*
X172816791Y-115608340D01*
X172835520Y-115603299D01*
X172852520Y-115598110D01*
X172868150Y-115592544D01*
X172882769Y-115586371D01*
X172896735Y-115579364D01*
X172910411Y-115571293D01*
X172924154Y-115561931D01*
X172938322Y-115551047D01*
X172953276Y-115538415D01*
X172969375Y-115523805D01*
X172986982Y-115506990D01*
X173006450Y-115487738D01*
X173052416Y-115441015D01*
X173135199Y-115354089D01*
X173214407Y-115266810D01*
X173288881Y-115180634D01*
X173357465Y-115097013D01*
X173419000Y-115017406D01*
X173472331Y-114943264D01*
X173495555Y-114908700D01*
X173516296Y-114876048D01*
X173534406Y-114845491D01*
X173549741Y-114817208D01*
X173558871Y-114800010D01*
X173569793Y-114780405D01*
X173582102Y-114759081D01*
X173595380Y-114736724D01*
X173609225Y-114714030D01*
X173623224Y-114691683D01*
X173636969Y-114670374D01*
X173650047Y-114650796D01*
X173663965Y-114629315D01*
X173680243Y-114602688D01*
X173698290Y-114571964D01*
X173717515Y-114538190D01*
X173737320Y-114502422D01*
X173757114Y-114465705D01*
X173776305Y-114429091D01*
X173794298Y-114393630D01*
X173821078Y-114339229D01*
X173831993Y-114316204D01*
X173841407Y-114295341D01*
X173849429Y-114276172D01*
X173856168Y-114258235D01*
X173861740Y-114241061D01*
X173866254Y-114224185D01*
X173869821Y-114207141D01*
X173872550Y-114189466D01*
X173874554Y-114170689D01*
X173875947Y-114150343D01*
X173876835Y-114127970D01*
X173877334Y-114103098D01*
X173877599Y-114043993D01*
X173877388Y-113984807D01*
X173876977Y-113960193D01*
X173876233Y-113938364D01*
X173875060Y-113918920D01*
X173873357Y-113901458D01*
X173871026Y-113885575D01*
X173867973Y-113870872D01*
X173864098Y-113856943D01*
X173859304Y-113843392D01*
X173853492Y-113829812D01*
X173846566Y-113815807D01*
X173838428Y-113800971D01*
X173828978Y-113784905D01*
X173805761Y-113747471D01*
X173780658Y-113708592D01*
X173767681Y-113689444D01*
X173754153Y-113670154D01*
X173739874Y-113650478D01*
X173724642Y-113630163D01*
X173690527Y-113586623D01*
X173650207Y-113537538D01*
X173602077Y-113480918D01*
X173544539Y-113414761D01*
X173475993Y-113337076D01*
X173404379Y-113253959D01*
X173340920Y-113175602D01*
X173312479Y-113138565D01*
X173286353Y-113103146D01*
X173262635Y-113069489D01*
X173241420Y-113037735D01*
X173222797Y-113008028D01*
X173206857Y-112980509D01*
X173193697Y-112955323D01*
X173183404Y-112932612D01*
X173176075Y-112912518D01*
X173171799Y-112895183D01*
X173170671Y-112880751D01*
X173171316Y-112874668D01*
X173172783Y-112869365D01*
X173175730Y-112863025D01*
X173179390Y-112857479D01*
X173183772Y-112852734D01*
X173188893Y-112848795D01*
X173194771Y-112845668D01*
X173201413Y-112843360D01*
X173208839Y-112841876D01*
X173217060Y-112841223D01*
X173226092Y-112841405D01*
G37*
D11*
X129040000Y-108650000D02*
X201140000Y-108650000D01*
X201140000Y-139130000D01*
X129040000Y-139130000D01*
X129040000Y-108650000D01*
D12*
X189408971Y-135163842D02*
X189332781Y-135125747D01*
X189332781Y-135125747D02*
X189294686Y-135087651D01*
X189294686Y-135087651D02*
X189256590Y-135011461D01*
X189256590Y-135011461D02*
X189256590Y-134973366D01*
X189256590Y-134973366D02*
X189294686Y-134897175D01*
X189294686Y-134897175D02*
X189332781Y-134859080D01*
X189332781Y-134859080D02*
X189408971Y-134820985D01*
X189408971Y-134820985D02*
X189561352Y-134820985D01*
X189561352Y-134820985D02*
X189637543Y-134859080D01*
X189637543Y-134859080D02*
X189675638Y-134897175D01*
X189675638Y-134897175D02*
X189713733Y-134973366D01*
X189713733Y-134973366D02*
X189713733Y-135011461D01*
X189713733Y-135011461D02*
X189675638Y-135087651D01*
X189675638Y-135087651D02*
X189637543Y-135125747D01*
X189637543Y-135125747D02*
X189561352Y-135163842D01*
X189561352Y-135163842D02*
X189408971Y-135163842D01*
X189408971Y-135163842D02*
X189332781Y-135201937D01*
X189332781Y-135201937D02*
X189294686Y-135240032D01*
X189294686Y-135240032D02*
X189256590Y-135316223D01*
X189256590Y-135316223D02*
X189256590Y-135468604D01*
X189256590Y-135468604D02*
X189294686Y-135544794D01*
X189294686Y-135544794D02*
X189332781Y-135582890D01*
X189332781Y-135582890D02*
X189408971Y-135620985D01*
X189408971Y-135620985D02*
X189561352Y-135620985D01*
X189561352Y-135620985D02*
X189637543Y-135582890D01*
X189637543Y-135582890D02*
X189675638Y-135544794D01*
X189675638Y-135544794D02*
X189713733Y-135468604D01*
X189713733Y-135468604D02*
X189713733Y-135316223D01*
X189713733Y-135316223D02*
X189675638Y-135240032D01*
X189675638Y-135240032D02*
X189637543Y-135201937D01*
X189637543Y-135201937D02*
X189561352Y-135163842D01*
X190399448Y-134820985D02*
X190247067Y-134820985D01*
X190247067Y-134820985D02*
X190170876Y-134859080D01*
X190170876Y-134859080D02*
X190132781Y-134897175D01*
X190132781Y-134897175D02*
X190056591Y-135011461D01*
X190056591Y-135011461D02*
X190018495Y-135163842D01*
X190018495Y-135163842D02*
X190018495Y-135468604D01*
X190018495Y-135468604D02*
X190056591Y-135544794D01*
X190056591Y-135544794D02*
X190094686Y-135582890D01*
X190094686Y-135582890D02*
X190170876Y-135620985D01*
X190170876Y-135620985D02*
X190323257Y-135620985D01*
X190323257Y-135620985D02*
X190399448Y-135582890D01*
X190399448Y-135582890D02*
X190437543Y-135544794D01*
X190437543Y-135544794D02*
X190475638Y-135468604D01*
X190475638Y-135468604D02*
X190475638Y-135278128D01*
X190475638Y-135278128D02*
X190437543Y-135201937D01*
X190437543Y-135201937D02*
X190399448Y-135163842D01*
X190399448Y-135163842D02*
X190323257Y-135125747D01*
X190323257Y-135125747D02*
X190170876Y-135125747D01*
X190170876Y-135125747D02*
X190094686Y-135163842D01*
X190094686Y-135163842D02*
X190056591Y-135201937D01*
X190056591Y-135201937D02*
X190018495Y-135278128D01*
X190932781Y-135163842D02*
X190856591Y-135125747D01*
X190856591Y-135125747D02*
X190818496Y-135087651D01*
X190818496Y-135087651D02*
X190780400Y-135011461D01*
X190780400Y-135011461D02*
X190780400Y-134973366D01*
X190780400Y-134973366D02*
X190818496Y-134897175D01*
X190818496Y-134897175D02*
X190856591Y-134859080D01*
X190856591Y-134859080D02*
X190932781Y-134820985D01*
X190932781Y-134820985D02*
X191085162Y-134820985D01*
X191085162Y-134820985D02*
X191161353Y-134859080D01*
X191161353Y-134859080D02*
X191199448Y-134897175D01*
X191199448Y-134897175D02*
X191237543Y-134973366D01*
X191237543Y-134973366D02*
X191237543Y-135011461D01*
X191237543Y-135011461D02*
X191199448Y-135087651D01*
X191199448Y-135087651D02*
X191161353Y-135125747D01*
X191161353Y-135125747D02*
X191085162Y-135163842D01*
X191085162Y-135163842D02*
X190932781Y-135163842D01*
X190932781Y-135163842D02*
X190856591Y-135201937D01*
X190856591Y-135201937D02*
X190818496Y-135240032D01*
X190818496Y-135240032D02*
X190780400Y-135316223D01*
X190780400Y-135316223D02*
X190780400Y-135468604D01*
X190780400Y-135468604D02*
X190818496Y-135544794D01*
X190818496Y-135544794D02*
X190856591Y-135582890D01*
X190856591Y-135582890D02*
X190932781Y-135620985D01*
X190932781Y-135620985D02*
X191085162Y-135620985D01*
X191085162Y-135620985D02*
X191161353Y-135582890D01*
X191161353Y-135582890D02*
X191199448Y-135544794D01*
X191199448Y-135544794D02*
X191237543Y-135468604D01*
X191237543Y-135468604D02*
X191237543Y-135316223D01*
X191237543Y-135316223D02*
X191199448Y-135240032D01*
X191199448Y-135240032D02*
X191161353Y-135201937D01*
X191161353Y-135201937D02*
X191085162Y-135163842D01*
X192189925Y-135620985D02*
X192189925Y-134820985D01*
X192189925Y-134820985D02*
X192456591Y-135392413D01*
X192456591Y-135392413D02*
X192723258Y-134820985D01*
X192723258Y-134820985D02*
X192723258Y-135620985D01*
X193104211Y-135620985D02*
X193104211Y-134820985D01*
X193104211Y-135201937D02*
X193561354Y-135201937D01*
X193561354Y-135620985D02*
X193561354Y-134820985D01*
X193866115Y-135087651D02*
X194285163Y-135087651D01*
X194285163Y-135087651D02*
X193866115Y-135620985D01*
X193866115Y-135620985D02*
X194285163Y-135620985D01*
X195656592Y-135620985D02*
X195389925Y-135240032D01*
X195199449Y-135620985D02*
X195199449Y-134820985D01*
X195199449Y-134820985D02*
X195504211Y-134820985D01*
X195504211Y-134820985D02*
X195580401Y-134859080D01*
X195580401Y-134859080D02*
X195618496Y-134897175D01*
X195618496Y-134897175D02*
X195656592Y-134973366D01*
X195656592Y-134973366D02*
X195656592Y-135087651D01*
X195656592Y-135087651D02*
X195618496Y-135163842D01*
X195618496Y-135163842D02*
X195580401Y-135201937D01*
X195580401Y-135201937D02*
X195504211Y-135240032D01*
X195504211Y-135240032D02*
X195199449Y-135240032D01*
X196266115Y-135201937D02*
X195999449Y-135201937D01*
X195999449Y-135620985D02*
X195999449Y-134820985D01*
X195999449Y-134820985D02*
X196380401Y-134820985D01*
X197294687Y-135620985D02*
X197294687Y-134820985D01*
X197294687Y-134820985D02*
X197751830Y-135620985D01*
X197751830Y-135620985D02*
X197751830Y-134820985D01*
X198285163Y-134820985D02*
X198437544Y-134820985D01*
X198437544Y-134820985D02*
X198513734Y-134859080D01*
X198513734Y-134859080D02*
X198589925Y-134935270D01*
X198589925Y-134935270D02*
X198628020Y-135087651D01*
X198628020Y-135087651D02*
X198628020Y-135354318D01*
X198628020Y-135354318D02*
X198589925Y-135506699D01*
X198589925Y-135506699D02*
X198513734Y-135582890D01*
X198513734Y-135582890D02*
X198437544Y-135620985D01*
X198437544Y-135620985D02*
X198285163Y-135620985D01*
X198285163Y-135620985D02*
X198208972Y-135582890D01*
X198208972Y-135582890D02*
X198132782Y-135506699D01*
X198132782Y-135506699D02*
X198094686Y-135354318D01*
X198094686Y-135354318D02*
X198094686Y-135087651D01*
X198094686Y-135087651D02*
X198132782Y-134935270D01*
X198132782Y-134935270D02*
X198208972Y-134859080D01*
X198208972Y-134859080D02*
X198285163Y-134820985D01*
X198970877Y-135620985D02*
X198970877Y-134820985D01*
X198970877Y-134820985D02*
X199161353Y-134820985D01*
X199161353Y-134820985D02*
X199275639Y-134859080D01*
X199275639Y-134859080D02*
X199351829Y-134935270D01*
X199351829Y-134935270D02*
X199389924Y-135011461D01*
X199389924Y-135011461D02*
X199428020Y-135163842D01*
X199428020Y-135163842D02*
X199428020Y-135278128D01*
X199428020Y-135278128D02*
X199389924Y-135430509D01*
X199389924Y-135430509D02*
X199351829Y-135506699D01*
X199351829Y-135506699D02*
X199275639Y-135582890D01*
X199275639Y-135582890D02*
X199161353Y-135620985D01*
X199161353Y-135620985D02*
X198970877Y-135620985D01*
X199770877Y-135201937D02*
X200037543Y-135201937D01*
X200151829Y-135620985D02*
X199770877Y-135620985D01*
X199770877Y-135620985D02*
X199770877Y-134820985D01*
X199770877Y-134820985D02*
X200151829Y-134820985D01*
X184532778Y-136870845D02*
X184647064Y-136908940D01*
X184647064Y-136908940D02*
X184837540Y-136908940D01*
X184837540Y-136908940D02*
X184913731Y-136870845D01*
X184913731Y-136870845D02*
X184951826Y-136832749D01*
X184951826Y-136832749D02*
X184989921Y-136756559D01*
X184989921Y-136756559D02*
X184989921Y-136680368D01*
X184989921Y-136680368D02*
X184951826Y-136604178D01*
X184951826Y-136604178D02*
X184913731Y-136566083D01*
X184913731Y-136566083D02*
X184837540Y-136527987D01*
X184837540Y-136527987D02*
X184685159Y-136489892D01*
X184685159Y-136489892D02*
X184608969Y-136451797D01*
X184608969Y-136451797D02*
X184570874Y-136413702D01*
X184570874Y-136413702D02*
X184532778Y-136337511D01*
X184532778Y-136337511D02*
X184532778Y-136261321D01*
X184532778Y-136261321D02*
X184570874Y-136185130D01*
X184570874Y-136185130D02*
X184608969Y-136147035D01*
X184608969Y-136147035D02*
X184685159Y-136108940D01*
X184685159Y-136108940D02*
X184875636Y-136108940D01*
X184875636Y-136108940D02*
X184989921Y-136147035D01*
X185218493Y-136108940D02*
X185675636Y-136108940D01*
X185447064Y-136908940D02*
X185447064Y-136108940D01*
X185942303Y-136908940D02*
X185942303Y-136108940D01*
X185942303Y-136108940D02*
X186208969Y-136680368D01*
X186208969Y-136680368D02*
X186475636Y-136108940D01*
X186475636Y-136108940D02*
X186475636Y-136908940D01*
X186780398Y-136108940D02*
X187275636Y-136108940D01*
X187275636Y-136108940D02*
X187008970Y-136413702D01*
X187008970Y-136413702D02*
X187123255Y-136413702D01*
X187123255Y-136413702D02*
X187199446Y-136451797D01*
X187199446Y-136451797D02*
X187237541Y-136489892D01*
X187237541Y-136489892D02*
X187275636Y-136566083D01*
X187275636Y-136566083D02*
X187275636Y-136756559D01*
X187275636Y-136756559D02*
X187237541Y-136832749D01*
X187237541Y-136832749D02*
X187199446Y-136870845D01*
X187199446Y-136870845D02*
X187123255Y-136908940D01*
X187123255Y-136908940D02*
X186894684Y-136908940D01*
X186894684Y-136908940D02*
X186818493Y-136870845D01*
X186818493Y-136870845D02*
X186780398Y-136832749D01*
X187580398Y-136185130D02*
X187618494Y-136147035D01*
X187618494Y-136147035D02*
X187694684Y-136108940D01*
X187694684Y-136108940D02*
X187885160Y-136108940D01*
X187885160Y-136108940D02*
X187961351Y-136147035D01*
X187961351Y-136147035D02*
X187999446Y-136185130D01*
X187999446Y-136185130D02*
X188037541Y-136261321D01*
X188037541Y-136261321D02*
X188037541Y-136337511D01*
X188037541Y-136337511D02*
X187999446Y-136451797D01*
X187999446Y-136451797D02*
X187542303Y-136908940D01*
X187542303Y-136908940D02*
X188037541Y-136908940D01*
X188647065Y-136489892D02*
X188380399Y-136489892D01*
X188380399Y-136908940D02*
X188380399Y-136108940D01*
X188380399Y-136108940D02*
X188761351Y-136108940D01*
X188989922Y-136108940D02*
X189485160Y-136108940D01*
X189485160Y-136108940D02*
X189218494Y-136413702D01*
X189218494Y-136413702D02*
X189332779Y-136413702D01*
X189332779Y-136413702D02*
X189408970Y-136451797D01*
X189408970Y-136451797D02*
X189447065Y-136489892D01*
X189447065Y-136489892D02*
X189485160Y-136566083D01*
X189485160Y-136566083D02*
X189485160Y-136756559D01*
X189485160Y-136756559D02*
X189447065Y-136832749D01*
X189447065Y-136832749D02*
X189408970Y-136870845D01*
X189408970Y-136870845D02*
X189332779Y-136908940D01*
X189332779Y-136908940D02*
X189104208Y-136908940D01*
X189104208Y-136908940D02*
X189028017Y-136870845D01*
X189028017Y-136870845D02*
X188989922Y-136832749D01*
X189980399Y-136108940D02*
X190056589Y-136108940D01*
X190056589Y-136108940D02*
X190132780Y-136147035D01*
X190132780Y-136147035D02*
X190170875Y-136185130D01*
X190170875Y-136185130D02*
X190208970Y-136261321D01*
X190208970Y-136261321D02*
X190247065Y-136413702D01*
X190247065Y-136413702D02*
X190247065Y-136604178D01*
X190247065Y-136604178D02*
X190208970Y-136756559D01*
X190208970Y-136756559D02*
X190170875Y-136832749D01*
X190170875Y-136832749D02*
X190132780Y-136870845D01*
X190132780Y-136870845D02*
X190056589Y-136908940D01*
X190056589Y-136908940D02*
X189980399Y-136908940D01*
X189980399Y-136908940D02*
X189904208Y-136870845D01*
X189904208Y-136870845D02*
X189866113Y-136832749D01*
X189866113Y-136832749D02*
X189828018Y-136756559D01*
X189828018Y-136756559D02*
X189789922Y-136604178D01*
X189789922Y-136604178D02*
X189789922Y-136413702D01*
X189789922Y-136413702D02*
X189828018Y-136261321D01*
X189828018Y-136261321D02*
X189866113Y-136185130D01*
X189866113Y-136185130D02*
X189904208Y-136147035D01*
X189904208Y-136147035D02*
X189980399Y-136108940D01*
X190513732Y-136108940D02*
X191008970Y-136108940D01*
X191008970Y-136108940D02*
X190742304Y-136413702D01*
X190742304Y-136413702D02*
X190856589Y-136413702D01*
X190856589Y-136413702D02*
X190932780Y-136451797D01*
X190932780Y-136451797D02*
X190970875Y-136489892D01*
X190970875Y-136489892D02*
X191008970Y-136566083D01*
X191008970Y-136566083D02*
X191008970Y-136756559D01*
X191008970Y-136756559D02*
X190970875Y-136832749D01*
X190970875Y-136832749D02*
X190932780Y-136870845D01*
X190932780Y-136870845D02*
X190856589Y-136908940D01*
X190856589Y-136908940D02*
X190628018Y-136908940D01*
X190628018Y-136908940D02*
X190551827Y-136870845D01*
X190551827Y-136870845D02*
X190513732Y-136832749D01*
X191808971Y-136908940D02*
X191542304Y-136527987D01*
X191351828Y-136908940D02*
X191351828Y-136108940D01*
X191351828Y-136108940D02*
X191656590Y-136108940D01*
X191656590Y-136108940D02*
X191732780Y-136147035D01*
X191732780Y-136147035D02*
X191770875Y-136185130D01*
X191770875Y-136185130D02*
X191808971Y-136261321D01*
X191808971Y-136261321D02*
X191808971Y-136375606D01*
X191808971Y-136375606D02*
X191770875Y-136451797D01*
X191770875Y-136451797D02*
X191732780Y-136489892D01*
X191732780Y-136489892D02*
X191656590Y-136527987D01*
X191656590Y-136527987D02*
X191351828Y-136527987D01*
X192151828Y-136489892D02*
X192418494Y-136489892D01*
X192532780Y-136908940D02*
X192151828Y-136908940D01*
X192151828Y-136908940D02*
X192151828Y-136108940D01*
X192151828Y-136108940D02*
X192532780Y-136108940D01*
X192761352Y-136108940D02*
X193218495Y-136108940D01*
X192989923Y-136908940D02*
X192989923Y-136108940D01*
X193828019Y-136108940D02*
X193675638Y-136108940D01*
X193675638Y-136108940D02*
X193599447Y-136147035D01*
X193599447Y-136147035D02*
X193561352Y-136185130D01*
X193561352Y-136185130D02*
X193485162Y-136299416D01*
X193485162Y-136299416D02*
X193447066Y-136451797D01*
X193447066Y-136451797D02*
X193447066Y-136756559D01*
X193447066Y-136756559D02*
X193485162Y-136832749D01*
X193485162Y-136832749D02*
X193523257Y-136870845D01*
X193523257Y-136870845D02*
X193599447Y-136908940D01*
X193599447Y-136908940D02*
X193751828Y-136908940D01*
X193751828Y-136908940D02*
X193828019Y-136870845D01*
X193828019Y-136870845D02*
X193866114Y-136832749D01*
X193866114Y-136832749D02*
X193904209Y-136756559D01*
X193904209Y-136756559D02*
X193904209Y-136566083D01*
X193904209Y-136566083D02*
X193866114Y-136489892D01*
X193866114Y-136489892D02*
X193828019Y-136451797D01*
X193828019Y-136451797D02*
X193751828Y-136413702D01*
X193751828Y-136413702D02*
X193599447Y-136413702D01*
X193599447Y-136413702D02*
X193523257Y-136451797D01*
X193523257Y-136451797D02*
X193485162Y-136489892D01*
X193485162Y-136489892D02*
X193447066Y-136566083D01*
X194970876Y-136566083D02*
X194932781Y-136604178D01*
X194932781Y-136604178D02*
X194970876Y-136642273D01*
X194970876Y-136642273D02*
X195008972Y-136604178D01*
X195008972Y-136604178D02*
X194970876Y-136566083D01*
X194970876Y-136566083D02*
X194970876Y-136642273D01*
X196456591Y-136908940D02*
X196075639Y-136908940D01*
X196075639Y-136908940D02*
X196075639Y-136108940D01*
X197104210Y-136908940D02*
X196723258Y-136908940D01*
X196723258Y-136908940D02*
X196723258Y-136108940D01*
X197828020Y-136832749D02*
X197789924Y-136870845D01*
X197789924Y-136870845D02*
X197675639Y-136908940D01*
X197675639Y-136908940D02*
X197599448Y-136908940D01*
X197599448Y-136908940D02*
X197485162Y-136870845D01*
X197485162Y-136870845D02*
X197408972Y-136794654D01*
X197408972Y-136794654D02*
X197370877Y-136718464D01*
X197370877Y-136718464D02*
X197332781Y-136566083D01*
X197332781Y-136566083D02*
X197332781Y-136451797D01*
X197332781Y-136451797D02*
X197370877Y-136299416D01*
X197370877Y-136299416D02*
X197408972Y-136223225D01*
X197408972Y-136223225D02*
X197485162Y-136147035D01*
X197485162Y-136147035D02*
X197599448Y-136108940D01*
X197599448Y-136108940D02*
X197675639Y-136108940D01*
X197675639Y-136108940D02*
X197789924Y-136147035D01*
X197789924Y-136147035D02*
X197828020Y-136185130D01*
X198628020Y-136832749D02*
X198589924Y-136870845D01*
X198589924Y-136870845D02*
X198475639Y-136908940D01*
X198475639Y-136908940D02*
X198399448Y-136908940D01*
X198399448Y-136908940D02*
X198285162Y-136870845D01*
X198285162Y-136870845D02*
X198208972Y-136794654D01*
X198208972Y-136794654D02*
X198170877Y-136718464D01*
X198170877Y-136718464D02*
X198132781Y-136566083D01*
X198132781Y-136566083D02*
X198132781Y-136451797D01*
X198132781Y-136451797D02*
X198170877Y-136299416D01*
X198170877Y-136299416D02*
X198208972Y-136223225D01*
X198208972Y-136223225D02*
X198285162Y-136147035D01*
X198285162Y-136147035D02*
X198399448Y-136108940D01*
X198399448Y-136108940D02*
X198475639Y-136108940D01*
X198475639Y-136108940D02*
X198589924Y-136147035D01*
X198589924Y-136147035D02*
X198628020Y-136185130D01*
X199313734Y-136108940D02*
X199161353Y-136108940D01*
X199161353Y-136108940D02*
X199085162Y-136147035D01*
X199085162Y-136147035D02*
X199047067Y-136185130D01*
X199047067Y-136185130D02*
X198970877Y-136299416D01*
X198970877Y-136299416D02*
X198932781Y-136451797D01*
X198932781Y-136451797D02*
X198932781Y-136756559D01*
X198932781Y-136756559D02*
X198970877Y-136832749D01*
X198970877Y-136832749D02*
X199008972Y-136870845D01*
X199008972Y-136870845D02*
X199085162Y-136908940D01*
X199085162Y-136908940D02*
X199237543Y-136908940D01*
X199237543Y-136908940D02*
X199313734Y-136870845D01*
X199313734Y-136870845D02*
X199351829Y-136832749D01*
X199351829Y-136832749D02*
X199389924Y-136756559D01*
X199389924Y-136756559D02*
X199389924Y-136566083D01*
X199389924Y-136566083D02*
X199351829Y-136489892D01*
X199351829Y-136489892D02*
X199313734Y-136451797D01*
X199313734Y-136451797D02*
X199237543Y-136413702D01*
X199237543Y-136413702D02*
X199085162Y-136413702D01*
X199085162Y-136413702D02*
X199008972Y-136451797D01*
X199008972Y-136451797D02*
X198970877Y-136489892D01*
X198970877Y-136489892D02*
X198932781Y-136566083D01*
X199847067Y-136451797D02*
X199770877Y-136413702D01*
X199770877Y-136413702D02*
X199732782Y-136375606D01*
X199732782Y-136375606D02*
X199694686Y-136299416D01*
X199694686Y-136299416D02*
X199694686Y-136261321D01*
X199694686Y-136261321D02*
X199732782Y-136185130D01*
X199732782Y-136185130D02*
X199770877Y-136147035D01*
X199770877Y-136147035D02*
X199847067Y-136108940D01*
X199847067Y-136108940D02*
X199999448Y-136108940D01*
X199999448Y-136108940D02*
X200075639Y-136147035D01*
X200075639Y-136147035D02*
X200113734Y-136185130D01*
X200113734Y-136185130D02*
X200151829Y-136261321D01*
X200151829Y-136261321D02*
X200151829Y-136299416D01*
X200151829Y-136299416D02*
X200113734Y-136375606D01*
X200113734Y-136375606D02*
X200075639Y-136413702D01*
X200075639Y-136413702D02*
X199999448Y-136451797D01*
X199999448Y-136451797D02*
X199847067Y-136451797D01*
X199847067Y-136451797D02*
X199770877Y-136489892D01*
X199770877Y-136489892D02*
X199732782Y-136527987D01*
X199732782Y-136527987D02*
X199694686Y-136604178D01*
X199694686Y-136604178D02*
X199694686Y-136756559D01*
X199694686Y-136756559D02*
X199732782Y-136832749D01*
X199732782Y-136832749D02*
X199770877Y-136870845D01*
X199770877Y-136870845D02*
X199847067Y-136908940D01*
X199847067Y-136908940D02*
X199999448Y-136908940D01*
X199999448Y-136908940D02*
X200075639Y-136870845D01*
X200075639Y-136870845D02*
X200113734Y-136832749D01*
X200113734Y-136832749D02*
X200151829Y-136756559D01*
X200151829Y-136756559D02*
X200151829Y-136604178D01*
X200151829Y-136604178D02*
X200113734Y-136527987D01*
X200113734Y-136527987D02*
X200075639Y-136489892D01*
X200075639Y-136489892D02*
X199999448Y-136451797D01*
X190285162Y-138196895D02*
X190018495Y-137815942D01*
X189828019Y-138196895D02*
X189828019Y-137396895D01*
X189828019Y-137396895D02*
X190132781Y-137396895D01*
X190132781Y-137396895D02*
X190208971Y-137434990D01*
X190208971Y-137434990D02*
X190247066Y-137473085D01*
X190247066Y-137473085D02*
X190285162Y-137549276D01*
X190285162Y-137549276D02*
X190285162Y-137663561D01*
X190285162Y-137663561D02*
X190247066Y-137739752D01*
X190247066Y-137739752D02*
X190208971Y-137777847D01*
X190208971Y-137777847D02*
X190132781Y-137815942D01*
X190132781Y-137815942D02*
X189828019Y-137815942D01*
X190628019Y-137777847D02*
X190894685Y-137777847D01*
X191008971Y-138196895D02*
X190628019Y-138196895D01*
X190628019Y-138196895D02*
X190628019Y-137396895D01*
X190628019Y-137396895D02*
X191008971Y-137396895D01*
X191237543Y-137396895D02*
X191504210Y-138196895D01*
X191504210Y-138196895D02*
X191770876Y-137396895D01*
X192037543Y-138120704D02*
X192075638Y-138158800D01*
X192075638Y-138158800D02*
X192037543Y-138196895D01*
X192037543Y-138196895D02*
X191999447Y-138158800D01*
X191999447Y-138158800D02*
X192037543Y-138120704D01*
X192037543Y-138120704D02*
X192037543Y-138196895D01*
X192380399Y-137968323D02*
X192761352Y-137968323D01*
X192304209Y-138196895D02*
X192570876Y-137396895D01*
X192570876Y-137396895D02*
X192837542Y-138196895D01*
X193828018Y-137854038D02*
X193789923Y-137892133D01*
X193789923Y-137892133D02*
X193828018Y-137930228D01*
X193828018Y-137930228D02*
X193866114Y-137892133D01*
X193866114Y-137892133D02*
X193828018Y-137854038D01*
X193828018Y-137854038D02*
X193828018Y-137930228D01*
X194894685Y-137473085D02*
X194932781Y-137434990D01*
X194932781Y-137434990D02*
X195008971Y-137396895D01*
X195008971Y-137396895D02*
X195199447Y-137396895D01*
X195199447Y-137396895D02*
X195275638Y-137434990D01*
X195275638Y-137434990D02*
X195313733Y-137473085D01*
X195313733Y-137473085D02*
X195351828Y-137549276D01*
X195351828Y-137549276D02*
X195351828Y-137625466D01*
X195351828Y-137625466D02*
X195313733Y-137739752D01*
X195313733Y-137739752D02*
X194856590Y-138196895D01*
X194856590Y-138196895D02*
X195351828Y-138196895D01*
X195847067Y-137396895D02*
X195923257Y-137396895D01*
X195923257Y-137396895D02*
X195999448Y-137434990D01*
X195999448Y-137434990D02*
X196037543Y-137473085D01*
X196037543Y-137473085D02*
X196075638Y-137549276D01*
X196075638Y-137549276D02*
X196113733Y-137701657D01*
X196113733Y-137701657D02*
X196113733Y-137892133D01*
X196113733Y-137892133D02*
X196075638Y-138044514D01*
X196075638Y-138044514D02*
X196037543Y-138120704D01*
X196037543Y-138120704D02*
X195999448Y-138158800D01*
X195999448Y-138158800D02*
X195923257Y-138196895D01*
X195923257Y-138196895D02*
X195847067Y-138196895D01*
X195847067Y-138196895D02*
X195770876Y-138158800D01*
X195770876Y-138158800D02*
X195732781Y-138120704D01*
X195732781Y-138120704D02*
X195694686Y-138044514D01*
X195694686Y-138044514D02*
X195656590Y-137892133D01*
X195656590Y-137892133D02*
X195656590Y-137701657D01*
X195656590Y-137701657D02*
X195694686Y-137549276D01*
X195694686Y-137549276D02*
X195732781Y-137473085D01*
X195732781Y-137473085D02*
X195770876Y-137434990D01*
X195770876Y-137434990D02*
X195847067Y-137396895D01*
X196418495Y-137473085D02*
X196456591Y-137434990D01*
X196456591Y-137434990D02*
X196532781Y-137396895D01*
X196532781Y-137396895D02*
X196723257Y-137396895D01*
X196723257Y-137396895D02*
X196799448Y-137434990D01*
X196799448Y-137434990D02*
X196837543Y-137473085D01*
X196837543Y-137473085D02*
X196875638Y-137549276D01*
X196875638Y-137549276D02*
X196875638Y-137625466D01*
X196875638Y-137625466D02*
X196837543Y-137739752D01*
X196837543Y-137739752D02*
X196380400Y-138196895D01*
X196380400Y-138196895D02*
X196875638Y-138196895D01*
X197561353Y-137396895D02*
X197408972Y-137396895D01*
X197408972Y-137396895D02*
X197332781Y-137434990D01*
X197332781Y-137434990D02*
X197294686Y-137473085D01*
X197294686Y-137473085D02*
X197218496Y-137587371D01*
X197218496Y-137587371D02*
X197180400Y-137739752D01*
X197180400Y-137739752D02*
X197180400Y-138044514D01*
X197180400Y-138044514D02*
X197218496Y-138120704D01*
X197218496Y-138120704D02*
X197256591Y-138158800D01*
X197256591Y-138158800D02*
X197332781Y-138196895D01*
X197332781Y-138196895D02*
X197485162Y-138196895D01*
X197485162Y-138196895D02*
X197561353Y-138158800D01*
X197561353Y-138158800D02*
X197599448Y-138120704D01*
X197599448Y-138120704D02*
X197637543Y-138044514D01*
X197637543Y-138044514D02*
X197637543Y-137854038D01*
X197637543Y-137854038D02*
X197599448Y-137777847D01*
X197599448Y-137777847D02*
X197561353Y-137739752D01*
X197561353Y-137739752D02*
X197485162Y-137701657D01*
X197485162Y-137701657D02*
X197332781Y-137701657D01*
X197332781Y-137701657D02*
X197256591Y-137739752D01*
X197256591Y-137739752D02*
X197218496Y-137777847D01*
X197218496Y-137777847D02*
X197180400Y-137854038D01*
X197980401Y-137892133D02*
X198589925Y-137892133D01*
X199123258Y-137396895D02*
X199199448Y-137396895D01*
X199199448Y-137396895D02*
X199275639Y-137434990D01*
X199275639Y-137434990D02*
X199313734Y-137473085D01*
X199313734Y-137473085D02*
X199351829Y-137549276D01*
X199351829Y-137549276D02*
X199389924Y-137701657D01*
X199389924Y-137701657D02*
X199389924Y-137892133D01*
X199389924Y-137892133D02*
X199351829Y-138044514D01*
X199351829Y-138044514D02*
X199313734Y-138120704D01*
X199313734Y-138120704D02*
X199275639Y-138158800D01*
X199275639Y-138158800D02*
X199199448Y-138196895D01*
X199199448Y-138196895D02*
X199123258Y-138196895D01*
X199123258Y-138196895D02*
X199047067Y-138158800D01*
X199047067Y-138158800D02*
X199008972Y-138120704D01*
X199008972Y-138120704D02*
X198970877Y-138044514D01*
X198970877Y-138044514D02*
X198932781Y-137892133D01*
X198932781Y-137892133D02*
X198932781Y-137701657D01*
X198932781Y-137701657D02*
X198970877Y-137549276D01*
X198970877Y-137549276D02*
X199008972Y-137473085D01*
X199008972Y-137473085D02*
X199047067Y-137434990D01*
X199047067Y-137434990D02*
X199123258Y-137396895D01*
X199847067Y-137739752D02*
X199770877Y-137701657D01*
X199770877Y-137701657D02*
X199732782Y-137663561D01*
X199732782Y-137663561D02*
X199694686Y-137587371D01*
X199694686Y-137587371D02*
X199694686Y-137549276D01*
X199694686Y-137549276D02*
X199732782Y-137473085D01*
X199732782Y-137473085D02*
X199770877Y-137434990D01*
X199770877Y-137434990D02*
X199847067Y-137396895D01*
X199847067Y-137396895D02*
X199999448Y-137396895D01*
X199999448Y-137396895D02*
X200075639Y-137434990D01*
X200075639Y-137434990D02*
X200113734Y-137473085D01*
X200113734Y-137473085D02*
X200151829Y-137549276D01*
X200151829Y-137549276D02*
X200151829Y-137587371D01*
X200151829Y-137587371D02*
X200113734Y-137663561D01*
X200113734Y-137663561D02*
X200075639Y-137701657D01*
X200075639Y-137701657D02*
X199999448Y-137739752D01*
X199999448Y-137739752D02*
X199847067Y-137739752D01*
X199847067Y-137739752D02*
X199770877Y-137777847D01*
X199770877Y-137777847D02*
X199732782Y-137815942D01*
X199732782Y-137815942D02*
X199694686Y-137892133D01*
X199694686Y-137892133D02*
X199694686Y-138044514D01*
X199694686Y-138044514D02*
X199732782Y-138120704D01*
X199732782Y-138120704D02*
X199770877Y-138158800D01*
X199770877Y-138158800D02*
X199847067Y-138196895D01*
X199847067Y-138196895D02*
X199999448Y-138196895D01*
X199999448Y-138196895D02*
X200075639Y-138158800D01*
X200075639Y-138158800D02*
X200113734Y-138120704D01*
X200113734Y-138120704D02*
X200151829Y-138044514D01*
X200151829Y-138044514D02*
X200151829Y-137892133D01*
X200151829Y-137892133D02*
X200113734Y-137815942D01*
X200113734Y-137815942D02*
X200075639Y-137777847D01*
X200075639Y-137777847D02*
X199999448Y-137739752D01*
D13*
X140769574Y-109816547D02*
X140912431Y-109864166D01*
X140912431Y-109864166D02*
X140960050Y-109911785D01*
X140960050Y-109911785D02*
X141007669Y-110007023D01*
X141007669Y-110007023D02*
X141007669Y-110149880D01*
X141007669Y-110149880D02*
X140960050Y-110245118D01*
X140960050Y-110245118D02*
X140912431Y-110292738D01*
X140912431Y-110292738D02*
X140817193Y-110340357D01*
X140817193Y-110340357D02*
X140436241Y-110340357D01*
X140436241Y-110340357D02*
X140436241Y-109340357D01*
X140436241Y-109340357D02*
X140769574Y-109340357D01*
X140769574Y-109340357D02*
X140864812Y-109387976D01*
X140864812Y-109387976D02*
X140912431Y-109435595D01*
X140912431Y-109435595D02*
X140960050Y-109530833D01*
X140960050Y-109530833D02*
X140960050Y-109626071D01*
X140960050Y-109626071D02*
X140912431Y-109721309D01*
X140912431Y-109721309D02*
X140864812Y-109768928D01*
X140864812Y-109768928D02*
X140769574Y-109816547D01*
X140769574Y-109816547D02*
X140436241Y-109816547D01*
X141626717Y-109340357D02*
X141817193Y-109340357D01*
X141817193Y-109340357D02*
X141912431Y-109387976D01*
X141912431Y-109387976D02*
X142007669Y-109483214D01*
X142007669Y-109483214D02*
X142055288Y-109673690D01*
X142055288Y-109673690D02*
X142055288Y-110007023D01*
X142055288Y-110007023D02*
X142007669Y-110197499D01*
X142007669Y-110197499D02*
X141912431Y-110292738D01*
X141912431Y-110292738D02*
X141817193Y-110340357D01*
X141817193Y-110340357D02*
X141626717Y-110340357D01*
X141626717Y-110340357D02*
X141531479Y-110292738D01*
X141531479Y-110292738D02*
X141436241Y-110197499D01*
X141436241Y-110197499D02*
X141388622Y-110007023D01*
X141388622Y-110007023D02*
X141388622Y-109673690D01*
X141388622Y-109673690D02*
X141436241Y-109483214D01*
X141436241Y-109483214D02*
X141531479Y-109387976D01*
X141531479Y-109387976D02*
X141626717Y-109340357D01*
X142674336Y-109340357D02*
X142864812Y-109340357D01*
X142864812Y-109340357D02*
X142960050Y-109387976D01*
X142960050Y-109387976D02*
X143055288Y-109483214D01*
X143055288Y-109483214D02*
X143102907Y-109673690D01*
X143102907Y-109673690D02*
X143102907Y-110007023D01*
X143102907Y-110007023D02*
X143055288Y-110197499D01*
X143055288Y-110197499D02*
X142960050Y-110292738D01*
X142960050Y-110292738D02*
X142864812Y-110340357D01*
X142864812Y-110340357D02*
X142674336Y-110340357D01*
X142674336Y-110340357D02*
X142579098Y-110292738D01*
X142579098Y-110292738D02*
X142483860Y-110197499D01*
X142483860Y-110197499D02*
X142436241Y-110007023D01*
X142436241Y-110007023D02*
X142436241Y-109673690D01*
X142436241Y-109673690D02*
X142483860Y-109483214D01*
X142483860Y-109483214D02*
X142579098Y-109387976D01*
X142579098Y-109387976D02*
X142674336Y-109340357D01*
X143388622Y-109340357D02*
X143960050Y-109340357D01*
X143674336Y-110340357D02*
X143674336Y-109340357D01*
X144483860Y-109340357D02*
X144579098Y-109340357D01*
X144579098Y-109340357D02*
X144674336Y-109387976D01*
X144674336Y-109387976D02*
X144721955Y-109435595D01*
X144721955Y-109435595D02*
X144769574Y-109530833D01*
X144769574Y-109530833D02*
X144817193Y-109721309D01*
X144817193Y-109721309D02*
X144817193Y-109959404D01*
X144817193Y-109959404D02*
X144769574Y-110149880D01*
X144769574Y-110149880D02*
X144721955Y-110245118D01*
X144721955Y-110245118D02*
X144674336Y-110292738D01*
X144674336Y-110292738D02*
X144579098Y-110340357D01*
X144579098Y-110340357D02*
X144483860Y-110340357D01*
X144483860Y-110340357D02*
X144388622Y-110292738D01*
X144388622Y-110292738D02*
X144341003Y-110245118D01*
X144341003Y-110245118D02*
X144293384Y-110149880D01*
X144293384Y-110149880D02*
X144245765Y-109959404D01*
X144245765Y-109959404D02*
X144245765Y-109721309D01*
X144245765Y-109721309D02*
X144293384Y-109530833D01*
X144293384Y-109530833D02*
X144341003Y-109435595D01*
X144341003Y-109435595D02*
X144388622Y-109387976D01*
X144388622Y-109387976D02*
X144483860Y-109340357D01*
X146553922Y-109499819D02*
X146887255Y-110499819D01*
X146887255Y-110499819D02*
X147220588Y-109499819D01*
X158878642Y-109349819D02*
X159497689Y-109349819D01*
X159497689Y-109349819D02*
X159164356Y-109730771D01*
X159164356Y-109730771D02*
X159307213Y-109730771D01*
X159307213Y-109730771D02*
X159402451Y-109778390D01*
X159402451Y-109778390D02*
X159450070Y-109826009D01*
X159450070Y-109826009D02*
X159497689Y-109921247D01*
X159497689Y-109921247D02*
X159497689Y-110159342D01*
X159497689Y-110159342D02*
X159450070Y-110254580D01*
X159450070Y-110254580D02*
X159402451Y-110302200D01*
X159402451Y-110302200D02*
X159307213Y-110349819D01*
X159307213Y-110349819D02*
X159021499Y-110349819D01*
X159021499Y-110349819D02*
X158926261Y-110302200D01*
X158926261Y-110302200D02*
X158878642Y-110254580D01*
X159831023Y-109683152D02*
X160069118Y-110349819D01*
X160069118Y-110349819D02*
X160307213Y-109683152D01*
X160592928Y-109349819D02*
X161211975Y-109349819D01*
X161211975Y-109349819D02*
X160878642Y-109730771D01*
X160878642Y-109730771D02*
X161021499Y-109730771D01*
X161021499Y-109730771D02*
X161116737Y-109778390D01*
X161116737Y-109778390D02*
X161164356Y-109826009D01*
X161164356Y-109826009D02*
X161211975Y-109921247D01*
X161211975Y-109921247D02*
X161211975Y-110159342D01*
X161211975Y-110159342D02*
X161164356Y-110254580D01*
X161164356Y-110254580D02*
X161116737Y-110302200D01*
X161116737Y-110302200D02*
X161021499Y-110349819D01*
X161021499Y-110349819D02*
X160735785Y-110349819D01*
X160735785Y-110349819D02*
X160640547Y-110302200D01*
X160640547Y-110302200D02*
X160592928Y-110254580D01*
X161586779Y-110329819D02*
X161586779Y-109329819D01*
X161586779Y-109329819D02*
X161824874Y-109329819D01*
X161824874Y-109329819D02*
X161967731Y-109377438D01*
X161967731Y-109377438D02*
X162062969Y-109472676D01*
X162062969Y-109472676D02*
X162110588Y-109567914D01*
X162110588Y-109567914D02*
X162158207Y-109758390D01*
X162158207Y-109758390D02*
X162158207Y-109901247D01*
X162158207Y-109901247D02*
X162110588Y-110091723D01*
X162110588Y-110091723D02*
X162062969Y-110186961D01*
X162062969Y-110186961D02*
X161967731Y-110282200D01*
X161967731Y-110282200D02*
X161824874Y-110329819D01*
X161824874Y-110329819D02*
X161586779Y-110329819D01*
X162586779Y-110329819D02*
X162586779Y-109329819D01*
X163253445Y-109329819D02*
X163443921Y-109329819D01*
X163443921Y-109329819D02*
X163539159Y-109377438D01*
X163539159Y-109377438D02*
X163634397Y-109472676D01*
X163634397Y-109472676D02*
X163682016Y-109663152D01*
X163682016Y-109663152D02*
X163682016Y-109996485D01*
X163682016Y-109996485D02*
X163634397Y-110186961D01*
X163634397Y-110186961D02*
X163539159Y-110282200D01*
X163539159Y-110282200D02*
X163443921Y-110329819D01*
X163443921Y-110329819D02*
X163253445Y-110329819D01*
X163253445Y-110329819D02*
X163158207Y-110282200D01*
X163158207Y-110282200D02*
X163062969Y-110186961D01*
X163062969Y-110186961D02*
X163015350Y-109996485D01*
X163015350Y-109996485D02*
X163015350Y-109663152D01*
X163015350Y-109663152D02*
X163062969Y-109472676D01*
X163062969Y-109472676D02*
X163158207Y-109377438D01*
X163158207Y-109377438D02*
X163253445Y-109329819D01*
X164516873Y-110260347D02*
X164469254Y-110307967D01*
X164469254Y-110307967D02*
X164326397Y-110355586D01*
X164326397Y-110355586D02*
X164231159Y-110355586D01*
X164231159Y-110355586D02*
X164088302Y-110307967D01*
X164088302Y-110307967D02*
X163993064Y-110212728D01*
X163993064Y-110212728D02*
X163945445Y-110117490D01*
X163945445Y-110117490D02*
X163897826Y-109927014D01*
X163897826Y-109927014D02*
X163897826Y-109784157D01*
X163897826Y-109784157D02*
X163945445Y-109593681D01*
X163945445Y-109593681D02*
X163993064Y-109498443D01*
X163993064Y-109498443D02*
X164088302Y-109403205D01*
X164088302Y-109403205D02*
X164231159Y-109355586D01*
X164231159Y-109355586D02*
X164326397Y-109355586D01*
X164326397Y-109355586D02*
X164469254Y-109403205D01*
X164469254Y-109403205D02*
X164516873Y-109450824D01*
X165421635Y-110355586D02*
X164945445Y-110355586D01*
X164945445Y-110355586D02*
X164945445Y-109355586D01*
X165754969Y-110355586D02*
X165754969Y-109355586D01*
X166326397Y-110355586D02*
X165897826Y-109784157D01*
X166326397Y-109355586D02*
X165754969Y-109927014D01*
X167507960Y-109397438D02*
X167412722Y-109349819D01*
X167412722Y-109349819D02*
X167269865Y-109349819D01*
X167269865Y-109349819D02*
X167127008Y-109397438D01*
X167127008Y-109397438D02*
X167031770Y-109492676D01*
X167031770Y-109492676D02*
X166984151Y-109587914D01*
X166984151Y-109587914D02*
X166936532Y-109778390D01*
X166936532Y-109778390D02*
X166936532Y-109921247D01*
X166936532Y-109921247D02*
X166984151Y-110111723D01*
X166984151Y-110111723D02*
X167031770Y-110206961D01*
X167031770Y-110206961D02*
X167127008Y-110302200D01*
X167127008Y-110302200D02*
X167269865Y-110349819D01*
X167269865Y-110349819D02*
X167365103Y-110349819D01*
X167365103Y-110349819D02*
X167507960Y-110302200D01*
X167507960Y-110302200D02*
X167555579Y-110254580D01*
X167555579Y-110254580D02*
X167555579Y-109921247D01*
X167555579Y-109921247D02*
X167365103Y-109921247D01*
X167984151Y-110349819D02*
X167984151Y-109349819D01*
X167984151Y-109349819D02*
X168555579Y-110349819D01*
X168555579Y-110349819D02*
X168555579Y-109349819D01*
X169031770Y-110349819D02*
X169031770Y-109349819D01*
X169031770Y-109349819D02*
X169269865Y-109349819D01*
X169269865Y-109349819D02*
X169412722Y-109397438D01*
X169412722Y-109397438D02*
X169507960Y-109492676D01*
X169507960Y-109492676D02*
X169555579Y-109587914D01*
X169555579Y-109587914D02*
X169603198Y-109778390D01*
X169603198Y-109778390D02*
X169603198Y-109921247D01*
X169603198Y-109921247D02*
X169555579Y-110111723D01*
X169555579Y-110111723D02*
X169507960Y-110206961D01*
X169507960Y-110206961D02*
X169412722Y-110302200D01*
X169412722Y-110302200D02*
X169269865Y-110349819D01*
X169269865Y-110349819D02*
X169031770Y-110349819D01*
X169900180Y-122677255D02*
X169900180Y-122867731D01*
X169900180Y-122867731D02*
X169852561Y-122962969D01*
X169852561Y-122962969D02*
X169757323Y-123058207D01*
X169757323Y-123058207D02*
X169566847Y-123105826D01*
X169566847Y-123105826D02*
X169233514Y-123105826D01*
X169233514Y-123105826D02*
X169043038Y-123058207D01*
X169043038Y-123058207D02*
X168947800Y-122962969D01*
X168947800Y-122962969D02*
X168900180Y-122867731D01*
X168900180Y-122867731D02*
X168900180Y-122677255D01*
X168900180Y-122677255D02*
X168947800Y-122582017D01*
X168947800Y-122582017D02*
X169043038Y-122486779D01*
X169043038Y-122486779D02*
X169233514Y-122439160D01*
X169233514Y-122439160D02*
X169566847Y-122439160D01*
X169566847Y-122439160D02*
X169757323Y-122486779D01*
X169757323Y-122486779D02*
X169852561Y-122582017D01*
X169852561Y-122582017D02*
X169900180Y-122677255D01*
X168900180Y-124010588D02*
X168900180Y-123534398D01*
X168900180Y-123534398D02*
X169900180Y-123534398D01*
X169423990Y-124343922D02*
X169423990Y-124677255D01*
X168900180Y-124820112D02*
X168900180Y-124343922D01*
X168900180Y-124343922D02*
X169900180Y-124343922D01*
X169900180Y-124343922D02*
X169900180Y-124820112D01*
X168900180Y-125248684D02*
X169900180Y-125248684D01*
X169900180Y-125248684D02*
X169900180Y-125486779D01*
X169900180Y-125486779D02*
X169852561Y-125629636D01*
X169852561Y-125629636D02*
X169757323Y-125724874D01*
X169757323Y-125724874D02*
X169662085Y-125772493D01*
X169662085Y-125772493D02*
X169471609Y-125820112D01*
X169471609Y-125820112D02*
X169328752Y-125820112D01*
X169328752Y-125820112D02*
X169138276Y-125772493D01*
X169138276Y-125772493D02*
X169043038Y-125724874D01*
X169043038Y-125724874D02*
X168947800Y-125629636D01*
X168947800Y-125629636D02*
X168900180Y-125486779D01*
X168900180Y-125486779D02*
X168900180Y-125248684D01*
D14*
X193506518Y-134067219D02*
X193506518Y-133067219D01*
X194554136Y-134067219D02*
X194220803Y-133591028D01*
X193982708Y-134067219D02*
X193982708Y-133067219D01*
X193982708Y-133067219D02*
X194363660Y-133067219D01*
X194363660Y-133067219D02*
X194458898Y-133114838D01*
X194458898Y-133114838D02*
X194506517Y-133162457D01*
X194506517Y-133162457D02*
X194554136Y-133257695D01*
X194554136Y-133257695D02*
X194554136Y-133400552D01*
X194554136Y-133400552D02*
X194506517Y-133495790D01*
X194506517Y-133495790D02*
X194458898Y-133543409D01*
X194458898Y-133543409D02*
X194363660Y-133591028D01*
X194363660Y-133591028D02*
X193982708Y-133591028D01*
X194982708Y-134067219D02*
X194982708Y-133067219D01*
X195411279Y-134019600D02*
X195554136Y-134067219D01*
X195554136Y-134067219D02*
X195792231Y-134067219D01*
X195792231Y-134067219D02*
X195887469Y-134019600D01*
X195887469Y-134019600D02*
X195935088Y-133971980D01*
X195935088Y-133971980D02*
X195982707Y-133876742D01*
X195982707Y-133876742D02*
X195982707Y-133781504D01*
X195982707Y-133781504D02*
X195935088Y-133686266D01*
X195935088Y-133686266D02*
X195887469Y-133638647D01*
X195887469Y-133638647D02*
X195792231Y-133591028D01*
X195792231Y-133591028D02*
X195601755Y-133543409D01*
X195601755Y-133543409D02*
X195506517Y-133495790D01*
X195506517Y-133495790D02*
X195458898Y-133448171D01*
X195458898Y-133448171D02*
X195411279Y-133352933D01*
X195411279Y-133352933D02*
X195411279Y-133257695D01*
X195411279Y-133257695D02*
X195458898Y-133162457D01*
X195458898Y-133162457D02*
X195506517Y-133114838D01*
X195506517Y-133114838D02*
X195601755Y-133067219D01*
X195601755Y-133067219D02*
X195839850Y-133067219D01*
X195839850Y-133067219D02*
X195982707Y-133114838D01*
X196411279Y-133686266D02*
X197173184Y-133686266D01*
X197792231Y-133495790D02*
X197696993Y-133448171D01*
X197696993Y-133448171D02*
X197649374Y-133400552D01*
X197649374Y-133400552D02*
X197601755Y-133305314D01*
X197601755Y-133305314D02*
X197601755Y-133257695D01*
X197601755Y-133257695D02*
X197649374Y-133162457D01*
X197649374Y-133162457D02*
X197696993Y-133114838D01*
X197696993Y-133114838D02*
X197792231Y-133067219D01*
X197792231Y-133067219D02*
X197982707Y-133067219D01*
X197982707Y-133067219D02*
X198077945Y-133114838D01*
X198077945Y-133114838D02*
X198125564Y-133162457D01*
X198125564Y-133162457D02*
X198173183Y-133257695D01*
X198173183Y-133257695D02*
X198173183Y-133305314D01*
X198173183Y-133305314D02*
X198125564Y-133400552D01*
X198125564Y-133400552D02*
X198077945Y-133448171D01*
X198077945Y-133448171D02*
X197982707Y-133495790D01*
X197982707Y-133495790D02*
X197792231Y-133495790D01*
X197792231Y-133495790D02*
X197696993Y-133543409D01*
X197696993Y-133543409D02*
X197649374Y-133591028D01*
X197649374Y-133591028D02*
X197601755Y-133686266D01*
X197601755Y-133686266D02*
X197601755Y-133876742D01*
X197601755Y-133876742D02*
X197649374Y-133971980D01*
X197649374Y-133971980D02*
X197696993Y-134019600D01*
X197696993Y-134019600D02*
X197792231Y-134067219D01*
X197792231Y-134067219D02*
X197982707Y-134067219D01*
X197982707Y-134067219D02*
X198077945Y-134019600D01*
X198077945Y-134019600D02*
X198125564Y-133971980D01*
X198125564Y-133971980D02*
X198173183Y-133876742D01*
X198173183Y-133876742D02*
X198173183Y-133686266D01*
X198173183Y-133686266D02*
X198125564Y-133591028D01*
X198125564Y-133591028D02*
X198077945Y-133543409D01*
X198077945Y-133543409D02*
X197982707Y-133495790D01*
X199030326Y-133067219D02*
X198839850Y-133067219D01*
X198839850Y-133067219D02*
X198744612Y-133114838D01*
X198744612Y-133114838D02*
X198696993Y-133162457D01*
X198696993Y-133162457D02*
X198601755Y-133305314D01*
X198601755Y-133305314D02*
X198554136Y-133495790D01*
X198554136Y-133495790D02*
X198554136Y-133876742D01*
X198554136Y-133876742D02*
X198601755Y-133971980D01*
X198601755Y-133971980D02*
X198649374Y-134019600D01*
X198649374Y-134019600D02*
X198744612Y-134067219D01*
X198744612Y-134067219D02*
X198935088Y-134067219D01*
X198935088Y-134067219D02*
X199030326Y-134019600D01*
X199030326Y-134019600D02*
X199077945Y-133971980D01*
X199077945Y-133971980D02*
X199125564Y-133876742D01*
X199125564Y-133876742D02*
X199125564Y-133638647D01*
X199125564Y-133638647D02*
X199077945Y-133543409D01*
X199077945Y-133543409D02*
X199030326Y-133495790D01*
X199030326Y-133495790D02*
X198935088Y-133448171D01*
X198935088Y-133448171D02*
X198744612Y-133448171D01*
X198744612Y-133448171D02*
X198649374Y-133495790D01*
X198649374Y-133495790D02*
X198601755Y-133543409D01*
X198601755Y-133543409D02*
X198554136Y-133638647D01*
X199696993Y-133495790D02*
X199601755Y-133448171D01*
X199601755Y-133448171D02*
X199554136Y-133400552D01*
X199554136Y-133400552D02*
X199506517Y-133305314D01*
X199506517Y-133305314D02*
X199506517Y-133257695D01*
X199506517Y-133257695D02*
X199554136Y-133162457D01*
X199554136Y-133162457D02*
X199601755Y-133114838D01*
X199601755Y-133114838D02*
X199696993Y-133067219D01*
X199696993Y-133067219D02*
X199887469Y-133067219D01*
X199887469Y-133067219D02*
X199982707Y-133114838D01*
X199982707Y-133114838D02*
X200030326Y-133162457D01*
X200030326Y-133162457D02*
X200077945Y-133257695D01*
X200077945Y-133257695D02*
X200077945Y-133305314D01*
X200077945Y-133305314D02*
X200030326Y-133400552D01*
X200030326Y-133400552D02*
X199982707Y-133448171D01*
X199982707Y-133448171D02*
X199887469Y-133495790D01*
X199887469Y-133495790D02*
X199696993Y-133495790D01*
X199696993Y-133495790D02*
X199601755Y-133543409D01*
X199601755Y-133543409D02*
X199554136Y-133591028D01*
X199554136Y-133591028D02*
X199506517Y-133686266D01*
X199506517Y-133686266D02*
X199506517Y-133876742D01*
X199506517Y-133876742D02*
X199554136Y-133971980D01*
X199554136Y-133971980D02*
X199601755Y-134019600D01*
X199601755Y-134019600D02*
X199696993Y-134067219D01*
X199696993Y-134067219D02*
X199887469Y-134067219D01*
X199887469Y-134067219D02*
X199982707Y-134019600D01*
X199982707Y-134019600D02*
X200030326Y-133971980D01*
X200030326Y-133971980D02*
X200077945Y-133876742D01*
X200077945Y-133876742D02*
X200077945Y-133686266D01*
X200077945Y-133686266D02*
X200030326Y-133591028D01*
X200030326Y-133591028D02*
X199982707Y-133543409D01*
X199982707Y-133543409D02*
X199887469Y-133495790D01*
D13*
X154335543Y-132278754D02*
X154436558Y-131706335D01*
X153931482Y-131874693D02*
X154638589Y-131167587D01*
X154638589Y-131167587D02*
X154907963Y-131436961D01*
X154907963Y-131436961D02*
X154941635Y-131537976D01*
X154941635Y-131537976D02*
X154941635Y-131605319D01*
X154941635Y-131605319D02*
X154907963Y-131706335D01*
X154907963Y-131706335D02*
X154806948Y-131807350D01*
X154806948Y-131807350D02*
X154705932Y-131841022D01*
X154705932Y-131841022D02*
X154638589Y-131841022D01*
X154638589Y-131841022D02*
X154537574Y-131807350D01*
X154537574Y-131807350D02*
X154268200Y-131537976D01*
X155413039Y-132413441D02*
X154941635Y-132884846D01*
X155514054Y-131975709D02*
X154840619Y-132312426D01*
X154840619Y-132312426D02*
X155278352Y-132750159D01*
X159241169Y-120099693D02*
X159173825Y-120099693D01*
X159173825Y-120099693D02*
X159039138Y-120032349D01*
X159039138Y-120032349D02*
X158971795Y-119965006D01*
X158971795Y-119965006D02*
X158904451Y-119830319D01*
X158904451Y-119830319D02*
X158904451Y-119695632D01*
X158904451Y-119695632D02*
X158938123Y-119594617D01*
X158938123Y-119594617D02*
X159039138Y-119426258D01*
X159039138Y-119426258D02*
X159140153Y-119325243D01*
X159140153Y-119325243D02*
X159308512Y-119224227D01*
X159308512Y-119224227D02*
X159409527Y-119190556D01*
X159409527Y-119190556D02*
X159544214Y-119190556D01*
X159544214Y-119190556D02*
X159678901Y-119257899D01*
X159678901Y-119257899D02*
X159746245Y-119325243D01*
X159746245Y-119325243D02*
X159813588Y-119459930D01*
X159813588Y-119459930D02*
X159813588Y-119527273D01*
X159847260Y-120840471D02*
X159443199Y-120436410D01*
X159645230Y-120638441D02*
X160352336Y-119931334D01*
X160352336Y-119931334D02*
X160183978Y-119965006D01*
X160183978Y-119965006D02*
X160049291Y-119965006D01*
X160049291Y-119965006D02*
X159948275Y-119931334D01*
X160520695Y-121513907D02*
X160116634Y-121109846D01*
X160318665Y-121311876D02*
X161025772Y-120604769D01*
X161025772Y-120604769D02*
X160857413Y-120638441D01*
X160857413Y-120638441D02*
X160722726Y-120638441D01*
X160722726Y-120638441D02*
X160621711Y-120604769D01*
X174717142Y-111889580D02*
X174669523Y-111937200D01*
X174669523Y-111937200D02*
X174526666Y-111984819D01*
X174526666Y-111984819D02*
X174431428Y-111984819D01*
X174431428Y-111984819D02*
X174288571Y-111937200D01*
X174288571Y-111937200D02*
X174193333Y-111841961D01*
X174193333Y-111841961D02*
X174145714Y-111746723D01*
X174145714Y-111746723D02*
X174098095Y-111556247D01*
X174098095Y-111556247D02*
X174098095Y-111413390D01*
X174098095Y-111413390D02*
X174145714Y-111222914D01*
X174145714Y-111222914D02*
X174193333Y-111127676D01*
X174193333Y-111127676D02*
X174288571Y-111032438D01*
X174288571Y-111032438D02*
X174431428Y-110984819D01*
X174431428Y-110984819D02*
X174526666Y-110984819D01*
X174526666Y-110984819D02*
X174669523Y-111032438D01*
X174669523Y-111032438D02*
X174717142Y-111080057D01*
X175669523Y-111984819D02*
X175098095Y-111984819D01*
X175383809Y-111984819D02*
X175383809Y-110984819D01*
X175383809Y-110984819D02*
X175288571Y-111127676D01*
X175288571Y-111127676D02*
X175193333Y-111222914D01*
X175193333Y-111222914D02*
X175098095Y-111270533D01*
X176240952Y-111413390D02*
X176145714Y-111365771D01*
X176145714Y-111365771D02*
X176098095Y-111318152D01*
X176098095Y-111318152D02*
X176050476Y-111222914D01*
X176050476Y-111222914D02*
X176050476Y-111175295D01*
X176050476Y-111175295D02*
X176098095Y-111080057D01*
X176098095Y-111080057D02*
X176145714Y-111032438D01*
X176145714Y-111032438D02*
X176240952Y-110984819D01*
X176240952Y-110984819D02*
X176431428Y-110984819D01*
X176431428Y-110984819D02*
X176526666Y-111032438D01*
X176526666Y-111032438D02*
X176574285Y-111080057D01*
X176574285Y-111080057D02*
X176621904Y-111175295D01*
X176621904Y-111175295D02*
X176621904Y-111222914D01*
X176621904Y-111222914D02*
X176574285Y-111318152D01*
X176574285Y-111318152D02*
X176526666Y-111365771D01*
X176526666Y-111365771D02*
X176431428Y-111413390D01*
X176431428Y-111413390D02*
X176240952Y-111413390D01*
X176240952Y-111413390D02*
X176145714Y-111461009D01*
X176145714Y-111461009D02*
X176098095Y-111508628D01*
X176098095Y-111508628D02*
X176050476Y-111603866D01*
X176050476Y-111603866D02*
X176050476Y-111794342D01*
X176050476Y-111794342D02*
X176098095Y-111889580D01*
X176098095Y-111889580D02*
X176145714Y-111937200D01*
X176145714Y-111937200D02*
X176240952Y-111984819D01*
X176240952Y-111984819D02*
X176431428Y-111984819D01*
X176431428Y-111984819D02*
X176526666Y-111937200D01*
X176526666Y-111937200D02*
X176574285Y-111889580D01*
X176574285Y-111889580D02*
X176621904Y-111794342D01*
X176621904Y-111794342D02*
X176621904Y-111603866D01*
X176621904Y-111603866D02*
X176574285Y-111508628D01*
X176574285Y-111508628D02*
X176526666Y-111461009D01*
X176526666Y-111461009D02*
X176431428Y-111413390D01*
X130484580Y-122867857D02*
X130532200Y-122915476D01*
X130532200Y-122915476D02*
X130579819Y-123058333D01*
X130579819Y-123058333D02*
X130579819Y-123153571D01*
X130579819Y-123153571D02*
X130532200Y-123296428D01*
X130532200Y-123296428D02*
X130436961Y-123391666D01*
X130436961Y-123391666D02*
X130341723Y-123439285D01*
X130341723Y-123439285D02*
X130151247Y-123486904D01*
X130151247Y-123486904D02*
X130008390Y-123486904D01*
X130008390Y-123486904D02*
X129817914Y-123439285D01*
X129817914Y-123439285D02*
X129722676Y-123391666D01*
X129722676Y-123391666D02*
X129627438Y-123296428D01*
X129627438Y-123296428D02*
X129579819Y-123153571D01*
X129579819Y-123153571D02*
X129579819Y-123058333D01*
X129579819Y-123058333D02*
X129627438Y-122915476D01*
X129627438Y-122915476D02*
X129675057Y-122867857D01*
X130579819Y-121915476D02*
X130579819Y-122486904D01*
X130579819Y-122201190D02*
X129579819Y-122201190D01*
X129579819Y-122201190D02*
X129722676Y-122296428D01*
X129722676Y-122296428D02*
X129817914Y-122391666D01*
X129817914Y-122391666D02*
X129865533Y-122486904D01*
X129579819Y-121582142D02*
X129579819Y-120963095D01*
X129579819Y-120963095D02*
X129960771Y-121296428D01*
X129960771Y-121296428D02*
X129960771Y-121153571D01*
X129960771Y-121153571D02*
X130008390Y-121058333D01*
X130008390Y-121058333D02*
X130056009Y-121010714D01*
X130056009Y-121010714D02*
X130151247Y-120963095D01*
X130151247Y-120963095D02*
X130389342Y-120963095D01*
X130389342Y-120963095D02*
X130484580Y-121010714D01*
X130484580Y-121010714D02*
X130532200Y-121058333D01*
X130532200Y-121058333D02*
X130579819Y-121153571D01*
X130579819Y-121153571D02*
X130579819Y-121439285D01*
X130579819Y-121439285D02*
X130532200Y-121534523D01*
X130532200Y-121534523D02*
X130484580Y-121582142D01*
X152756666Y-112961009D02*
X152423333Y-112961009D01*
X152423333Y-113484819D02*
X152423333Y-112484819D01*
X152423333Y-112484819D02*
X152899523Y-112484819D01*
X153613809Y-112961009D02*
X153756666Y-113008628D01*
X153756666Y-113008628D02*
X153804285Y-113056247D01*
X153804285Y-113056247D02*
X153851904Y-113151485D01*
X153851904Y-113151485D02*
X153851904Y-113294342D01*
X153851904Y-113294342D02*
X153804285Y-113389580D01*
X153804285Y-113389580D02*
X153756666Y-113437200D01*
X153756666Y-113437200D02*
X153661428Y-113484819D01*
X153661428Y-113484819D02*
X153280476Y-113484819D01*
X153280476Y-113484819D02*
X153280476Y-112484819D01*
X153280476Y-112484819D02*
X153613809Y-112484819D01*
X153613809Y-112484819D02*
X153709047Y-112532438D01*
X153709047Y-112532438D02*
X153756666Y-112580057D01*
X153756666Y-112580057D02*
X153804285Y-112675295D01*
X153804285Y-112675295D02*
X153804285Y-112770533D01*
X153804285Y-112770533D02*
X153756666Y-112865771D01*
X153756666Y-112865771D02*
X153709047Y-112913390D01*
X153709047Y-112913390D02*
X153613809Y-112961009D01*
X153613809Y-112961009D02*
X153280476Y-112961009D01*
X154804285Y-113484819D02*
X154232857Y-113484819D01*
X154518571Y-113484819D02*
X154518571Y-112484819D01*
X154518571Y-112484819D02*
X154423333Y-112627676D01*
X154423333Y-112627676D02*
X154328095Y-112722914D01*
X154328095Y-112722914D02*
X154232857Y-112770533D01*
X148387887Y-133566411D02*
X148320543Y-133566411D01*
X148320543Y-133566411D02*
X148185856Y-133499067D01*
X148185856Y-133499067D02*
X148118513Y-133431724D01*
X148118513Y-133431724D02*
X148051169Y-133297037D01*
X148051169Y-133297037D02*
X148051169Y-133162350D01*
X148051169Y-133162350D02*
X148084841Y-133061335D01*
X148084841Y-133061335D02*
X148185856Y-132892976D01*
X148185856Y-132892976D02*
X148286871Y-132791961D01*
X148286871Y-132791961D02*
X148455230Y-132690945D01*
X148455230Y-132690945D02*
X148556245Y-132657274D01*
X148556245Y-132657274D02*
X148690932Y-132657274D01*
X148690932Y-132657274D02*
X148825619Y-132724617D01*
X148825619Y-132724617D02*
X148892963Y-132791961D01*
X148892963Y-132791961D02*
X148960306Y-132926648D01*
X148960306Y-132926648D02*
X148960306Y-132993991D01*
X149398039Y-133768441D02*
X148926635Y-134239846D01*
X149499054Y-133330709D02*
X148825619Y-133667426D01*
X148825619Y-133667426D02*
X149263352Y-134105159D01*
X144011411Y-120372112D02*
X144011411Y-120439456D01*
X144011411Y-120439456D02*
X143944067Y-120574143D01*
X143944067Y-120574143D02*
X143876724Y-120641486D01*
X143876724Y-120641486D02*
X143742037Y-120708830D01*
X143742037Y-120708830D02*
X143607350Y-120708830D01*
X143607350Y-120708830D02*
X143506335Y-120675158D01*
X143506335Y-120675158D02*
X143337976Y-120574143D01*
X143337976Y-120574143D02*
X143236961Y-120473128D01*
X143236961Y-120473128D02*
X143135945Y-120304769D01*
X143135945Y-120304769D02*
X143102274Y-120203754D01*
X143102274Y-120203754D02*
X143102274Y-120069067D01*
X143102274Y-120069067D02*
X143169617Y-119934380D01*
X143169617Y-119934380D02*
X143236961Y-119867036D01*
X143236961Y-119867036D02*
X143371648Y-119799693D01*
X143371648Y-119799693D02*
X143438991Y-119799693D01*
X143607350Y-119496647D02*
X144045083Y-119058914D01*
X144045083Y-119058914D02*
X144078754Y-119563990D01*
X144078754Y-119563990D02*
X144179770Y-119462975D01*
X144179770Y-119462975D02*
X144280785Y-119429303D01*
X144280785Y-119429303D02*
X144348128Y-119429303D01*
X144348128Y-119429303D02*
X144449144Y-119462975D01*
X144449144Y-119462975D02*
X144617502Y-119631334D01*
X144617502Y-119631334D02*
X144651174Y-119732349D01*
X144651174Y-119732349D02*
X144651174Y-119799693D01*
X144651174Y-119799693D02*
X144617502Y-119900708D01*
X144617502Y-119900708D02*
X144415472Y-120102738D01*
X144415472Y-120102738D02*
X144314457Y-120136410D01*
X144314457Y-120136410D02*
X144247113Y-120136410D01*
X142518333Y-134784819D02*
X142185000Y-134308628D01*
X141946905Y-134784819D02*
X141946905Y-133784819D01*
X141946905Y-133784819D02*
X142327857Y-133784819D01*
X142327857Y-133784819D02*
X142423095Y-133832438D01*
X142423095Y-133832438D02*
X142470714Y-133880057D01*
X142470714Y-133880057D02*
X142518333Y-133975295D01*
X142518333Y-133975295D02*
X142518333Y-134118152D01*
X142518333Y-134118152D02*
X142470714Y-134213390D01*
X142470714Y-134213390D02*
X142423095Y-134261009D01*
X142423095Y-134261009D02*
X142327857Y-134308628D01*
X142327857Y-134308628D02*
X141946905Y-134308628D01*
X142899286Y-133880057D02*
X142946905Y-133832438D01*
X142946905Y-133832438D02*
X143042143Y-133784819D01*
X143042143Y-133784819D02*
X143280238Y-133784819D01*
X143280238Y-133784819D02*
X143375476Y-133832438D01*
X143375476Y-133832438D02*
X143423095Y-133880057D01*
X143423095Y-133880057D02*
X143470714Y-133975295D01*
X143470714Y-133975295D02*
X143470714Y-134070533D01*
X143470714Y-134070533D02*
X143423095Y-134213390D01*
X143423095Y-134213390D02*
X142851667Y-134784819D01*
X142851667Y-134784819D02*
X143470714Y-134784819D01*
X153416169Y-115699693D02*
X153348825Y-115699693D01*
X153348825Y-115699693D02*
X153214138Y-115632349D01*
X153214138Y-115632349D02*
X153146795Y-115565006D01*
X153146795Y-115565006D02*
X153079451Y-115430319D01*
X153079451Y-115430319D02*
X153079451Y-115295632D01*
X153079451Y-115295632D02*
X153113123Y-115194617D01*
X153113123Y-115194617D02*
X153214138Y-115026258D01*
X153214138Y-115026258D02*
X153315153Y-114925243D01*
X153315153Y-114925243D02*
X153483512Y-114824227D01*
X153483512Y-114824227D02*
X153584527Y-114790556D01*
X153584527Y-114790556D02*
X153719214Y-114790556D01*
X153719214Y-114790556D02*
X153853901Y-114857899D01*
X153853901Y-114857899D02*
X153921245Y-114925243D01*
X153921245Y-114925243D02*
X153988588Y-115059930D01*
X153988588Y-115059930D02*
X153988588Y-115127273D01*
X154022260Y-116440471D02*
X153618199Y-116036410D01*
X153820230Y-116238441D02*
X154527336Y-115531334D01*
X154527336Y-115531334D02*
X154358978Y-115565006D01*
X154358978Y-115565006D02*
X154224291Y-115565006D01*
X154224291Y-115565006D02*
X154123275Y-115531334D01*
X154931398Y-116070082D02*
X154998741Y-116070082D01*
X154998741Y-116070082D02*
X155099756Y-116103754D01*
X155099756Y-116103754D02*
X155268115Y-116272113D01*
X155268115Y-116272113D02*
X155301787Y-116373128D01*
X155301787Y-116373128D02*
X155301787Y-116440472D01*
X155301787Y-116440472D02*
X155268115Y-116541487D01*
X155268115Y-116541487D02*
X155200772Y-116608830D01*
X155200772Y-116608830D02*
X155066085Y-116676174D01*
X155066085Y-116676174D02*
X154257963Y-116676174D01*
X154257963Y-116676174D02*
X154695695Y-117113907D01*
X143411411Y-119172112D02*
X143411411Y-119239456D01*
X143411411Y-119239456D02*
X143344067Y-119374143D01*
X143344067Y-119374143D02*
X143276724Y-119441486D01*
X143276724Y-119441486D02*
X143142037Y-119508830D01*
X143142037Y-119508830D02*
X143007350Y-119508830D01*
X143007350Y-119508830D02*
X142906335Y-119475158D01*
X142906335Y-119475158D02*
X142737976Y-119374143D01*
X142737976Y-119374143D02*
X142636961Y-119273128D01*
X142636961Y-119273128D02*
X142535945Y-119104769D01*
X142535945Y-119104769D02*
X142502274Y-119003754D01*
X142502274Y-119003754D02*
X142502274Y-118869067D01*
X142502274Y-118869067D02*
X142569617Y-118734380D01*
X142569617Y-118734380D02*
X142636961Y-118667036D01*
X142636961Y-118667036D02*
X142771648Y-118599693D01*
X142771648Y-118599693D02*
X142838991Y-118599693D01*
X143377739Y-117926258D02*
X143243052Y-118060945D01*
X143243052Y-118060945D02*
X143209380Y-118161960D01*
X143209380Y-118161960D02*
X143209380Y-118229303D01*
X143209380Y-118229303D02*
X143243052Y-118397662D01*
X143243052Y-118397662D02*
X143344067Y-118566021D01*
X143344067Y-118566021D02*
X143613441Y-118835395D01*
X143613441Y-118835395D02*
X143714457Y-118869067D01*
X143714457Y-118869067D02*
X143781800Y-118869067D01*
X143781800Y-118869067D02*
X143882815Y-118835395D01*
X143882815Y-118835395D02*
X144017502Y-118700708D01*
X144017502Y-118700708D02*
X144051174Y-118599693D01*
X144051174Y-118599693D02*
X144051174Y-118532349D01*
X144051174Y-118532349D02*
X144017502Y-118431334D01*
X144017502Y-118431334D02*
X143849144Y-118262975D01*
X143849144Y-118262975D02*
X143748128Y-118229303D01*
X143748128Y-118229303D02*
X143680785Y-118229303D01*
X143680785Y-118229303D02*
X143579770Y-118262975D01*
X143579770Y-118262975D02*
X143445083Y-118397662D01*
X143445083Y-118397662D02*
X143411411Y-118498677D01*
X143411411Y-118498677D02*
X143411411Y-118566021D01*
X143411411Y-118566021D02*
X143445083Y-118667036D01*
X158527888Y-121361411D02*
X158460544Y-121361411D01*
X158460544Y-121361411D02*
X158325857Y-121294067D01*
X158325857Y-121294067D02*
X158258514Y-121226724D01*
X158258514Y-121226724D02*
X158191170Y-121092037D01*
X158191170Y-121092037D02*
X158191170Y-120957350D01*
X158191170Y-120957350D02*
X158224842Y-120856335D01*
X158224842Y-120856335D02*
X158325857Y-120687976D01*
X158325857Y-120687976D02*
X158426872Y-120586961D01*
X158426872Y-120586961D02*
X158595231Y-120485945D01*
X158595231Y-120485945D02*
X158696246Y-120452274D01*
X158696246Y-120452274D02*
X158830933Y-120452274D01*
X158830933Y-120452274D02*
X158965620Y-120519617D01*
X158965620Y-120519617D02*
X159032964Y-120586961D01*
X159032964Y-120586961D02*
X159100307Y-120721648D01*
X159100307Y-120721648D02*
X159100307Y-120788991D01*
X159133979Y-122102189D02*
X158729918Y-121698128D01*
X158931949Y-121900159D02*
X159639055Y-121193052D01*
X159639055Y-121193052D02*
X159470697Y-121226724D01*
X159470697Y-121226724D02*
X159336010Y-121226724D01*
X159336010Y-121226724D02*
X159234994Y-121193052D01*
X131416666Y-127529819D02*
X131416666Y-128244104D01*
X131416666Y-128244104D02*
X131369047Y-128386961D01*
X131369047Y-128386961D02*
X131273809Y-128482200D01*
X131273809Y-128482200D02*
X131130952Y-128529819D01*
X131130952Y-128529819D02*
X131035714Y-128529819D01*
X131845238Y-127625057D02*
X131892857Y-127577438D01*
X131892857Y-127577438D02*
X131988095Y-127529819D01*
X131988095Y-127529819D02*
X132226190Y-127529819D01*
X132226190Y-127529819D02*
X132321428Y-127577438D01*
X132321428Y-127577438D02*
X132369047Y-127625057D01*
X132369047Y-127625057D02*
X132416666Y-127720295D01*
X132416666Y-127720295D02*
X132416666Y-127815533D01*
X132416666Y-127815533D02*
X132369047Y-127958390D01*
X132369047Y-127958390D02*
X131797619Y-128529819D01*
X131797619Y-128529819D02*
X132416666Y-128529819D01*
X176777142Y-113649580D02*
X176729523Y-113697200D01*
X176729523Y-113697200D02*
X176586666Y-113744819D01*
X176586666Y-113744819D02*
X176491428Y-113744819D01*
X176491428Y-113744819D02*
X176348571Y-113697200D01*
X176348571Y-113697200D02*
X176253333Y-113601961D01*
X176253333Y-113601961D02*
X176205714Y-113506723D01*
X176205714Y-113506723D02*
X176158095Y-113316247D01*
X176158095Y-113316247D02*
X176158095Y-113173390D01*
X176158095Y-113173390D02*
X176205714Y-112982914D01*
X176205714Y-112982914D02*
X176253333Y-112887676D01*
X176253333Y-112887676D02*
X176348571Y-112792438D01*
X176348571Y-112792438D02*
X176491428Y-112744819D01*
X176491428Y-112744819D02*
X176586666Y-112744819D01*
X176586666Y-112744819D02*
X176729523Y-112792438D01*
X176729523Y-112792438D02*
X176777142Y-112840057D01*
X177729523Y-113744819D02*
X177158095Y-113744819D01*
X177443809Y-113744819D02*
X177443809Y-112744819D01*
X177443809Y-112744819D02*
X177348571Y-112887676D01*
X177348571Y-112887676D02*
X177253333Y-112982914D01*
X177253333Y-112982914D02*
X177158095Y-113030533D01*
X178205714Y-113744819D02*
X178396190Y-113744819D01*
X178396190Y-113744819D02*
X178491428Y-113697200D01*
X178491428Y-113697200D02*
X178539047Y-113649580D01*
X178539047Y-113649580D02*
X178634285Y-113506723D01*
X178634285Y-113506723D02*
X178681904Y-113316247D01*
X178681904Y-113316247D02*
X178681904Y-112935295D01*
X178681904Y-112935295D02*
X178634285Y-112840057D01*
X178634285Y-112840057D02*
X178586666Y-112792438D01*
X178586666Y-112792438D02*
X178491428Y-112744819D01*
X178491428Y-112744819D02*
X178300952Y-112744819D01*
X178300952Y-112744819D02*
X178205714Y-112792438D01*
X178205714Y-112792438D02*
X178158095Y-112840057D01*
X178158095Y-112840057D02*
X178110476Y-112935295D01*
X178110476Y-112935295D02*
X178110476Y-113173390D01*
X178110476Y-113173390D02*
X178158095Y-113268628D01*
X178158095Y-113268628D02*
X178205714Y-113316247D01*
X178205714Y-113316247D02*
X178300952Y-113363866D01*
X178300952Y-113363866D02*
X178491428Y-113363866D01*
X178491428Y-113363866D02*
X178586666Y-113316247D01*
X178586666Y-113316247D02*
X178634285Y-113268628D01*
X178634285Y-113268628D02*
X178681904Y-113173390D01*
X136022080Y-122842857D02*
X136069700Y-122890476D01*
X136069700Y-122890476D02*
X136117319Y-123033333D01*
X136117319Y-123033333D02*
X136117319Y-123128571D01*
X136117319Y-123128571D02*
X136069700Y-123271428D01*
X136069700Y-123271428D02*
X135974461Y-123366666D01*
X135974461Y-123366666D02*
X135879223Y-123414285D01*
X135879223Y-123414285D02*
X135688747Y-123461904D01*
X135688747Y-123461904D02*
X135545890Y-123461904D01*
X135545890Y-123461904D02*
X135355414Y-123414285D01*
X135355414Y-123414285D02*
X135260176Y-123366666D01*
X135260176Y-123366666D02*
X135164938Y-123271428D01*
X135164938Y-123271428D02*
X135117319Y-123128571D01*
X135117319Y-123128571D02*
X135117319Y-123033333D01*
X135117319Y-123033333D02*
X135164938Y-122890476D01*
X135164938Y-122890476D02*
X135212557Y-122842857D01*
X136117319Y-121890476D02*
X136117319Y-122461904D01*
X136117319Y-122176190D02*
X135117319Y-122176190D01*
X135117319Y-122176190D02*
X135260176Y-122271428D01*
X135260176Y-122271428D02*
X135355414Y-122366666D01*
X135355414Y-122366666D02*
X135403033Y-122461904D01*
X135450652Y-121033333D02*
X136117319Y-121033333D01*
X135069700Y-121271428D02*
X135783985Y-121509523D01*
X135783985Y-121509523D02*
X135783985Y-120890476D01*
X131946004Y-122329819D02*
X131946004Y-123139342D01*
X131946004Y-123139342D02*
X131993623Y-123234580D01*
X131993623Y-123234580D02*
X132041242Y-123282200D01*
X132041242Y-123282200D02*
X132136480Y-123329819D01*
X132136480Y-123329819D02*
X132326956Y-123329819D01*
X132326956Y-123329819D02*
X132422194Y-123282200D01*
X132422194Y-123282200D02*
X132469813Y-123234580D01*
X132469813Y-123234580D02*
X132517432Y-123139342D01*
X132517432Y-123139342D02*
X132517432Y-122329819D01*
X132946004Y-122425057D02*
X132993623Y-122377438D01*
X132993623Y-122377438D02*
X133088861Y-122329819D01*
X133088861Y-122329819D02*
X133326956Y-122329819D01*
X133326956Y-122329819D02*
X133422194Y-122377438D01*
X133422194Y-122377438D02*
X133469813Y-122425057D01*
X133469813Y-122425057D02*
X133517432Y-122520295D01*
X133517432Y-122520295D02*
X133517432Y-122615533D01*
X133517432Y-122615533D02*
X133469813Y-122758390D01*
X133469813Y-122758390D02*
X132898385Y-123329819D01*
X132898385Y-123329819D02*
X133517432Y-123329819D01*
X140249580Y-130382857D02*
X140297200Y-130430476D01*
X140297200Y-130430476D02*
X140344819Y-130573333D01*
X140344819Y-130573333D02*
X140344819Y-130668571D01*
X140344819Y-130668571D02*
X140297200Y-130811428D01*
X140297200Y-130811428D02*
X140201961Y-130906666D01*
X140201961Y-130906666D02*
X140106723Y-130954285D01*
X140106723Y-130954285D02*
X139916247Y-131001904D01*
X139916247Y-131001904D02*
X139773390Y-131001904D01*
X139773390Y-131001904D02*
X139582914Y-130954285D01*
X139582914Y-130954285D02*
X139487676Y-130906666D01*
X139487676Y-130906666D02*
X139392438Y-130811428D01*
X139392438Y-130811428D02*
X139344819Y-130668571D01*
X139344819Y-130668571D02*
X139344819Y-130573333D01*
X139344819Y-130573333D02*
X139392438Y-130430476D01*
X139392438Y-130430476D02*
X139440057Y-130382857D01*
X140344819Y-129430476D02*
X140344819Y-130001904D01*
X140344819Y-129716190D02*
X139344819Y-129716190D01*
X139344819Y-129716190D02*
X139487676Y-129811428D01*
X139487676Y-129811428D02*
X139582914Y-129906666D01*
X139582914Y-129906666D02*
X139630533Y-130001904D01*
X139344819Y-128525714D02*
X139344819Y-129001904D01*
X139344819Y-129001904D02*
X139821009Y-129049523D01*
X139821009Y-129049523D02*
X139773390Y-129001904D01*
X139773390Y-129001904D02*
X139725771Y-128906666D01*
X139725771Y-128906666D02*
X139725771Y-128668571D01*
X139725771Y-128668571D02*
X139773390Y-128573333D01*
X139773390Y-128573333D02*
X139821009Y-128525714D01*
X139821009Y-128525714D02*
X139916247Y-128478095D01*
X139916247Y-128478095D02*
X140154342Y-128478095D01*
X140154342Y-128478095D02*
X140249580Y-128525714D01*
X140249580Y-128525714D02*
X140297200Y-128573333D01*
X140297200Y-128573333D02*
X140344819Y-128668571D01*
X140344819Y-128668571D02*
X140344819Y-128906666D01*
X140344819Y-128906666D02*
X140297200Y-129001904D01*
X140297200Y-129001904D02*
X140249580Y-129049523D01*
X136386905Y-127154819D02*
X136386905Y-126154819D01*
X136386905Y-126154819D02*
X136625000Y-126154819D01*
X136625000Y-126154819D02*
X136767857Y-126202438D01*
X136767857Y-126202438D02*
X136863095Y-126297676D01*
X136863095Y-126297676D02*
X136910714Y-126392914D01*
X136910714Y-126392914D02*
X136958333Y-126583390D01*
X136958333Y-126583390D02*
X136958333Y-126726247D01*
X136958333Y-126726247D02*
X136910714Y-126916723D01*
X136910714Y-126916723D02*
X136863095Y-127011961D01*
X136863095Y-127011961D02*
X136767857Y-127107200D01*
X136767857Y-127107200D02*
X136625000Y-127154819D01*
X136625000Y-127154819D02*
X136386905Y-127154819D01*
X137910714Y-127154819D02*
X137339286Y-127154819D01*
X137625000Y-127154819D02*
X137625000Y-126154819D01*
X137625000Y-126154819D02*
X137529762Y-126297676D01*
X137529762Y-126297676D02*
X137434524Y-126392914D01*
X137434524Y-126392914D02*
X137339286Y-126440533D01*
X138337142Y-117629580D02*
X138289523Y-117677200D01*
X138289523Y-117677200D02*
X138146666Y-117724819D01*
X138146666Y-117724819D02*
X138051428Y-117724819D01*
X138051428Y-117724819D02*
X137908571Y-117677200D01*
X137908571Y-117677200D02*
X137813333Y-117581961D01*
X137813333Y-117581961D02*
X137765714Y-117486723D01*
X137765714Y-117486723D02*
X137718095Y-117296247D01*
X137718095Y-117296247D02*
X137718095Y-117153390D01*
X137718095Y-117153390D02*
X137765714Y-116962914D01*
X137765714Y-116962914D02*
X137813333Y-116867676D01*
X137813333Y-116867676D02*
X137908571Y-116772438D01*
X137908571Y-116772438D02*
X138051428Y-116724819D01*
X138051428Y-116724819D02*
X138146666Y-116724819D01*
X138146666Y-116724819D02*
X138289523Y-116772438D01*
X138289523Y-116772438D02*
X138337142Y-116820057D01*
X139289523Y-117724819D02*
X138718095Y-117724819D01*
X139003809Y-117724819D02*
X139003809Y-116724819D01*
X139003809Y-116724819D02*
X138908571Y-116867676D01*
X138908571Y-116867676D02*
X138813333Y-116962914D01*
X138813333Y-116962914D02*
X138718095Y-117010533D01*
X139908571Y-116724819D02*
X140003809Y-116724819D01*
X140003809Y-116724819D02*
X140099047Y-116772438D01*
X140099047Y-116772438D02*
X140146666Y-116820057D01*
X140146666Y-116820057D02*
X140194285Y-116915295D01*
X140194285Y-116915295D02*
X140241904Y-117105771D01*
X140241904Y-117105771D02*
X140241904Y-117343866D01*
X140241904Y-117343866D02*
X140194285Y-117534342D01*
X140194285Y-117534342D02*
X140146666Y-117629580D01*
X140146666Y-117629580D02*
X140099047Y-117677200D01*
X140099047Y-117677200D02*
X140003809Y-117724819D01*
X140003809Y-117724819D02*
X139908571Y-117724819D01*
X139908571Y-117724819D02*
X139813333Y-117677200D01*
X139813333Y-117677200D02*
X139765714Y-117629580D01*
X139765714Y-117629580D02*
X139718095Y-117534342D01*
X139718095Y-117534342D02*
X139670476Y-117343866D01*
X139670476Y-117343866D02*
X139670476Y-117105771D01*
X139670476Y-117105771D02*
X139718095Y-116915295D01*
X139718095Y-116915295D02*
X139765714Y-116820057D01*
X139765714Y-116820057D02*
X139813333Y-116772438D01*
X139813333Y-116772438D02*
X139908571Y-116724819D01*
X141679580Y-130382857D02*
X141727200Y-130430476D01*
X141727200Y-130430476D02*
X141774819Y-130573333D01*
X141774819Y-130573333D02*
X141774819Y-130668571D01*
X141774819Y-130668571D02*
X141727200Y-130811428D01*
X141727200Y-130811428D02*
X141631961Y-130906666D01*
X141631961Y-130906666D02*
X141536723Y-130954285D01*
X141536723Y-130954285D02*
X141346247Y-131001904D01*
X141346247Y-131001904D02*
X141203390Y-131001904D01*
X141203390Y-131001904D02*
X141012914Y-130954285D01*
X141012914Y-130954285D02*
X140917676Y-130906666D01*
X140917676Y-130906666D02*
X140822438Y-130811428D01*
X140822438Y-130811428D02*
X140774819Y-130668571D01*
X140774819Y-130668571D02*
X140774819Y-130573333D01*
X140774819Y-130573333D02*
X140822438Y-130430476D01*
X140822438Y-130430476D02*
X140870057Y-130382857D01*
X141774819Y-129430476D02*
X141774819Y-130001904D01*
X141774819Y-129716190D02*
X140774819Y-129716190D01*
X140774819Y-129716190D02*
X140917676Y-129811428D01*
X140917676Y-129811428D02*
X141012914Y-129906666D01*
X141012914Y-129906666D02*
X141060533Y-130001904D01*
X140774819Y-129097142D02*
X140774819Y-128430476D01*
X140774819Y-128430476D02*
X141774819Y-128859047D01*
X150233333Y-113159580D02*
X150185714Y-113207200D01*
X150185714Y-113207200D02*
X150042857Y-113254819D01*
X150042857Y-113254819D02*
X149947619Y-113254819D01*
X149947619Y-113254819D02*
X149804762Y-113207200D01*
X149804762Y-113207200D02*
X149709524Y-113111961D01*
X149709524Y-113111961D02*
X149661905Y-113016723D01*
X149661905Y-113016723D02*
X149614286Y-112826247D01*
X149614286Y-112826247D02*
X149614286Y-112683390D01*
X149614286Y-112683390D02*
X149661905Y-112492914D01*
X149661905Y-112492914D02*
X149709524Y-112397676D01*
X149709524Y-112397676D02*
X149804762Y-112302438D01*
X149804762Y-112302438D02*
X149947619Y-112254819D01*
X149947619Y-112254819D02*
X150042857Y-112254819D01*
X150042857Y-112254819D02*
X150185714Y-112302438D01*
X150185714Y-112302438D02*
X150233333Y-112350057D01*
X150709524Y-113254819D02*
X150900000Y-113254819D01*
X150900000Y-113254819D02*
X150995238Y-113207200D01*
X150995238Y-113207200D02*
X151042857Y-113159580D01*
X151042857Y-113159580D02*
X151138095Y-113016723D01*
X151138095Y-113016723D02*
X151185714Y-112826247D01*
X151185714Y-112826247D02*
X151185714Y-112445295D01*
X151185714Y-112445295D02*
X151138095Y-112350057D01*
X151138095Y-112350057D02*
X151090476Y-112302438D01*
X151090476Y-112302438D02*
X150995238Y-112254819D01*
X150995238Y-112254819D02*
X150804762Y-112254819D01*
X150804762Y-112254819D02*
X150709524Y-112302438D01*
X150709524Y-112302438D02*
X150661905Y-112350057D01*
X150661905Y-112350057D02*
X150614286Y-112445295D01*
X150614286Y-112445295D02*
X150614286Y-112683390D01*
X150614286Y-112683390D02*
X150661905Y-112778628D01*
X150661905Y-112778628D02*
X150709524Y-112826247D01*
X150709524Y-112826247D02*
X150804762Y-112873866D01*
X150804762Y-112873866D02*
X150995238Y-112873866D01*
X150995238Y-112873866D02*
X151090476Y-112826247D01*
X151090476Y-112826247D02*
X151138095Y-112778628D01*
X151138095Y-112778628D02*
X151185714Y-112683390D01*
X138856009Y-123033333D02*
X138856009Y-123366666D01*
X139379819Y-123366666D02*
X138379819Y-123366666D01*
X138379819Y-123366666D02*
X138379819Y-122890476D01*
X138856009Y-122176190D02*
X138903628Y-122033333D01*
X138903628Y-122033333D02*
X138951247Y-121985714D01*
X138951247Y-121985714D02*
X139046485Y-121938095D01*
X139046485Y-121938095D02*
X139189342Y-121938095D01*
X139189342Y-121938095D02*
X139284580Y-121985714D01*
X139284580Y-121985714D02*
X139332200Y-122033333D01*
X139332200Y-122033333D02*
X139379819Y-122128571D01*
X139379819Y-122128571D02*
X139379819Y-122509523D01*
X139379819Y-122509523D02*
X138379819Y-122509523D01*
X138379819Y-122509523D02*
X138379819Y-122176190D01*
X138379819Y-122176190D02*
X138427438Y-122080952D01*
X138427438Y-122080952D02*
X138475057Y-122033333D01*
X138475057Y-122033333D02*
X138570295Y-121985714D01*
X138570295Y-121985714D02*
X138665533Y-121985714D01*
X138665533Y-121985714D02*
X138760771Y-122033333D01*
X138760771Y-122033333D02*
X138808390Y-122080952D01*
X138808390Y-122080952D02*
X138856009Y-122176190D01*
X138856009Y-122176190D02*
X138856009Y-122509523D01*
X138475057Y-121557142D02*
X138427438Y-121509523D01*
X138427438Y-121509523D02*
X138379819Y-121414285D01*
X138379819Y-121414285D02*
X138379819Y-121176190D01*
X138379819Y-121176190D02*
X138427438Y-121080952D01*
X138427438Y-121080952D02*
X138475057Y-121033333D01*
X138475057Y-121033333D02*
X138570295Y-120985714D01*
X138570295Y-120985714D02*
X138665533Y-120985714D01*
X138665533Y-120985714D02*
X138808390Y-121033333D01*
X138808390Y-121033333D02*
X139379819Y-121604761D01*
X139379819Y-121604761D02*
X139379819Y-120985714D01*
X158121754Y-123350750D02*
X157549334Y-123923170D01*
X157549334Y-123923170D02*
X157515662Y-124024185D01*
X157515662Y-124024185D02*
X157515662Y-124091529D01*
X157515662Y-124091529D02*
X157549334Y-124192544D01*
X157549334Y-124192544D02*
X157684021Y-124327231D01*
X157684021Y-124327231D02*
X157785036Y-124360903D01*
X157785036Y-124360903D02*
X157852380Y-124360903D01*
X157852380Y-124360903D02*
X157953395Y-124327231D01*
X157953395Y-124327231D02*
X158525815Y-123754811D01*
X158525815Y-125169025D02*
X158121754Y-124764964D01*
X158323784Y-124966994D02*
X159030891Y-124259888D01*
X159030891Y-124259888D02*
X158862532Y-124293559D01*
X158862532Y-124293559D02*
X158727845Y-124293559D01*
X158727845Y-124293559D02*
X158626830Y-124259888D01*
X132872380Y-117404819D02*
X132539047Y-116928628D01*
X132300952Y-117404819D02*
X132300952Y-116404819D01*
X132300952Y-116404819D02*
X132681904Y-116404819D01*
X132681904Y-116404819D02*
X132777142Y-116452438D01*
X132777142Y-116452438D02*
X132824761Y-116500057D01*
X132824761Y-116500057D02*
X132872380Y-116595295D01*
X132872380Y-116595295D02*
X132872380Y-116738152D01*
X132872380Y-116738152D02*
X132824761Y-116833390D01*
X132824761Y-116833390D02*
X132777142Y-116881009D01*
X132777142Y-116881009D02*
X132681904Y-116928628D01*
X132681904Y-116928628D02*
X132300952Y-116928628D01*
X133253333Y-117357200D02*
X133396190Y-117404819D01*
X133396190Y-117404819D02*
X133634285Y-117404819D01*
X133634285Y-117404819D02*
X133729523Y-117357200D01*
X133729523Y-117357200D02*
X133777142Y-117309580D01*
X133777142Y-117309580D02*
X133824761Y-117214342D01*
X133824761Y-117214342D02*
X133824761Y-117119104D01*
X133824761Y-117119104D02*
X133777142Y-117023866D01*
X133777142Y-117023866D02*
X133729523Y-116976247D01*
X133729523Y-116976247D02*
X133634285Y-116928628D01*
X133634285Y-116928628D02*
X133443809Y-116881009D01*
X133443809Y-116881009D02*
X133348571Y-116833390D01*
X133348571Y-116833390D02*
X133300952Y-116785771D01*
X133300952Y-116785771D02*
X133253333Y-116690533D01*
X133253333Y-116690533D02*
X133253333Y-116595295D01*
X133253333Y-116595295D02*
X133300952Y-116500057D01*
X133300952Y-116500057D02*
X133348571Y-116452438D01*
X133348571Y-116452438D02*
X133443809Y-116404819D01*
X133443809Y-116404819D02*
X133681904Y-116404819D01*
X133681904Y-116404819D02*
X133824761Y-116452438D01*
X134110476Y-116404819D02*
X134681904Y-116404819D01*
X134396190Y-117404819D02*
X134396190Y-116404819D01*
X137422080Y-122892857D02*
X137469700Y-122940476D01*
X137469700Y-122940476D02*
X137517319Y-123083333D01*
X137517319Y-123083333D02*
X137517319Y-123178571D01*
X137517319Y-123178571D02*
X137469700Y-123321428D01*
X137469700Y-123321428D02*
X137374461Y-123416666D01*
X137374461Y-123416666D02*
X137279223Y-123464285D01*
X137279223Y-123464285D02*
X137088747Y-123511904D01*
X137088747Y-123511904D02*
X136945890Y-123511904D01*
X136945890Y-123511904D02*
X136755414Y-123464285D01*
X136755414Y-123464285D02*
X136660176Y-123416666D01*
X136660176Y-123416666D02*
X136564938Y-123321428D01*
X136564938Y-123321428D02*
X136517319Y-123178571D01*
X136517319Y-123178571D02*
X136517319Y-123083333D01*
X136517319Y-123083333D02*
X136564938Y-122940476D01*
X136564938Y-122940476D02*
X136612557Y-122892857D01*
X137517319Y-121940476D02*
X137517319Y-122511904D01*
X137517319Y-122226190D02*
X136517319Y-122226190D01*
X136517319Y-122226190D02*
X136660176Y-122321428D01*
X136660176Y-122321428D02*
X136755414Y-122416666D01*
X136755414Y-122416666D02*
X136803033Y-122511904D01*
X136517319Y-121083333D02*
X136517319Y-121273809D01*
X136517319Y-121273809D02*
X136564938Y-121369047D01*
X136564938Y-121369047D02*
X136612557Y-121416666D01*
X136612557Y-121416666D02*
X136755414Y-121511904D01*
X136755414Y-121511904D02*
X136945890Y-121559523D01*
X136945890Y-121559523D02*
X137326842Y-121559523D01*
X137326842Y-121559523D02*
X137422080Y-121511904D01*
X137422080Y-121511904D02*
X137469700Y-121464285D01*
X137469700Y-121464285D02*
X137517319Y-121369047D01*
X137517319Y-121369047D02*
X137517319Y-121178571D01*
X137517319Y-121178571D02*
X137469700Y-121083333D01*
X137469700Y-121083333D02*
X137422080Y-121035714D01*
X137422080Y-121035714D02*
X137326842Y-120988095D01*
X137326842Y-120988095D02*
X137088747Y-120988095D01*
X137088747Y-120988095D02*
X136993509Y-121035714D01*
X136993509Y-121035714D02*
X136945890Y-121083333D01*
X136945890Y-121083333D02*
X136898271Y-121178571D01*
X136898271Y-121178571D02*
X136898271Y-121369047D01*
X136898271Y-121369047D02*
X136945890Y-121464285D01*
X136945890Y-121464285D02*
X136993509Y-121511904D01*
X136993509Y-121511904D02*
X137088747Y-121559523D01*
X157760543Y-130003754D02*
X157861558Y-129431335D01*
X157356482Y-129599693D02*
X158063589Y-128892587D01*
X158063589Y-128892587D02*
X158332963Y-129161961D01*
X158332963Y-129161961D02*
X158366635Y-129262976D01*
X158366635Y-129262976D02*
X158366635Y-129330319D01*
X158366635Y-129330319D02*
X158332963Y-129431335D01*
X158332963Y-129431335D02*
X158231948Y-129532350D01*
X158231948Y-129532350D02*
X158130932Y-129566022D01*
X158130932Y-129566022D02*
X158063589Y-129566022D01*
X158063589Y-129566022D02*
X157962574Y-129532350D01*
X157962574Y-129532350D02*
X157693200Y-129262976D01*
X158433978Y-130677189D02*
X158029917Y-130273128D01*
X158231948Y-130475159D02*
X158939054Y-129768052D01*
X158939054Y-129768052D02*
X158770696Y-129801724D01*
X158770696Y-129801724D02*
X158636009Y-129801724D01*
X158636009Y-129801724D02*
X158534993Y-129768052D01*
X154827887Y-119061411D02*
X154760543Y-119061411D01*
X154760543Y-119061411D02*
X154625856Y-118994067D01*
X154625856Y-118994067D02*
X154558513Y-118926724D01*
X154558513Y-118926724D02*
X154491169Y-118792037D01*
X154491169Y-118792037D02*
X154491169Y-118657350D01*
X154491169Y-118657350D02*
X154524841Y-118556335D01*
X154524841Y-118556335D02*
X154625856Y-118387976D01*
X154625856Y-118387976D02*
X154726871Y-118286961D01*
X154726871Y-118286961D02*
X154895230Y-118185945D01*
X154895230Y-118185945D02*
X154996245Y-118152274D01*
X154996245Y-118152274D02*
X155130932Y-118152274D01*
X155130932Y-118152274D02*
X155265619Y-118219617D01*
X155265619Y-118219617D02*
X155332963Y-118286961D01*
X155332963Y-118286961D02*
X155400306Y-118421648D01*
X155400306Y-118421648D02*
X155400306Y-118488991D01*
X155703352Y-118657350D02*
X156174757Y-119128754D01*
X156174757Y-119128754D02*
X155164604Y-119532815D01*
X136868095Y-135284819D02*
X136868095Y-136094342D01*
X136868095Y-136094342D02*
X136915714Y-136189580D01*
X136915714Y-136189580D02*
X136963333Y-136237200D01*
X136963333Y-136237200D02*
X137058571Y-136284819D01*
X137058571Y-136284819D02*
X137249047Y-136284819D01*
X137249047Y-136284819D02*
X137344285Y-136237200D01*
X137344285Y-136237200D02*
X137391904Y-136189580D01*
X137391904Y-136189580D02*
X137439523Y-136094342D01*
X137439523Y-136094342D02*
X137439523Y-135284819D01*
X137820476Y-135284819D02*
X138439523Y-135284819D01*
X138439523Y-135284819D02*
X138106190Y-135665771D01*
X138106190Y-135665771D02*
X138249047Y-135665771D01*
X138249047Y-135665771D02*
X138344285Y-135713390D01*
X138344285Y-135713390D02*
X138391904Y-135761009D01*
X138391904Y-135761009D02*
X138439523Y-135856247D01*
X138439523Y-135856247D02*
X138439523Y-136094342D01*
X138439523Y-136094342D02*
X138391904Y-136189580D01*
X138391904Y-136189580D02*
X138344285Y-136237200D01*
X138344285Y-136237200D02*
X138249047Y-136284819D01*
X138249047Y-136284819D02*
X137963333Y-136284819D01*
X137963333Y-136284819D02*
X137868095Y-136237200D01*
X137868095Y-136237200D02*
X137820476Y-136189580D01*
X146361411Y-116472112D02*
X146361411Y-116539456D01*
X146361411Y-116539456D02*
X146294067Y-116674143D01*
X146294067Y-116674143D02*
X146226724Y-116741486D01*
X146226724Y-116741486D02*
X146092037Y-116808830D01*
X146092037Y-116808830D02*
X145957350Y-116808830D01*
X145957350Y-116808830D02*
X145856335Y-116775158D01*
X145856335Y-116775158D02*
X145687976Y-116674143D01*
X145687976Y-116674143D02*
X145586961Y-116573128D01*
X145586961Y-116573128D02*
X145485945Y-116404769D01*
X145485945Y-116404769D02*
X145452274Y-116303754D01*
X145452274Y-116303754D02*
X145452274Y-116169067D01*
X145452274Y-116169067D02*
X145519617Y-116034380D01*
X145519617Y-116034380D02*
X145586961Y-115967036D01*
X145586961Y-115967036D02*
X145721648Y-115899693D01*
X145721648Y-115899693D02*
X145788991Y-115899693D01*
X146058365Y-115630319D02*
X146058365Y-115562975D01*
X146058365Y-115562975D02*
X146092037Y-115461960D01*
X146092037Y-115461960D02*
X146260396Y-115293601D01*
X146260396Y-115293601D02*
X146361411Y-115259929D01*
X146361411Y-115259929D02*
X146428754Y-115259929D01*
X146428754Y-115259929D02*
X146529770Y-115293601D01*
X146529770Y-115293601D02*
X146597113Y-115360945D01*
X146597113Y-115360945D02*
X146664457Y-115495632D01*
X146664457Y-115495632D02*
X146664457Y-116303754D01*
X146664457Y-116303754D02*
X147102189Y-115866021D01*
X158347887Y-128066411D02*
X158280543Y-128066411D01*
X158280543Y-128066411D02*
X158145856Y-127999067D01*
X158145856Y-127999067D02*
X158078513Y-127931724D01*
X158078513Y-127931724D02*
X158011169Y-127797037D01*
X158011169Y-127797037D02*
X158011169Y-127662350D01*
X158011169Y-127662350D02*
X158044841Y-127561335D01*
X158044841Y-127561335D02*
X158145856Y-127392976D01*
X158145856Y-127392976D02*
X158246871Y-127291961D01*
X158246871Y-127291961D02*
X158415230Y-127190945D01*
X158415230Y-127190945D02*
X158516245Y-127157274D01*
X158516245Y-127157274D02*
X158650932Y-127157274D01*
X158650932Y-127157274D02*
X158785619Y-127224617D01*
X158785619Y-127224617D02*
X158852963Y-127291961D01*
X158852963Y-127291961D02*
X158920306Y-127426648D01*
X158920306Y-127426648D02*
X158920306Y-127493991D01*
X159627413Y-128066411D02*
X159290696Y-127729693D01*
X159290696Y-127729693D02*
X158920306Y-128032739D01*
X158920306Y-128032739D02*
X158987650Y-128032739D01*
X158987650Y-128032739D02*
X159088665Y-128066411D01*
X159088665Y-128066411D02*
X159257024Y-128234770D01*
X159257024Y-128234770D02*
X159290696Y-128335785D01*
X159290696Y-128335785D02*
X159290696Y-128403128D01*
X159290696Y-128403128D02*
X159257024Y-128504144D01*
X159257024Y-128504144D02*
X159088665Y-128672502D01*
X159088665Y-128672502D02*
X158987650Y-128706174D01*
X158987650Y-128706174D02*
X158920306Y-128706174D01*
X158920306Y-128706174D02*
X158819291Y-128672502D01*
X158819291Y-128672502D02*
X158650932Y-128504144D01*
X158650932Y-128504144D02*
X158617261Y-128403128D01*
X158617261Y-128403128D02*
X158617261Y-128335785D01*
X155760543Y-130578754D02*
X155861558Y-130006335D01*
X155356482Y-130174693D02*
X156063589Y-129467587D01*
X156063589Y-129467587D02*
X156332963Y-129736961D01*
X156332963Y-129736961D02*
X156366635Y-129837976D01*
X156366635Y-129837976D02*
X156366635Y-129905319D01*
X156366635Y-129905319D02*
X156332963Y-130006335D01*
X156332963Y-130006335D02*
X156231948Y-130107350D01*
X156231948Y-130107350D02*
X156130932Y-130141022D01*
X156130932Y-130141022D02*
X156063589Y-130141022D01*
X156063589Y-130141022D02*
X155962574Y-130107350D01*
X155962574Y-130107350D02*
X155693200Y-129837976D01*
X157107413Y-130511411D02*
X156770696Y-130174693D01*
X156770696Y-130174693D02*
X156400306Y-130477739D01*
X156400306Y-130477739D02*
X156467650Y-130477739D01*
X156467650Y-130477739D02*
X156568665Y-130511411D01*
X156568665Y-130511411D02*
X156737024Y-130679770D01*
X156737024Y-130679770D02*
X156770696Y-130780785D01*
X156770696Y-130780785D02*
X156770696Y-130848128D01*
X156770696Y-130848128D02*
X156737024Y-130949144D01*
X156737024Y-130949144D02*
X156568665Y-131117502D01*
X156568665Y-131117502D02*
X156467650Y-131151174D01*
X156467650Y-131151174D02*
X156400306Y-131151174D01*
X156400306Y-131151174D02*
X156299291Y-131117502D01*
X156299291Y-131117502D02*
X156130932Y-130949144D01*
X156130932Y-130949144D02*
X156097261Y-130848128D01*
X156097261Y-130848128D02*
X156097261Y-130780785D01*
X137873333Y-131514819D02*
X137540000Y-131038628D01*
X137301905Y-131514819D02*
X137301905Y-130514819D01*
X137301905Y-130514819D02*
X137682857Y-130514819D01*
X137682857Y-130514819D02*
X137778095Y-130562438D01*
X137778095Y-130562438D02*
X137825714Y-130610057D01*
X137825714Y-130610057D02*
X137873333Y-130705295D01*
X137873333Y-130705295D02*
X137873333Y-130848152D01*
X137873333Y-130848152D02*
X137825714Y-130943390D01*
X137825714Y-130943390D02*
X137778095Y-130991009D01*
X137778095Y-130991009D02*
X137682857Y-131038628D01*
X137682857Y-131038628D02*
X137301905Y-131038628D01*
X138206667Y-130514819D02*
X138825714Y-130514819D01*
X138825714Y-130514819D02*
X138492381Y-130895771D01*
X138492381Y-130895771D02*
X138635238Y-130895771D01*
X138635238Y-130895771D02*
X138730476Y-130943390D01*
X138730476Y-130943390D02*
X138778095Y-130991009D01*
X138778095Y-130991009D02*
X138825714Y-131086247D01*
X138825714Y-131086247D02*
X138825714Y-131324342D01*
X138825714Y-131324342D02*
X138778095Y-131419580D01*
X138778095Y-131419580D02*
X138730476Y-131467200D01*
X138730476Y-131467200D02*
X138635238Y-131514819D01*
X138635238Y-131514819D02*
X138349524Y-131514819D01*
X138349524Y-131514819D02*
X138254286Y-131467200D01*
X138254286Y-131467200D02*
X138206667Y-131419580D01*
X150033333Y-116559580D02*
X149985714Y-116607200D01*
X149985714Y-116607200D02*
X149842857Y-116654819D01*
X149842857Y-116654819D02*
X149747619Y-116654819D01*
X149747619Y-116654819D02*
X149604762Y-116607200D01*
X149604762Y-116607200D02*
X149509524Y-116511961D01*
X149509524Y-116511961D02*
X149461905Y-116416723D01*
X149461905Y-116416723D02*
X149414286Y-116226247D01*
X149414286Y-116226247D02*
X149414286Y-116083390D01*
X149414286Y-116083390D02*
X149461905Y-115892914D01*
X149461905Y-115892914D02*
X149509524Y-115797676D01*
X149509524Y-115797676D02*
X149604762Y-115702438D01*
X149604762Y-115702438D02*
X149747619Y-115654819D01*
X149747619Y-115654819D02*
X149842857Y-115654819D01*
X149842857Y-115654819D02*
X149985714Y-115702438D01*
X149985714Y-115702438D02*
X150033333Y-115750057D01*
X150604762Y-116083390D02*
X150509524Y-116035771D01*
X150509524Y-116035771D02*
X150461905Y-115988152D01*
X150461905Y-115988152D02*
X150414286Y-115892914D01*
X150414286Y-115892914D02*
X150414286Y-115845295D01*
X150414286Y-115845295D02*
X150461905Y-115750057D01*
X150461905Y-115750057D02*
X150509524Y-115702438D01*
X150509524Y-115702438D02*
X150604762Y-115654819D01*
X150604762Y-115654819D02*
X150795238Y-115654819D01*
X150795238Y-115654819D02*
X150890476Y-115702438D01*
X150890476Y-115702438D02*
X150938095Y-115750057D01*
X150938095Y-115750057D02*
X150985714Y-115845295D01*
X150985714Y-115845295D02*
X150985714Y-115892914D01*
X150985714Y-115892914D02*
X150938095Y-115988152D01*
X150938095Y-115988152D02*
X150890476Y-116035771D01*
X150890476Y-116035771D02*
X150795238Y-116083390D01*
X150795238Y-116083390D02*
X150604762Y-116083390D01*
X150604762Y-116083390D02*
X150509524Y-116131009D01*
X150509524Y-116131009D02*
X150461905Y-116178628D01*
X150461905Y-116178628D02*
X150414286Y-116273866D01*
X150414286Y-116273866D02*
X150414286Y-116464342D01*
X150414286Y-116464342D02*
X150461905Y-116559580D01*
X150461905Y-116559580D02*
X150509524Y-116607200D01*
X150509524Y-116607200D02*
X150604762Y-116654819D01*
X150604762Y-116654819D02*
X150795238Y-116654819D01*
X150795238Y-116654819D02*
X150890476Y-116607200D01*
X150890476Y-116607200D02*
X150938095Y-116559580D01*
X150938095Y-116559580D02*
X150985714Y-116464342D01*
X150985714Y-116464342D02*
X150985714Y-116273866D01*
X150985714Y-116273866D02*
X150938095Y-116178628D01*
X150938095Y-116178628D02*
X150890476Y-116131009D01*
X150890476Y-116131009D02*
X150795238Y-116083390D01*
%TO.C,R4*%
D15*
X153122659Y-131014940D02*
X153339940Y-130797659D01*
X153660060Y-131552341D02*
X153877341Y-131335060D01*
%TO.C,C11*%
X157148048Y-119405084D02*
X157300551Y-119557587D01*
X157657165Y-118895967D02*
X157809668Y-119048470D01*
%TO.C,C18*%
X178741252Y-110825000D02*
X178218748Y-110825000D01*
X178741252Y-112295000D02*
X178218748Y-112295000D01*
%TO.C,C13*%
X129640000Y-124692164D02*
X129640000Y-124907836D01*
X130360000Y-124692164D02*
X130360000Y-124907836D01*
%TO.C,J3*%
X158629846Y-110870000D02*
X158629846Y-113630000D01*
X166359846Y-110870000D02*
X158629846Y-110870000D01*
X166359846Y-110870000D02*
X166359846Y-113630000D01*
X166359846Y-113630000D02*
X158629846Y-113630000D01*
X167629846Y-110870000D02*
X169009846Y-110870000D01*
X169009846Y-110870000D02*
X169009846Y-112250000D01*
%TO.C,C4*%
X147321693Y-132380810D02*
X147169190Y-132228307D01*
X147830810Y-131871693D02*
X147678307Y-131719190D01*
%TO.C,C3*%
X142044190Y-121346693D02*
X142196693Y-121194190D01*
X142553307Y-121855810D02*
X142705810Y-121703307D01*
%TO.C,R2*%
X140880000Y-134136359D02*
X140880000Y-134443641D01*
X141640000Y-134136359D02*
X141640000Y-134443641D01*
%TO.C,C12*%
X155583637Y-117815673D02*
X155736140Y-117968176D01*
X156092754Y-117306556D02*
X156245257Y-117459059D01*
%TO.C,C6*%
X141014970Y-120288781D02*
X141213781Y-120089970D01*
X141736219Y-121010030D02*
X141935030Y-120811219D01*
%TO.C,C1*%
X157819190Y-122203307D02*
X157971693Y-122355810D01*
X158328307Y-121694190D02*
X158480810Y-121846693D01*
%TO.C,J4*%
X165592526Y-120639309D02*
X166972526Y-120639309D01*
X165592526Y-122019309D02*
X165592526Y-120639309D01*
X165592526Y-123289309D02*
X165592526Y-131019309D01*
X165592526Y-123289309D02*
X168352526Y-123289309D01*
X165592526Y-131019309D02*
X168352526Y-131019309D01*
X168352526Y-123289309D02*
X168352526Y-131019309D01*
%TO.C,J2*%
X128100000Y-137000000D02*
X128550000Y-137000000D01*
X128550000Y-129000000D02*
X128550000Y-129300000D01*
X128550000Y-129300000D02*
X128100000Y-129300000D01*
X128550000Y-137000000D02*
X128550000Y-137300000D01*
X128550000Y-137300000D02*
X128700000Y-137300000D01*
X128700000Y-129000000D02*
X128550000Y-129000000D01*
X131100000Y-137300000D02*
X132500000Y-137300000D01*
X132500000Y-129000000D02*
X131100000Y-129000000D01*
X134250000Y-131350000D02*
X134250000Y-130350000D01*
X134250000Y-134950000D02*
X134250000Y-135950000D01*
X134675000Y-131350000D02*
X134250000Y-131350000D01*
X134675000Y-132075000D02*
X134675000Y-131350000D01*
%TO.C,C19*%
X179847836Y-112810000D02*
X179632164Y-112810000D01*
X179847836Y-113530000D02*
X179632164Y-113530000D01*
%TO.C,C14*%
X135290000Y-124637164D02*
X135290000Y-124852836D01*
X136010000Y-124637164D02*
X136010000Y-124852836D01*
%TO.C,U2*%
X131790000Y-123690000D02*
X133610000Y-123690000D01*
X131790000Y-123740000D02*
X131790000Y-123690000D01*
X131790000Y-126810000D02*
X131790000Y-126760000D01*
X133610000Y-123690000D02*
X133610000Y-123740000D01*
X133610000Y-124860000D02*
X133610000Y-125640000D01*
X133610000Y-126760000D02*
X133610000Y-126810000D01*
X133610000Y-126810000D02*
X131790000Y-126810000D01*
X131250000Y-123740000D02*
X131010000Y-123410000D01*
X131490000Y-123410000D01*
X131250000Y-123740000D01*
G36*
X131250000Y-123740000D02*
G01*
X131010000Y-123410000D01*
X131490000Y-123410000D01*
X131250000Y-123740000D01*
G37*
%TO.C,C15*%
X139042849Y-127315724D02*
X139042849Y-127531396D01*
X139762849Y-127315724D02*
X139762849Y-127531396D01*
%TO.C,Y1*%
X158572487Y-119315793D02*
X160990793Y-116897487D01*
X160990793Y-116897487D02*
X158077513Y-113984207D01*
%TO.C,D1*%
X135640000Y-127490000D02*
X135640000Y-128960000D01*
X135640000Y-128960000D02*
X137925000Y-128960000D01*
X137925000Y-127490000D02*
X135640000Y-127490000D01*
%TO.C,C10*%
X136637836Y-116890000D02*
X136422164Y-116890000D01*
X136637836Y-117610000D02*
X136422164Y-117610000D01*
%TO.C,J1*%
X140475991Y-113620538D02*
X140475991Y-112240538D01*
X141855991Y-113620538D02*
X140475991Y-113620538D01*
X143125991Y-110860538D02*
X148315991Y-110860538D01*
X143125991Y-113620538D02*
X143125991Y-110860538D01*
X143125991Y-113620538D02*
X148315991Y-113620538D01*
X148315991Y-113620538D02*
X148315991Y-110860538D01*
%TO.C,C17*%
X140217849Y-127320724D02*
X140217849Y-127536396D01*
X140937849Y-127320724D02*
X140937849Y-127536396D01*
%TO.C,C9*%
X150387836Y-113640000D02*
X150172164Y-113640000D01*
X150387836Y-114360000D02*
X150172164Y-114360000D01*
%TO.C,J6*%
D14*
X197630000Y-125800000D02*
G75*
G02*
X197430000Y-125800000I-100000J0D01*
G01*
X197430000Y-125800000D02*
G75*
G02*
X197630000Y-125800000I100000J0D01*
G01*
%TO.C,U1*%
D15*
X142773369Y-124200000D02*
X143445120Y-123528249D01*
X143445120Y-124871751D02*
X142773369Y-124200000D01*
X149328249Y-117645120D02*
X150000000Y-116973369D01*
X150000000Y-116973369D02*
X150671751Y-117645120D01*
X150000000Y-131426631D02*
X149328249Y-130754880D01*
X150671751Y-130754880D02*
X150000000Y-131426631D01*
X156554880Y-123528249D02*
X157226631Y-124200000D01*
X157226631Y-124200000D02*
X156554880Y-124871751D01*
X157007428Y-123075700D02*
X157580185Y-123167624D01*
X157099352Y-123648457D01*
X157007428Y-123075700D01*
G36*
X157580185Y-123167624D02*
G01*
X157099352Y-123648457D01*
X157007428Y-123075700D01*
X157580185Y-123167624D01*
G37*
%TO.C,RST*%
X130290000Y-112090000D02*
X130290000Y-113590000D01*
X131540000Y-116090000D02*
X136040000Y-116090000D01*
X136040000Y-109590000D02*
X131540000Y-109590000D01*
X137290000Y-113590000D02*
X137290000Y-112090000D01*
%TO.C,C16*%
X136665000Y-124637164D02*
X136665000Y-124852836D01*
X137385000Y-124637164D02*
X137385000Y-124852836D01*
%TO.C,R1*%
X156639940Y-128827341D02*
X156422659Y-128610060D01*
X157177341Y-128289940D02*
X156960060Y-128072659D01*
%TO.C,C7*%
X153419190Y-117803307D02*
X153571693Y-117955810D01*
X153928307Y-117294190D02*
X154080810Y-117446693D01*
%TO.C,U3*%
X136672500Y-131810000D02*
X138492500Y-131810000D01*
X136672500Y-131860000D02*
X136672500Y-131810000D01*
X136672500Y-134930000D02*
X136672500Y-134880000D01*
X138492500Y-131810000D02*
X138492500Y-131860000D01*
X138492500Y-134880000D02*
X138492500Y-134930000D01*
X138492500Y-134930000D02*
X136672500Y-134930000D01*
X136132500Y-131860000D02*
X135892500Y-131530000D01*
X136372500Y-131530000D01*
X136132500Y-131860000D01*
G36*
X136132500Y-131860000D02*
G01*
X135892500Y-131530000D01*
X136372500Y-131530000D01*
X136132500Y-131860000D01*
G37*
%TO.C,C2*%
X146644190Y-116696693D02*
X146796693Y-116544190D01*
X147153307Y-117205810D02*
X147305810Y-117053307D01*
%TO.C,C5*%
X157511104Y-126504779D02*
X157358601Y-126657282D01*
X158020221Y-127013896D02*
X157867718Y-127166399D01*
%TO.C,R5*%
X155114940Y-128847659D02*
X154897659Y-129064940D01*
X155652341Y-129385060D02*
X155435060Y-129602341D01*
%TO.C,IC1*%
D16*
X175700000Y-115250000D02*
X195700000Y-115250000D01*
X175700000Y-129250000D02*
X175700000Y-115250000D01*
X176810000Y-117170000D02*
X194590000Y-117170000D01*
X176810000Y-127330000D02*
X176810000Y-117170000D01*
X190780000Y-124790000D02*
X190780000Y-127330000D01*
X190780000Y-127330000D02*
X176810000Y-127330000D01*
X194590000Y-117170000D02*
X194590000Y-124790000D01*
X194590000Y-124790000D02*
X190780000Y-124790000D01*
X195700000Y-115250000D02*
X195700000Y-129250000D01*
X195700000Y-129250000D02*
X175700000Y-129250000D01*
X194590000Y-126314000D02*
G75*
G02*
X192558000Y-126314000I-1016000J0D01*
G01*
X192558000Y-126314000D02*
G75*
G02*
X194590000Y-126314000I1016000J0D01*
G01*
X194971000Y-127711000D02*
G75*
G02*
X194209000Y-127711000I-381000J0D01*
G01*
X194209000Y-127711000D02*
G75*
G02*
X194971000Y-127711000I381000J0D01*
G01*
X194844000Y-127711000D02*
G75*
G02*
X194336000Y-127711000I-254000J0D01*
G01*
X194336000Y-127711000D02*
G75*
G02*
X194844000Y-127711000I254000J0D01*
G01*
%TO.C,R3*%
D15*
X137026141Y-129645000D02*
X136718859Y-129645000D01*
X137026141Y-130405000D02*
X136718859Y-130405000D01*
%TO.C,C8*%
X150387836Y-114640000D02*
X150172164Y-114640000D01*
X150387836Y-115360000D02*
X150172164Y-115360000D01*
%TD*%
%LPC*%
D17*
%TO.C,R4*%
X153139376Y-131535624D03*
X153860624Y-130814376D03*
%TD*%
D18*
%TO.C,C11*%
X157139447Y-118887366D03*
X157818269Y-119566188D03*
%TD*%
D19*
%TO.C,C18*%
X179430000Y-111560000D03*
X177530000Y-111560000D03*
%TD*%
D20*
%TO.C,C13*%
X130000000Y-124320000D03*
X130000000Y-125280000D03*
%TD*%
D21*
%TO.C,J3*%
X167629846Y-112250000D03*
D22*
X165089846Y-112250000D03*
X162549846Y-112250000D03*
X160009846Y-112250000D03*
%TD*%
D23*
%TO.C,FB1*%
X151805000Y-114935000D03*
X151805000Y-113965000D03*
%TD*%
D24*
%TO.C,C4*%
X147839411Y-132389411D03*
X147160589Y-131710589D03*
%TD*%
D25*
%TO.C,C3*%
X142035589Y-121864411D03*
X142714411Y-121185589D03*
%TD*%
D26*
%TO.C,R2*%
X141260000Y-133780000D03*
X141260000Y-134800000D03*
%TD*%
D18*
%TO.C,C12*%
X155575036Y-117297955D03*
X156253858Y-117976777D03*
%TD*%
D27*
%TO.C,C6*%
X140926992Y-121098008D03*
X142023008Y-120001992D03*
%TD*%
D18*
%TO.C,C1*%
X157810589Y-121685589D03*
X158489411Y-122364411D03*
%TD*%
D21*
%TO.C,J4*%
X166972526Y-122019309D03*
D22*
X166972526Y-124559309D03*
X166972526Y-127099309D03*
X166972526Y-129639309D03*
%TD*%
D28*
%TO.C,J2*%
X132650000Y-130650000D03*
X132650000Y-135650000D03*
D29*
X133750000Y-131850000D03*
X133750000Y-132500000D03*
X133750000Y-133150000D03*
X133750000Y-133800000D03*
X133750000Y-134450000D03*
D30*
X129900000Y-129275000D03*
D31*
X133700000Y-129425000D03*
X133700000Y-136875000D03*
D30*
X129900000Y-137025000D03*
%TD*%
D32*
%TO.C,C19*%
X180220000Y-113170000D03*
X179260000Y-113170000D03*
%TD*%
D20*
%TO.C,C14*%
X135650000Y-124265000D03*
X135650000Y-125225000D03*
%TD*%
D33*
%TO.C,U2*%
X131562500Y-124300000D03*
X131562500Y-125250000D03*
X131562500Y-126200000D03*
X133837500Y-126200000D03*
X133837500Y-124300000D03*
%TD*%
D20*
%TO.C,C15*%
X139402849Y-126943560D03*
X139402849Y-127903560D03*
%TD*%
D34*
%TO.C,Y1*%
X159703858Y-116826777D03*
X158148223Y-115271142D03*
X156946142Y-116473223D03*
X158501777Y-118028858D03*
%TD*%
D35*
%TO.C,D1*%
X136337500Y-128225000D03*
X137912500Y-128225000D03*
%TD*%
D32*
%TO.C,C10*%
X137010000Y-117250000D03*
X136050000Y-117250000D03*
%TD*%
D36*
%TO.C,REF\u002A\u002A*%
X181300000Y-123775000D03*
%TD*%
D21*
%TO.C,J1*%
X141855991Y-112240538D03*
D22*
X144395991Y-112240538D03*
X146935991Y-112240538D03*
%TD*%
D20*
%TO.C,C17*%
X140577849Y-126948560D03*
X140577849Y-127908560D03*
%TD*%
D32*
%TO.C,C9*%
X150760000Y-114000000D03*
X149800000Y-114000000D03*
%TD*%
D37*
%TO.C,FB2*%
X138400818Y-124225000D03*
X139370818Y-124225000D03*
%TD*%
D38*
%TO.C,J6*%
X199930000Y-125800000D03*
X199930000Y-128500000D03*
X199930000Y-123100000D03*
%TD*%
D39*
%TO.C,U1*%
X156664481Y-122838819D03*
X156310928Y-122485266D03*
X155957375Y-122131713D03*
X155603821Y-121778159D03*
X155250268Y-121424606D03*
X154896714Y-121071052D03*
X154543161Y-120717499D03*
X154189608Y-120363946D03*
X153836054Y-120010392D03*
X153482501Y-119656839D03*
X153128948Y-119303286D03*
X152775394Y-118949732D03*
X152421841Y-118596179D03*
X152068287Y-118242625D03*
X151714734Y-117889072D03*
X151361181Y-117535519D03*
D40*
X148638819Y-117535519D03*
X148285266Y-117889072D03*
X147931713Y-118242625D03*
X147578159Y-118596179D03*
X147224606Y-118949732D03*
X146871052Y-119303286D03*
X146517499Y-119656839D03*
X146163946Y-120010392D03*
X145810392Y-120363946D03*
X145456839Y-120717499D03*
X145103286Y-121071052D03*
X144749732Y-121424606D03*
X144396179Y-121778159D03*
X144042625Y-122131713D03*
X143689072Y-122485266D03*
X143335519Y-122838819D03*
D39*
X143335519Y-125561181D03*
X143689072Y-125914734D03*
X144042625Y-126268287D03*
X144396179Y-126621841D03*
X144749732Y-126975394D03*
X145103286Y-127328948D03*
X145456839Y-127682501D03*
X145810392Y-128036054D03*
X146163946Y-128389608D03*
X146517499Y-128743161D03*
X146871052Y-129096714D03*
X147224606Y-129450268D03*
X147578159Y-129803821D03*
X147931713Y-130157375D03*
X148285266Y-130510928D03*
X148638819Y-130864481D03*
D40*
X151361181Y-130864481D03*
X151714734Y-130510928D03*
X152068287Y-130157375D03*
X152421841Y-129803821D03*
X152775394Y-129450268D03*
X153128948Y-129096714D03*
X153482501Y-128743161D03*
X153836054Y-128389608D03*
X154189608Y-128036054D03*
X154543161Y-127682501D03*
X154896714Y-127328948D03*
X155250268Y-126975394D03*
X155603821Y-126621841D03*
X155957375Y-126268287D03*
X156310928Y-125914734D03*
X156664481Y-125561181D03*
%TD*%
D41*
%TO.C,RST*%
X137040000Y-115090000D03*
X130540000Y-115090000D03*
X137040000Y-110590000D03*
X130540000Y-110590000D03*
%TD*%
D20*
%TO.C,C16*%
X137025000Y-124265000D03*
X137025000Y-125225000D03*
%TD*%
D42*
%TO.C,R1*%
X157160624Y-128810624D03*
X156439376Y-128089376D03*
%TD*%
D18*
%TO.C,C7*%
X153410589Y-117285589D03*
X154089411Y-117964411D03*
%TD*%
D33*
%TO.C,U3*%
X136445000Y-132420000D03*
X136445000Y-133370000D03*
X136445000Y-134320000D03*
X138720000Y-134320000D03*
X138720000Y-133370000D03*
X138720000Y-132420000D03*
%TD*%
D25*
%TO.C,C2*%
X146635589Y-117214411D03*
X147314411Y-116535589D03*
%TD*%
D43*
%TO.C,C5*%
X158028822Y-126496178D03*
X157350000Y-127175000D03*
%TD*%
D44*
%TO.C,R5*%
X155635624Y-128864376D03*
X154914376Y-129585624D03*
%TD*%
D45*
%TO.C,IC1*%
X194700000Y-115250000D03*
X193430000Y-115250000D03*
X192160000Y-115250000D03*
X186590000Y-115250000D03*
X185320000Y-115250000D03*
X184050000Y-115250000D03*
X182780000Y-115250000D03*
X181510000Y-115250000D03*
X180240000Y-115250000D03*
X178970000Y-115250000D03*
X177700000Y-115250000D03*
X177700000Y-129250000D03*
X178970000Y-129250000D03*
X180240000Y-129250000D03*
X181510000Y-129250000D03*
X182780000Y-129250000D03*
X184050000Y-129250000D03*
X185320000Y-129250000D03*
X186590000Y-129250000D03*
X192160000Y-129250000D03*
X193430000Y-129250000D03*
X194700000Y-129250000D03*
%TD*%
D46*
%TO.C,R3*%
X137382500Y-130025000D03*
X136362500Y-130025000D03*
%TD*%
D32*
%TO.C,C8*%
X150760000Y-115000000D03*
X149800000Y-115000000D03*
%TD*%
%LPD*%
M02*
