%TF.GenerationSoftware,KiCad,Pcbnew,10.0.5-10.0.5~ubuntu26.04.1*%
%TF.CreationDate,2026-08-23T12:12:38+02:00*%
%TF.ProjectId,IRIS-868,49524953-2d38-4363-982e-6b696361645f,rev?*%
%TF.SameCoordinates,Original*%
%TF.FileFunction,Legend,Top*%
%TF.FilePolarity,Positive*%
%FSLAX46Y46*%
G04 Gerber Fmt 4.6, Leading zero omitted, Abs format (unit mm)*
G04 Created by KiCad (PCBNEW 10.0.5-10.0.5~ubuntu26.04.1) date 2026-08-23 12:12:38*
%MOMM*%
%LPD*%
G01*
G04 APERTURE LIST*
G04 Aperture macros list*
%AMRoundRect*
0 Rectangle with rounded corners*
0 $1 Rounding radius*
0 $2 $3 $4 $5 $6 $7 $8 $9 X,Y pos of 4 corners*
0 Add a 4 corners polygon primitive as box body*
4,1,4,$2,$3,$4,$5,$6,$7,$8,$9,$2,$3,0*
0 Add four circle primitives for the rounded corners*
1,1,$1+$1,$2,$3*
1,1,$1+$1,$4,$5*
1,1,$1+$1,$6,$7*
1,1,$1+$1,$8,$9*
0 Add four rect primitives between the rounded corners*
20,1,$1+$1,$2,$3,$4,$5,0*
20,1,$1+$1,$4,$5,$6,$7,0*
20,1,$1+$1,$6,$7,$8,$9,0*
20,1,$1+$1,$8,$9,$2,$3,0*%
G04 Aperture macros list end*
%ADD10C,0.150000*%
%ADD11C,0.250000*%
%ADD12C,0.120000*%
%ADD13C,0.200000*%
%ADD14C,0.127000*%
%ADD15RoundRect,0.147500X-0.147500X-0.172500X0.147500X-0.172500X0.147500X0.172500X-0.147500X0.172500X0*%
%ADD16RoundRect,0.135000X0.185000X-0.135000X0.185000X0.135000X-0.185000X0.135000X-0.185000X-0.135000X0*%
%ADD17RoundRect,0.135000X-0.226274X-0.035355X-0.035355X-0.226274X0.226274X0.035355X0.035355X0.226274X0*%
%ADD18RoundRect,0.140000X0.170000X-0.140000X0.170000X0.140000X-0.170000X0.140000X-0.170000X-0.140000X0*%
%ADD19RoundRect,0.102000X1.750000X0.750000X-1.750000X0.750000X-1.750000X-0.750000X1.750000X-0.750000X0*%
%ADD20RoundRect,0.140000X0.140000X0.170000X-0.140000X0.170000X-0.140000X-0.170000X0.140000X-0.170000X0*%
%ADD21RoundRect,0.250000X-0.475000X0.250000X-0.475000X-0.250000X0.475000X-0.250000X0.475000X0.250000X0*%
%ADD22R,1.700000X1.700000*%
%ADD23C,1.700000*%
%ADD24C,2.000000*%
%ADD25RoundRect,0.250000X-0.450000X-0.350000X0.450000X-0.350000X0.450000X0.350000X-0.450000X0.350000X0*%
%ADD26RoundRect,0.135000X-0.135000X-0.185000X0.135000X-0.185000X0.135000X0.185000X-0.135000X0.185000X0*%
%ADD27RoundRect,0.140000X-0.140000X-0.170000X0.140000X-0.170000X0.140000X0.170000X-0.140000X0.170000X0*%
%ADD28RoundRect,0.075000X0.075000X-0.700000X0.075000X0.700000X-0.075000X0.700000X-0.075000X-0.700000X0*%
%ADD29RoundRect,0.075000X0.700000X-0.075000X0.700000X0.075000X-0.700000X0.075000X-0.700000X-0.075000X0*%
%ADD30R,4.000000X2.640000*%
%ADD31RoundRect,0.150000X-0.512500X-0.150000X0.512500X-0.150000X0.512500X0.150000X-0.512500X0.150000X0*%
%ADD32RoundRect,0.140000X-0.170000X0.140000X-0.170000X-0.140000X0.170000X-0.140000X0.170000X0.140000X0*%
%ADD33RoundRect,0.218750X-0.218750X-0.256250X0.218750X-0.256250X0.218750X0.256250X-0.218750X0.256250X0*%
%ADD34RoundRect,0.135000X-0.185000X0.135000X-0.185000X-0.135000X0.185000X-0.135000X0.185000X0.135000X0*%
%ADD35RoundRect,0.135000X0.135000X0.185000X-0.135000X0.185000X-0.135000X-0.185000X0.135000X-0.185000X0*%
%ADD36RoundRect,0.225000X-0.250000X0.225000X-0.250000X-0.225000X0.250000X-0.225000X0.250000X0.225000X0*%
%ADD37RoundRect,0.147500X0.147500X0.172500X-0.147500X0.172500X-0.147500X-0.172500X0.147500X-0.172500X0*%
%ADD38RoundRect,0.102000X0.400000X-1.000000X0.400000X1.000000X-0.400000X1.000000X-0.400000X-1.000000X0*%
%ADD39RoundRect,0.250000X0.475000X-0.250000X0.475000X0.250000X-0.475000X0.250000X-0.475000X-0.250000X0*%
%ADD40O,0.800000X0.800000*%
%ADD41RoundRect,0.112500X-0.537500X0.112500X-0.537500X-0.112500X0.537500X-0.112500X0.537500X0.112500X0*%
%ADD42O,1.800000X1.150000*%
%ADD43O,2.000000X1.450000*%
G04 APERTURE END LIST*
D10*
X150632267Y-107203502D02*
X150537029Y-107155883D01*
X150537029Y-107155883D02*
X150489410Y-107108264D01*
X150489410Y-107108264D02*
X150441791Y-107013026D01*
X150441791Y-107013026D02*
X150441791Y-106965407D01*
X150441791Y-106965407D02*
X150489410Y-106870169D01*
X150489410Y-106870169D02*
X150537029Y-106822550D01*
X150537029Y-106822550D02*
X150632267Y-106774931D01*
X150632267Y-106774931D02*
X150822743Y-106774931D01*
X150822743Y-106774931D02*
X150917981Y-106822550D01*
X150917981Y-106822550D02*
X150965600Y-106870169D01*
X150965600Y-106870169D02*
X151013219Y-106965407D01*
X151013219Y-106965407D02*
X151013219Y-107013026D01*
X151013219Y-107013026D02*
X150965600Y-107108264D01*
X150965600Y-107108264D02*
X150917981Y-107155883D01*
X150917981Y-107155883D02*
X150822743Y-107203502D01*
X150822743Y-107203502D02*
X150632267Y-107203502D01*
X150632267Y-107203502D02*
X150537029Y-107251121D01*
X150537029Y-107251121D02*
X150489410Y-107298740D01*
X150489410Y-107298740D02*
X150441791Y-107393978D01*
X150441791Y-107393978D02*
X150441791Y-107584454D01*
X150441791Y-107584454D02*
X150489410Y-107679692D01*
X150489410Y-107679692D02*
X150537029Y-107727312D01*
X150537029Y-107727312D02*
X150632267Y-107774931D01*
X150632267Y-107774931D02*
X150822743Y-107774931D01*
X150822743Y-107774931D02*
X150917981Y-107727312D01*
X150917981Y-107727312D02*
X150965600Y-107679692D01*
X150965600Y-107679692D02*
X151013219Y-107584454D01*
X151013219Y-107584454D02*
X151013219Y-107393978D01*
X151013219Y-107393978D02*
X150965600Y-107298740D01*
X150965600Y-107298740D02*
X150917981Y-107251121D01*
X150917981Y-107251121D02*
X150822743Y-107203502D01*
X151870362Y-106774931D02*
X151679886Y-106774931D01*
X151679886Y-106774931D02*
X151584648Y-106822550D01*
X151584648Y-106822550D02*
X151537029Y-106870169D01*
X151537029Y-106870169D02*
X151441791Y-107013026D01*
X151441791Y-107013026D02*
X151394172Y-107203502D01*
X151394172Y-107203502D02*
X151394172Y-107584454D01*
X151394172Y-107584454D02*
X151441791Y-107679692D01*
X151441791Y-107679692D02*
X151489410Y-107727312D01*
X151489410Y-107727312D02*
X151584648Y-107774931D01*
X151584648Y-107774931D02*
X151775124Y-107774931D01*
X151775124Y-107774931D02*
X151870362Y-107727312D01*
X151870362Y-107727312D02*
X151917981Y-107679692D01*
X151917981Y-107679692D02*
X151965600Y-107584454D01*
X151965600Y-107584454D02*
X151965600Y-107346359D01*
X151965600Y-107346359D02*
X151917981Y-107251121D01*
X151917981Y-107251121D02*
X151870362Y-107203502D01*
X151870362Y-107203502D02*
X151775124Y-107155883D01*
X151775124Y-107155883D02*
X151584648Y-107155883D01*
X151584648Y-107155883D02*
X151489410Y-107203502D01*
X151489410Y-107203502D02*
X151441791Y-107251121D01*
X151441791Y-107251121D02*
X151394172Y-107346359D01*
X152537029Y-107203502D02*
X152441791Y-107155883D01*
X152441791Y-107155883D02*
X152394172Y-107108264D01*
X152394172Y-107108264D02*
X152346553Y-107013026D01*
X152346553Y-107013026D02*
X152346553Y-106965407D01*
X152346553Y-106965407D02*
X152394172Y-106870169D01*
X152394172Y-106870169D02*
X152441791Y-106822550D01*
X152441791Y-106822550D02*
X152537029Y-106774931D01*
X152537029Y-106774931D02*
X152727505Y-106774931D01*
X152727505Y-106774931D02*
X152822743Y-106822550D01*
X152822743Y-106822550D02*
X152870362Y-106870169D01*
X152870362Y-106870169D02*
X152917981Y-106965407D01*
X152917981Y-106965407D02*
X152917981Y-107013026D01*
X152917981Y-107013026D02*
X152870362Y-107108264D01*
X152870362Y-107108264D02*
X152822743Y-107155883D01*
X152822743Y-107155883D02*
X152727505Y-107203502D01*
X152727505Y-107203502D02*
X152537029Y-107203502D01*
X152537029Y-107203502D02*
X152441791Y-107251121D01*
X152441791Y-107251121D02*
X152394172Y-107298740D01*
X152394172Y-107298740D02*
X152346553Y-107393978D01*
X152346553Y-107393978D02*
X152346553Y-107584454D01*
X152346553Y-107584454D02*
X152394172Y-107679692D01*
X152394172Y-107679692D02*
X152441791Y-107727312D01*
X152441791Y-107727312D02*
X152537029Y-107774931D01*
X152537029Y-107774931D02*
X152727505Y-107774931D01*
X152727505Y-107774931D02*
X152822743Y-107727312D01*
X152822743Y-107727312D02*
X152870362Y-107679692D01*
X152870362Y-107679692D02*
X152917981Y-107584454D01*
X152917981Y-107584454D02*
X152917981Y-107393978D01*
X152917981Y-107393978D02*
X152870362Y-107298740D01*
X152870362Y-107298740D02*
X152822743Y-107251121D01*
X152822743Y-107251121D02*
X152727505Y-107203502D01*
X154108458Y-107774931D02*
X154108458Y-106774931D01*
X154108458Y-106774931D02*
X154441791Y-107489216D01*
X154441791Y-107489216D02*
X154775124Y-106774931D01*
X154775124Y-106774931D02*
X154775124Y-107774931D01*
X155251315Y-107774931D02*
X155251315Y-106774931D01*
X155251315Y-107251121D02*
X155822743Y-107251121D01*
X155822743Y-107774931D02*
X155822743Y-106774931D01*
X156203696Y-107108264D02*
X156727505Y-107108264D01*
X156727505Y-107108264D02*
X156203696Y-107774931D01*
X156203696Y-107774931D02*
X156727505Y-107774931D01*
X158441791Y-107774931D02*
X158108458Y-107298740D01*
X157870363Y-107774931D02*
X157870363Y-106774931D01*
X157870363Y-106774931D02*
X158251315Y-106774931D01*
X158251315Y-106774931D02*
X158346553Y-106822550D01*
X158346553Y-106822550D02*
X158394172Y-106870169D01*
X158394172Y-106870169D02*
X158441791Y-106965407D01*
X158441791Y-106965407D02*
X158441791Y-107108264D01*
X158441791Y-107108264D02*
X158394172Y-107203502D01*
X158394172Y-107203502D02*
X158346553Y-107251121D01*
X158346553Y-107251121D02*
X158251315Y-107298740D01*
X158251315Y-107298740D02*
X157870363Y-107298740D01*
X159203696Y-107251121D02*
X158870363Y-107251121D01*
X158870363Y-107774931D02*
X158870363Y-106774931D01*
X158870363Y-106774931D02*
X159346553Y-106774931D01*
X160489411Y-107774931D02*
X160489411Y-106774931D01*
X160489411Y-106774931D02*
X161060839Y-107774931D01*
X161060839Y-107774931D02*
X161060839Y-106774931D01*
X161727506Y-106774931D02*
X161917982Y-106774931D01*
X161917982Y-106774931D02*
X162013220Y-106822550D01*
X162013220Y-106822550D02*
X162108458Y-106917788D01*
X162108458Y-106917788D02*
X162156077Y-107108264D01*
X162156077Y-107108264D02*
X162156077Y-107441597D01*
X162156077Y-107441597D02*
X162108458Y-107632073D01*
X162108458Y-107632073D02*
X162013220Y-107727312D01*
X162013220Y-107727312D02*
X161917982Y-107774931D01*
X161917982Y-107774931D02*
X161727506Y-107774931D01*
X161727506Y-107774931D02*
X161632268Y-107727312D01*
X161632268Y-107727312D02*
X161537030Y-107632073D01*
X161537030Y-107632073D02*
X161489411Y-107441597D01*
X161489411Y-107441597D02*
X161489411Y-107108264D01*
X161489411Y-107108264D02*
X161537030Y-106917788D01*
X161537030Y-106917788D02*
X161632268Y-106822550D01*
X161632268Y-106822550D02*
X161727506Y-106774931D01*
X162584649Y-107774931D02*
X162584649Y-106774931D01*
X162584649Y-106774931D02*
X162822744Y-106774931D01*
X162822744Y-106774931D02*
X162965601Y-106822550D01*
X162965601Y-106822550D02*
X163060839Y-106917788D01*
X163060839Y-106917788D02*
X163108458Y-107013026D01*
X163108458Y-107013026D02*
X163156077Y-107203502D01*
X163156077Y-107203502D02*
X163156077Y-107346359D01*
X163156077Y-107346359D02*
X163108458Y-107536835D01*
X163108458Y-107536835D02*
X163060839Y-107632073D01*
X163060839Y-107632073D02*
X162965601Y-107727312D01*
X162965601Y-107727312D02*
X162822744Y-107774931D01*
X162822744Y-107774931D02*
X162584649Y-107774931D01*
X163584649Y-107251121D02*
X163917982Y-107251121D01*
X164060839Y-107774931D02*
X163584649Y-107774931D01*
X163584649Y-107774931D02*
X163584649Y-106774931D01*
X163584649Y-106774931D02*
X164060839Y-106774931D01*
X144060838Y-109337256D02*
X144203695Y-109384875D01*
X144203695Y-109384875D02*
X144441790Y-109384875D01*
X144441790Y-109384875D02*
X144537028Y-109337256D01*
X144537028Y-109337256D02*
X144584647Y-109289636D01*
X144584647Y-109289636D02*
X144632266Y-109194398D01*
X144632266Y-109194398D02*
X144632266Y-109099160D01*
X144632266Y-109099160D02*
X144584647Y-109003922D01*
X144584647Y-109003922D02*
X144537028Y-108956303D01*
X144537028Y-108956303D02*
X144441790Y-108908684D01*
X144441790Y-108908684D02*
X144251314Y-108861065D01*
X144251314Y-108861065D02*
X144156076Y-108813446D01*
X144156076Y-108813446D02*
X144108457Y-108765827D01*
X144108457Y-108765827D02*
X144060838Y-108670589D01*
X144060838Y-108670589D02*
X144060838Y-108575351D01*
X144060838Y-108575351D02*
X144108457Y-108480113D01*
X144108457Y-108480113D02*
X144156076Y-108432494D01*
X144156076Y-108432494D02*
X144251314Y-108384875D01*
X144251314Y-108384875D02*
X144489409Y-108384875D01*
X144489409Y-108384875D02*
X144632266Y-108432494D01*
X144917981Y-108384875D02*
X145489409Y-108384875D01*
X145203695Y-109384875D02*
X145203695Y-108384875D01*
X145822743Y-109384875D02*
X145822743Y-108384875D01*
X145822743Y-108384875D02*
X146156076Y-109099160D01*
X146156076Y-109099160D02*
X146489409Y-108384875D01*
X146489409Y-108384875D02*
X146489409Y-109384875D01*
X146870362Y-108384875D02*
X147489409Y-108384875D01*
X147489409Y-108384875D02*
X147156076Y-108765827D01*
X147156076Y-108765827D02*
X147298933Y-108765827D01*
X147298933Y-108765827D02*
X147394171Y-108813446D01*
X147394171Y-108813446D02*
X147441790Y-108861065D01*
X147441790Y-108861065D02*
X147489409Y-108956303D01*
X147489409Y-108956303D02*
X147489409Y-109194398D01*
X147489409Y-109194398D02*
X147441790Y-109289636D01*
X147441790Y-109289636D02*
X147394171Y-109337256D01*
X147394171Y-109337256D02*
X147298933Y-109384875D01*
X147298933Y-109384875D02*
X147013219Y-109384875D01*
X147013219Y-109384875D02*
X146917981Y-109337256D01*
X146917981Y-109337256D02*
X146870362Y-109289636D01*
X147870362Y-108480113D02*
X147917981Y-108432494D01*
X147917981Y-108432494D02*
X148013219Y-108384875D01*
X148013219Y-108384875D02*
X148251314Y-108384875D01*
X148251314Y-108384875D02*
X148346552Y-108432494D01*
X148346552Y-108432494D02*
X148394171Y-108480113D01*
X148394171Y-108480113D02*
X148441790Y-108575351D01*
X148441790Y-108575351D02*
X148441790Y-108670589D01*
X148441790Y-108670589D02*
X148394171Y-108813446D01*
X148394171Y-108813446D02*
X147822743Y-109384875D01*
X147822743Y-109384875D02*
X148441790Y-109384875D01*
X149203695Y-108861065D02*
X148870362Y-108861065D01*
X148870362Y-109384875D02*
X148870362Y-108384875D01*
X148870362Y-108384875D02*
X149346552Y-108384875D01*
X149632267Y-108384875D02*
X150251314Y-108384875D01*
X150251314Y-108384875D02*
X149917981Y-108765827D01*
X149917981Y-108765827D02*
X150060838Y-108765827D01*
X150060838Y-108765827D02*
X150156076Y-108813446D01*
X150156076Y-108813446D02*
X150203695Y-108861065D01*
X150203695Y-108861065D02*
X150251314Y-108956303D01*
X150251314Y-108956303D02*
X150251314Y-109194398D01*
X150251314Y-109194398D02*
X150203695Y-109289636D01*
X150203695Y-109289636D02*
X150156076Y-109337256D01*
X150156076Y-109337256D02*
X150060838Y-109384875D01*
X150060838Y-109384875D02*
X149775124Y-109384875D01*
X149775124Y-109384875D02*
X149679886Y-109337256D01*
X149679886Y-109337256D02*
X149632267Y-109289636D01*
X150870362Y-108384875D02*
X150965600Y-108384875D01*
X150965600Y-108384875D02*
X151060838Y-108432494D01*
X151060838Y-108432494D02*
X151108457Y-108480113D01*
X151108457Y-108480113D02*
X151156076Y-108575351D01*
X151156076Y-108575351D02*
X151203695Y-108765827D01*
X151203695Y-108765827D02*
X151203695Y-109003922D01*
X151203695Y-109003922D02*
X151156076Y-109194398D01*
X151156076Y-109194398D02*
X151108457Y-109289636D01*
X151108457Y-109289636D02*
X151060838Y-109337256D01*
X151060838Y-109337256D02*
X150965600Y-109384875D01*
X150965600Y-109384875D02*
X150870362Y-109384875D01*
X150870362Y-109384875D02*
X150775124Y-109337256D01*
X150775124Y-109337256D02*
X150727505Y-109289636D01*
X150727505Y-109289636D02*
X150679886Y-109194398D01*
X150679886Y-109194398D02*
X150632267Y-109003922D01*
X150632267Y-109003922D02*
X150632267Y-108765827D01*
X150632267Y-108765827D02*
X150679886Y-108575351D01*
X150679886Y-108575351D02*
X150727505Y-108480113D01*
X150727505Y-108480113D02*
X150775124Y-108432494D01*
X150775124Y-108432494D02*
X150870362Y-108384875D01*
X151537029Y-108384875D02*
X152156076Y-108384875D01*
X152156076Y-108384875D02*
X151822743Y-108765827D01*
X151822743Y-108765827D02*
X151965600Y-108765827D01*
X151965600Y-108765827D02*
X152060838Y-108813446D01*
X152060838Y-108813446D02*
X152108457Y-108861065D01*
X152108457Y-108861065D02*
X152156076Y-108956303D01*
X152156076Y-108956303D02*
X152156076Y-109194398D01*
X152156076Y-109194398D02*
X152108457Y-109289636D01*
X152108457Y-109289636D02*
X152060838Y-109337256D01*
X152060838Y-109337256D02*
X151965600Y-109384875D01*
X151965600Y-109384875D02*
X151679886Y-109384875D01*
X151679886Y-109384875D02*
X151584648Y-109337256D01*
X151584648Y-109337256D02*
X151537029Y-109289636D01*
X153156076Y-109384875D02*
X152822743Y-108908684D01*
X152584648Y-109384875D02*
X152584648Y-108384875D01*
X152584648Y-108384875D02*
X152965600Y-108384875D01*
X152965600Y-108384875D02*
X153060838Y-108432494D01*
X153060838Y-108432494D02*
X153108457Y-108480113D01*
X153108457Y-108480113D02*
X153156076Y-108575351D01*
X153156076Y-108575351D02*
X153156076Y-108718208D01*
X153156076Y-108718208D02*
X153108457Y-108813446D01*
X153108457Y-108813446D02*
X153060838Y-108861065D01*
X153060838Y-108861065D02*
X152965600Y-108908684D01*
X152965600Y-108908684D02*
X152584648Y-108908684D01*
X153584648Y-108861065D02*
X153917981Y-108861065D01*
X154060838Y-109384875D02*
X153584648Y-109384875D01*
X153584648Y-109384875D02*
X153584648Y-108384875D01*
X153584648Y-108384875D02*
X154060838Y-108384875D01*
X154346553Y-108384875D02*
X154917981Y-108384875D01*
X154632267Y-109384875D02*
X154632267Y-108384875D01*
X155679886Y-108384875D02*
X155489410Y-108384875D01*
X155489410Y-108384875D02*
X155394172Y-108432494D01*
X155394172Y-108432494D02*
X155346553Y-108480113D01*
X155346553Y-108480113D02*
X155251315Y-108622970D01*
X155251315Y-108622970D02*
X155203696Y-108813446D01*
X155203696Y-108813446D02*
X155203696Y-109194398D01*
X155203696Y-109194398D02*
X155251315Y-109289636D01*
X155251315Y-109289636D02*
X155298934Y-109337256D01*
X155298934Y-109337256D02*
X155394172Y-109384875D01*
X155394172Y-109384875D02*
X155584648Y-109384875D01*
X155584648Y-109384875D02*
X155679886Y-109337256D01*
X155679886Y-109337256D02*
X155727505Y-109289636D01*
X155727505Y-109289636D02*
X155775124Y-109194398D01*
X155775124Y-109194398D02*
X155775124Y-108956303D01*
X155775124Y-108956303D02*
X155727505Y-108861065D01*
X155727505Y-108861065D02*
X155679886Y-108813446D01*
X155679886Y-108813446D02*
X155584648Y-108765827D01*
X155584648Y-108765827D02*
X155394172Y-108765827D01*
X155394172Y-108765827D02*
X155298934Y-108813446D01*
X155298934Y-108813446D02*
X155251315Y-108861065D01*
X155251315Y-108861065D02*
X155203696Y-108956303D01*
X156965601Y-109003922D02*
X157727506Y-109003922D01*
X159441791Y-109384875D02*
X158965601Y-109384875D01*
X158965601Y-109384875D02*
X158965601Y-108384875D01*
X160251315Y-109384875D02*
X159775125Y-109384875D01*
X159775125Y-109384875D02*
X159775125Y-108384875D01*
X161156077Y-109289636D02*
X161108458Y-109337256D01*
X161108458Y-109337256D02*
X160965601Y-109384875D01*
X160965601Y-109384875D02*
X160870363Y-109384875D01*
X160870363Y-109384875D02*
X160727506Y-109337256D01*
X160727506Y-109337256D02*
X160632268Y-109242017D01*
X160632268Y-109242017D02*
X160584649Y-109146779D01*
X160584649Y-109146779D02*
X160537030Y-108956303D01*
X160537030Y-108956303D02*
X160537030Y-108813446D01*
X160537030Y-108813446D02*
X160584649Y-108622970D01*
X160584649Y-108622970D02*
X160632268Y-108527732D01*
X160632268Y-108527732D02*
X160727506Y-108432494D01*
X160727506Y-108432494D02*
X160870363Y-108384875D01*
X160870363Y-108384875D02*
X160965601Y-108384875D01*
X160965601Y-108384875D02*
X161108458Y-108432494D01*
X161108458Y-108432494D02*
X161156077Y-108480113D01*
X162156077Y-109289636D02*
X162108458Y-109337256D01*
X162108458Y-109337256D02*
X161965601Y-109384875D01*
X161965601Y-109384875D02*
X161870363Y-109384875D01*
X161870363Y-109384875D02*
X161727506Y-109337256D01*
X161727506Y-109337256D02*
X161632268Y-109242017D01*
X161632268Y-109242017D02*
X161584649Y-109146779D01*
X161584649Y-109146779D02*
X161537030Y-108956303D01*
X161537030Y-108956303D02*
X161537030Y-108813446D01*
X161537030Y-108813446D02*
X161584649Y-108622970D01*
X161584649Y-108622970D02*
X161632268Y-108527732D01*
X161632268Y-108527732D02*
X161727506Y-108432494D01*
X161727506Y-108432494D02*
X161870363Y-108384875D01*
X161870363Y-108384875D02*
X161965601Y-108384875D01*
X161965601Y-108384875D02*
X162108458Y-108432494D01*
X162108458Y-108432494D02*
X162156077Y-108480113D01*
X163013220Y-108384875D02*
X162822744Y-108384875D01*
X162822744Y-108384875D02*
X162727506Y-108432494D01*
X162727506Y-108432494D02*
X162679887Y-108480113D01*
X162679887Y-108480113D02*
X162584649Y-108622970D01*
X162584649Y-108622970D02*
X162537030Y-108813446D01*
X162537030Y-108813446D02*
X162537030Y-109194398D01*
X162537030Y-109194398D02*
X162584649Y-109289636D01*
X162584649Y-109289636D02*
X162632268Y-109337256D01*
X162632268Y-109337256D02*
X162727506Y-109384875D01*
X162727506Y-109384875D02*
X162917982Y-109384875D01*
X162917982Y-109384875D02*
X163013220Y-109337256D01*
X163013220Y-109337256D02*
X163060839Y-109289636D01*
X163060839Y-109289636D02*
X163108458Y-109194398D01*
X163108458Y-109194398D02*
X163108458Y-108956303D01*
X163108458Y-108956303D02*
X163060839Y-108861065D01*
X163060839Y-108861065D02*
X163013220Y-108813446D01*
X163013220Y-108813446D02*
X162917982Y-108765827D01*
X162917982Y-108765827D02*
X162727506Y-108765827D01*
X162727506Y-108765827D02*
X162632268Y-108813446D01*
X162632268Y-108813446D02*
X162584649Y-108861065D01*
X162584649Y-108861065D02*
X162537030Y-108956303D01*
X163679887Y-108813446D02*
X163584649Y-108765827D01*
X163584649Y-108765827D02*
X163537030Y-108718208D01*
X163537030Y-108718208D02*
X163489411Y-108622970D01*
X163489411Y-108622970D02*
X163489411Y-108575351D01*
X163489411Y-108575351D02*
X163537030Y-108480113D01*
X163537030Y-108480113D02*
X163584649Y-108432494D01*
X163584649Y-108432494D02*
X163679887Y-108384875D01*
X163679887Y-108384875D02*
X163870363Y-108384875D01*
X163870363Y-108384875D02*
X163965601Y-108432494D01*
X163965601Y-108432494D02*
X164013220Y-108480113D01*
X164013220Y-108480113D02*
X164060839Y-108575351D01*
X164060839Y-108575351D02*
X164060839Y-108622970D01*
X164060839Y-108622970D02*
X164013220Y-108718208D01*
X164013220Y-108718208D02*
X163965601Y-108765827D01*
X163965601Y-108765827D02*
X163870363Y-108813446D01*
X163870363Y-108813446D02*
X163679887Y-108813446D01*
X163679887Y-108813446D02*
X163584649Y-108861065D01*
X163584649Y-108861065D02*
X163537030Y-108908684D01*
X163537030Y-108908684D02*
X163489411Y-109003922D01*
X163489411Y-109003922D02*
X163489411Y-109194398D01*
X163489411Y-109194398D02*
X163537030Y-109289636D01*
X163537030Y-109289636D02*
X163584649Y-109337256D01*
X163584649Y-109337256D02*
X163679887Y-109384875D01*
X163679887Y-109384875D02*
X163870363Y-109384875D01*
X163870363Y-109384875D02*
X163965601Y-109337256D01*
X163965601Y-109337256D02*
X164013220Y-109289636D01*
X164013220Y-109289636D02*
X164060839Y-109194398D01*
X164060839Y-109194398D02*
X164060839Y-109003922D01*
X164060839Y-109003922D02*
X164013220Y-108908684D01*
X164013220Y-108908684D02*
X163965601Y-108861065D01*
X163965601Y-108861065D02*
X163870363Y-108813446D01*
X151298934Y-110994819D02*
X150965601Y-110518628D01*
X150727506Y-110994819D02*
X150727506Y-109994819D01*
X150727506Y-109994819D02*
X151108458Y-109994819D01*
X151108458Y-109994819D02*
X151203696Y-110042438D01*
X151203696Y-110042438D02*
X151251315Y-110090057D01*
X151251315Y-110090057D02*
X151298934Y-110185295D01*
X151298934Y-110185295D02*
X151298934Y-110328152D01*
X151298934Y-110328152D02*
X151251315Y-110423390D01*
X151251315Y-110423390D02*
X151203696Y-110471009D01*
X151203696Y-110471009D02*
X151108458Y-110518628D01*
X151108458Y-110518628D02*
X150727506Y-110518628D01*
X151727506Y-110471009D02*
X152060839Y-110471009D01*
X152203696Y-110994819D02*
X151727506Y-110994819D01*
X151727506Y-110994819D02*
X151727506Y-109994819D01*
X151727506Y-109994819D02*
X152203696Y-109994819D01*
X152489411Y-109994819D02*
X152822744Y-110994819D01*
X152822744Y-110994819D02*
X153156077Y-109994819D01*
X153489411Y-110899580D02*
X153537030Y-110947200D01*
X153537030Y-110947200D02*
X153489411Y-110994819D01*
X153489411Y-110994819D02*
X153441792Y-110947200D01*
X153441792Y-110947200D02*
X153489411Y-110899580D01*
X153489411Y-110899580D02*
X153489411Y-110994819D01*
X154298934Y-110471009D02*
X154441791Y-110518628D01*
X154441791Y-110518628D02*
X154489410Y-110566247D01*
X154489410Y-110566247D02*
X154537029Y-110661485D01*
X154537029Y-110661485D02*
X154537029Y-110804342D01*
X154537029Y-110804342D02*
X154489410Y-110899580D01*
X154489410Y-110899580D02*
X154441791Y-110947200D01*
X154441791Y-110947200D02*
X154346553Y-110994819D01*
X154346553Y-110994819D02*
X153965601Y-110994819D01*
X153965601Y-110994819D02*
X153965601Y-109994819D01*
X153965601Y-109994819D02*
X154298934Y-109994819D01*
X154298934Y-109994819D02*
X154394172Y-110042438D01*
X154394172Y-110042438D02*
X154441791Y-110090057D01*
X154441791Y-110090057D02*
X154489410Y-110185295D01*
X154489410Y-110185295D02*
X154489410Y-110280533D01*
X154489410Y-110280533D02*
X154441791Y-110375771D01*
X154441791Y-110375771D02*
X154394172Y-110423390D01*
X154394172Y-110423390D02*
X154298934Y-110471009D01*
X154298934Y-110471009D02*
X153965601Y-110471009D01*
X155727506Y-110613866D02*
X156489411Y-110613866D01*
X157679887Y-110090057D02*
X157727506Y-110042438D01*
X157727506Y-110042438D02*
X157822744Y-109994819D01*
X157822744Y-109994819D02*
X158060839Y-109994819D01*
X158060839Y-109994819D02*
X158156077Y-110042438D01*
X158156077Y-110042438D02*
X158203696Y-110090057D01*
X158203696Y-110090057D02*
X158251315Y-110185295D01*
X158251315Y-110185295D02*
X158251315Y-110280533D01*
X158251315Y-110280533D02*
X158203696Y-110423390D01*
X158203696Y-110423390D02*
X157632268Y-110994819D01*
X157632268Y-110994819D02*
X158251315Y-110994819D01*
X158870363Y-109994819D02*
X158965601Y-109994819D01*
X158965601Y-109994819D02*
X159060839Y-110042438D01*
X159060839Y-110042438D02*
X159108458Y-110090057D01*
X159108458Y-110090057D02*
X159156077Y-110185295D01*
X159156077Y-110185295D02*
X159203696Y-110375771D01*
X159203696Y-110375771D02*
X159203696Y-110613866D01*
X159203696Y-110613866D02*
X159156077Y-110804342D01*
X159156077Y-110804342D02*
X159108458Y-110899580D01*
X159108458Y-110899580D02*
X159060839Y-110947200D01*
X159060839Y-110947200D02*
X158965601Y-110994819D01*
X158965601Y-110994819D02*
X158870363Y-110994819D01*
X158870363Y-110994819D02*
X158775125Y-110947200D01*
X158775125Y-110947200D02*
X158727506Y-110899580D01*
X158727506Y-110899580D02*
X158679887Y-110804342D01*
X158679887Y-110804342D02*
X158632268Y-110613866D01*
X158632268Y-110613866D02*
X158632268Y-110375771D01*
X158632268Y-110375771D02*
X158679887Y-110185295D01*
X158679887Y-110185295D02*
X158727506Y-110090057D01*
X158727506Y-110090057D02*
X158775125Y-110042438D01*
X158775125Y-110042438D02*
X158870363Y-109994819D01*
X159584649Y-110090057D02*
X159632268Y-110042438D01*
X159632268Y-110042438D02*
X159727506Y-109994819D01*
X159727506Y-109994819D02*
X159965601Y-109994819D01*
X159965601Y-109994819D02*
X160060839Y-110042438D01*
X160060839Y-110042438D02*
X160108458Y-110090057D01*
X160108458Y-110090057D02*
X160156077Y-110185295D01*
X160156077Y-110185295D02*
X160156077Y-110280533D01*
X160156077Y-110280533D02*
X160108458Y-110423390D01*
X160108458Y-110423390D02*
X159537030Y-110994819D01*
X159537030Y-110994819D02*
X160156077Y-110994819D01*
X161013220Y-109994819D02*
X160822744Y-109994819D01*
X160822744Y-109994819D02*
X160727506Y-110042438D01*
X160727506Y-110042438D02*
X160679887Y-110090057D01*
X160679887Y-110090057D02*
X160584649Y-110232914D01*
X160584649Y-110232914D02*
X160537030Y-110423390D01*
X160537030Y-110423390D02*
X160537030Y-110804342D01*
X160537030Y-110804342D02*
X160584649Y-110899580D01*
X160584649Y-110899580D02*
X160632268Y-110947200D01*
X160632268Y-110947200D02*
X160727506Y-110994819D01*
X160727506Y-110994819D02*
X160917982Y-110994819D01*
X160917982Y-110994819D02*
X161013220Y-110947200D01*
X161013220Y-110947200D02*
X161060839Y-110899580D01*
X161060839Y-110899580D02*
X161108458Y-110804342D01*
X161108458Y-110804342D02*
X161108458Y-110566247D01*
X161108458Y-110566247D02*
X161060839Y-110471009D01*
X161060839Y-110471009D02*
X161013220Y-110423390D01*
X161013220Y-110423390D02*
X160917982Y-110375771D01*
X160917982Y-110375771D02*
X160727506Y-110375771D01*
X160727506Y-110375771D02*
X160632268Y-110423390D01*
X160632268Y-110423390D02*
X160584649Y-110471009D01*
X160584649Y-110471009D02*
X160537030Y-110566247D01*
X162251315Y-109947200D02*
X161394173Y-111232914D01*
X162775125Y-109994819D02*
X162870363Y-109994819D01*
X162870363Y-109994819D02*
X162965601Y-110042438D01*
X162965601Y-110042438D02*
X163013220Y-110090057D01*
X163013220Y-110090057D02*
X163060839Y-110185295D01*
X163060839Y-110185295D02*
X163108458Y-110375771D01*
X163108458Y-110375771D02*
X163108458Y-110613866D01*
X163108458Y-110613866D02*
X163060839Y-110804342D01*
X163060839Y-110804342D02*
X163013220Y-110899580D01*
X163013220Y-110899580D02*
X162965601Y-110947200D01*
X162965601Y-110947200D02*
X162870363Y-110994819D01*
X162870363Y-110994819D02*
X162775125Y-110994819D01*
X162775125Y-110994819D02*
X162679887Y-110947200D01*
X162679887Y-110947200D02*
X162632268Y-110899580D01*
X162632268Y-110899580D02*
X162584649Y-110804342D01*
X162584649Y-110804342D02*
X162537030Y-110613866D01*
X162537030Y-110613866D02*
X162537030Y-110375771D01*
X162537030Y-110375771D02*
X162584649Y-110185295D01*
X162584649Y-110185295D02*
X162632268Y-110090057D01*
X162632268Y-110090057D02*
X162679887Y-110042438D01*
X162679887Y-110042438D02*
X162775125Y-109994819D01*
X163679887Y-110423390D02*
X163584649Y-110375771D01*
X163584649Y-110375771D02*
X163537030Y-110328152D01*
X163537030Y-110328152D02*
X163489411Y-110232914D01*
X163489411Y-110232914D02*
X163489411Y-110185295D01*
X163489411Y-110185295D02*
X163537030Y-110090057D01*
X163537030Y-110090057D02*
X163584649Y-110042438D01*
X163584649Y-110042438D02*
X163679887Y-109994819D01*
X163679887Y-109994819D02*
X163870363Y-109994819D01*
X163870363Y-109994819D02*
X163965601Y-110042438D01*
X163965601Y-110042438D02*
X164013220Y-110090057D01*
X164013220Y-110090057D02*
X164060839Y-110185295D01*
X164060839Y-110185295D02*
X164060839Y-110232914D01*
X164060839Y-110232914D02*
X164013220Y-110328152D01*
X164013220Y-110328152D02*
X163965601Y-110375771D01*
X163965601Y-110375771D02*
X163870363Y-110423390D01*
X163870363Y-110423390D02*
X163679887Y-110423390D01*
X163679887Y-110423390D02*
X163584649Y-110471009D01*
X163584649Y-110471009D02*
X163537030Y-110518628D01*
X163537030Y-110518628D02*
X163489411Y-110613866D01*
X163489411Y-110613866D02*
X163489411Y-110804342D01*
X163489411Y-110804342D02*
X163537030Y-110899580D01*
X163537030Y-110899580D02*
X163584649Y-110947200D01*
X163584649Y-110947200D02*
X163679887Y-110994819D01*
X163679887Y-110994819D02*
X163870363Y-110994819D01*
X163870363Y-110994819D02*
X163965601Y-110947200D01*
X163965601Y-110947200D02*
X164013220Y-110899580D01*
X164013220Y-110899580D02*
X164060839Y-110804342D01*
X164060839Y-110804342D02*
X164060839Y-110613866D01*
X164060839Y-110613866D02*
X164013220Y-110518628D01*
X164013220Y-110518628D02*
X163965601Y-110471009D01*
X163965601Y-110471009D02*
X163870363Y-110423390D01*
D11*
X157627568Y-105664619D02*
X157627568Y-104664619D01*
X158675186Y-105664619D02*
X158341853Y-105188428D01*
X158103758Y-105664619D02*
X158103758Y-104664619D01*
X158103758Y-104664619D02*
X158484710Y-104664619D01*
X158484710Y-104664619D02*
X158579948Y-104712238D01*
X158579948Y-104712238D02*
X158627567Y-104759857D01*
X158627567Y-104759857D02*
X158675186Y-104855095D01*
X158675186Y-104855095D02*
X158675186Y-104997952D01*
X158675186Y-104997952D02*
X158627567Y-105093190D01*
X158627567Y-105093190D02*
X158579948Y-105140809D01*
X158579948Y-105140809D02*
X158484710Y-105188428D01*
X158484710Y-105188428D02*
X158103758Y-105188428D01*
X159103758Y-105664619D02*
X159103758Y-104664619D01*
X159532329Y-105617000D02*
X159675186Y-105664619D01*
X159675186Y-105664619D02*
X159913281Y-105664619D01*
X159913281Y-105664619D02*
X160008519Y-105617000D01*
X160008519Y-105617000D02*
X160056138Y-105569380D01*
X160056138Y-105569380D02*
X160103757Y-105474142D01*
X160103757Y-105474142D02*
X160103757Y-105378904D01*
X160103757Y-105378904D02*
X160056138Y-105283666D01*
X160056138Y-105283666D02*
X160008519Y-105236047D01*
X160008519Y-105236047D02*
X159913281Y-105188428D01*
X159913281Y-105188428D02*
X159722805Y-105140809D01*
X159722805Y-105140809D02*
X159627567Y-105093190D01*
X159627567Y-105093190D02*
X159579948Y-105045571D01*
X159579948Y-105045571D02*
X159532329Y-104950333D01*
X159532329Y-104950333D02*
X159532329Y-104855095D01*
X159532329Y-104855095D02*
X159579948Y-104759857D01*
X159579948Y-104759857D02*
X159627567Y-104712238D01*
X159627567Y-104712238D02*
X159722805Y-104664619D01*
X159722805Y-104664619D02*
X159960900Y-104664619D01*
X159960900Y-104664619D02*
X160103757Y-104712238D01*
X160532329Y-105283666D02*
X161294234Y-105283666D01*
X161913281Y-105093190D02*
X161818043Y-105045571D01*
X161818043Y-105045571D02*
X161770424Y-104997952D01*
X161770424Y-104997952D02*
X161722805Y-104902714D01*
X161722805Y-104902714D02*
X161722805Y-104855095D01*
X161722805Y-104855095D02*
X161770424Y-104759857D01*
X161770424Y-104759857D02*
X161818043Y-104712238D01*
X161818043Y-104712238D02*
X161913281Y-104664619D01*
X161913281Y-104664619D02*
X162103757Y-104664619D01*
X162103757Y-104664619D02*
X162198995Y-104712238D01*
X162198995Y-104712238D02*
X162246614Y-104759857D01*
X162246614Y-104759857D02*
X162294233Y-104855095D01*
X162294233Y-104855095D02*
X162294233Y-104902714D01*
X162294233Y-104902714D02*
X162246614Y-104997952D01*
X162246614Y-104997952D02*
X162198995Y-105045571D01*
X162198995Y-105045571D02*
X162103757Y-105093190D01*
X162103757Y-105093190D02*
X161913281Y-105093190D01*
X161913281Y-105093190D02*
X161818043Y-105140809D01*
X161818043Y-105140809D02*
X161770424Y-105188428D01*
X161770424Y-105188428D02*
X161722805Y-105283666D01*
X161722805Y-105283666D02*
X161722805Y-105474142D01*
X161722805Y-105474142D02*
X161770424Y-105569380D01*
X161770424Y-105569380D02*
X161818043Y-105617000D01*
X161818043Y-105617000D02*
X161913281Y-105664619D01*
X161913281Y-105664619D02*
X162103757Y-105664619D01*
X162103757Y-105664619D02*
X162198995Y-105617000D01*
X162198995Y-105617000D02*
X162246614Y-105569380D01*
X162246614Y-105569380D02*
X162294233Y-105474142D01*
X162294233Y-105474142D02*
X162294233Y-105283666D01*
X162294233Y-105283666D02*
X162246614Y-105188428D01*
X162246614Y-105188428D02*
X162198995Y-105140809D01*
X162198995Y-105140809D02*
X162103757Y-105093190D01*
X163151376Y-104664619D02*
X162960900Y-104664619D01*
X162960900Y-104664619D02*
X162865662Y-104712238D01*
X162865662Y-104712238D02*
X162818043Y-104759857D01*
X162818043Y-104759857D02*
X162722805Y-104902714D01*
X162722805Y-104902714D02*
X162675186Y-105093190D01*
X162675186Y-105093190D02*
X162675186Y-105474142D01*
X162675186Y-105474142D02*
X162722805Y-105569380D01*
X162722805Y-105569380D02*
X162770424Y-105617000D01*
X162770424Y-105617000D02*
X162865662Y-105664619D01*
X162865662Y-105664619D02*
X163056138Y-105664619D01*
X163056138Y-105664619D02*
X163151376Y-105617000D01*
X163151376Y-105617000D02*
X163198995Y-105569380D01*
X163198995Y-105569380D02*
X163246614Y-105474142D01*
X163246614Y-105474142D02*
X163246614Y-105236047D01*
X163246614Y-105236047D02*
X163198995Y-105140809D01*
X163198995Y-105140809D02*
X163151376Y-105093190D01*
X163151376Y-105093190D02*
X163056138Y-105045571D01*
X163056138Y-105045571D02*
X162865662Y-105045571D01*
X162865662Y-105045571D02*
X162770424Y-105093190D01*
X162770424Y-105093190D02*
X162722805Y-105140809D01*
X162722805Y-105140809D02*
X162675186Y-105236047D01*
X163818043Y-105093190D02*
X163722805Y-105045571D01*
X163722805Y-105045571D02*
X163675186Y-104997952D01*
X163675186Y-104997952D02*
X163627567Y-104902714D01*
X163627567Y-104902714D02*
X163627567Y-104855095D01*
X163627567Y-104855095D02*
X163675186Y-104759857D01*
X163675186Y-104759857D02*
X163722805Y-104712238D01*
X163722805Y-104712238D02*
X163818043Y-104664619D01*
X163818043Y-104664619D02*
X164008519Y-104664619D01*
X164008519Y-104664619D02*
X164103757Y-104712238D01*
X164103757Y-104712238D02*
X164151376Y-104759857D01*
X164151376Y-104759857D02*
X164198995Y-104855095D01*
X164198995Y-104855095D02*
X164198995Y-104902714D01*
X164198995Y-104902714D02*
X164151376Y-104997952D01*
X164151376Y-104997952D02*
X164103757Y-105045571D01*
X164103757Y-105045571D02*
X164008519Y-105093190D01*
X164008519Y-105093190D02*
X163818043Y-105093190D01*
X163818043Y-105093190D02*
X163722805Y-105140809D01*
X163722805Y-105140809D02*
X163675186Y-105188428D01*
X163675186Y-105188428D02*
X163627567Y-105283666D01*
X163627567Y-105283666D02*
X163627567Y-105474142D01*
X163627567Y-105474142D02*
X163675186Y-105569380D01*
X163675186Y-105569380D02*
X163722805Y-105617000D01*
X163722805Y-105617000D02*
X163818043Y-105664619D01*
X163818043Y-105664619D02*
X164008519Y-105664619D01*
X164008519Y-105664619D02*
X164103757Y-105617000D01*
X164103757Y-105617000D02*
X164151376Y-105569380D01*
X164151376Y-105569380D02*
X164198995Y-105474142D01*
X164198995Y-105474142D02*
X164198995Y-105283666D01*
X164198995Y-105283666D02*
X164151376Y-105188428D01*
X164151376Y-105188428D02*
X164103757Y-105140809D01*
X164103757Y-105140809D02*
X164008519Y-105093190D01*
%TO.C,R11*%
D12*
X99005000Y-102058642D02*
X99005000Y-101751360D01*
X99765000Y-102058642D02*
X99765000Y-101751360D01*
%TO.C,R2*%
X104122659Y-88560060D02*
X104339940Y-88777341D01*
X104660060Y-88022659D02*
X104877341Y-88239940D01*
%TO.C,C5*%
X113715000Y-98307836D02*
X113715000Y-98092164D01*
X114435000Y-98307836D02*
X114435000Y-98092164D01*
%TO.C,J6*%
D13*
X160750000Y-94388800D02*
G75*
G02*
X160550000Y-94388800I-100000J0D01*
G01*
X160550000Y-94388800D02*
G75*
G02*
X160750000Y-94388800I100000J0D01*
G01*
%TO.C,C4*%
D12*
X116435636Y-88141700D02*
X116219964Y-88141700D01*
X116435636Y-88861700D02*
X116219964Y-88861700D01*
%TO.C,C8*%
X105199300Y-92782036D02*
X105199300Y-92566364D01*
X105919300Y-92782036D02*
X105919300Y-92566364D01*
%TO.C,C20*%
X108515000Y-99963747D02*
X108515000Y-100486253D01*
X109985000Y-99963747D02*
X109985000Y-100486253D01*
%TO.C,J3*%
X110090000Y-83600000D02*
X110090001Y-82220000D01*
X111470000Y-83599999D02*
X110090000Y-83600000D01*
X112740000Y-80840000D02*
X123010000Y-80840000D01*
X112740000Y-83600000D02*
X112740000Y-80840000D01*
X112740000Y-83600000D02*
X123010000Y-83600000D01*
X123010000Y-83600000D02*
X123010000Y-80840000D01*
%TO.C,R7*%
X107220000Y-101388641D02*
X107220000Y-101081359D01*
X107980000Y-101388641D02*
X107980000Y-101081359D01*
%TO.C,PC13*%
X83850000Y-103447504D02*
X83850000Y-107947504D01*
X86350000Y-109197504D02*
X87850000Y-109197504D01*
X87850000Y-102197504D02*
X86350000Y-102197504D01*
X90350000Y-107947504D02*
X90350000Y-103447504D01*
%TO.C,R6*%
X107220000Y-99388641D02*
X107220000Y-99081359D01*
X107980000Y-99388641D02*
X107980000Y-99081359D01*
%TO.C,C18*%
X138795000Y-83128747D02*
X138795000Y-83651253D01*
X140265000Y-83128747D02*
X140265000Y-83651253D01*
%TO.C,OLED*%
X103743500Y-104579401D02*
X103743500Y-107339399D01*
X111473500Y-104579400D02*
X103743500Y-104579401D01*
X111473500Y-104579400D02*
X111473500Y-107339400D01*
X111473500Y-107339400D02*
X103743500Y-107339399D01*
X112743500Y-104579401D02*
X114123500Y-104579400D01*
X114123500Y-104579400D02*
X114123499Y-105959400D01*
%TO.C,C7*%
X123612736Y-101223200D02*
X123397064Y-101223200D01*
X123612736Y-101943200D02*
X123397064Y-101943200D01*
%TO.C,Y1*%
X118290000Y-102189999D02*
X118290000Y-105610001D01*
X118290000Y-105610001D02*
X122410000Y-105610001D01*
%TO.C,R3*%
X96171359Y-98945000D02*
X96478641Y-98945000D01*
X96171359Y-99705000D02*
X96478641Y-99705000D01*
%TO.C,C12*%
X121445764Y-101260900D02*
X121661436Y-101260900D01*
X121445764Y-101980900D02*
X121661436Y-101980900D01*
%TO.C,U1*%
X116415000Y-89190000D02*
X117365000Y-89190000D01*
X116415000Y-90140000D02*
X116415000Y-89190000D01*
X116415000Y-99410000D02*
X116415000Y-98460000D01*
X117365000Y-99410000D02*
X116415000Y-99410000D01*
X125685000Y-89190000D02*
X126635000Y-89190000D01*
X126635000Y-89190000D02*
X126635000Y-90140000D01*
X126635000Y-98460000D02*
X126635000Y-99410000D01*
X126635000Y-99410000D02*
X125685000Y-99410000D01*
X117365000Y-100050000D02*
X116895000Y-100390000D01*
X116895000Y-99710000D01*
X117365000Y-100050000D01*
G36*
X117365000Y-100050000D02*
G01*
X116895000Y-100390000D01*
X116895000Y-99710000D01*
X117365000Y-100050000D01*
G37*
%TO.C,C16*%
X103074300Y-93862036D02*
X103074300Y-93646364D01*
X103794300Y-93862036D02*
X103794300Y-93646364D01*
%TO.C,U2*%
X98727500Y-93640000D02*
X100547500Y-93640000D01*
X98727500Y-93690000D02*
X98727500Y-93640000D01*
X98727500Y-96760000D02*
X98727500Y-96710000D01*
X100547500Y-93640000D02*
X100547500Y-93690000D01*
X100547500Y-94810000D02*
X100547500Y-95590000D01*
X100547500Y-96710000D02*
X100547500Y-96760000D01*
X100547500Y-96760000D02*
X98727500Y-96760000D01*
X98187500Y-93690000D02*
X97947500Y-93360000D01*
X98427500Y-93360000D01*
X98187500Y-93690000D01*
G36*
X98187500Y-93690000D02*
G01*
X97947500Y-93360000D01*
X98427500Y-93360000D01*
X98187500Y-93690000D01*
G37*
%TO.C,C14*%
X101999300Y-93862036D02*
X101999300Y-93646364D01*
X102719300Y-93862036D02*
X102719300Y-93646364D01*
%TO.C,C15*%
X136290000Y-83862164D02*
X136290000Y-84077836D01*
X137010000Y-83862164D02*
X137010000Y-84077836D01*
%TO.C,U3*%
X95850000Y-89310000D02*
X97670000Y-89310000D01*
X95850000Y-89360000D02*
X95850000Y-89310000D01*
X95850000Y-92430000D02*
X95850000Y-92380000D01*
X97670000Y-89310000D02*
X97670000Y-89360000D01*
X97670000Y-92380000D02*
X97670000Y-92430000D01*
X97670000Y-92430000D02*
X95850000Y-92430000D01*
X95310000Y-89360000D02*
X95070000Y-89030000D01*
X95550000Y-89030000D01*
X95310000Y-89360000D01*
G36*
X95310000Y-89360000D02*
G01*
X95070000Y-89030000D01*
X95550000Y-89030000D01*
X95310000Y-89360000D01*
G37*
%TO.C,C11*%
X119646236Y-101260900D02*
X119430564Y-101260900D01*
X119646236Y-101980900D02*
X119430564Y-101980900D01*
%TO.C,C1*%
X115975600Y-100912964D02*
X115975600Y-101128636D01*
X116695600Y-100912964D02*
X116695600Y-101128636D01*
%TO.C,C2*%
X128470000Y-97782164D02*
X128470000Y-97997836D01*
X129190000Y-97782164D02*
X129190000Y-97997836D01*
%TO.C,D1*%
X95440000Y-97165000D02*
X95440000Y-98635000D01*
X95440000Y-98635000D02*
X97725000Y-98635000D01*
X97725000Y-97165000D02*
X95440000Y-97165000D01*
%TO.C,BOOT0*%
X99940000Y-83600000D02*
X99940001Y-82220000D01*
X101320000Y-83599999D02*
X99940000Y-83600000D01*
X102590000Y-80840000D02*
X107780000Y-80840000D01*
X102590000Y-83600000D02*
X102590000Y-80840000D01*
X102590000Y-83600000D02*
X107780000Y-83600000D01*
X107780000Y-83600000D02*
X107780000Y-80840000D01*
%TO.C,C3*%
X127892164Y-89100000D02*
X128107836Y-89100000D01*
X127892164Y-89820000D02*
X128107836Y-89820000D01*
%TO.C,C19*%
X140790000Y-83802164D02*
X140790000Y-84017836D01*
X141510000Y-83802164D02*
X141510000Y-84017836D01*
%TO.C,R12*%
X100080000Y-101751360D02*
X100080000Y-102058642D01*
X100840000Y-101751360D02*
X100840000Y-102058642D01*
%TO.C,R5*%
X113855241Y-95120000D02*
X113547959Y-95120000D01*
X113855241Y-95880000D02*
X113547959Y-95880000D01*
%TO.C,RST*%
X83850000Y-80697504D02*
X83850000Y-85197504D01*
X86350000Y-86447504D02*
X87850000Y-86447504D01*
X87850000Y-79447504D02*
X86350000Y-79447504D01*
X90350000Y-85197504D02*
X90350000Y-80697504D01*
%TO.C,R1*%
X105366359Y-84310000D02*
X105673641Y-84310000D01*
X105366359Y-85070000D02*
X105673641Y-85070000D01*
%TO.C,C6*%
X114517500Y-101445919D02*
X114517500Y-101727081D01*
X115537500Y-101445919D02*
X115537500Y-101727081D01*
%TO.C,R4*%
X113150000Y-90393642D02*
X113150000Y-90086360D01*
X113910000Y-90393642D02*
X113910000Y-90086360D01*
%TO.C,C13*%
X96565000Y-95782836D02*
X96565000Y-95567164D01*
X97285000Y-95782836D02*
X97285000Y-95567164D01*
%TO.C,IC1*%
D14*
X139450000Y-87375000D02*
X159450000Y-87375000D01*
X139450000Y-101375000D02*
X139450000Y-87375000D01*
X140560000Y-89295000D02*
X158340000Y-89295000D01*
X140560000Y-99455000D02*
X140560000Y-89295000D01*
X154530000Y-96915000D02*
X154530000Y-99455000D01*
X154530000Y-99455000D02*
X140560000Y-99455000D01*
X158340000Y-89295000D02*
X158340000Y-96915000D01*
X158340000Y-96915000D02*
X154530000Y-96915000D01*
X159450000Y-87375000D02*
X159450000Y-101375000D01*
X159450000Y-101375000D02*
X139450000Y-101375000D01*
X158340000Y-98439000D02*
G75*
G02*
X156308000Y-98439000I-1016000J0D01*
G01*
X156308000Y-98439000D02*
G75*
G02*
X158340000Y-98439000I1016000J0D01*
G01*
X158721000Y-99836000D02*
G75*
G02*
X157959000Y-99836000I-381000J0D01*
G01*
X157959000Y-99836000D02*
G75*
G02*
X158721000Y-99836000I381000J0D01*
G01*
X158594000Y-99836000D02*
G75*
G02*
X158086000Y-99836000I-254000J0D01*
G01*
X158086000Y-99836000D02*
G75*
G02*
X158594000Y-99836000I254000J0D01*
G01*
%TO.C,C17*%
D12*
X137330000Y-83862164D02*
X137330000Y-84077836D01*
X138050000Y-83862164D02*
X138050000Y-84077836D01*
%TO.C,C10*%
X91490000Y-85805340D02*
X91490000Y-85589668D01*
X92210000Y-85805340D02*
X92210000Y-85589668D01*
%TO.C,C22*%
X101675000Y-100701254D02*
X101675000Y-100178748D01*
X103145000Y-100701254D02*
X103145000Y-100178748D01*
%TO.C,C9*%
X104174300Y-92782036D02*
X104174300Y-92566364D01*
X104894300Y-92782036D02*
X104894300Y-92566364D01*
%TO.C,J2*%
X82350000Y-98092504D02*
X82800000Y-98092504D01*
X82800000Y-90092504D02*
X82800000Y-90392504D01*
X82800000Y-90392504D02*
X82350000Y-90392504D01*
X82800000Y-98092504D02*
X82800000Y-98392504D01*
X82800000Y-98392504D02*
X82950000Y-98392504D01*
X82950000Y-90092504D02*
X82800000Y-90092504D01*
X85350000Y-98392504D02*
X86750000Y-98392504D01*
X86750000Y-90092504D02*
X85350000Y-90092504D01*
X88500000Y-92442504D02*
X88500000Y-91442504D01*
X88500000Y-96042504D02*
X88500000Y-97042504D01*
X88925000Y-92442504D02*
X88500000Y-92442504D01*
X88925000Y-93167504D02*
X88925000Y-92442504D01*
%TD*%
%LPC*%
D15*
%TO.C,FB2*%
X136685000Y-82415000D03*
X137655000Y-82415000D03*
%TD*%
D16*
%TO.C,R11*%
X99385000Y-102415001D03*
X99385000Y-101395001D03*
%TD*%
D17*
%TO.C,R2*%
X104139376Y-88039376D03*
X104860624Y-88760624D03*
%TD*%
D18*
%TO.C,C5*%
X114075000Y-98680000D03*
X114075000Y-97720000D03*
%TD*%
D19*
%TO.C,J6*%
X163050000Y-94388800D03*
X163050000Y-97088800D03*
X163050000Y-91688800D03*
%TD*%
D20*
%TO.C,C4*%
X116807800Y-88501700D03*
X115847800Y-88501700D03*
%TD*%
D18*
%TO.C,C8*%
X105559300Y-93154200D03*
X105559300Y-92194200D03*
%TD*%
D21*
%TO.C,C20*%
X109250000Y-99275001D03*
X109250000Y-101174999D03*
%TD*%
D22*
%TO.C,J3*%
X111470000Y-82220000D03*
D23*
X114010000Y-82220000D03*
X116549999Y-82220000D03*
X119090000Y-82220000D03*
X121630000Y-82220000D03*
%TD*%
D16*
%TO.C,R7*%
X107600000Y-101744999D03*
X107600000Y-100725001D03*
%TD*%
D24*
%TO.C,PC13*%
X89350000Y-102447504D03*
X89350000Y-108947504D03*
X84849999Y-102447504D03*
X84850000Y-108947505D03*
%TD*%
D16*
%TO.C,R6*%
X107600000Y-99744999D03*
X107600000Y-98725001D03*
%TD*%
D21*
%TO.C,C18*%
X139530000Y-82440001D03*
X139530000Y-84339999D03*
%TD*%
D22*
%TO.C,OLED*%
X112743500Y-105959400D03*
D23*
X110203500Y-105959400D03*
X107663501Y-105959400D03*
X105123500Y-105959400D03*
%TD*%
D20*
%TO.C,C7*%
X123984900Y-101583200D03*
X123024900Y-101583200D03*
%TD*%
D25*
%TO.C,Y1*%
X119250000Y-104750000D03*
X121450000Y-104750000D03*
X121450000Y-103050000D03*
X119250000Y-103050000D03*
%TD*%
D26*
%TO.C,R3*%
X95815000Y-99325000D03*
X96835000Y-99325000D03*
%TD*%
D27*
%TO.C,C12*%
X121073600Y-101620900D03*
X122033600Y-101620900D03*
%TD*%
D28*
%TO.C,U1*%
X117775001Y-99975000D03*
X118275000Y-99975000D03*
X118775000Y-99975000D03*
X119275000Y-99975000D03*
X119775000Y-99975000D03*
X120275001Y-99975000D03*
X120775000Y-99975000D03*
X121275000Y-99975000D03*
X121775000Y-99975000D03*
X122275000Y-99975000D03*
X122774999Y-99975000D03*
X123275000Y-99975000D03*
X123775000Y-99975000D03*
X124275000Y-99975000D03*
X124775000Y-99975000D03*
X125274999Y-99975000D03*
D29*
X127200000Y-98049999D03*
X127200000Y-97550000D03*
X127200000Y-97050000D03*
X127200000Y-96550000D03*
X127200000Y-96050000D03*
X127200000Y-95549999D03*
X127200000Y-95050000D03*
X127200000Y-94550000D03*
X127200000Y-94050000D03*
X127200000Y-93550000D03*
X127200000Y-93050001D03*
X127200000Y-92550000D03*
X127200000Y-92050000D03*
X127200000Y-91550000D03*
X127200000Y-91050000D03*
X127200000Y-90550001D03*
D28*
X125274999Y-88625000D03*
X124775000Y-88625000D03*
X124275000Y-88625000D03*
X123775000Y-88625000D03*
X123275000Y-88625000D03*
X122774999Y-88625000D03*
X122275000Y-88625000D03*
X121775000Y-88625000D03*
X121275000Y-88625000D03*
X120775000Y-88625000D03*
X120275001Y-88625000D03*
X119775000Y-88625000D03*
X119275000Y-88625000D03*
X118775000Y-88625000D03*
X118275000Y-88625000D03*
X117775001Y-88625000D03*
D29*
X115850000Y-90550001D03*
X115850000Y-91050000D03*
X115850000Y-91550000D03*
X115850000Y-92050000D03*
X115850000Y-92550000D03*
X115850000Y-93050001D03*
X115850000Y-93550000D03*
X115850000Y-94050000D03*
X115850000Y-94550000D03*
X115850000Y-95050000D03*
X115850000Y-95549999D03*
X115850000Y-96050000D03*
X115850000Y-96550000D03*
X115850000Y-97050000D03*
X115850000Y-97550000D03*
X115850000Y-98049999D03*
%TD*%
D30*
%TO.C,REF\u002A\u002A*%
X145046500Y-95906300D03*
%TD*%
D18*
%TO.C,C16*%
X103434300Y-94234200D03*
X103434300Y-93274200D03*
%TD*%
D31*
%TO.C,U2*%
X98500000Y-94250000D03*
X98500000Y-95200000D03*
X98500000Y-96150000D03*
X100775000Y-96150000D03*
X100775000Y-94250000D03*
%TD*%
D18*
%TO.C,C14*%
X102359300Y-94234200D03*
X102359300Y-93274200D03*
%TD*%
D32*
%TO.C,C15*%
X136650000Y-83490000D03*
X136650000Y-84450000D03*
%TD*%
D31*
%TO.C,U3*%
X95622500Y-89920001D03*
X95622500Y-90870000D03*
X95622500Y-91819999D03*
X97897500Y-91819999D03*
X97897500Y-90870000D03*
X97897500Y-89920001D03*
%TD*%
D20*
%TO.C,C11*%
X120018400Y-101620900D03*
X119058400Y-101620900D03*
%TD*%
D32*
%TO.C,C1*%
X116335600Y-100540800D03*
X116335600Y-101500800D03*
%TD*%
%TO.C,C2*%
X128830000Y-97410000D03*
X128830000Y-98370000D03*
%TD*%
D33*
%TO.C,D1*%
X96137500Y-97900000D03*
X97712500Y-97900000D03*
%TD*%
D22*
%TO.C,BOOT0*%
X101320000Y-82220000D03*
D23*
X103860000Y-82220000D03*
X106399999Y-82220000D03*
%TD*%
D27*
%TO.C,C3*%
X127520000Y-89460000D03*
X128480000Y-89460000D03*
%TD*%
D32*
%TO.C,C19*%
X141150000Y-83430000D03*
X141150000Y-84390000D03*
%TD*%
D34*
%TO.C,R12*%
X100460000Y-101395001D03*
X100460000Y-102415001D03*
%TD*%
D35*
%TO.C,R5*%
X114211599Y-95500000D03*
X113191601Y-95500000D03*
%TD*%
D24*
%TO.C,RST*%
X89350000Y-79697504D03*
X89350000Y-86197504D03*
X84849999Y-79697504D03*
X84850000Y-86197505D03*
%TD*%
D26*
%TO.C,R1*%
X105010001Y-84690000D03*
X106029999Y-84690000D03*
%TD*%
D36*
%TO.C,C6*%
X115027500Y-100811500D03*
X115027500Y-102361500D03*
%TD*%
D37*
%TO.C,FB1*%
X105544300Y-94224200D03*
X104574300Y-94224200D03*
%TD*%
D16*
%TO.C,R4*%
X113530000Y-90750000D03*
X113530000Y-89730002D03*
%TD*%
D18*
%TO.C,C13*%
X96925000Y-96155000D03*
X96925000Y-95195000D03*
%TD*%
D38*
%TO.C,IC1*%
X158450000Y-87375000D03*
X157180000Y-87375000D03*
X155910000Y-87375000D03*
X150340000Y-87375000D03*
X149070000Y-87375000D03*
X147800000Y-87375000D03*
X146530000Y-87375000D03*
X145260000Y-87375000D03*
X143990000Y-87375000D03*
X142720000Y-87375000D03*
X141450000Y-87375000D03*
X141450000Y-101375000D03*
X142720000Y-101375000D03*
X143990000Y-101375000D03*
X145260000Y-101375000D03*
X146530000Y-101375000D03*
X147800000Y-101375000D03*
X149070000Y-101375000D03*
X150340000Y-101375000D03*
X155910000Y-101375000D03*
X157180000Y-101375000D03*
X158450000Y-101375000D03*
%TD*%
D32*
%TO.C,C17*%
X137690000Y-83490000D03*
X137690000Y-84450000D03*
%TD*%
D18*
%TO.C,C10*%
X91850000Y-86177504D03*
X91850000Y-85217504D03*
%TD*%
D39*
%TO.C,C22*%
X102410000Y-101390000D03*
X102410000Y-99490002D03*
%TD*%
D18*
%TO.C,C9*%
X104534300Y-93154200D03*
X104534300Y-92194200D03*
%TD*%
D40*
%TO.C,J2*%
X86900000Y-91742504D03*
X86900000Y-96742504D03*
D41*
X88000000Y-92942504D03*
X88000000Y-93592504D03*
X88000000Y-94242504D03*
X88000000Y-94892504D03*
X88000000Y-95542504D03*
D42*
X84150000Y-90367504D03*
D43*
X87950000Y-90517504D03*
X87950000Y-97967504D03*
D42*
X84150000Y-98117504D03*
%TD*%
D22*
%TO.C,J7*%
X101305000Y-78375000D03*
D23*
X103845000Y-78375000D03*
X106384999Y-78375000D03*
X108925000Y-78375000D03*
X111465000Y-78375000D03*
X114005000Y-78375000D03*
X116545000Y-78375000D03*
X119085001Y-78375000D03*
X121625000Y-78375000D03*
X124165000Y-78375000D03*
X126705000Y-78375000D03*
X129244999Y-78375000D03*
%TD*%
D22*
%TO.C,J5*%
X101305000Y-110113500D03*
D23*
X103845000Y-110113500D03*
X106384999Y-110113500D03*
X108925000Y-110113500D03*
X111465000Y-110113500D03*
X114005000Y-110113500D03*
X116545000Y-110113500D03*
X119085001Y-110113500D03*
X121625000Y-110113500D03*
X124165000Y-110113500D03*
X126705000Y-110113500D03*
X129244999Y-110113500D03*
%TD*%
%LPD*%
M02*
