%TF.GenerationSoftware,KiCad,Pcbnew,10.0.5-10.0.5~ubuntu26.04.1*%
%TF.CreationDate,2026-08-23T12:12:38+02:00*%
%TF.ProjectId,IRIS-868,49524953-2d38-4363-982e-6b696361645f,rev?*%
%TF.SameCoordinates,Original*%
%TF.FileFunction,Copper,L2,Bot*%
%TF.FilePolarity,Positive*%
%FSLAX46Y46*%
G04 Gerber Fmt 4.6, Leading zero omitted, Abs format (unit mm)*
G04 Created by KiCad (PCBNEW 10.0.5-10.0.5~ubuntu26.04.1) date 2026-08-23 12:12:38*
%MOMM*%
%LPD*%
G01*
G04 APERTURE LIST*
G04 Aperture macros list*
%AMRoundRect*
0 Rectangle with rounded corners*
0 $1 Rounding radius*
0 $2 $3 $4 $5 $6 $7 $8 $9 X,Y pos of 4 corners*
0 Add a 4 corners polygon primitive as box body*
4,1,4,$2,$3,$4,$5,$6,$7,$8,$9,$2,$3,0*
0 Add four circle primitives for the rounded corners*
1,1,$1+$1,$2,$3*
1,1,$1+$1,$4,$5*
1,1,$1+$1,$6,$7*
1,1,$1+$1,$8,$9*
0 Add four rect primitives between the rounded corners*
20,1,$1+$1,$2,$3,$4,$5,0*
20,1,$1+$1,$4,$5,$6,$7,0*
20,1,$1+$1,$6,$7,$8,$9,0*
20,1,$1+$1,$8,$9,$2,$3,0*%
G04 Aperture macros list end*
%TA.AperFunction,SMDPad,CuDef*%
%ADD10R,3.500000X1.500000*%
%TD*%
%TA.AperFunction,ComponentPad*%
%ADD11R,1.700000X1.700000*%
%TD*%
%TA.AperFunction,ComponentPad*%
%ADD12C,1.700000*%
%TD*%
%TA.AperFunction,ComponentPad*%
%ADD13C,2.000000*%
%TD*%
%TA.AperFunction,ComponentPad*%
%ADD14O,1.800000X1.150000*%
%TD*%
%TA.AperFunction,ComponentPad*%
%ADD15O,2.000000X1.450000*%
%TD*%
%TA.AperFunction,SMDPad,CuDef*%
%ADD16RoundRect,0.135000X0.135000X0.185000X-0.135000X0.185000X-0.135000X-0.185000X0.135000X-0.185000X0*%
%TD*%
%TA.AperFunction,SMDPad,CuDef*%
%ADD17RoundRect,0.140000X0.170000X-0.140000X0.170000X0.140000X-0.170000X0.140000X-0.170000X-0.140000X0*%
%TD*%
%TA.AperFunction,SMDPad,CuDef*%
%ADD18RoundRect,0.135000X-0.135000X-0.185000X0.135000X-0.185000X0.135000X0.185000X-0.135000X0.185000X0*%
%TD*%
%TA.AperFunction,SMDPad,CuDef*%
%ADD19RoundRect,0.162500X0.162500X-0.650000X0.162500X0.650000X-0.162500X0.650000X-0.162500X-0.650000X0*%
%TD*%
%TA.AperFunction,ViaPad*%
%ADD20C,0.600000*%
%TD*%
%TA.AperFunction,Conductor*%
%ADD21C,0.500000*%
%TD*%
%TA.AperFunction,Conductor*%
%ADD22C,0.150000*%
%TD*%
G04 APERTURE END LIST*
D10*
%TO.P,J6,G3*%
%TO.N,GND*%
X163050000Y-97088800D03*
%TO.P,J6,G4*%
X163050000Y-91688800D03*
%TD*%
D11*
%TO.P,J3,1,Pin_1_1*%
%TO.N,GND*%
X111470000Y-82220000D03*
D12*
%TO.P,J3,2,Pin_2_2*%
%TO.N,~{RST}*%
X114010000Y-82220000D03*
%TO.P,J3,3,Pin_3_3*%
%TO.N,SWCLK*%
X116549999Y-82220000D03*
%TO.P,J3,4,Pin_4_4*%
%TO.N,SWDIO*%
X119090000Y-82220000D03*
%TO.P,J3,5,Pin_5_5*%
%TO.N,+3.3V*%
X121630000Y-82220000D03*
%TD*%
D13*
%TO.P,PC13,1,1_1*%
%TO.N,N/C*%
X89350000Y-102447504D03*
%TO.N,Net-(R11-Pad1)*%
X89350000Y-108947504D03*
%TO.P,PC13,2,2_2*%
%TO.N,N/C*%
X84849999Y-102447504D03*
%TO.N,GND*%
X84850000Y-108947505D03*
%TD*%
D11*
%TO.P,OLED,1,Pin_1_1*%
%TO.N,GND*%
X112743500Y-105959400D03*
D12*
%TO.P,OLED,2,Pin_2_2*%
%TO.N,+3.3V*%
X110203500Y-105959400D03*
%TO.P,OLED,3,Pin_3_3*%
%TO.N,I2C1_SCL*%
X107663501Y-105959400D03*
%TO.P,OLED,4,Pin_4_4*%
%TO.N,I2C1_SDA*%
X105123500Y-105959400D03*
%TD*%
D11*
%TO.P,BOOT0,1,Pin_1_1*%
%TO.N,GND*%
X101320000Y-82220000D03*
D12*
%TO.P,BOOT0,2,Pin_2_2*%
%TO.N,/Root/J_BOOT0*%
X103860000Y-82220000D03*
%TO.P,BOOT0,3,Pin_3_3*%
%TO.N,+3.3V*%
X106399999Y-82220000D03*
%TD*%
D13*
%TO.P,RST,1,1_1*%
%TO.N,N/C*%
X89350000Y-79697504D03*
%TO.N,~{RST}*%
X89350000Y-86197504D03*
%TO.P,RST,2,2_2*%
%TO.N,N/C*%
X84849999Y-79697504D03*
%TO.N,GND*%
X84850000Y-86197505D03*
%TD*%
D14*
%TO.P,J2,SH,Shield_SH*%
%TO.N,unconnected-(J2-Shield-PadSH)_1*%
X84150000Y-90367504D03*
D15*
%TO.N,unconnected-(J2-Shield-PadSH)_3*%
X87950000Y-90517504D03*
%TO.N,unconnected-(J2-Shield-PadSH)*%
X87950000Y-97967504D03*
D14*
%TO.N,unconnected-(J2-Shield-PadSH)_2*%
X84150000Y-98117504D03*
%TD*%
D16*
%TO.P,R10,1*%
%TO.N,+3.3V*%
X101959999Y-88875000D03*
%TO.P,R10,2*%
%TO.N,Net-(U4-~{HOLD}{slash}~{RESET}{slash}IO_{3})*%
X100940001Y-88875000D03*
%TD*%
D17*
%TO.P,C21,1*%
%TO.N,+3.3V*%
X103500000Y-90630000D03*
%TO.P,C21,2*%
%TO.N,GND*%
X103500000Y-89670000D03*
%TD*%
D18*
%TO.P,R8,1*%
%TO.N,+3.3V*%
X101407701Y-99525000D03*
%TO.P,R8,2*%
%TO.N,FLASH_~{CS}*%
X102427699Y-99525000D03*
%TD*%
D19*
%TO.P,U4,1,~{CS}_1*%
%TO.N,FLASH_~{CS}*%
X102120500Y-97808400D03*
%TO.P,U4,2,DO/IO_{1}_2*%
%TO.N,SPI3_MISO*%
X100850500Y-97808400D03*
%TO.P,U4,3,~{WP}/IO_{2}_3*%
%TO.N,Net-(U4-~{WP}{slash}IO_{2})*%
X99580500Y-97808400D03*
%TO.P,U4,4,GND_4*%
%TO.N,GND*%
X98310500Y-97808400D03*
%TO.P,U4,5,DI/IO_{0}_5*%
%TO.N,SPI3_MOSI*%
X98310500Y-90633400D03*
%TO.P,U4,6,CLK_6*%
%TO.N,SPI3_SCK*%
X99580500Y-90633400D03*
%TO.P,U4,7,~{HOLD}/~{RESET}/IO_{3}_7*%
%TO.N,Net-(U4-~{HOLD}{slash}~{RESET}{slash}IO_{3})*%
X100850500Y-90633400D03*
%TO.P,U4,8,VCC_8*%
%TO.N,+3.3V*%
X102120500Y-90633400D03*
%TD*%
D11*
%TO.P,J7,1,Pin_1_1*%
%TO.N,PB9*%
X101305000Y-78375000D03*
D12*
%TO.P,J7,2,Pin_2_2*%
%TO.N,GND*%
X103845000Y-78375000D03*
%TO.P,J7,3,Pin_3_3*%
%TO.N,PB0*%
X106384999Y-78375000D03*
%TO.P,J7,4,Pin_4_4*%
%TO.N,PB1*%
X108925000Y-78375000D03*
%TO.P,J7,5,Pin_5_5*%
%TO.N,PC4*%
X111465000Y-78375000D03*
%TO.P,J7,6,Pin_6_6*%
%TO.N,PC5*%
X114005000Y-78375000D03*
%TO.P,J7,7,Pin_7_7*%
%TO.N,PC6*%
X116545000Y-78375000D03*
%TO.P,J7,8,Pin_8_8*%
%TO.N,PC7*%
X119085001Y-78375000D03*
%TO.P,J7,9,Pin_9_9*%
%TO.N,PC8*%
X121625000Y-78375000D03*
%TO.P,J7,10,Pin_10_10*%
%TO.N,GND*%
X124165000Y-78375000D03*
%TO.P,J7,11,Pin_11_11*%
%TO.N,unconnected-(J7-Pin_11-Pad11)*%
X126705000Y-78375000D03*
%TO.P,J7,12,Pin_12_12*%
%TO.N,unconnected-(J7-Pin_12-Pad12)*%
X129244999Y-78375000D03*
%TD*%
D16*
%TO.P,R9,1*%
%TO.N,+3.3V*%
X100445999Y-99528800D03*
%TO.P,R9,2*%
%TO.N,Net-(U4-~{WP}{slash}IO_{2})*%
X99426001Y-99528800D03*
%TD*%
D11*
%TO.P,J5,1,Pin_1_1*%
%TO.N,GND*%
X101305000Y-110113500D03*
D12*
%TO.P,J5,2,Pin_2_2*%
%TO.N,+3.3V*%
X103845000Y-110113500D03*
%TO.P,J5,3,Pin_3_3*%
%TO.N,VBUS*%
X106384999Y-110113500D03*
%TO.P,J5,4,Pin_4_4*%
%TO.N,~{RST}*%
X108925000Y-110113500D03*
%TO.P,J5,5,Pin_5_5*%
%TO.N,BOOT0*%
X111465000Y-110113500D03*
%TO.P,J5,6,Pin_6_6*%
%TO.N,PA9*%
X114005000Y-110113500D03*
%TO.P,J5,7,Pin_7_7*%
%TO.N,PA10*%
X116545000Y-110113500D03*
%TO.P,J5,8,Pin_8_8*%
%TO.N,GND*%
X119085001Y-110113500D03*
%TO.P,J5,9,Pin_9_9*%
%TO.N,PB4*%
X121625000Y-110113500D03*
%TO.P,J5,10,Pin_10_10*%
%TO.N,PB5*%
X124165000Y-110113500D03*
%TO.P,J5,11,Pin_11_11*%
%TO.N,PB6*%
X126705000Y-110113500D03*
%TO.P,J5,12,Pin_12_12*%
%TO.N,PB8*%
X129244999Y-110113500D03*
%TD*%
D20*
%TO.N,+3.3V*%
X113039000Y-98575000D03*
X98594999Y-100605001D03*
X101500000Y-104000000D03*
X129000000Y-82208413D03*
X116800000Y-87250000D03*
X114975000Y-98700001D03*
X125308413Y-82208413D03*
X102000000Y-87975000D03*
X95675000Y-95800000D03*
X101500000Y-105500000D03*
X99000000Y-93450000D03*
X116350000Y-84950000D03*
X103525000Y-92150000D03*
X113038999Y-96227854D03*
X114975000Y-99900000D03*
X105350000Y-90650000D03*
%TO.N,PB8*%
X121374373Y-96605627D03*
X114156587Y-88743413D03*
X111725000Y-88760624D03*
X107900000Y-88760624D03*
X117000000Y-106775000D03*
%TO.N,GND*%
X164000000Y-90000000D03*
X94000000Y-110000000D03*
X92000000Y-78000000D03*
X142000000Y-110000000D03*
X160000000Y-108000000D03*
X126000000Y-104000000D03*
X144000000Y-84000000D03*
X132000000Y-78000000D03*
X136000000Y-98000000D03*
X148000000Y-110000000D03*
X156000000Y-110000000D03*
X156384522Y-96932131D03*
X144000000Y-110000000D03*
X160000000Y-110000000D03*
X154000000Y-84000000D03*
X113039000Y-102300000D03*
X148000000Y-92000000D03*
X152000000Y-92000000D03*
X148000000Y-108000000D03*
X134000000Y-78000000D03*
X159723331Y-93593322D03*
X164000000Y-78000000D03*
X134000000Y-80000000D03*
X134000000Y-110000000D03*
X96000000Y-110000000D03*
X150000000Y-80000000D03*
X90000000Y-98000000D03*
X94000000Y-106000000D03*
X154000000Y-92000000D03*
X142000000Y-92000000D03*
X154000000Y-94000000D03*
X148000000Y-80000000D03*
X156000000Y-104000000D03*
X96000000Y-104000000D03*
X148000000Y-82000000D03*
X150000000Y-78000000D03*
X98000000Y-108000000D03*
X150000000Y-108000000D03*
X134000000Y-108000000D03*
X132000000Y-80000000D03*
X142000000Y-96000000D03*
X138000000Y-92000000D03*
X154000000Y-82000000D03*
X96000000Y-108000000D03*
X92000000Y-98000000D03*
X115625000Y-84175000D03*
X132000000Y-86000000D03*
X115225000Y-108875000D03*
X156000000Y-92000000D03*
X84000000Y-82000000D03*
X162000000Y-104000000D03*
X144000000Y-82000000D03*
X164000000Y-86000000D03*
X130000000Y-88000000D03*
X96000000Y-106000000D03*
X160000000Y-98000000D03*
X140000000Y-98000000D03*
X164000000Y-84000000D03*
X100000000Y-108000000D03*
X84000000Y-104000000D03*
X94000000Y-108000000D03*
X126000000Y-84000000D03*
X152000000Y-104000000D03*
X152000000Y-80000000D03*
X152000000Y-98000000D03*
X156000000Y-106000000D03*
X92000000Y-82000000D03*
X136000000Y-108000000D03*
X140000000Y-108000000D03*
X90000000Y-88000000D03*
X86000000Y-106000000D03*
X154000000Y-106000000D03*
X160000000Y-106000000D03*
X136000000Y-106000000D03*
X158335641Y-97736697D03*
X154000000Y-98000000D03*
X134000000Y-92000000D03*
X138000000Y-110000000D03*
X156000000Y-108000000D03*
X86000000Y-96000000D03*
X90000000Y-96000000D03*
X94000000Y-80000000D03*
X140000000Y-80000000D03*
X162000000Y-110000000D03*
X134000000Y-94000000D03*
X130000000Y-106000000D03*
X138000000Y-78000000D03*
X84000000Y-94000000D03*
X158000000Y-108000000D03*
X142000000Y-94000000D03*
X156000000Y-80000000D03*
X158000000Y-110000000D03*
X144000000Y-78000000D03*
X110000000Y-88000000D03*
X159780159Y-95854164D03*
X160516809Y-93402824D03*
X156696801Y-96178223D03*
X136000000Y-80000000D03*
X158273648Y-94331972D03*
X152000000Y-106000000D03*
X160000000Y-78000000D03*
X98000000Y-106000000D03*
X146000000Y-108000000D03*
X100000000Y-104000000D03*
X152000000Y-86000000D03*
X148000000Y-84000000D03*
X164000000Y-106000000D03*
X160000000Y-104000000D03*
X142000000Y-108000000D03*
X96000000Y-86000000D03*
X90000000Y-100000000D03*
X148000000Y-78000000D03*
X128000000Y-86000000D03*
X156130000Y-99484412D03*
X134000000Y-106000000D03*
X88000000Y-100000000D03*
X102000000Y-86000000D03*
X140000000Y-94000000D03*
X162000000Y-80000000D03*
X84000000Y-78000000D03*
X92000000Y-110000000D03*
X162000000Y-86000000D03*
X150000000Y-82000000D03*
X136000000Y-110000000D03*
X96000000Y-88000000D03*
X150000000Y-106000000D03*
X146000000Y-90000000D03*
X128000000Y-106000000D03*
X142000000Y-80000000D03*
X154000000Y-78000000D03*
X140000000Y-96000000D03*
X162000000Y-90000000D03*
X154000000Y-90000000D03*
X160000000Y-82000000D03*
X150000000Y-104000000D03*
X90000000Y-106000000D03*
X158969423Y-93905601D03*
X158000000Y-82000000D03*
X162000000Y-108000000D03*
X108000000Y-92000000D03*
X132000000Y-92000000D03*
X158645364Y-96988959D03*
X158000000Y-84000000D03*
X154000000Y-80000000D03*
X152000000Y-90000000D03*
X156000000Y-94000000D03*
X156194024Y-97725609D03*
X118847118Y-90047118D03*
X160000000Y-92000000D03*
X140000000Y-92000000D03*
X90000000Y-84000000D03*
X86000000Y-78000000D03*
X158000000Y-106000000D03*
X154000000Y-96000000D03*
X90000000Y-82000000D03*
X140000000Y-88000000D03*
X134000000Y-84000000D03*
X158000000Y-90000000D03*
X146000000Y-82000000D03*
X160000000Y-80000000D03*
X148000000Y-96000000D03*
X126000000Y-106000000D03*
X88000000Y-108000000D03*
X150000000Y-96000000D03*
X130000000Y-108000000D03*
X162000000Y-88000000D03*
X150000000Y-110000000D03*
X148000000Y-106000000D03*
X142000000Y-90000000D03*
X88000000Y-78000000D03*
X158000000Y-92000000D03*
X110000000Y-80000000D03*
X162000000Y-78000000D03*
X150000000Y-98000000D03*
X138000000Y-96000000D03*
X146000000Y-78000000D03*
X88000000Y-110000000D03*
X88000000Y-104000000D03*
X136000000Y-92000000D03*
X158230000Y-98539118D03*
X140000000Y-90000000D03*
X152000000Y-94000000D03*
X160000000Y-84000000D03*
X98000000Y-88000000D03*
X146000000Y-98000000D03*
X114000000Y-84000000D03*
X130000000Y-84000000D03*
X152000000Y-96000000D03*
X92000000Y-100000000D03*
X162000000Y-100000000D03*
X140000000Y-100000000D03*
X134000000Y-96000000D03*
X156000000Y-78000000D03*
X138000000Y-100000000D03*
X144000000Y-98000000D03*
X157123172Y-95482448D03*
X160000000Y-102000000D03*
X152000000Y-78000000D03*
X132000000Y-94000000D03*
X109450000Y-97650000D03*
X104000000Y-86000000D03*
X144000000Y-80000000D03*
X84000000Y-106000000D03*
X86000000Y-104000000D03*
X90000000Y-90000000D03*
X164000000Y-108000000D03*
X152000000Y-82000000D03*
X92000000Y-84000000D03*
X100000000Y-86000000D03*
X92000000Y-104000000D03*
X86000000Y-98000000D03*
X142000000Y-82000000D03*
X86000000Y-88000000D03*
X152000000Y-88000000D03*
X140000000Y-110000000D03*
X138000000Y-108000000D03*
X90000000Y-104000000D03*
X88000000Y-106000000D03*
X146000000Y-110000000D03*
X92000000Y-80000000D03*
X144000000Y-108000000D03*
X152000000Y-84000000D03*
X98525000Y-99000000D03*
X152000000Y-102000000D03*
X138000000Y-80000000D03*
X84000000Y-84000000D03*
X148000000Y-98000000D03*
X158000000Y-80000000D03*
X96000000Y-78000000D03*
X159138062Y-96346862D03*
X90000000Y-78000000D03*
X152000000Y-108000000D03*
X164000000Y-82000000D03*
X84000000Y-92000000D03*
X94000000Y-88000000D03*
X158000000Y-104000000D03*
X152000000Y-100000000D03*
X162000000Y-84000000D03*
X162000000Y-82000000D03*
X136000000Y-96000000D03*
X94000000Y-102000000D03*
X142000000Y-98000000D03*
X126000000Y-108000000D03*
X98000000Y-78000000D03*
X164000000Y-102000000D03*
X154000000Y-100000000D03*
X128000000Y-80000000D03*
X154000000Y-86000000D03*
X115875000Y-87300000D03*
X154000000Y-110000000D03*
X94000000Y-82000000D03*
X88000000Y-84000000D03*
X88000000Y-82000000D03*
X164000000Y-104000000D03*
X162000000Y-106000000D03*
X86000000Y-94000000D03*
X150000000Y-84000000D03*
X160000000Y-100000000D03*
X150000000Y-90000000D03*
X146000000Y-84000000D03*
X154000000Y-102000000D03*
X154000000Y-88000000D03*
X152000000Y-110000000D03*
X146000000Y-92000000D03*
X154000000Y-108000000D03*
X150000000Y-92000000D03*
X136000000Y-94000000D03*
X92000000Y-102000000D03*
X158230000Y-99484412D03*
X84000000Y-96000000D03*
X96000000Y-82000000D03*
X156000000Y-90000000D03*
X148000000Y-94000000D03*
X98000000Y-110000000D03*
X160000000Y-88000000D03*
X98000000Y-86000000D03*
X86000000Y-82000000D03*
X162000000Y-102000000D03*
X154000000Y-104000000D03*
X146000000Y-80000000D03*
X130000000Y-80000000D03*
X108000000Y-80000000D03*
X148000000Y-90000000D03*
X138000000Y-94000000D03*
X160000000Y-86000000D03*
X132000000Y-84000000D03*
X86000000Y-84000000D03*
X134000000Y-90000000D03*
X138000000Y-90000000D03*
X164000000Y-100000000D03*
X136000000Y-88000000D03*
X164000000Y-110000000D03*
X84000000Y-100000000D03*
X136000000Y-78000000D03*
X156130000Y-98539118D03*
X126000000Y-80000000D03*
X156000000Y-82000000D03*
X100000000Y-80000000D03*
X98000000Y-82000000D03*
X140000000Y-102000000D03*
X144000000Y-90000000D03*
X160000000Y-90000000D03*
X164000000Y-88000000D03*
X150000000Y-94000000D03*
X156000000Y-84000000D03*
X138000000Y-98000000D03*
X164000000Y-80000000D03*
X94000000Y-78000000D03*
X138000000Y-88000000D03*
X142000000Y-78000000D03*
X86000000Y-90000000D03*
X140000000Y-78000000D03*
X84000000Y-88000000D03*
X86000000Y-100000000D03*
X160527897Y-95544441D03*
X158000000Y-78000000D03*
X96000000Y-80000000D03*
X136000000Y-90000000D03*
X157653138Y-94861938D03*
X92000000Y-96000000D03*
X98000000Y-80000000D03*
X88000000Y-88000000D03*
X144000000Y-92000000D03*
X92000000Y-108000000D03*
%TO.N,+3.3VA*%
X113064000Y-94235200D03*
X115162500Y-105762500D03*
%TO.N,~{RST}*%
X93500000Y-85500000D03*
X100120000Y-106010000D03*
X92750000Y-89250000D03*
X108999900Y-84000000D03*
X118977300Y-98625000D03*
X118125000Y-107975000D03*
%TO.N,SWCLK*%
X114926833Y-86700000D03*
%TO.N,SWDIO*%
X118321843Y-87178127D03*
%TO.N,VBUS*%
X93925000Y-94250000D03*
X104225000Y-100150000D03*
X90500000Y-92500000D03*
%TO.N,I2C1_SCL*%
X111889000Y-90950000D03*
%TO.N,I2C1_SDA*%
X110850000Y-96800000D03*
%TO.N,BUSY*%
X129570000Y-100520000D03*
X140683786Y-103974999D03*
%TO.N,~{NRST}*%
X141240000Y-104550000D03*
X127560000Y-99360000D03*
%TO.N,SP1_MISO*%
X131020000Y-95630000D03*
X129317297Y-95625000D03*
%TO.N,PC5*%
X125140000Y-94270000D03*
%TO.N,PB0*%
X119275000Y-91650000D03*
X121376191Y-92391247D03*
X106739673Y-80085328D03*
X123095735Y-93664265D03*
%TO.N,PB1*%
X116900000Y-89750000D03*
%TO.N,RXEN*%
X129475000Y-92200000D03*
X147220000Y-85800000D03*
%TO.N,TXEN*%
X129467401Y-91400033D03*
X144950000Y-85220000D03*
%TO.N,PC6*%
X123975000Y-79800000D03*
X124219100Y-86210300D03*
%TO.N,PC7*%
X120568413Y-84268413D03*
%TO.N,PC8*%
X122200000Y-86875000D03*
%TO.N,DIO1*%
X141240000Y-103400000D03*
X124960000Y-90594500D03*
%TO.N,PA9*%
X132258100Y-110684400D03*
X120776191Y-91733632D03*
%TO.N,PA10*%
X117800000Y-91858878D03*
%TO.N,SPI3_SCK*%
X110000000Y-91550000D03*
%TO.N,SPI3_MISO*%
X110775000Y-92125000D03*
%TO.N,SPI3_MOSI*%
X109250000Y-92781800D03*
%TO.N,FLASH_~{CS}*%
X110725000Y-93660200D03*
%TO.N,PB4*%
X114712348Y-94100200D03*
X116525000Y-108548100D03*
%TO.N,PB5*%
X118868700Y-95301400D03*
%TO.N,PB6*%
X106264550Y-103885450D03*
X106264550Y-102375000D03*
X106264550Y-99825000D03*
X110553837Y-94878837D03*
%TO.N,BOOT0*%
X107215000Y-84690000D03*
X112464000Y-97375000D03*
%TO.N,PB9*%
X114552165Y-96852165D03*
%TD*%
%TO.N,+3.3V*%
D21*
X103497000Y-90633400D02*
X103500000Y-90630000D01*
X101500000Y-99617299D02*
X101407701Y-99525000D01*
D22*
X113039000Y-96227855D02*
X113038999Y-96227854D01*
D21*
X102121000Y-89035500D02*
X101960000Y-88875000D01*
D22*
X102000000Y-87975000D02*
X102000000Y-88834999D01*
X110203500Y-105959400D02*
X110203500Y-110721500D01*
D21*
X102121000Y-90633400D02*
X102121000Y-89035500D01*
D22*
X109636700Y-111288300D02*
X105019800Y-111288300D01*
D21*
X103520000Y-90650000D02*
X103500000Y-90630000D01*
X100445999Y-99528800D02*
X101403901Y-99528800D01*
X98594999Y-100605001D02*
X99874999Y-100605001D01*
X101500000Y-107768500D02*
X103845000Y-110113500D01*
X98025000Y-93450000D02*
X99000000Y-93450000D01*
X101403901Y-99528800D02*
X101407701Y-99525000D01*
D22*
X102000000Y-88834999D02*
X101959999Y-88875000D01*
D21*
X125308413Y-82208413D02*
X129000000Y-82208413D01*
D22*
X110203500Y-110721500D02*
X109636700Y-111288300D01*
D21*
X100445999Y-100034001D02*
X100445999Y-99528800D01*
X103500000Y-90630000D02*
X103500000Y-92125000D01*
X101500000Y-105500000D02*
X101500000Y-107768500D01*
D22*
X113039000Y-98575000D02*
X113039000Y-96227855D01*
D21*
X102121000Y-90633400D02*
X103497000Y-90633400D01*
D22*
X116350000Y-84950000D02*
X116800000Y-85400000D01*
X116800000Y-85400000D02*
X116800000Y-87250000D01*
D21*
X101500000Y-104000000D02*
X101500000Y-99617299D01*
X105350000Y-90650000D02*
X103520000Y-90650000D01*
X95675000Y-95800000D02*
X98025000Y-93450000D01*
X99874999Y-100605001D02*
X100445999Y-100034001D01*
D22*
X114975000Y-98700001D02*
X114975000Y-99900000D01*
D21*
X103500000Y-92125000D02*
X103525000Y-92150000D01*
D22*
X105019800Y-111288300D02*
X103845000Y-110113500D01*
D21*
X102121000Y-90633400D02*
X102120500Y-90633400D01*
%TO.N,PB8*%
D22*
X117200000Y-106575000D02*
X117000000Y-106775000D01*
X114326586Y-88743413D02*
X117200000Y-91616827D01*
X121374373Y-96605627D02*
X129244999Y-104476252D01*
X129244999Y-104476252D02*
X129244999Y-110113500D01*
X114156587Y-88743413D02*
X114326586Y-88743413D01*
X117200000Y-91616827D02*
X117200000Y-106575000D01*
X111725000Y-88760624D02*
X107900000Y-88760624D01*
%TO.N,GND*%
X98310500Y-98785500D02*
X98310500Y-97808400D01*
X115225000Y-108440900D02*
X115225000Y-108875000D01*
X115625000Y-87050000D02*
X115625000Y-84175000D01*
X112743500Y-105959400D02*
X115225000Y-108440900D01*
X113039000Y-105663900D02*
X112743500Y-105959400D01*
X98525000Y-99000000D02*
X98310500Y-98785500D01*
X113039000Y-102300000D02*
X113039000Y-105663900D01*
X115875000Y-87300000D02*
X115625000Y-87050000D01*
%TO.N,+3.3VA*%
X113064000Y-94235200D02*
X113702600Y-94873800D01*
X113702600Y-104302600D02*
X115162500Y-105762500D01*
X113702600Y-94873800D02*
X113702600Y-104302600D01*
%TO.N,~{RST}*%
X92750000Y-89250000D02*
X94500000Y-91000000D01*
X108999900Y-84000000D02*
X95000000Y-84000000D01*
X94500000Y-91000000D02*
X94500000Y-100390000D01*
X118625000Y-98977300D02*
X118977300Y-98625000D01*
X118125000Y-107975000D02*
X118237500Y-107975000D01*
X95000000Y-84000000D02*
X93500000Y-85500000D01*
X118625000Y-107587500D02*
X118625000Y-98977300D01*
X94500000Y-100390000D02*
X100120000Y-106010000D01*
X118237500Y-107975000D02*
X118625000Y-107587500D01*
%TO.N,SWCLK*%
X114926833Y-86700000D02*
X114926833Y-83843167D01*
X114926833Y-83843167D02*
X116550000Y-82220000D01*
%TO.N,SWDIO*%
X118321843Y-82988157D02*
X119090000Y-82220000D01*
X118321843Y-87178127D02*
X118321843Y-82988157D01*
%TO.N,VBUS*%
D21*
X93925000Y-94250000D02*
X93250000Y-94250000D01*
X103725000Y-100650000D02*
X103725000Y-107453500D01*
X103725000Y-107453500D02*
X106385000Y-110113500D01*
X104225000Y-100150000D02*
X103725000Y-100650000D01*
X93250000Y-94250000D02*
X91500000Y-92500000D01*
X91500000Y-92500000D02*
X90500000Y-92500000D01*
%TO.N,I2C1_SCL*%
D22*
X111425000Y-102197900D02*
X107663500Y-105959400D01*
X111889000Y-90950000D02*
X111812500Y-90950000D01*
X111812500Y-90950000D02*
X111425000Y-91337500D01*
X111425000Y-91337500D02*
X111425000Y-102197900D01*
%TO.N,I2C1_SDA*%
X110650000Y-97000000D02*
X110650000Y-100432900D01*
X110650000Y-100432900D02*
X105123500Y-105959400D01*
X110850000Y-96800000D02*
X110650000Y-97000000D01*
%TO.N,BUSY*%
X140683786Y-103974999D02*
X133024999Y-103974999D01*
X133024999Y-103974999D02*
X129570000Y-100520000D01*
%TO.N,~{NRST}*%
X132750000Y-104550000D02*
X127560000Y-99360000D01*
X141240000Y-104550000D02*
X132750000Y-104550000D01*
%TO.N,SP1_MISO*%
X129322297Y-95630000D02*
X129317297Y-95625000D01*
X131020000Y-95630000D02*
X129322297Y-95630000D01*
%TO.N,PC5*%
X124550000Y-94270000D02*
X123400000Y-93120000D01*
X125140000Y-94270000D02*
X124550000Y-94270000D01*
X122900000Y-77930200D02*
X122193100Y-77223300D01*
X122900000Y-78848900D02*
X122900000Y-77930200D01*
X122193100Y-77223300D02*
X115156700Y-77223300D01*
X123400000Y-93120000D02*
X123400000Y-79348900D01*
X123400000Y-79348900D02*
X122900000Y-78848900D01*
X115156700Y-77223300D02*
X114005000Y-78375000D01*
%TO.N,PB0*%
X121611246Y-92391247D02*
X121376191Y-92391247D01*
X123095735Y-93664265D02*
X122883738Y-93664265D01*
X122869737Y-93649738D02*
X121611246Y-92391247D01*
X119275000Y-91650000D02*
X118725000Y-91100000D01*
X117436145Y-91100000D02*
X106739673Y-80403528D01*
X106739673Y-80403528D02*
X106739673Y-80085328D01*
X118725000Y-91100000D02*
X117436145Y-91100000D01*
X122869737Y-93650264D02*
X122869737Y-93649738D01*
X122883738Y-93664265D02*
X122869737Y-93650264D01*
%TO.N,PB1*%
X116680867Y-89750000D02*
X108925000Y-81994133D01*
X116900000Y-89750000D02*
X116680867Y-89750000D01*
X108925000Y-81994133D02*
X108925000Y-78375000D01*
%TO.N,RXEN*%
X135900000Y-85800000D02*
X147220000Y-85800000D01*
X129456587Y-92243413D02*
X135900000Y-85800000D01*
%TO.N,TXEN*%
X129448988Y-91443446D02*
X135672434Y-85220000D01*
X135672434Y-85220000D02*
X144950000Y-85220000D01*
%TO.N,PC6*%
X124500000Y-85929400D02*
X124219100Y-86210300D01*
X123975000Y-79800000D02*
X124500000Y-80325000D01*
X124500000Y-80325000D02*
X124500000Y-85929400D01*
%TO.N,PC7*%
X120300000Y-79590000D02*
X119085000Y-78375000D01*
X120568413Y-84268413D02*
X120300000Y-84000000D01*
X120300000Y-84000000D02*
X120300000Y-79590000D01*
%TO.N,PC8*%
X122755000Y-86320000D02*
X122755000Y-79505000D01*
X122755000Y-79505000D02*
X121625000Y-78375000D01*
X122200000Y-86875000D02*
X122755000Y-86320000D01*
%TO.N,DIO1*%
X124960000Y-90594500D02*
X126994500Y-90594500D01*
X126994500Y-90594500D02*
X139800000Y-103400000D01*
X139800000Y-103400000D02*
X141240000Y-103400000D01*
%TO.N,PA9*%
X120776191Y-91733632D02*
X120776191Y-94403791D01*
X120776191Y-94403791D02*
X132258100Y-105885700D01*
X132258100Y-105885700D02*
X132258100Y-110684400D01*
%TO.N,PA10*%
X117800000Y-106823529D02*
X117395000Y-107228529D01*
X117395000Y-109263500D02*
X116545000Y-110113500D01*
X117800000Y-91858878D02*
X117800000Y-106823529D01*
X117395000Y-107228529D02*
X117395000Y-109263500D01*
%TO.N,SPI3_SCK*%
X105073100Y-87400000D02*
X101391900Y-87400000D01*
X110000000Y-91550000D02*
X109223100Y-91550000D01*
X101391900Y-87400000D02*
X99580500Y-89211400D01*
X99580500Y-89211400D02*
X99580500Y-90633400D01*
X109223100Y-91550000D02*
X105073100Y-87400000D01*
%TO.N,SPI3_MISO*%
X110775000Y-92125000D02*
X110725000Y-92125000D01*
X100850500Y-97561300D02*
X100850500Y-97808400D01*
X103255600Y-95156200D02*
X100850500Y-97561300D01*
X107693800Y-95156200D02*
X103255600Y-95156200D01*
X110725000Y-92125000D02*
X107693800Y-95156200D01*
%TO.N,SPI3_MOSI*%
X98310500Y-90845900D02*
X98310500Y-90633400D01*
X100246400Y-92781800D02*
X98310500Y-90845900D01*
X109250000Y-92781800D02*
X100246400Y-92781800D01*
%TO.N,FLASH_~{CS}*%
X102121000Y-99217800D02*
X102428000Y-99525000D01*
X110725000Y-93660200D02*
X107921700Y-96463500D01*
X102121000Y-97674300D02*
X102121000Y-97808400D01*
X103331800Y-96463500D02*
X102121000Y-97674300D01*
X107921700Y-96463500D02*
X103331800Y-96463500D01*
X102120500Y-97808400D02*
X102121000Y-97808400D01*
X102121000Y-97808400D02*
X102121000Y-99217800D01*
%TO.N,PB4*%
X114712348Y-94745148D02*
X114712348Y-94100200D01*
X116525000Y-108548100D02*
X116006700Y-108029800D01*
X116006700Y-108029800D02*
X116006700Y-96039500D01*
X116006700Y-96039500D02*
X114712348Y-94745148D01*
%TO.N,PB5*%
X124165000Y-100597700D02*
X118868700Y-95301400D01*
X124165000Y-110113500D02*
X124165000Y-100597700D01*
%TO.N,PB6*%
X106264550Y-99825000D02*
X106264550Y-99168124D01*
X106264550Y-99168124D02*
X110553837Y-94878837D01*
X106264550Y-102375000D02*
X106264550Y-103885450D01*
%TO.N,BOOT0*%
X112464000Y-103545300D02*
X111465000Y-104544300D01*
X107215000Y-84690000D02*
X108667246Y-84690000D01*
X112464000Y-88486754D02*
X112464000Y-103545300D01*
X108667246Y-84690000D02*
X112464000Y-88486754D01*
X111465000Y-104544300D02*
X111465000Y-110113500D01*
%TO.N,PB9*%
X114552165Y-96852165D02*
X114112348Y-96412348D01*
X114112348Y-96412348D02*
X114112348Y-89512348D01*
X114112348Y-89512348D02*
X109574900Y-84974900D01*
X102455000Y-79525000D02*
X101305000Y-78375000D01*
X109574900Y-84974900D02*
X109574900Y-83733729D01*
X109574900Y-83733729D02*
X105366171Y-79525000D01*
X105366171Y-79525000D02*
X102455000Y-79525000D01*
%TO.N,Net-(U4-~{HOLD}{slash}~{RESET}{slash}IO_{3})*%
X100850500Y-90633400D02*
X100851000Y-90633400D01*
X100851000Y-90633400D02*
X100851000Y-88964500D01*
X100851000Y-88964500D02*
X100940000Y-88875000D01*
%TO.N,Net-(U4-~{WP}{slash}IO_{2})*%
X99580500Y-97808400D02*
X99580500Y-99374300D01*
X99580500Y-99374300D02*
X99426000Y-99528800D01*
%TD*%
%TA.AperFunction,Conductor*%
%TO.N,GND*%
G36*
X103457413Y-76819962D02*
G01*
X103511951Y-76874500D01*
X103531913Y-76949000D01*
X103511951Y-77023500D01*
X103457413Y-77078038D01*
X103428956Y-77090707D01*
X103326779Y-77123906D01*
X103137444Y-77220378D01*
X103083282Y-77259728D01*
X103083282Y-77259729D01*
X103715590Y-77892037D01*
X103652007Y-77909075D01*
X103537993Y-77974901D01*
X103444901Y-78067993D01*
X103379075Y-78182007D01*
X103362037Y-78245590D01*
X102729729Y-77613282D01*
X102729728Y-77613282D01*
X102690378Y-77667444D01*
X102637260Y-77771693D01*
X102585650Y-77829010D01*
X102512297Y-77852844D01*
X102436855Y-77836808D01*
X102379538Y-77785198D01*
X102355704Y-77711845D01*
X102355500Y-77704048D01*
X102355500Y-77505251D01*
X102343867Y-77446769D01*
X102329342Y-77425031D01*
X102299552Y-77380448D01*
X102233231Y-77336133D01*
X102233230Y-77336132D01*
X102174748Y-77324500D01*
X100435252Y-77324500D01*
X100376769Y-77336132D01*
X100310448Y-77380448D01*
X100266132Y-77446769D01*
X100254500Y-77505251D01*
X100254500Y-79244748D01*
X100266132Y-79303230D01*
X100266133Y-79303231D01*
X100310448Y-79369552D01*
X100376769Y-79413867D01*
X100435252Y-79425500D01*
X101904166Y-79425500D01*
X101978666Y-79445462D01*
X102009525Y-79469141D01*
X102298941Y-79758557D01*
X102298944Y-79758559D01*
X102345913Y-79778014D01*
X102400200Y-79800500D01*
X105190338Y-79800500D01*
X105264838Y-79820462D01*
X105295696Y-79844140D01*
X106370102Y-80918546D01*
X106408665Y-80985340D01*
X106408665Y-81062468D01*
X106370101Y-81129263D01*
X106303306Y-81167827D01*
X106293811Y-81170041D01*
X106093580Y-81209869D01*
X105902402Y-81289057D01*
X105730344Y-81404022D01*
X105584021Y-81550345D01*
X105469056Y-81722403D01*
X105389868Y-81913582D01*
X105349499Y-82116534D01*
X105349499Y-82323465D01*
X105363827Y-82395500D01*
X105389869Y-82526420D01*
X105390112Y-82527007D01*
X105469056Y-82717596D01*
X105584021Y-82889654D01*
X105730344Y-83035977D01*
X105902402Y-83150942D01*
X105981590Y-83183742D01*
X106093579Y-83230130D01*
X106296534Y-83270500D01*
X106503464Y-83270500D01*
X106706419Y-83230130D01*
X106897597Y-83150941D01*
X107069654Y-83035977D01*
X107215976Y-82889655D01*
X107330940Y-82717598D01*
X107334538Y-82708913D01*
X107344059Y-82685925D01*
X107410129Y-82526420D01*
X107449957Y-82326188D01*
X107484070Y-82257015D01*
X107548199Y-82214165D01*
X107625162Y-82209120D01*
X107694336Y-82243233D01*
X107701453Y-82249898D01*
X108782539Y-83330984D01*
X108821103Y-83397779D01*
X108821103Y-83474907D01*
X108782539Y-83541702D01*
X108751681Y-83565380D01*
X108692592Y-83599495D01*
X108692588Y-83599498D01*
X108692586Y-83599499D01*
X108692586Y-83599500D01*
X108611225Y-83680860D01*
X108544433Y-83719423D01*
X108505869Y-83724500D01*
X102577702Y-83724500D01*
X102503202Y-83704538D01*
X102448664Y-83650000D01*
X102428702Y-83575500D01*
X102448664Y-83501000D01*
X102488409Y-83456220D01*
X102527187Y-83427190D01*
X102527190Y-83427187D01*
X102613349Y-83312094D01*
X102613354Y-83312084D01*
X102663598Y-83177377D01*
X102669998Y-83117842D01*
X102670000Y-83117822D01*
X102670000Y-82821075D01*
X102689962Y-82746575D01*
X102744500Y-82692037D01*
X102819000Y-82672075D01*
X102893500Y-82692037D01*
X102942888Y-82738295D01*
X103044023Y-82889655D01*
X103044026Y-82889658D01*
X103190345Y-83035977D01*
X103362403Y-83150942D01*
X103441591Y-83183742D01*
X103553580Y-83230130D01*
X103756535Y-83270500D01*
X103963465Y-83270500D01*
X104166420Y-83230130D01*
X104357598Y-83150941D01*
X104529655Y-83035977D01*
X104675977Y-82889655D01*
X104790941Y-82717598D01*
X104794539Y-82708913D01*
X104804060Y-82685925D01*
X104870130Y-82526420D01*
X104910500Y-82323465D01*
X104910500Y-82116535D01*
X104870130Y-81913580D01*
X104809665Y-81767605D01*
X104790942Y-81722403D01*
X104675977Y-81550345D01*
X104529654Y-81404022D01*
X104357596Y-81289057D01*
X104199219Y-81223455D01*
X104166420Y-81209870D01*
X104166418Y-81209869D01*
X104166417Y-81209869D01*
X103963465Y-81169500D01*
X103756535Y-81169500D01*
X103553582Y-81209869D01*
X103362403Y-81289057D01*
X103190345Y-81404022D01*
X103044022Y-81550345D01*
X102942889Y-81701704D01*
X102884901Y-81752558D01*
X102809255Y-81767605D01*
X102736220Y-81742813D01*
X102685366Y-81684825D01*
X102670000Y-81618924D01*
X102670000Y-81322177D01*
X102669998Y-81322157D01*
X102663598Y-81262622D01*
X102613354Y-81127915D01*
X102613349Y-81127905D01*
X102527190Y-81012812D01*
X102527187Y-81012809D01*
X102412094Y-80926650D01*
X102412084Y-80926645D01*
X102277376Y-80876401D01*
X102277378Y-80876401D01*
X102217842Y-80870001D01*
X102217823Y-80870000D01*
X101570000Y-80870000D01*
X101570000Y-81786988D01*
X101512993Y-81754075D01*
X101385826Y-81720000D01*
X101254174Y-81720000D01*
X101127007Y-81754075D01*
X101070000Y-81786988D01*
X101070000Y-80870000D01*
X100422177Y-80870000D01*
X100422157Y-80870001D01*
X100362622Y-80876401D01*
X100227915Y-80926645D01*
X100227905Y-80926650D01*
X100112812Y-81012809D01*
X100112809Y-81012812D01*
X100026650Y-81127905D01*
X100026645Y-81127915D01*
X99976401Y-81262622D01*
X99970001Y-81322157D01*
X99970000Y-81322177D01*
X99970000Y-81970000D01*
X100886988Y-81970000D01*
X100854075Y-82027007D01*
X100820000Y-82154174D01*
X100820000Y-82285826D01*
X100854075Y-82412993D01*
X100886988Y-82470000D01*
X99970000Y-82470000D01*
X99970000Y-83117822D01*
X99970001Y-83117842D01*
X99976401Y-83177377D01*
X100026645Y-83312084D01*
X100026650Y-83312094D01*
X100112809Y-83427187D01*
X100112812Y-83427190D01*
X100151591Y-83456220D01*
X100199268Y-83516847D01*
X100210244Y-83593190D01*
X100181578Y-83664793D01*
X100120951Y-83712470D01*
X100062298Y-83724500D01*
X94945200Y-83724500D01*
X94873599Y-83754158D01*
X94843941Y-83766442D01*
X93654525Y-84955859D01*
X93587730Y-84994423D01*
X93549166Y-84999500D01*
X93434108Y-84999500D01*
X93306814Y-85033608D01*
X93306812Y-85033608D01*
X93306812Y-85033609D01*
X93192689Y-85099497D01*
X93099497Y-85192689D01*
X93037831Y-85299500D01*
X93033608Y-85306814D01*
X93021902Y-85350502D01*
X92999500Y-85434106D01*
X92999500Y-85565893D01*
X93000147Y-85568308D01*
X93033608Y-85693186D01*
X93057233Y-85734106D01*
X93099497Y-85807310D01*
X93099498Y-85807311D01*
X93099500Y-85807314D01*
X93192686Y-85900500D01*
X93192688Y-85900501D01*
X93192689Y-85900502D01*
X93220157Y-85916360D01*
X93306814Y-85966392D01*
X93434108Y-86000500D01*
X93565892Y-86000500D01*
X93693186Y-85966392D01*
X93807314Y-85900500D01*
X93900500Y-85807314D01*
X93966392Y-85693186D01*
X94000500Y-85565892D01*
X94000500Y-85450832D01*
X94020462Y-85376332D01*
X94044141Y-85345473D01*
X94285090Y-85104525D01*
X94813888Y-84575727D01*
X95070475Y-84319141D01*
X95137270Y-84280577D01*
X95175834Y-84275500D01*
X106618308Y-84275500D01*
X106692808Y-84295462D01*
X106747346Y-84350000D01*
X106767308Y-84424500D01*
X106750549Y-84487044D01*
X106752346Y-84487789D01*
X106748609Y-84496809D01*
X106714500Y-84624106D01*
X106714500Y-84755893D01*
X106717989Y-84768913D01*
X106748608Y-84883186D01*
X106766742Y-84914595D01*
X106814497Y-84997310D01*
X106814498Y-84997311D01*
X106814500Y-84997314D01*
X106907686Y-85090500D01*
X107021814Y-85156392D01*
X107149108Y-85190500D01*
X107280892Y-85190500D01*
X107408186Y-85156392D01*
X107522314Y-85090500D01*
X107603674Y-85009139D01*
X107670467Y-84970577D01*
X107709031Y-84965500D01*
X108491413Y-84965500D01*
X108565913Y-84985462D01*
X108596772Y-85009141D01*
X111625402Y-88037771D01*
X111663966Y-88104566D01*
X111663966Y-88181694D01*
X111625402Y-88248489D01*
X111558609Y-88287052D01*
X111547798Y-88289949D01*
X111531812Y-88294232D01*
X111417689Y-88360121D01*
X111417688Y-88360122D01*
X111417686Y-88360123D01*
X111417686Y-88360124D01*
X111336325Y-88441484D01*
X111269533Y-88480047D01*
X111230969Y-88485124D01*
X108394031Y-88485124D01*
X108319531Y-88465162D01*
X108288676Y-88441486D01*
X108207314Y-88360124D01*
X108207311Y-88360122D01*
X108207310Y-88360121D01*
X108116068Y-88307443D01*
X108093186Y-88294232D01*
X107965892Y-88260124D01*
X107834108Y-88260124D01*
X107706814Y-88294232D01*
X107706812Y-88294232D01*
X107706812Y-88294233D01*
X107592689Y-88360121D01*
X107499497Y-88453313D01*
X107433609Y-88567436D01*
X107399500Y-88694730D01*
X107399500Y-88826517D01*
X107408904Y-88861612D01*
X107430627Y-88942686D01*
X107433609Y-88953813D01*
X107437470Y-88960500D01*
X107457432Y-89035000D01*
X107437469Y-89109500D01*
X107382931Y-89164037D01*
X107308431Y-89183999D01*
X107233931Y-89164036D01*
X107203073Y-89140358D01*
X106230901Y-88168186D01*
X105229158Y-87166443D01*
X105229156Y-87166442D01*
X105229155Y-87166441D01*
X105229009Y-87166381D01*
X105229009Y-87166380D01*
X105127900Y-87124500D01*
X101337100Y-87124500D01*
X101265499Y-87154158D01*
X101235841Y-87166442D01*
X99424442Y-88977843D01*
X99346944Y-89055341D01*
X99346943Y-89055341D01*
X99305000Y-89156600D01*
X99305000Y-89541576D01*
X99285038Y-89616076D01*
X99230500Y-89670614D01*
X99221444Y-89675435D01*
X99204151Y-89683889D01*
X99118486Y-89769554D01*
X99079360Y-89849589D01*
X99028706Y-89907751D01*
X98955757Y-89932795D01*
X98880059Y-89918008D01*
X98821897Y-89867354D01*
X98811640Y-89849589D01*
X98772513Y-89769554D01*
X98686845Y-89683886D01*
X98578008Y-89630679D01*
X98578009Y-89630679D01*
X98507452Y-89620400D01*
X98113557Y-89620400D01*
X98113546Y-89620401D01*
X98042989Y-89630679D01*
X97934155Y-89683885D01*
X97848486Y-89769554D01*
X97795279Y-89878390D01*
X97785000Y-89948940D01*
X97785000Y-91317842D01*
X97785001Y-91317853D01*
X97795279Y-91388410D01*
X97848485Y-91497244D01*
X97934154Y-91582913D01*
X98042991Y-91636120D01*
X98042990Y-91636120D01*
X98113540Y-91646399D01*
X98113544Y-91646399D01*
X98113551Y-91646400D01*
X98507448Y-91646399D01*
X98578009Y-91636120D01*
X98578014Y-91636117D01*
X98589067Y-91632703D01*
X98589962Y-91635602D01*
X98647500Y-91624353D01*
X98720453Y-91649384D01*
X98742627Y-91667642D01*
X100012843Y-92937858D01*
X100090342Y-93015357D01*
X100191600Y-93057300D01*
X108755969Y-93057300D01*
X108830469Y-93077262D01*
X108861323Y-93100937D01*
X108942686Y-93182300D01*
X108987153Y-93207973D01*
X109041691Y-93262509D01*
X109061654Y-93337009D01*
X109041693Y-93411509D01*
X109018013Y-93442370D01*
X107623326Y-94837059D01*
X107556531Y-94875623D01*
X107517967Y-94880700D01*
X103200800Y-94880700D01*
X103152041Y-94900897D01*
X103099541Y-94922643D01*
X103099540Y-94922644D01*
X101256773Y-96765410D01*
X101189978Y-96803974D01*
X101129951Y-96803974D01*
X101129459Y-96807348D01*
X101047452Y-96795400D01*
X100653557Y-96795400D01*
X100653546Y-96795401D01*
X100582989Y-96805679D01*
X100474155Y-96858885D01*
X100388486Y-96944554D01*
X100349360Y-97024589D01*
X100298706Y-97082751D01*
X100225757Y-97107795D01*
X100150059Y-97093008D01*
X100091897Y-97042354D01*
X100081640Y-97024589D01*
X100042513Y-96944554D01*
X99956845Y-96858886D01*
X99848008Y-96805679D01*
X99848009Y-96805679D01*
X99777452Y-96795400D01*
X99383557Y-96795400D01*
X99383546Y-96795401D01*
X99312989Y-96805679D01*
X99204155Y-96858885D01*
X99118486Y-96944554D01*
X99065279Y-97053390D01*
X99055000Y-97123940D01*
X99055000Y-98492842D01*
X99055001Y-98492853D01*
X99065279Y-98563410D01*
X99118485Y-98672244D01*
X99204153Y-98757912D01*
X99213395Y-98764511D01*
X99262427Y-98824048D01*
X99275121Y-98900124D01*
X99248077Y-98972355D01*
X99189785Y-99020814D01*
X99095597Y-99064734D01*
X99011935Y-99148396D01*
X98961934Y-99255624D01*
X98961932Y-99255631D01*
X98955501Y-99304481D01*
X98955501Y-99753118D01*
X98961932Y-99801968D01*
X98961934Y-99801975D01*
X99011935Y-99909203D01*
X99019412Y-99919881D01*
X99015750Y-99922444D01*
X99041438Y-99966937D01*
X99041438Y-100044065D01*
X99002874Y-100110860D01*
X98936079Y-100149424D01*
X98897515Y-100154501D01*
X98855635Y-100154501D01*
X98798515Y-100139195D01*
X98797210Y-100142347D01*
X98788189Y-100138610D01*
X98660891Y-100104501D01*
X98529107Y-100104501D01*
X98401813Y-100138609D01*
X98401811Y-100138609D01*
X98401811Y-100138610D01*
X98287688Y-100204498D01*
X98194496Y-100297690D01*
X98128608Y-100411813D01*
X98128607Y-100411815D01*
X98120615Y-100441641D01*
X98094499Y-100539107D01*
X98094499Y-100539109D01*
X98094499Y-100670893D01*
X98128607Y-100798187D01*
X98128608Y-100798188D01*
X98194496Y-100912311D01*
X98194497Y-100912312D01*
X98194499Y-100912315D01*
X98287685Y-101005501D01*
X98401813Y-101071393D01*
X98529107Y-101105501D01*
X98660891Y-101105501D01*
X98788185Y-101071393D01*
X98788188Y-101071391D01*
X98788189Y-101071391D01*
X98797210Y-101067655D01*
X98798515Y-101070807D01*
X98855628Y-101055501D01*
X99934305Y-101055501D01*
X99934308Y-101055501D01*
X100024672Y-101031287D01*
X100048886Y-101024800D01*
X100151613Y-100965490D01*
X100795143Y-100321959D01*
X100861936Y-100283397D01*
X100939064Y-100283397D01*
X101005859Y-100321961D01*
X101044423Y-100388756D01*
X101049500Y-100427320D01*
X101049500Y-103739363D01*
X101034201Y-103796486D01*
X101037346Y-103797789D01*
X101033609Y-103806809D01*
X100999500Y-103934106D01*
X100999500Y-103934108D01*
X100999500Y-104065892D01*
X101033608Y-104193186D01*
X101058623Y-104236514D01*
X101099497Y-104307310D01*
X101099498Y-104307311D01*
X101099500Y-104307314D01*
X101192686Y-104400500D01*
X101306814Y-104466392D01*
X101434108Y-104500500D01*
X101565892Y-104500500D01*
X101693186Y-104466392D01*
X101807314Y-104400500D01*
X101900500Y-104307314D01*
X101966392Y-104193186D01*
X102000500Y-104065892D01*
X102000500Y-103934108D01*
X101966392Y-103806814D01*
X101966390Y-103806811D01*
X101966390Y-103806809D01*
X101962654Y-103797789D01*
X101965798Y-103796486D01*
X101950500Y-103739363D01*
X101950500Y-100154496D01*
X101970462Y-100079996D01*
X102025000Y-100025458D01*
X102099500Y-100005496D01*
X102162469Y-100019456D01*
X102204526Y-100039068D01*
X102253383Y-100045500D01*
X102602015Y-100045500D01*
X102650872Y-100039068D01*
X102758103Y-99989065D01*
X102841764Y-99905404D01*
X102891767Y-99798173D01*
X102898199Y-99749316D01*
X102898199Y-99300684D01*
X102891767Y-99251827D01*
X102841764Y-99144596D01*
X102758103Y-99060935D01*
X102758102Y-99060934D01*
X102650874Y-99010933D01*
X102650872Y-99010932D01*
X102650869Y-99010931D01*
X102650867Y-99010931D01*
X102602008Y-99004499D01*
X102600028Y-99004369D01*
X102599398Y-99004155D01*
X102597178Y-99003863D01*
X102597236Y-99003421D01*
X102526995Y-98979571D01*
X102476146Y-98921578D01*
X102461106Y-98845931D01*
X102485904Y-98772898D01*
X102504418Y-98750340D01*
X102582512Y-98672247D01*
X102582512Y-98672245D01*
X102582514Y-98672244D01*
X102635720Y-98563409D01*
X102645999Y-98492859D01*
X102645999Y-98492853D01*
X102646000Y-98492849D01*
X102645999Y-97600632D01*
X102665961Y-97526133D01*
X102689640Y-97495274D01*
X102866358Y-97318557D01*
X103222415Y-96962500D01*
X103402275Y-96782641D01*
X103469070Y-96744077D01*
X103507634Y-96739000D01*
X107944341Y-96739000D01*
X108018841Y-96758962D01*
X108073379Y-96813500D01*
X108093341Y-96888000D01*
X108073379Y-96962500D01*
X108049700Y-96993359D01*
X106030994Y-99012065D01*
X106030993Y-99012065D01*
X105989050Y-99113324D01*
X105989050Y-99330969D01*
X105969088Y-99405469D01*
X105945412Y-99436323D01*
X105901267Y-99480469D01*
X105864048Y-99517688D01*
X105864047Y-99517689D01*
X105798159Y-99631812D01*
X105764050Y-99759106D01*
X105764050Y-99890893D01*
X105772504Y-99922444D01*
X105798158Y-100018186D01*
X105798159Y-100018187D01*
X105864047Y-100132310D01*
X105864048Y-100132311D01*
X105864050Y-100132314D01*
X105957236Y-100225500D01*
X106071364Y-100291392D01*
X106198658Y-100325500D01*
X106330442Y-100325500D01*
X106457736Y-100291392D01*
X106571864Y-100225500D01*
X106665050Y-100132314D01*
X106730942Y-100018186D01*
X106765050Y-99890892D01*
X106765050Y-99759108D01*
X106730942Y-99631814D01*
X106665050Y-99517686D01*
X106590182Y-99442818D01*
X106551620Y-99376026D01*
X106551620Y-99298898D01*
X106590181Y-99232107D01*
X110399310Y-95422977D01*
X110466105Y-95384414D01*
X110504669Y-95379337D01*
X110619729Y-95379337D01*
X110747023Y-95345229D01*
X110861151Y-95279337D01*
X110895143Y-95245344D01*
X110961936Y-95206782D01*
X111039064Y-95206782D01*
X111105859Y-95245346D01*
X111144423Y-95312141D01*
X111149500Y-95350705D01*
X111149500Y-96167914D01*
X111129538Y-96242414D01*
X111075000Y-96296952D01*
X111000500Y-96316914D01*
X110961936Y-96311837D01*
X110915895Y-96299500D01*
X110915892Y-96299500D01*
X110784108Y-96299500D01*
X110656814Y-96333608D01*
X110656812Y-96333608D01*
X110656812Y-96333609D01*
X110542689Y-96399497D01*
X110449497Y-96492689D01*
X110418830Y-96545807D01*
X110383608Y-96606814D01*
X110372915Y-96646721D01*
X110349500Y-96734106D01*
X110349500Y-96734108D01*
X110349500Y-96865892D01*
X110363477Y-96918057D01*
X110369423Y-96940245D01*
X110374500Y-96978810D01*
X110374500Y-100257066D01*
X110354538Y-100331566D01*
X110330859Y-100362425D01*
X106967103Y-103726180D01*
X106900308Y-103764744D01*
X106823180Y-103764744D01*
X106756385Y-103726180D01*
X106732706Y-103695320D01*
X106730940Y-103692262D01*
X106697048Y-103633558D01*
X106665054Y-103578142D01*
X106665051Y-103578138D01*
X106665050Y-103578136D01*
X106583689Y-103496775D01*
X106545127Y-103429983D01*
X106540050Y-103391419D01*
X106540050Y-102869031D01*
X106560012Y-102794531D01*
X106583687Y-102763676D01*
X106665050Y-102682314D01*
X106730942Y-102568186D01*
X106765050Y-102440892D01*
X106765050Y-102309108D01*
X106730942Y-102181814D01*
X106665050Y-102067686D01*
X106571864Y-101974500D01*
X106571861Y-101974498D01*
X106571860Y-101974497D01*
X106501064Y-101933623D01*
X106457736Y-101908608D01*
X106330442Y-101874500D01*
X106198658Y-101874500D01*
X106071364Y-101908608D01*
X106071362Y-101908608D01*
X106071362Y-101908609D01*
X105957239Y-101974497D01*
X105864047Y-102067689D01*
X105798159Y-102181812D01*
X105764050Y-102309106D01*
X105764050Y-102309108D01*
X105764050Y-102440892D01*
X105798158Y-102568186D01*
X105798159Y-102568187D01*
X105864047Y-102682310D01*
X105864048Y-102682311D01*
X105864050Y-102682314D01*
X105945410Y-102763674D01*
X105983973Y-102830467D01*
X105989050Y-102869031D01*
X105989050Y-103391419D01*
X105969088Y-103465919D01*
X105945412Y-103496773D01*
X105882141Y-103560045D01*
X105864048Y-103578138D01*
X105864047Y-103578139D01*
X105805506Y-103679537D01*
X105798158Y-103692264D01*
X105785538Y-103739363D01*
X105764050Y-103819556D01*
X105764050Y-103819558D01*
X105764050Y-103951342D01*
X105798158Y-104078636D01*
X105798159Y-104078637D01*
X105864047Y-104192760D01*
X105864048Y-104192761D01*
X105864050Y-104192764D01*
X105957236Y-104285950D01*
X105957238Y-104285951D01*
X105957239Y-104285952D01*
X106074421Y-104353607D01*
X106128959Y-104408145D01*
X106148921Y-104482645D01*
X106128959Y-104557145D01*
X106105280Y-104588004D01*
X105722416Y-104970867D01*
X105655621Y-105009431D01*
X105578493Y-105009431D01*
X105560038Y-105003166D01*
X105429921Y-104949270D01*
X105429917Y-104949269D01*
X105226965Y-104908900D01*
X105020035Y-104908900D01*
X104817082Y-104949269D01*
X104625903Y-105028457D01*
X104453845Y-105143422D01*
X104453841Y-105143426D01*
X104429859Y-105167409D01*
X104363064Y-105205973D01*
X104285936Y-105205973D01*
X104219141Y-105167409D01*
X104180577Y-105100614D01*
X104175500Y-105062050D01*
X104175500Y-100898321D01*
X104195462Y-100823821D01*
X104219141Y-100792962D01*
X104277134Y-100734969D01*
X104359255Y-100652847D01*
X104410466Y-100623280D01*
X104409162Y-100620130D01*
X104418180Y-100616393D01*
X104418186Y-100616392D01*
X104532314Y-100550500D01*
X104625500Y-100457314D01*
X104691392Y-100343186D01*
X104725500Y-100215892D01*
X104725500Y-100084108D01*
X104691392Y-99956814D01*
X104630295Y-99850991D01*
X104625502Y-99842689D01*
X104625501Y-99842688D01*
X104625500Y-99842686D01*
X104532314Y-99749500D01*
X104532311Y-99749498D01*
X104532310Y-99749497D01*
X104458376Y-99706812D01*
X104418186Y-99683608D01*
X104290892Y-99649500D01*
X104159108Y-99649500D01*
X104031814Y-99683608D01*
X104031812Y-99683608D01*
X104031812Y-99683609D01*
X103917689Y-99749497D01*
X103824498Y-99842688D01*
X103824495Y-99842692D01*
X103758608Y-99956812D01*
X103754871Y-99965836D01*
X103751728Y-99964534D01*
X103722152Y-100015741D01*
X103364515Y-100373380D01*
X103364509Y-100373387D01*
X103305201Y-100476113D01*
X103305201Y-100476114D01*
X103298713Y-100500327D01*
X103274500Y-100590687D01*
X103274500Y-107512810D01*
X103298713Y-107603172D01*
X103305202Y-107627391D01*
X103364506Y-107730107D01*
X103364509Y-107730111D01*
X103364511Y-107730114D01*
X104033994Y-108399597D01*
X104702428Y-109068031D01*
X105329604Y-109695207D01*
X105368168Y-109762002D01*
X105370382Y-109829634D01*
X105334499Y-110010034D01*
X105334499Y-110216965D01*
X105358496Y-110337610D01*
X105374869Y-110419920D01*
X105378364Y-110428358D01*
X105454056Y-110611095D01*
X105454057Y-110611096D01*
X105454058Y-110611098D01*
X105567596Y-110781021D01*
X105592388Y-110854055D01*
X105577341Y-110929701D01*
X105526487Y-110987689D01*
X105453452Y-111012481D01*
X105443707Y-111012800D01*
X105195634Y-111012800D01*
X105121134Y-110992838D01*
X105090275Y-110969159D01*
X104833531Y-110712415D01*
X104794967Y-110645620D01*
X104794967Y-110568492D01*
X104801227Y-110550052D01*
X104855130Y-110419920D01*
X104895500Y-110216965D01*
X104895500Y-110010035D01*
X104855130Y-109807080D01*
X104775941Y-109615902D01*
X104660977Y-109443845D01*
X104514655Y-109297523D01*
X104342598Y-109182559D01*
X104342597Y-109182558D01*
X104342595Y-109182557D01*
X104184796Y-109117195D01*
X104151420Y-109103370D01*
X104151418Y-109103369D01*
X104151417Y-109103369D01*
X103948465Y-109063000D01*
X103741535Y-109063000D01*
X103561136Y-109098883D01*
X103484173Y-109093838D01*
X103426709Y-109058105D01*
X101994141Y-107625537D01*
X101955577Y-107558742D01*
X101950500Y-107520178D01*
X101950500Y-105760636D01*
X101965804Y-105703517D01*
X101962653Y-105702212D01*
X101966386Y-105693195D01*
X101966392Y-105693186D01*
X102000500Y-105565892D01*
X102000500Y-105434108D01*
X101966392Y-105306814D01*
X101900500Y-105192686D01*
X101807314Y-105099500D01*
X101807311Y-105099498D01*
X101807310Y-105099497D01*
X101736514Y-105058623D01*
X101693186Y-105033608D01*
X101565892Y-104999500D01*
X101434108Y-104999500D01*
X101306814Y-105033608D01*
X101306812Y-105033608D01*
X101306812Y-105033609D01*
X101192689Y-105099497D01*
X101099497Y-105192689D01*
X101033609Y-105306812D01*
X101033608Y-105306814D01*
X101025393Y-105337474D01*
X100999500Y-105434106D01*
X100999500Y-105434108D01*
X100999500Y-105565892D01*
X101033608Y-105693186D01*
X101033609Y-105693187D01*
X101037347Y-105702212D01*
X101034192Y-105703518D01*
X101049500Y-105760616D01*
X101049500Y-107827810D01*
X101071284Y-107909107D01*
X101080202Y-107942391D01*
X101139506Y-108045107D01*
X101139509Y-108045111D01*
X101139511Y-108045114D01*
X101376707Y-108282310D01*
X101603538Y-108509141D01*
X101642102Y-108575936D01*
X101642102Y-108653064D01*
X101603538Y-108719859D01*
X101591951Y-108726548D01*
X101555000Y-108763500D01*
X101555000Y-109680488D01*
X101497993Y-109647575D01*
X101370826Y-109613500D01*
X101239174Y-109613500D01*
X101112007Y-109647575D01*
X101055000Y-109680488D01*
X101055000Y-108763500D01*
X100407177Y-108763500D01*
X100407157Y-108763501D01*
X100347622Y-108769901D01*
X100212915Y-108820145D01*
X100212905Y-108820150D01*
X100097812Y-108906309D01*
X100097809Y-108906312D01*
X100011650Y-109021405D01*
X100011645Y-109021415D01*
X99961401Y-109156122D01*
X99955001Y-109215657D01*
X99955000Y-109215677D01*
X99955000Y-109863500D01*
X100871988Y-109863500D01*
X100839075Y-109920507D01*
X100805000Y-110047674D01*
X100805000Y-110179326D01*
X100839075Y-110306493D01*
X100871988Y-110363500D01*
X99955000Y-110363500D01*
X99955000Y-111011322D01*
X99955001Y-111011342D01*
X99961401Y-111070877D01*
X100011645Y-111205584D01*
X100011650Y-111205594D01*
X100097809Y-111320687D01*
X100097812Y-111320690D01*
X100212905Y-111406849D01*
X100212915Y-111406854D01*
X100347623Y-111457098D01*
X100347621Y-111457098D01*
X100407157Y-111463498D01*
X100407177Y-111463500D01*
X101055000Y-111463500D01*
X101055000Y-110546512D01*
X101112007Y-110579425D01*
X101239174Y-110613500D01*
X101370826Y-110613500D01*
X101497993Y-110579425D01*
X101555000Y-110546512D01*
X101555000Y-111463500D01*
X102202823Y-111463500D01*
X102202842Y-111463498D01*
X102262377Y-111457098D01*
X102397084Y-111406854D01*
X102397094Y-111406849D01*
X102512187Y-111320690D01*
X102512190Y-111320687D01*
X102598349Y-111205594D01*
X102598354Y-111205584D01*
X102648598Y-111070877D01*
X102654998Y-111011342D01*
X102655000Y-111011322D01*
X102655000Y-110714575D01*
X102674962Y-110640075D01*
X102729500Y-110585537D01*
X102804000Y-110565575D01*
X102878500Y-110585537D01*
X102927888Y-110631795D01*
X103029023Y-110783155D01*
X103029026Y-110783158D01*
X103175345Y-110929477D01*
X103347403Y-111044442D01*
X103426591Y-111077242D01*
X103538580Y-111123630D01*
X103741535Y-111164000D01*
X103948465Y-111164000D01*
X104151415Y-111123631D01*
X104151415Y-111123630D01*
X104151420Y-111123630D01*
X104281542Y-111069731D01*
X104358004Y-111059665D01*
X104429261Y-111089180D01*
X104443907Y-111102023D01*
X104863741Y-111521857D01*
X104893399Y-111534141D01*
X104965000Y-111563800D01*
X109691499Y-111563800D01*
X109691500Y-111563800D01*
X109792758Y-111521857D01*
X109870257Y-111444358D01*
X109870256Y-111444358D01*
X110437057Y-110877559D01*
X110441451Y-110866947D01*
X110488401Y-110805757D01*
X110559656Y-110776238D01*
X110636125Y-110786301D01*
X110684471Y-110818603D01*
X110795345Y-110929477D01*
X110967403Y-111044442D01*
X111046591Y-111077242D01*
X111158580Y-111123630D01*
X111361535Y-111164000D01*
X111568465Y-111164000D01*
X111771420Y-111123630D01*
X111962598Y-111044441D01*
X112134655Y-110929477D01*
X112280977Y-110783155D01*
X112395941Y-110611098D01*
X112397480Y-110607384D01*
X112433685Y-110519976D01*
X112475130Y-110419920D01*
X112515500Y-110216965D01*
X112515500Y-110010035D01*
X112515500Y-110010034D01*
X112954500Y-110010034D01*
X112954500Y-110216965D01*
X112978497Y-110337610D01*
X112994870Y-110419920D01*
X112998365Y-110428358D01*
X113074057Y-110611096D01*
X113189022Y-110783154D01*
X113335345Y-110929477D01*
X113507403Y-111044442D01*
X113586591Y-111077242D01*
X113698580Y-111123630D01*
X113901535Y-111164000D01*
X114108465Y-111164000D01*
X114311420Y-111123630D01*
X114502598Y-111044441D01*
X114674655Y-110929477D01*
X114820977Y-110783155D01*
X114935941Y-110611098D01*
X114937480Y-110607384D01*
X114973685Y-110519976D01*
X115015130Y-110419920D01*
X115055500Y-110216965D01*
X115055500Y-110010035D01*
X115015130Y-109807080D01*
X114968742Y-109695091D01*
X114935942Y-109615903D01*
X114820977Y-109443845D01*
X114674654Y-109297522D01*
X114502596Y-109182557D01*
X114344219Y-109116955D01*
X114311420Y-109103370D01*
X114311418Y-109103369D01*
X114311417Y-109103369D01*
X114108465Y-109063000D01*
X113901535Y-109063000D01*
X113698582Y-109103369D01*
X113507403Y-109182557D01*
X113335345Y-109297522D01*
X113189022Y-109443845D01*
X113074057Y-109615903D01*
X112994869Y-109807082D01*
X112954500Y-110010034D01*
X112515500Y-110010034D01*
X112475130Y-109807080D01*
X112428742Y-109695091D01*
X112395942Y-109615903D01*
X112280977Y-109443845D01*
X112134654Y-109297522D01*
X111962597Y-109182558D01*
X111832479Y-109128661D01*
X111771290Y-109081708D01*
X111741775Y-109010450D01*
X111740500Y-108991003D01*
X111740500Y-107458400D01*
X111760462Y-107383900D01*
X111815000Y-107329362D01*
X111889500Y-107309400D01*
X112493500Y-107309400D01*
X112493500Y-106392412D01*
X112550507Y-106425325D01*
X112677674Y-106459400D01*
X112809326Y-106459400D01*
X112936493Y-106425325D01*
X112993500Y-106392412D01*
X112993500Y-107309400D01*
X113641323Y-107309400D01*
X113641342Y-107309398D01*
X113700877Y-107302998D01*
X113835584Y-107252754D01*
X113835594Y-107252749D01*
X113950687Y-107166590D01*
X113950690Y-107166587D01*
X114036849Y-107051494D01*
X114036854Y-107051484D01*
X114087098Y-106916777D01*
X114093498Y-106857242D01*
X114093500Y-106857222D01*
X114093500Y-106209400D01*
X113176512Y-106209400D01*
X113209425Y-106152393D01*
X113243500Y-106025226D01*
X113243500Y-105893574D01*
X113209425Y-105766407D01*
X113176512Y-105709400D01*
X114093500Y-105709400D01*
X114093500Y-105442833D01*
X114113462Y-105368333D01*
X114168000Y-105313795D01*
X114242500Y-105293833D01*
X114317000Y-105313795D01*
X114347855Y-105337471D01*
X114618360Y-105607976D01*
X114656923Y-105674769D01*
X114662000Y-105713333D01*
X114662000Y-105828393D01*
X114669380Y-105855934D01*
X114696108Y-105955686D01*
X114696109Y-105955687D01*
X114761997Y-106069810D01*
X114761998Y-106069811D01*
X114762000Y-106069814D01*
X114855186Y-106163000D01*
X114969314Y-106228892D01*
X115096608Y-106263000D01*
X115228392Y-106263000D01*
X115355686Y-106228892D01*
X115469814Y-106163000D01*
X115476843Y-106155970D01*
X115543636Y-106117408D01*
X115620764Y-106117408D01*
X115687559Y-106155972D01*
X115726123Y-106222767D01*
X115731200Y-106261331D01*
X115731200Y-108084599D01*
X115762984Y-108161333D01*
X115764682Y-108165431D01*
X115773143Y-108185858D01*
X115773144Y-108185859D01*
X115980859Y-108393574D01*
X116019423Y-108460369D01*
X116024500Y-108498933D01*
X116024500Y-108613992D01*
X116058608Y-108741286D01*
X116058609Y-108741287D01*
X116124497Y-108855410D01*
X116124498Y-108855411D01*
X116124500Y-108855414D01*
X116175565Y-108906479D01*
X116214128Y-108973272D01*
X116214128Y-109050400D01*
X116175564Y-109117195D01*
X116127226Y-109149494D01*
X116047402Y-109182558D01*
X115875345Y-109297522D01*
X115729022Y-109443845D01*
X115614057Y-109615903D01*
X115534869Y-109807082D01*
X115494500Y-110010034D01*
X115494500Y-110216965D01*
X115518497Y-110337610D01*
X115534870Y-110419920D01*
X115538365Y-110428358D01*
X115614057Y-110611096D01*
X115729022Y-110783154D01*
X115875345Y-110929477D01*
X116047403Y-111044442D01*
X116126591Y-111077242D01*
X116238580Y-111123630D01*
X116441535Y-111164000D01*
X116648465Y-111164000D01*
X116851420Y-111123630D01*
X117042598Y-111044441D01*
X117214655Y-110929477D01*
X117360977Y-110783155D01*
X117475941Y-110611098D01*
X117477480Y-110607384D01*
X117518233Y-110508997D01*
X117565185Y-110447807D01*
X117636442Y-110418291D01*
X117712910Y-110428358D01*
X117774100Y-110475310D01*
X117797598Y-110519972D01*
X117833907Y-110631722D01*
X117930379Y-110821055D01*
X117969729Y-110875216D01*
X117969730Y-110875216D01*
X118602038Y-110242908D01*
X118619076Y-110306493D01*
X118684902Y-110420507D01*
X118777994Y-110513599D01*
X118892008Y-110579425D01*
X118955591Y-110596462D01*
X118323283Y-111228770D01*
X118377445Y-111268121D01*
X118377445Y-111268122D01*
X118566780Y-111364593D01*
X118768872Y-111430257D01*
X118978759Y-111463500D01*
X119191243Y-111463500D01*
X119401129Y-111430257D01*
X119603221Y-111364593D01*
X119792556Y-111268122D01*
X119792558Y-111268120D01*
X119846717Y-111228770D01*
X119846717Y-111228769D01*
X119214410Y-110596462D01*
X119277994Y-110579425D01*
X119392008Y-110513599D01*
X119485100Y-110420507D01*
X119550926Y-110306493D01*
X119567963Y-110242909D01*
X120200270Y-110875216D01*
X120200271Y-110875216D01*
X120239621Y-110821057D01*
X120239623Y-110821055D01*
X120336092Y-110631724D01*
X120372401Y-110519976D01*
X120414407Y-110455290D01*
X120483129Y-110420274D01*
X120560151Y-110424310D01*
X120624837Y-110466316D01*
X120651767Y-110508998D01*
X120694057Y-110611095D01*
X120809022Y-110783154D01*
X120955345Y-110929477D01*
X121127403Y-111044442D01*
X121206591Y-111077242D01*
X121318580Y-111123630D01*
X121521535Y-111164000D01*
X121728465Y-111164000D01*
X121931420Y-111123630D01*
X122122598Y-111044441D01*
X122294655Y-110929477D01*
X122440977Y-110783155D01*
X122555941Y-110611098D01*
X122557480Y-110607384D01*
X122593685Y-110519976D01*
X122635130Y-110419920D01*
X122675500Y-110216965D01*
X122675500Y-110010035D01*
X122635130Y-109807080D01*
X122588742Y-109695091D01*
X122555942Y-109615903D01*
X122440977Y-109443845D01*
X122294654Y-109297522D01*
X122122596Y-109182557D01*
X121964219Y-109116955D01*
X121931420Y-109103370D01*
X121931418Y-109103369D01*
X121931417Y-109103369D01*
X121728465Y-109063000D01*
X121521535Y-109063000D01*
X121318582Y-109103369D01*
X121127403Y-109182557D01*
X120955345Y-109297522D01*
X120809022Y-109443845D01*
X120694058Y-109615902D01*
X120651767Y-109718002D01*
X120604814Y-109779191D01*
X120533556Y-109808706D01*
X120457088Y-109798639D01*
X120395899Y-109751686D01*
X120372401Y-109707023D01*
X120336092Y-109595275D01*
X120239622Y-109405944D01*
X120200271Y-109351782D01*
X119567963Y-109984089D01*
X119550926Y-109920507D01*
X119485100Y-109806493D01*
X119392008Y-109713401D01*
X119277994Y-109647575D01*
X119214408Y-109630537D01*
X119846717Y-108998229D01*
X119846717Y-108998228D01*
X119792556Y-108958878D01*
X119792556Y-108958877D01*
X119603221Y-108862406D01*
X119401129Y-108796742D01*
X119191243Y-108763500D01*
X118978759Y-108763500D01*
X118768872Y-108796742D01*
X118566780Y-108862406D01*
X118377445Y-108958878D01*
X118323283Y-108998228D01*
X118323283Y-108998229D01*
X118955591Y-109630537D01*
X118892008Y-109647575D01*
X118777994Y-109713401D01*
X118684902Y-109806493D01*
X118619076Y-109920507D01*
X118602038Y-109984090D01*
X117969730Y-109351782D01*
X117940044Y-109392642D01*
X117915935Y-109412164D01*
X117894000Y-109434100D01*
X117886298Y-109436163D01*
X117880104Y-109441180D01*
X117849465Y-109446032D01*
X117819500Y-109454062D01*
X117811799Y-109451998D01*
X117803925Y-109453246D01*
X117774962Y-109442128D01*
X117745000Y-109434100D01*
X117739363Y-109428463D01*
X117731920Y-109425606D01*
X117712397Y-109401497D01*
X117690462Y-109379562D01*
X117688398Y-109371860D01*
X117683382Y-109365666D01*
X117670500Y-109305062D01*
X117670500Y-108548597D01*
X117690462Y-108474097D01*
X117745000Y-108419559D01*
X117819500Y-108399597D01*
X117893996Y-108419558D01*
X117931814Y-108441392D01*
X118059108Y-108475500D01*
X118190892Y-108475500D01*
X118318186Y-108441392D01*
X118432314Y-108375500D01*
X118525500Y-108282314D01*
X118591392Y-108168186D01*
X118625500Y-108040892D01*
X118625500Y-108038333D01*
X118626162Y-108035862D01*
X118626774Y-108031213D01*
X118627386Y-108031293D01*
X118645462Y-107963833D01*
X118669141Y-107932974D01*
X118709584Y-107892531D01*
X118858558Y-107743558D01*
X118900500Y-107642300D01*
X118900500Y-107532700D01*
X118900500Y-99274500D01*
X118920462Y-99200000D01*
X118975000Y-99145462D01*
X119033895Y-99129681D01*
X119033513Y-99126774D01*
X119043185Y-99125500D01*
X119043192Y-99125500D01*
X119170486Y-99091392D01*
X119284614Y-99025500D01*
X119377800Y-98932314D01*
X119443692Y-98818186D01*
X119477800Y-98690892D01*
X119477800Y-98559108D01*
X119443692Y-98431814D01*
X119377800Y-98317686D01*
X119284614Y-98224500D01*
X119284611Y-98224498D01*
X119284610Y-98224497D01*
X119213814Y-98183623D01*
X119170486Y-98158608D01*
X119043192Y-98124500D01*
X118911408Y-98124500D01*
X118784114Y-98158608D01*
X118784112Y-98158608D01*
X118784112Y-98158609D01*
X118669989Y-98224497D01*
X118576797Y-98317689D01*
X118525871Y-98405897D01*
X118510908Y-98431814D01*
X118496702Y-98484833D01*
X118476800Y-98559106D01*
X118476800Y-98674167D01*
X118456838Y-98748667D01*
X118433159Y-98779526D01*
X118391444Y-98821241D01*
X118391443Y-98821241D01*
X118362158Y-98891942D01*
X118315205Y-98953131D01*
X118243947Y-98982646D01*
X118167479Y-98972579D01*
X118106290Y-98925626D01*
X118076775Y-98854368D01*
X118075500Y-98834921D01*
X118075500Y-95235508D01*
X118368200Y-95235508D01*
X118368200Y-95367292D01*
X118376830Y-95399500D01*
X118402308Y-95494586D01*
X118468197Y-95608710D01*
X118468198Y-95608711D01*
X118468200Y-95608714D01*
X118561386Y-95701900D01*
X118675514Y-95767792D01*
X118802808Y-95801900D01*
X118917867Y-95801900D01*
X118992367Y-95821862D01*
X119023226Y-95845541D01*
X123845859Y-100668174D01*
X123884423Y-100734969D01*
X123889500Y-100773533D01*
X123889500Y-108991003D01*
X123869538Y-109065503D01*
X123815000Y-109120041D01*
X123797521Y-109128661D01*
X123667402Y-109182558D01*
X123495345Y-109297522D01*
X123349022Y-109443845D01*
X123234057Y-109615903D01*
X123154869Y-109807082D01*
X123114500Y-110010034D01*
X123114500Y-110216965D01*
X123138497Y-110337610D01*
X123154870Y-110419920D01*
X123158365Y-110428358D01*
X123234057Y-110611096D01*
X123349022Y-110783154D01*
X123495345Y-110929477D01*
X123667403Y-111044442D01*
X123746591Y-111077242D01*
X123858580Y-111123630D01*
X124061535Y-111164000D01*
X124268465Y-111164000D01*
X124471420Y-111123630D01*
X124662598Y-111044441D01*
X124834655Y-110929477D01*
X124980977Y-110783155D01*
X125095941Y-110611098D01*
X125097480Y-110607384D01*
X125133685Y-110519976D01*
X125175130Y-110419920D01*
X125215500Y-110216965D01*
X125215500Y-110010035D01*
X125215500Y-110010034D01*
X125654500Y-110010034D01*
X125654500Y-110216965D01*
X125678497Y-110337610D01*
X125694870Y-110419920D01*
X125698365Y-110428358D01*
X125774057Y-110611096D01*
X125889022Y-110783154D01*
X126035345Y-110929477D01*
X126207403Y-111044442D01*
X126286591Y-111077242D01*
X126398580Y-111123630D01*
X126601535Y-111164000D01*
X126808465Y-111164000D01*
X127011420Y-111123630D01*
X127202598Y-111044441D01*
X127374655Y-110929477D01*
X127520977Y-110783155D01*
X127635941Y-110611098D01*
X127637480Y-110607384D01*
X127673685Y-110519976D01*
X127715130Y-110419920D01*
X127755500Y-110216965D01*
X127755500Y-110010035D01*
X127715130Y-109807080D01*
X127668742Y-109695091D01*
X127635942Y-109615903D01*
X127520977Y-109443845D01*
X127374654Y-109297522D01*
X127202596Y-109182557D01*
X127044219Y-109116955D01*
X127011420Y-109103370D01*
X127011418Y-109103369D01*
X127011417Y-109103369D01*
X126808465Y-109063000D01*
X126601535Y-109063000D01*
X126398582Y-109103369D01*
X126207403Y-109182557D01*
X126035345Y-109297522D01*
X125889022Y-109443845D01*
X125774057Y-109615903D01*
X125694869Y-109807082D01*
X125654500Y-110010034D01*
X125215500Y-110010034D01*
X125175130Y-109807080D01*
X125128742Y-109695091D01*
X125095942Y-109615903D01*
X124980977Y-109443845D01*
X124834654Y-109297522D01*
X124662597Y-109182558D01*
X124532479Y-109128661D01*
X124471290Y-109081708D01*
X124441775Y-109010450D01*
X124440500Y-108991003D01*
X124440500Y-100542899D01*
X124408315Y-100465199D01*
X124408315Y-100465198D01*
X124398557Y-100441642D01*
X124398557Y-100441641D01*
X122878494Y-98921578D01*
X121317400Y-97360485D01*
X121278837Y-97293691D01*
X121278837Y-97216563D01*
X121317401Y-97149768D01*
X121384196Y-97111204D01*
X121422760Y-97106127D01*
X121423540Y-97106127D01*
X121498040Y-97126089D01*
X121528899Y-97149768D01*
X128925858Y-104546727D01*
X128964422Y-104613522D01*
X128969499Y-104652086D01*
X128969499Y-108991003D01*
X128949537Y-109065503D01*
X128894999Y-109120041D01*
X128877520Y-109128661D01*
X128747401Y-109182558D01*
X128575344Y-109297522D01*
X128429021Y-109443845D01*
X128314056Y-109615903D01*
X128234868Y-109807082D01*
X128194499Y-110010034D01*
X128194499Y-110216965D01*
X128218496Y-110337610D01*
X128234869Y-110419920D01*
X128238364Y-110428358D01*
X128314056Y-110611096D01*
X128429021Y-110783154D01*
X128575344Y-110929477D01*
X128747402Y-111044442D01*
X128826590Y-111077242D01*
X128938579Y-111123630D01*
X129141534Y-111164000D01*
X129348464Y-111164000D01*
X129551419Y-111123630D01*
X129742597Y-111044441D01*
X129914654Y-110929477D01*
X130060976Y-110783155D01*
X130175940Y-110611098D01*
X130177479Y-110607384D01*
X130213684Y-110519976D01*
X130255129Y-110419920D01*
X130295499Y-110216965D01*
X130295499Y-110010035D01*
X130255129Y-109807080D01*
X130208741Y-109695091D01*
X130175941Y-109615903D01*
X130060976Y-109443845D01*
X129914653Y-109297522D01*
X129742596Y-109182558D01*
X129612478Y-109128661D01*
X129551289Y-109081708D01*
X129521774Y-109010450D01*
X129520499Y-108991003D01*
X129520499Y-104421452D01*
X129511820Y-104400500D01*
X129490840Y-104349851D01*
X129478556Y-104320193D01*
X123770214Y-98611852D01*
X121918514Y-96760152D01*
X121879950Y-96693357D01*
X121874873Y-96654793D01*
X121874873Y-96539735D01*
X121874872Y-96539733D01*
X121840765Y-96412441D01*
X121776135Y-96300499D01*
X121774875Y-96298316D01*
X121774874Y-96298315D01*
X121774873Y-96298313D01*
X121681687Y-96205127D01*
X121681684Y-96205125D01*
X121681683Y-96205124D01*
X121592466Y-96153615D01*
X121567559Y-96139235D01*
X121440265Y-96105127D01*
X121308481Y-96105127D01*
X121181187Y-96139235D01*
X121181185Y-96139235D01*
X121181185Y-96139236D01*
X121067062Y-96205124D01*
X120973870Y-96298316D01*
X120907982Y-96412439D01*
X120873873Y-96539733D01*
X120873873Y-96557239D01*
X120853911Y-96631739D01*
X120799373Y-96686277D01*
X120724873Y-96706239D01*
X120650373Y-96686277D01*
X120619514Y-96662598D01*
X119412841Y-95455925D01*
X119374277Y-95389130D01*
X119369200Y-95350566D01*
X119369200Y-95235508D01*
X119369199Y-95235506D01*
X119367590Y-95229500D01*
X119335092Y-95108214D01*
X119269200Y-94994086D01*
X119176014Y-94900900D01*
X119176011Y-94900898D01*
X119176010Y-94900897D01*
X119065438Y-94837059D01*
X119061886Y-94835008D01*
X118934592Y-94800900D01*
X118802808Y-94800900D01*
X118675514Y-94835008D01*
X118675512Y-94835008D01*
X118675512Y-94835009D01*
X118561389Y-94900897D01*
X118468197Y-94994089D01*
X118409660Y-95095480D01*
X118402308Y-95108214D01*
X118368200Y-95235508D01*
X118075500Y-95235508D01*
X118075500Y-92352909D01*
X118095462Y-92278409D01*
X118119137Y-92247554D01*
X118200500Y-92166192D01*
X118266392Y-92052064D01*
X118300500Y-91924770D01*
X118300500Y-91792986D01*
X118300500Y-91792984D01*
X118291360Y-91758876D01*
X118266392Y-91665692D01*
X118227886Y-91598999D01*
X118222523Y-91578983D01*
X118212436Y-91560885D01*
X118212715Y-91542378D01*
X118207925Y-91524500D01*
X118213287Y-91504484D01*
X118213601Y-91483765D01*
X118223096Y-91467877D01*
X118227887Y-91450000D01*
X118242539Y-91435347D01*
X118253170Y-91417561D01*
X118269336Y-91408550D01*
X118282425Y-91395462D01*
X118302441Y-91390098D01*
X118320540Y-91380011D01*
X118356925Y-91375500D01*
X118549167Y-91375500D01*
X118623667Y-91395462D01*
X118654524Y-91419140D01*
X118730859Y-91495475D01*
X118731440Y-91496481D01*
X118732439Y-91497078D01*
X118750682Y-91529809D01*
X118769423Y-91562269D01*
X118769623Y-91563792D01*
X118769989Y-91564448D01*
X118769960Y-91566349D01*
X118774500Y-91600833D01*
X118774500Y-91715893D01*
X118781428Y-91741747D01*
X118808608Y-91843186D01*
X118816765Y-91857314D01*
X118874497Y-91957310D01*
X118874498Y-91957311D01*
X118874500Y-91957314D01*
X118967686Y-92050500D01*
X118967688Y-92050501D01*
X118967689Y-92050502D01*
X118982595Y-92059108D01*
X119081814Y-92116392D01*
X119209108Y-92150500D01*
X119340892Y-92150500D01*
X119468186Y-92116392D01*
X119582314Y-92050500D01*
X119675500Y-91957314D01*
X119741392Y-91843186D01*
X119775500Y-91715892D01*
X119775500Y-91584108D01*
X119741392Y-91456814D01*
X119675500Y-91342686D01*
X119582314Y-91249500D01*
X119582311Y-91249498D01*
X119582310Y-91249497D01*
X119493784Y-91198387D01*
X119468186Y-91183608D01*
X119340892Y-91149500D01*
X119225834Y-91149500D01*
X119151334Y-91129538D01*
X119120475Y-91105859D01*
X118881059Y-90866444D01*
X118881058Y-90866443D01*
X118869984Y-90861856D01*
X118869974Y-90861852D01*
X118779800Y-90824500D01*
X117611979Y-90824500D01*
X117537479Y-90804538D01*
X117506620Y-90780859D01*
X117134741Y-90408980D01*
X117096177Y-90342185D01*
X117096177Y-90265057D01*
X117134741Y-90198262D01*
X117165599Y-90174584D01*
X117207314Y-90150500D01*
X117300500Y-90057314D01*
X117366392Y-89943186D01*
X117400500Y-89815892D01*
X117400500Y-89684108D01*
X117366392Y-89556814D01*
X117303943Y-89448649D01*
X117300502Y-89442689D01*
X117300501Y-89442688D01*
X117300500Y-89442686D01*
X117207314Y-89349500D01*
X117207311Y-89349498D01*
X117207310Y-89349497D01*
X117136514Y-89308623D01*
X117093186Y-89283608D01*
X116965892Y-89249500D01*
X116834108Y-89249500D01*
X116834104Y-89249500D01*
X116715642Y-89281242D01*
X116713286Y-89281874D01*
X116708893Y-89283051D01*
X116631765Y-89283051D01*
X116564970Y-89244487D01*
X114775342Y-87454859D01*
X114736778Y-87388064D01*
X114736778Y-87310936D01*
X114775342Y-87244141D01*
X114842137Y-87205577D01*
X114880701Y-87200500D01*
X114992725Y-87200500D01*
X115120019Y-87166392D01*
X115234147Y-87100500D01*
X115327333Y-87007314D01*
X115393225Y-86893186D01*
X115427333Y-86765892D01*
X115427333Y-86634108D01*
X115393225Y-86506814D01*
X115333569Y-86403487D01*
X115327335Y-86392689D01*
X115327334Y-86392688D01*
X115327333Y-86392686D01*
X115245972Y-86311325D01*
X115207410Y-86244533D01*
X115202333Y-86205969D01*
X115202333Y-84884106D01*
X115849500Y-84884106D01*
X115849500Y-85015893D01*
X115854247Y-85033608D01*
X115883608Y-85143186D01*
X115891233Y-85156392D01*
X115949497Y-85257310D01*
X115949498Y-85257311D01*
X115949500Y-85257314D01*
X116042686Y-85350500D01*
X116156814Y-85416392D01*
X116284108Y-85450500D01*
X116375500Y-85450500D01*
X116450000Y-85470462D01*
X116504538Y-85525000D01*
X116524500Y-85599500D01*
X116524500Y-86755969D01*
X116504538Y-86830469D01*
X116480862Y-86861323D01*
X116401295Y-86940891D01*
X116399498Y-86942688D01*
X116399497Y-86942689D01*
X116333609Y-87056812D01*
X116333608Y-87056814D01*
X116321902Y-87100502D01*
X116299500Y-87184106D01*
X116299500Y-87184108D01*
X116299500Y-87315892D01*
X116333608Y-87443186D01*
X116355104Y-87480418D01*
X116399497Y-87557310D01*
X116399498Y-87557311D01*
X116399500Y-87557314D01*
X116492686Y-87650500D01*
X116606814Y-87716392D01*
X116734108Y-87750500D01*
X116865892Y-87750500D01*
X116993186Y-87716392D01*
X117107314Y-87650500D01*
X117200500Y-87557314D01*
X117266392Y-87443186D01*
X117300500Y-87315892D01*
X117300500Y-87184108D01*
X117266392Y-87056814D01*
X117200500Y-86942686D01*
X117119139Y-86861325D01*
X117080577Y-86794533D01*
X117075500Y-86755969D01*
X117075500Y-85345200D01*
X117033557Y-85243943D01*
X117033557Y-85243942D01*
X117033557Y-85243941D01*
X116894141Y-85104525D01*
X116855577Y-85037730D01*
X116850500Y-84999166D01*
X116850500Y-84884108D01*
X116850499Y-84884106D01*
X116850253Y-84883187D01*
X116816392Y-84756814D01*
X116750500Y-84642686D01*
X116657314Y-84549500D01*
X116657311Y-84549498D01*
X116657310Y-84549497D01*
X116586514Y-84508623D01*
X116543186Y-84483608D01*
X116415892Y-84449500D01*
X116284108Y-84449500D01*
X116156814Y-84483608D01*
X116156812Y-84483608D01*
X116156812Y-84483609D01*
X116042689Y-84549497D01*
X115949497Y-84642689D01*
X115905151Y-84719500D01*
X115883608Y-84756814D01*
X115880366Y-84768913D01*
X115849500Y-84884106D01*
X115202333Y-84884106D01*
X115202333Y-84018999D01*
X115222295Y-83944499D01*
X115245970Y-83913644D01*
X115951083Y-83208530D01*
X116017876Y-83169968D01*
X116095004Y-83169968D01*
X116113460Y-83176233D01*
X116134196Y-83184822D01*
X116243579Y-83230130D01*
X116446534Y-83270500D01*
X116653464Y-83270500D01*
X116856419Y-83230130D01*
X117047597Y-83150941D01*
X117219654Y-83035977D01*
X117365976Y-82889655D01*
X117480940Y-82717598D01*
X117484538Y-82708913D01*
X117494059Y-82685925D01*
X117560129Y-82526420D01*
X117600499Y-82323465D01*
X117600499Y-82116535D01*
X117560129Y-81913580D01*
X117499664Y-81767605D01*
X117480941Y-81722403D01*
X117365976Y-81550345D01*
X117219653Y-81404022D01*
X117047595Y-81289057D01*
X116889218Y-81223455D01*
X116856419Y-81209870D01*
X116856417Y-81209869D01*
X116856416Y-81209869D01*
X116653464Y-81169500D01*
X116446534Y-81169500D01*
X116243581Y-81209869D01*
X116052402Y-81289057D01*
X115880344Y-81404022D01*
X115734021Y-81550345D01*
X115619056Y-81722403D01*
X115539868Y-81913582D01*
X115499499Y-82116534D01*
X115499499Y-82323465D01*
X115539868Y-82526417D01*
X115539869Y-82526421D01*
X115593765Y-82656539D01*
X115603832Y-82733007D01*
X115574316Y-82804264D01*
X115561466Y-82818917D01*
X114770775Y-83609610D01*
X114693277Y-83687108D01*
X114693276Y-83687108D01*
X114651333Y-83788367D01*
X114651333Y-86205969D01*
X114631371Y-86280469D01*
X114607695Y-86311323D01*
X114549596Y-86369423D01*
X114526331Y-86392688D01*
X114526330Y-86392689D01*
X114460442Y-86506812D01*
X114460441Y-86506814D01*
X114452832Y-86535213D01*
X114426333Y-86634106D01*
X114426333Y-86746132D01*
X114406371Y-86820632D01*
X114351833Y-86875170D01*
X114277333Y-86895132D01*
X114202833Y-86875170D01*
X114171974Y-86851491D01*
X111144842Y-83824359D01*
X111106278Y-83757564D01*
X111106278Y-83680436D01*
X111144842Y-83613641D01*
X111211637Y-83575077D01*
X111215421Y-83574578D01*
X111220000Y-83570000D01*
X111220000Y-82653012D01*
X111277007Y-82685925D01*
X111404174Y-82720000D01*
X111535826Y-82720000D01*
X111662993Y-82685925D01*
X111720000Y-82653012D01*
X111720000Y-83570000D01*
X112367823Y-83570000D01*
X112367842Y-83569998D01*
X112427377Y-83563598D01*
X112562084Y-83513354D01*
X112562094Y-83513349D01*
X112677187Y-83427190D01*
X112677190Y-83427187D01*
X112763349Y-83312094D01*
X112763354Y-83312084D01*
X112813598Y-83177377D01*
X112819998Y-83117842D01*
X112820000Y-83117822D01*
X112820000Y-82821075D01*
X112839962Y-82746575D01*
X112894500Y-82692037D01*
X112969000Y-82672075D01*
X113043500Y-82692037D01*
X113092888Y-82738295D01*
X113194023Y-82889655D01*
X113194026Y-82889658D01*
X113340345Y-83035977D01*
X113512403Y-83150942D01*
X113591591Y-83183742D01*
X113703580Y-83230130D01*
X113906535Y-83270500D01*
X114113465Y-83270500D01*
X114316420Y-83230130D01*
X114507598Y-83150941D01*
X114679655Y-83035977D01*
X114825977Y-82889655D01*
X114940941Y-82717598D01*
X114944539Y-82708913D01*
X114954060Y-82685925D01*
X115020130Y-82526420D01*
X115060500Y-82323465D01*
X115060500Y-82116535D01*
X115020130Y-81913580D01*
X114959665Y-81767605D01*
X114940942Y-81722403D01*
X114825977Y-81550345D01*
X114679654Y-81404022D01*
X114507596Y-81289057D01*
X114349219Y-81223455D01*
X114316420Y-81209870D01*
X114316418Y-81209869D01*
X114316417Y-81209869D01*
X114113465Y-81169500D01*
X113906535Y-81169500D01*
X113703582Y-81209869D01*
X113512403Y-81289057D01*
X113340345Y-81404022D01*
X113194022Y-81550345D01*
X113092889Y-81701704D01*
X113034901Y-81752558D01*
X112959255Y-81767605D01*
X112886220Y-81742813D01*
X112835366Y-81684825D01*
X112820000Y-81618924D01*
X112820000Y-81322177D01*
X112819998Y-81322157D01*
X112813598Y-81262622D01*
X112763354Y-81127915D01*
X112763349Y-81127905D01*
X112677190Y-81012812D01*
X112677187Y-81012809D01*
X112562094Y-80926650D01*
X112562084Y-80926645D01*
X112427376Y-80876401D01*
X112427378Y-80876401D01*
X112367842Y-80870001D01*
X112367823Y-80870000D01*
X111720000Y-80870000D01*
X111720000Y-81786988D01*
X111662993Y-81754075D01*
X111535826Y-81720000D01*
X111404174Y-81720000D01*
X111277007Y-81754075D01*
X111220000Y-81786988D01*
X111220000Y-80870000D01*
X110572177Y-80870000D01*
X110572157Y-80870001D01*
X110512622Y-80876401D01*
X110377915Y-80926645D01*
X110377905Y-80926650D01*
X110262812Y-81012809D01*
X110262809Y-81012812D01*
X110176650Y-81127905D01*
X110176645Y-81127915D01*
X110126401Y-81262622D01*
X110120001Y-81322157D01*
X110120000Y-81322177D01*
X110120000Y-81970000D01*
X111036988Y-81970000D01*
X111004075Y-82027007D01*
X110970000Y-82154174D01*
X110970000Y-82285826D01*
X111004075Y-82412993D01*
X111036988Y-82470000D01*
X110120000Y-82470000D01*
X110108945Y-82481054D01*
X110100038Y-82514299D01*
X110045500Y-82568837D01*
X109971000Y-82588799D01*
X109896500Y-82568837D01*
X109865641Y-82545158D01*
X109244141Y-81923658D01*
X109205577Y-81856863D01*
X109200500Y-81818299D01*
X109200500Y-79497495D01*
X109220462Y-79422995D01*
X109275000Y-79368457D01*
X109292473Y-79359840D01*
X109389043Y-79319840D01*
X109422594Y-79305943D01*
X109422595Y-79305942D01*
X109422598Y-79305941D01*
X109594655Y-79190977D01*
X109740977Y-79044655D01*
X109855941Y-78872598D01*
X109935130Y-78681420D01*
X109975500Y-78478465D01*
X109975500Y-78271535D01*
X109975500Y-78271534D01*
X110414500Y-78271534D01*
X110414500Y-78478465D01*
X110454869Y-78681417D01*
X110534057Y-78872596D01*
X110649022Y-79044654D01*
X110795345Y-79190977D01*
X110967403Y-79305942D01*
X111045692Y-79338370D01*
X111158580Y-79385130D01*
X111361535Y-79425500D01*
X111568465Y-79425500D01*
X111771420Y-79385130D01*
X111939402Y-79315548D01*
X111962596Y-79305942D01*
X111962596Y-79305941D01*
X111962598Y-79305941D01*
X112134655Y-79190977D01*
X112280977Y-79044655D01*
X112395941Y-78872598D01*
X112475130Y-78681420D01*
X112515500Y-78478465D01*
X112515500Y-78271535D01*
X112475130Y-78068580D01*
X112421233Y-77938462D01*
X112395942Y-77877403D01*
X112280977Y-77705345D01*
X112134654Y-77559022D01*
X111962596Y-77444057D01*
X111804219Y-77378455D01*
X111771420Y-77364870D01*
X111771418Y-77364869D01*
X111771417Y-77364869D01*
X111568465Y-77324500D01*
X111361535Y-77324500D01*
X111158582Y-77364869D01*
X110967403Y-77444057D01*
X110795345Y-77559022D01*
X110649022Y-77705345D01*
X110534057Y-77877403D01*
X110454869Y-78068582D01*
X110414500Y-78271534D01*
X109975500Y-78271534D01*
X109935130Y-78068580D01*
X109881233Y-77938462D01*
X109855942Y-77877403D01*
X109740977Y-77705345D01*
X109594654Y-77559022D01*
X109422596Y-77444057D01*
X109264219Y-77378455D01*
X109231420Y-77364870D01*
X109231418Y-77364869D01*
X109231417Y-77364869D01*
X109028465Y-77324500D01*
X108821535Y-77324500D01*
X108618582Y-77364869D01*
X108427403Y-77444057D01*
X108255345Y-77559022D01*
X108109022Y-77705345D01*
X107994057Y-77877403D01*
X107914869Y-78068582D01*
X107874500Y-78271534D01*
X107874500Y-78478465D01*
X107914869Y-78681417D01*
X107994057Y-78872596D01*
X108109022Y-79044654D01*
X108255345Y-79190977D01*
X108427405Y-79305943D01*
X108502636Y-79337104D01*
X108557520Y-79359838D01*
X108618709Y-79406789D01*
X108648225Y-79478046D01*
X108649500Y-79497495D01*
X108649500Y-81564021D01*
X108629538Y-81638521D01*
X108575000Y-81693059D01*
X108500500Y-81713021D01*
X108426000Y-81693059D01*
X108395141Y-81669380D01*
X107213049Y-80487289D01*
X107174485Y-80420494D01*
X107174485Y-80343366D01*
X107189370Y-80307430D01*
X107206065Y-80278514D01*
X107240173Y-80151220D01*
X107240173Y-80019436D01*
X107206065Y-79892142D01*
X107148236Y-79791980D01*
X107140175Y-79778017D01*
X107140174Y-79778016D01*
X107140173Y-79778014D01*
X107046987Y-79684828D01*
X107046984Y-79684826D01*
X107046983Y-79684825D01*
X106932859Y-79618936D01*
X106867494Y-79601421D01*
X106800700Y-79562858D01*
X106762136Y-79496063D01*
X106762136Y-79418935D01*
X106800700Y-79352140D01*
X106849039Y-79319841D01*
X106882597Y-79305941D01*
X107054654Y-79190977D01*
X107200976Y-79044655D01*
X107315940Y-78872598D01*
X107395129Y-78681420D01*
X107435499Y-78478465D01*
X107435499Y-78271535D01*
X107395129Y-78068580D01*
X107341232Y-77938462D01*
X107315941Y-77877403D01*
X107200976Y-77705345D01*
X107054653Y-77559022D01*
X106882595Y-77444057D01*
X106724218Y-77378455D01*
X106691419Y-77364870D01*
X106691417Y-77364869D01*
X106691416Y-77364869D01*
X106488464Y-77324500D01*
X106281534Y-77324500D01*
X106078581Y-77364869D01*
X105887402Y-77444057D01*
X105715344Y-77559022D01*
X105569021Y-77705345D01*
X105454057Y-77877402D01*
X105411766Y-77979502D01*
X105364813Y-78040691D01*
X105293555Y-78070206D01*
X105217087Y-78060139D01*
X105155898Y-78013186D01*
X105132400Y-77968523D01*
X105096091Y-77856775D01*
X104999621Y-77667444D01*
X104960270Y-77613282D01*
X104327962Y-78245589D01*
X104310925Y-78182007D01*
X104245099Y-78067993D01*
X104152007Y-77974901D01*
X104037993Y-77909075D01*
X103974407Y-77892037D01*
X104606716Y-77259729D01*
X104606716Y-77259728D01*
X104552555Y-77220378D01*
X104552555Y-77220377D01*
X104363220Y-77123906D01*
X104261044Y-77090707D01*
X104196359Y-77048701D01*
X104161343Y-76979979D01*
X104165380Y-76902957D01*
X104207386Y-76838272D01*
X104276108Y-76803256D01*
X104307087Y-76800000D01*
X114830666Y-76800000D01*
X114905166Y-76819962D01*
X114959704Y-76874500D01*
X114979666Y-76949000D01*
X114959704Y-77023500D01*
X114936025Y-77054359D01*
X114603915Y-77386467D01*
X114537120Y-77425031D01*
X114459992Y-77425031D01*
X114441536Y-77418766D01*
X114349028Y-77380448D01*
X114311420Y-77364870D01*
X114311418Y-77364869D01*
X114311417Y-77364869D01*
X114108465Y-77324500D01*
X113901535Y-77324500D01*
X113698582Y-77364869D01*
X113507403Y-77444057D01*
X113335345Y-77559022D01*
X113189022Y-77705345D01*
X113074057Y-77877403D01*
X112994869Y-78068582D01*
X112954500Y-78271534D01*
X112954500Y-78478465D01*
X112994869Y-78681417D01*
X113074057Y-78872596D01*
X113189022Y-79044654D01*
X113335345Y-79190977D01*
X113507403Y-79305942D01*
X113585692Y-79338370D01*
X113698580Y-79385130D01*
X113901535Y-79425500D01*
X114108465Y-79425500D01*
X114311420Y-79385130D01*
X114479402Y-79315548D01*
X114502596Y-79305942D01*
X114502596Y-79305941D01*
X114502598Y-79305941D01*
X114674655Y-79190977D01*
X114820977Y-79044655D01*
X114935941Y-78872598D01*
X115015130Y-78681420D01*
X115055500Y-78478465D01*
X115055500Y-78271535D01*
X115015130Y-78068580D01*
X114961232Y-77938461D01*
X114951166Y-77861994D01*
X114980681Y-77790737D01*
X114993532Y-77776083D01*
X115102172Y-77667444D01*
X115227175Y-77542441D01*
X115293970Y-77503877D01*
X115332534Y-77498800D01*
X115588273Y-77498800D01*
X115662773Y-77518762D01*
X115717311Y-77573300D01*
X115737273Y-77647800D01*
X115717311Y-77722300D01*
X115712162Y-77730580D01*
X115614057Y-77877403D01*
X115534869Y-78068582D01*
X115494500Y-78271534D01*
X115494500Y-78478465D01*
X115534869Y-78681417D01*
X115614057Y-78872596D01*
X115729022Y-79044654D01*
X115875345Y-79190977D01*
X116047403Y-79305942D01*
X116125692Y-79338370D01*
X116238580Y-79385130D01*
X116441535Y-79425500D01*
X116648465Y-79425500D01*
X116851420Y-79385130D01*
X117019402Y-79315548D01*
X117042596Y-79305942D01*
X117042596Y-79305941D01*
X117042598Y-79305941D01*
X117214655Y-79190977D01*
X117360977Y-79044655D01*
X117475941Y-78872598D01*
X117555130Y-78681420D01*
X117595500Y-78478465D01*
X117595500Y-78271535D01*
X117555130Y-78068580D01*
X117501233Y-77938462D01*
X117475942Y-77877403D01*
X117377838Y-77730580D01*
X117353046Y-77657545D01*
X117368093Y-77581899D01*
X117418947Y-77523911D01*
X117491982Y-77499119D01*
X117501727Y-77498800D01*
X118128274Y-77498800D01*
X118202774Y-77518762D01*
X118257312Y-77573300D01*
X118277274Y-77647800D01*
X118257312Y-77722300D01*
X118252163Y-77730580D01*
X118154058Y-77877403D01*
X118074870Y-78068582D01*
X118034501Y-78271534D01*
X118034501Y-78478465D01*
X118074870Y-78681417D01*
X118154058Y-78872596D01*
X118269023Y-79044654D01*
X118415346Y-79190977D01*
X118587404Y-79305942D01*
X118665693Y-79338370D01*
X118778581Y-79385130D01*
X118981536Y-79425500D01*
X119188466Y-79425500D01*
X119391421Y-79385130D01*
X119521540Y-79331232D01*
X119598004Y-79321164D01*
X119669261Y-79350679D01*
X119683916Y-79363531D01*
X119980859Y-79660474D01*
X120019423Y-79727269D01*
X120024500Y-79765833D01*
X120024500Y-81309150D01*
X120004538Y-81383650D01*
X119950000Y-81438188D01*
X119875500Y-81458150D01*
X119801000Y-81438188D01*
X119770141Y-81414509D01*
X119759654Y-81404022D01*
X119587596Y-81289057D01*
X119429219Y-81223455D01*
X119396420Y-81209870D01*
X119396418Y-81209869D01*
X119396417Y-81209869D01*
X119193465Y-81169500D01*
X118986535Y-81169500D01*
X118783582Y-81209869D01*
X118592403Y-81289057D01*
X118420345Y-81404022D01*
X118274022Y-81550345D01*
X118159057Y-81722403D01*
X118079869Y-81913582D01*
X118039500Y-82116534D01*
X118039500Y-82323465D01*
X118053828Y-82395500D01*
X118079870Y-82526420D01*
X118118673Y-82620099D01*
X118133767Y-82656537D01*
X118143834Y-82733005D01*
X118114319Y-82804262D01*
X118101470Y-82818914D01*
X118088287Y-82832096D01*
X118088286Y-82832098D01*
X118046343Y-82933357D01*
X118046343Y-86684096D01*
X118026381Y-86758596D01*
X118002705Y-86789450D01*
X117961687Y-86830469D01*
X117921341Y-86870815D01*
X117921340Y-86870816D01*
X117856181Y-86983676D01*
X117855451Y-86984941D01*
X117839621Y-87044017D01*
X117821343Y-87112233D01*
X117821343Y-87244020D01*
X117829778Y-87275500D01*
X117855451Y-87371313D01*
X117865122Y-87388064D01*
X117921340Y-87485437D01*
X117921341Y-87485438D01*
X117921343Y-87485441D01*
X118014529Y-87578627D01*
X118128657Y-87644519D01*
X118255951Y-87678627D01*
X118387735Y-87678627D01*
X118515029Y-87644519D01*
X118629157Y-87578627D01*
X118722343Y-87485441D01*
X118788235Y-87371313D01*
X118822343Y-87244019D01*
X118822343Y-87112235D01*
X118788235Y-86984941D01*
X118722343Y-86870813D01*
X118640982Y-86789452D01*
X118602420Y-86722660D01*
X118597343Y-86684096D01*
X118597343Y-83374538D01*
X118617305Y-83300038D01*
X118671843Y-83245500D01*
X118746343Y-83225538D01*
X118776147Y-83229973D01*
X118776400Y-83228702D01*
X118986535Y-83270500D01*
X119193465Y-83270500D01*
X119396420Y-83230130D01*
X119587598Y-83150941D01*
X119759655Y-83035977D01*
X119770141Y-83025491D01*
X119836936Y-82986927D01*
X119914064Y-82986927D01*
X119980859Y-83025491D01*
X120019423Y-83092286D01*
X120024500Y-83130850D01*
X120024500Y-84054800D01*
X120040955Y-84094525D01*
X120040956Y-84094529D01*
X120040957Y-84094529D01*
X120056922Y-84133073D01*
X120064786Y-84192755D01*
X120067913Y-84192755D01*
X120067913Y-84202521D01*
X120067913Y-84334305D01*
X120102021Y-84461599D01*
X120124481Y-84500500D01*
X120167910Y-84575723D01*
X120167911Y-84575724D01*
X120167913Y-84575727D01*
X120261099Y-84668913D01*
X120375227Y-84734805D01*
X120502521Y-84768913D01*
X120634305Y-84768913D01*
X120761599Y-84734805D01*
X120875727Y-84668913D01*
X120968913Y-84575727D01*
X121034805Y-84461599D01*
X121068913Y-84334305D01*
X121068913Y-84202521D01*
X121034805Y-84075227D01*
X120968913Y-83961099D01*
X120875727Y-83867913D01*
X120875724Y-83867911D01*
X120875723Y-83867910D01*
X120800289Y-83824359D01*
X120761599Y-83802021D01*
X120685935Y-83781747D01*
X120619140Y-83743182D01*
X120580577Y-83676387D01*
X120575500Y-83637824D01*
X120575500Y-83010850D01*
X120595462Y-82936350D01*
X120650000Y-82881812D01*
X120724500Y-82861850D01*
X120799000Y-82881812D01*
X120829859Y-82905491D01*
X120960345Y-83035977D01*
X121132403Y-83150942D01*
X121211591Y-83183742D01*
X121323580Y-83230130D01*
X121526535Y-83270500D01*
X121733465Y-83270500D01*
X121936420Y-83230130D01*
X122127598Y-83150941D01*
X122247721Y-83070677D01*
X122320755Y-83045886D01*
X122396401Y-83060933D01*
X122454389Y-83111787D01*
X122479181Y-83184822D01*
X122479500Y-83194567D01*
X122479500Y-86144165D01*
X122459538Y-86218665D01*
X122435859Y-86249524D01*
X122354524Y-86330859D01*
X122287729Y-86369423D01*
X122249165Y-86374500D01*
X122134108Y-86374500D01*
X122006814Y-86408608D01*
X122006812Y-86408608D01*
X122006812Y-86408609D01*
X121892689Y-86474497D01*
X121799497Y-86567689D01*
X121736566Y-86676690D01*
X121733608Y-86681814D01*
X121720259Y-86731633D01*
X121699500Y-86809106D01*
X121699500Y-86940893D01*
X121708639Y-86975001D01*
X121733608Y-87068186D01*
X121733609Y-87068187D01*
X121799497Y-87182310D01*
X121799498Y-87182311D01*
X121799500Y-87182314D01*
X121892686Y-87275500D01*
X122006814Y-87341392D01*
X122134108Y-87375500D01*
X122265892Y-87375500D01*
X122393186Y-87341392D01*
X122507314Y-87275500D01*
X122600500Y-87182314D01*
X122666392Y-87068186D01*
X122700500Y-86940892D01*
X122700500Y-86825833D01*
X122720462Y-86751333D01*
X122744141Y-86720474D01*
X122830509Y-86634106D01*
X122870142Y-86594473D01*
X122936936Y-86555910D01*
X123014064Y-86555910D01*
X123080859Y-86594474D01*
X123119423Y-86661269D01*
X123124500Y-86699833D01*
X123124500Y-93024069D01*
X123104538Y-93098569D01*
X123050000Y-93153107D01*
X123014065Y-93167992D01*
X122960661Y-93182302D01*
X122910670Y-93195697D01*
X122833543Y-93195697D01*
X122766748Y-93157134D01*
X121883590Y-92273976D01*
X121845027Y-92207183D01*
X121842583Y-92198061D01*
X121808776Y-92139506D01*
X121776693Y-92083936D01*
X121776692Y-92083935D01*
X121776691Y-92083933D01*
X121683505Y-91990747D01*
X121683502Y-91990745D01*
X121683501Y-91990744D01*
X121607437Y-91946829D01*
X121569377Y-91924855D01*
X121442083Y-91890747D01*
X121425691Y-91890747D01*
X121351191Y-91870785D01*
X121296653Y-91816247D01*
X121276691Y-91741747D01*
X121276691Y-91667740D01*
X121276690Y-91667738D01*
X121242583Y-91540446D01*
X121181904Y-91435347D01*
X121176693Y-91426321D01*
X121176692Y-91426320D01*
X121176691Y-91426318D01*
X121083505Y-91333132D01*
X121083502Y-91333130D01*
X121083501Y-91333129D01*
X120996154Y-91282700D01*
X120969377Y-91267240D01*
X120842083Y-91233132D01*
X120710299Y-91233132D01*
X120583005Y-91267240D01*
X120583003Y-91267240D01*
X120583003Y-91267241D01*
X120468880Y-91333129D01*
X120375688Y-91426321D01*
X120311108Y-91538178D01*
X120309799Y-91540446D01*
X120298100Y-91584108D01*
X120275691Y-91667738D01*
X120275691Y-91667740D01*
X120275691Y-91799524D01*
X120309799Y-91926818D01*
X120327115Y-91956810D01*
X120375688Y-92040942D01*
X120375689Y-92040943D01*
X120375691Y-92040946D01*
X120457051Y-92122306D01*
X120495614Y-92189099D01*
X120500691Y-92227663D01*
X120500691Y-94458591D01*
X120519317Y-94503559D01*
X120538843Y-94550697D01*
X120542634Y-94559849D01*
X131938959Y-105956174D01*
X131977523Y-106022969D01*
X131982600Y-106061533D01*
X131982600Y-110190369D01*
X131962638Y-110264869D01*
X131938962Y-110295723D01*
X131897083Y-110337603D01*
X131857598Y-110377088D01*
X131857597Y-110377089D01*
X131791709Y-110491212D01*
X131791708Y-110491214D01*
X131775947Y-110550035D01*
X131757600Y-110618506D01*
X131757600Y-110618508D01*
X131757600Y-110750292D01*
X131791708Y-110877586D01*
X131791709Y-110877587D01*
X131857597Y-110991710D01*
X131857598Y-110991711D01*
X131857600Y-110991714D01*
X131950786Y-111084900D01*
X132064914Y-111150792D01*
X132192208Y-111184900D01*
X132323992Y-111184900D01*
X132451286Y-111150792D01*
X132565414Y-111084900D01*
X132658600Y-110991714D01*
X132724492Y-110877586D01*
X132758600Y-110750292D01*
X132758600Y-110618508D01*
X132724492Y-110491214D01*
X132658600Y-110377086D01*
X132577239Y-110295725D01*
X132538677Y-110228933D01*
X132533600Y-110190369D01*
X132533600Y-105830900D01*
X132506885Y-105766407D01*
X132503941Y-105759299D01*
X132491657Y-105729641D01*
X121095332Y-94333316D01*
X121056768Y-94266521D01*
X121051691Y-94227957D01*
X121051691Y-93016633D01*
X121071653Y-92942133D01*
X121126191Y-92887595D01*
X121200691Y-92867633D01*
X121239253Y-92872710D01*
X121267813Y-92880363D01*
X121310293Y-92891746D01*
X121310299Y-92891747D01*
X121442083Y-92891747D01*
X121569377Y-92857639D01*
X121569379Y-92857637D01*
X121578809Y-92855111D01*
X121579737Y-92858574D01*
X121637641Y-92850904D01*
X121708921Y-92880363D01*
X121723670Y-92893286D01*
X122579702Y-93749318D01*
X122618265Y-93816111D01*
X122629342Y-93857450D01*
X122695232Y-93971575D01*
X122695233Y-93971576D01*
X122695235Y-93971579D01*
X122788421Y-94064765D01*
X122902549Y-94130657D01*
X123029843Y-94164765D01*
X123161627Y-94164765D01*
X123288921Y-94130657D01*
X123403049Y-94064765D01*
X123496235Y-93971579D01*
X123533011Y-93907880D01*
X123587546Y-93853344D01*
X123662046Y-93833381D01*
X123736546Y-93853342D01*
X123767406Y-93877021D01*
X124393942Y-94503558D01*
X124495200Y-94545500D01*
X124645969Y-94545500D01*
X124720469Y-94565462D01*
X124751323Y-94589137D01*
X124832686Y-94670500D01*
X124832688Y-94670501D01*
X124832689Y-94670502D01*
X124842709Y-94676287D01*
X124946814Y-94736392D01*
X125074108Y-94770500D01*
X125205892Y-94770500D01*
X125333186Y-94736392D01*
X125447314Y-94670500D01*
X125540500Y-94577314D01*
X125606392Y-94463186D01*
X125640500Y-94335892D01*
X125640500Y-94204108D01*
X125606392Y-94076814D01*
X125556360Y-93990157D01*
X125540502Y-93962689D01*
X125540501Y-93962688D01*
X125540500Y-93962686D01*
X125447314Y-93869500D01*
X125447311Y-93869498D01*
X125447310Y-93869497D01*
X125376514Y-93828623D01*
X125333186Y-93803608D01*
X125205892Y-93769500D01*
X125074108Y-93769500D01*
X124946814Y-93803608D01*
X124946812Y-93803608D01*
X124946812Y-93803609D01*
X124832689Y-93869497D01*
X124791259Y-93910927D01*
X124724464Y-93949490D01*
X124647335Y-93949490D01*
X124580542Y-93910926D01*
X123719141Y-93049525D01*
X123680577Y-92982730D01*
X123675500Y-92944166D01*
X123675500Y-90528606D01*
X124459500Y-90528606D01*
X124459500Y-90528608D01*
X124459500Y-90660392D01*
X124493608Y-90787686D01*
X124493609Y-90787687D01*
X124559497Y-90901810D01*
X124559498Y-90901811D01*
X124559500Y-90901814D01*
X124652686Y-90995000D01*
X124766814Y-91060892D01*
X124894108Y-91095000D01*
X125025892Y-91095000D01*
X125153186Y-91060892D01*
X125267314Y-90995000D01*
X125348674Y-90913639D01*
X125415467Y-90875077D01*
X125454031Y-90870000D01*
X126818667Y-90870000D01*
X126893167Y-90889962D01*
X126924026Y-90913641D01*
X130918138Y-94907753D01*
X130956702Y-94974548D01*
X130956702Y-95051676D01*
X130918138Y-95118471D01*
X130851347Y-95157034D01*
X130826813Y-95163608D01*
X130712689Y-95229497D01*
X130712688Y-95229498D01*
X130712686Y-95229499D01*
X130712686Y-95229500D01*
X130631325Y-95310860D01*
X130564533Y-95349423D01*
X130525969Y-95354500D01*
X129816329Y-95354500D01*
X129741829Y-95334538D01*
X129710971Y-95310859D01*
X129624613Y-95224502D01*
X129624607Y-95224497D01*
X129553811Y-95183623D01*
X129510483Y-95158608D01*
X129383189Y-95124500D01*
X129251405Y-95124500D01*
X129124111Y-95158608D01*
X129124109Y-95158608D01*
X129124109Y-95158609D01*
X129009986Y-95224497D01*
X128916794Y-95317689D01*
X128867670Y-95402776D01*
X128850905Y-95431814D01*
X128844445Y-95455925D01*
X128816797Y-95559106D01*
X128816797Y-95690893D01*
X128819747Y-95701902D01*
X128850905Y-95818186D01*
X128875920Y-95861514D01*
X128916794Y-95932310D01*
X128916795Y-95932311D01*
X128916797Y-95932314D01*
X129009983Y-96025500D01*
X129009985Y-96025501D01*
X129009986Y-96025502D01*
X129037454Y-96041360D01*
X129124111Y-96091392D01*
X129251405Y-96125500D01*
X129383189Y-96125500D01*
X129510483Y-96091392D01*
X129624611Y-96025500D01*
X129700971Y-95949140D01*
X129767766Y-95910577D01*
X129806329Y-95905500D01*
X130525969Y-95905500D01*
X130600469Y-95925462D01*
X130631323Y-95949137D01*
X130712686Y-96030500D01*
X130826814Y-96096392D01*
X130954108Y-96130500D01*
X131085892Y-96130500D01*
X131213186Y-96096392D01*
X131327314Y-96030500D01*
X131420500Y-95937314D01*
X131486392Y-95823186D01*
X131492964Y-95798655D01*
X131531527Y-95731862D01*
X131598322Y-95693297D01*
X131675450Y-95693297D01*
X131742245Y-95731860D01*
X131742246Y-95731861D01*
X139455524Y-103445140D01*
X139494088Y-103511935D01*
X139494088Y-103589063D01*
X139455524Y-103655858D01*
X139388729Y-103694422D01*
X139350165Y-103699499D01*
X133200833Y-103699499D01*
X133126333Y-103679537D01*
X133095474Y-103655858D01*
X130114141Y-100674525D01*
X130075577Y-100607730D01*
X130070500Y-100569166D01*
X130070500Y-100454108D01*
X130070499Y-100454106D01*
X130036392Y-100326814D01*
X129972351Y-100215892D01*
X129970502Y-100212689D01*
X129970501Y-100212688D01*
X129970500Y-100212686D01*
X129877314Y-100119500D01*
X129877311Y-100119498D01*
X129877310Y-100119497D01*
X129806514Y-100078623D01*
X129763186Y-100053608D01*
X129635892Y-100019500D01*
X129504108Y-100019500D01*
X129376814Y-100053608D01*
X129376812Y-100053608D01*
X129376812Y-100053609D01*
X129262689Y-100119497D01*
X129169498Y-100212688D01*
X129169495Y-100212692D01*
X129132185Y-100277315D01*
X129077647Y-100331852D01*
X129003147Y-100351814D01*
X128928647Y-100331851D01*
X128897789Y-100308173D01*
X128104141Y-99514525D01*
X128065577Y-99447730D01*
X128060500Y-99409166D01*
X128060500Y-99294108D01*
X128060499Y-99294106D01*
X128026392Y-99166814D01*
X127960500Y-99052686D01*
X127867314Y-98959500D01*
X127867311Y-98959498D01*
X127867310Y-98959497D01*
X127764643Y-98900223D01*
X127753186Y-98893608D01*
X127625892Y-98859500D01*
X127494108Y-98859500D01*
X127366814Y-98893608D01*
X127366812Y-98893608D01*
X127366812Y-98893609D01*
X127252689Y-98959497D01*
X127159497Y-99052689D01*
X127093609Y-99166812D01*
X127093608Y-99166814D01*
X127089179Y-99183345D01*
X127059500Y-99294106D01*
X127059500Y-99294108D01*
X127059500Y-99425892D01*
X127093608Y-99553186D01*
X127093609Y-99553187D01*
X127159497Y-99667310D01*
X127159498Y-99667311D01*
X127159500Y-99667314D01*
X127252686Y-99760500D01*
X127366814Y-99826392D01*
X127494108Y-99860500D01*
X127609167Y-99860500D01*
X127683667Y-99880462D01*
X127714525Y-99904140D01*
X132593941Y-104783557D01*
X132623599Y-104795841D01*
X132695200Y-104825500D01*
X140745969Y-104825500D01*
X140820469Y-104845462D01*
X140851323Y-104869137D01*
X140932686Y-104950500D01*
X141046814Y-105016392D01*
X141174108Y-105050500D01*
X141305892Y-105050500D01*
X141433186Y-105016392D01*
X141547314Y-104950500D01*
X141640500Y-104857314D01*
X141706392Y-104743186D01*
X141740500Y-104615892D01*
X141740500Y-104484108D01*
X141706392Y-104356814D01*
X141640500Y-104242686D01*
X141547314Y-104149500D01*
X141547311Y-104149498D01*
X141547307Y-104149495D01*
X141468572Y-104104038D01*
X141414034Y-104049501D01*
X141394071Y-103975001D01*
X141414033Y-103900501D01*
X141468570Y-103845963D01*
X141468572Y-103845962D01*
X141536378Y-103806814D01*
X141547314Y-103800500D01*
X141640500Y-103707314D01*
X141706392Y-103593186D01*
X141740500Y-103465892D01*
X141740500Y-103334108D01*
X141706392Y-103206814D01*
X141640500Y-103092686D01*
X141547314Y-102999500D01*
X141547311Y-102999498D01*
X141547310Y-102999497D01*
X141476514Y-102958623D01*
X141433186Y-102933608D01*
X141305892Y-102899500D01*
X141174108Y-102899500D01*
X141046814Y-102933608D01*
X141046812Y-102933608D01*
X141046812Y-102933609D01*
X140932689Y-102999497D01*
X140932688Y-102999498D01*
X140932686Y-102999499D01*
X140932686Y-102999500D01*
X140851325Y-103080860D01*
X140784533Y-103119423D01*
X140745969Y-103124500D01*
X139975834Y-103124500D01*
X139901334Y-103104538D01*
X139870475Y-103080859D01*
X129670976Y-92881361D01*
X129632412Y-92814566D01*
X129632412Y-92737438D01*
X129670976Y-92670643D01*
X129701836Y-92646964D01*
X129739015Y-92625499D01*
X129782314Y-92600500D01*
X129875500Y-92507314D01*
X129941392Y-92393186D01*
X129975500Y-92265892D01*
X129975500Y-92175833D01*
X129995462Y-92101333D01*
X130019141Y-92070474D01*
X135970475Y-86119141D01*
X136037270Y-86080577D01*
X136075834Y-86075500D01*
X146725969Y-86075500D01*
X146800469Y-86095462D01*
X146831323Y-86119137D01*
X146912686Y-86200500D01*
X146912688Y-86200501D01*
X146912689Y-86200502D01*
X146940157Y-86216360D01*
X147026814Y-86266392D01*
X147154108Y-86300500D01*
X147285892Y-86300500D01*
X147413186Y-86266392D01*
X147527314Y-86200500D01*
X147620500Y-86107314D01*
X147686392Y-85993186D01*
X147720500Y-85865892D01*
X147720500Y-85734108D01*
X147686392Y-85606814D01*
X147620500Y-85492686D01*
X147527314Y-85399500D01*
X147527311Y-85399498D01*
X147527310Y-85399497D01*
X147442447Y-85350502D01*
X147413186Y-85333608D01*
X147285892Y-85299500D01*
X147154108Y-85299500D01*
X147026814Y-85333608D01*
X147026812Y-85333608D01*
X147026812Y-85333609D01*
X146912689Y-85399497D01*
X146912688Y-85399498D01*
X146912686Y-85399499D01*
X146912686Y-85399500D01*
X146831325Y-85480860D01*
X146764533Y-85519423D01*
X146725969Y-85524500D01*
X145580746Y-85524500D01*
X145506246Y-85504538D01*
X145451708Y-85450000D01*
X145431746Y-85375500D01*
X145436823Y-85336935D01*
X145437714Y-85333609D01*
X145450500Y-85285892D01*
X145450500Y-85154108D01*
X145416392Y-85026814D01*
X145350500Y-84912686D01*
X145257314Y-84819500D01*
X145257311Y-84819498D01*
X145257310Y-84819497D01*
X145169693Y-84768912D01*
X145143186Y-84753608D01*
X145015892Y-84719500D01*
X144884108Y-84719500D01*
X144756814Y-84753608D01*
X144756812Y-84753608D01*
X144756812Y-84753609D01*
X144642689Y-84819497D01*
X144642688Y-84819498D01*
X144642686Y-84819499D01*
X144642686Y-84819500D01*
X144561325Y-84900860D01*
X144494533Y-84939423D01*
X144455969Y-84944500D01*
X135617632Y-84944500D01*
X135516378Y-84986440D01*
X129646926Y-90855892D01*
X129580131Y-90894456D01*
X129541567Y-90899533D01*
X129533293Y-90899533D01*
X129401509Y-90899533D01*
X129274215Y-90933641D01*
X129274213Y-90933641D01*
X129274213Y-90933642D01*
X129160090Y-90999530D01*
X129066898Y-91092722D01*
X129001010Y-91206845D01*
X128966901Y-91334139D01*
X128966901Y-91465926D01*
X128971773Y-91484108D01*
X129001009Y-91593219D01*
X129005405Y-91600833D01*
X129066898Y-91707343D01*
X129072202Y-91714254D01*
X129101722Y-91785509D01*
X129091660Y-91861978D01*
X129078956Y-91883983D01*
X129079382Y-91884229D01*
X129028034Y-91973165D01*
X128973496Y-92027702D01*
X128898996Y-92047664D01*
X128824496Y-92027701D01*
X128793641Y-92004025D01*
X127150558Y-90360943D01*
X127049300Y-90319000D01*
X127049299Y-90319000D01*
X125454031Y-90319000D01*
X125379531Y-90299038D01*
X125348676Y-90275362D01*
X125267314Y-90194000D01*
X125267311Y-90193998D01*
X125267310Y-90193997D01*
X125176030Y-90141297D01*
X125153186Y-90128108D01*
X125025892Y-90094000D01*
X124894108Y-90094000D01*
X124766814Y-90128108D01*
X124766812Y-90128108D01*
X124766812Y-90128109D01*
X124652689Y-90193997D01*
X124559497Y-90287189D01*
X124527455Y-90342689D01*
X124493608Y-90401314D01*
X124478737Y-90456814D01*
X124459500Y-90528606D01*
X123675500Y-90528606D01*
X123675500Y-86731633D01*
X123695462Y-86657133D01*
X123750000Y-86602595D01*
X123824500Y-86582633D01*
X123899000Y-86602595D01*
X123908050Y-86608643D01*
X123911785Y-86610799D01*
X123911786Y-86610800D01*
X124025914Y-86676692D01*
X124153208Y-86710800D01*
X124284992Y-86710800D01*
X124412286Y-86676692D01*
X124526414Y-86610800D01*
X124619600Y-86517614D01*
X124685492Y-86403486D01*
X124719600Y-86276192D01*
X124719600Y-86148793D01*
X124730942Y-86091774D01*
X124739812Y-86070358D01*
X124775500Y-85984200D01*
X124775500Y-85874600D01*
X124775500Y-82736739D01*
X124795462Y-82662239D01*
X124850000Y-82607701D01*
X124924500Y-82587739D01*
X124999000Y-82607701D01*
X125001098Y-82608912D01*
X125001099Y-82608913D01*
X125115227Y-82674805D01*
X125242521Y-82708913D01*
X125374305Y-82708913D01*
X125501599Y-82674805D01*
X125501602Y-82674803D01*
X125501603Y-82674803D01*
X125510624Y-82671067D01*
X125511929Y-82674219D01*
X125569042Y-82658913D01*
X128739364Y-82658913D01*
X128796483Y-82674218D01*
X128797789Y-82671067D01*
X128806809Y-82674803D01*
X128806811Y-82674803D01*
X128806814Y-82674805D01*
X128934108Y-82708913D01*
X129065892Y-82708913D01*
X129193186Y-82674805D01*
X129307314Y-82608913D01*
X129400500Y-82515727D01*
X129466392Y-82401599D01*
X129500500Y-82274305D01*
X129500500Y-82142521D01*
X129466392Y-82015227D01*
X129413571Y-81923739D01*
X129400502Y-81901102D01*
X129400501Y-81901101D01*
X129400500Y-81901099D01*
X129307314Y-81807913D01*
X129307311Y-81807911D01*
X129307310Y-81807910D01*
X129236514Y-81767036D01*
X129193186Y-81742021D01*
X129065892Y-81707913D01*
X128934108Y-81707913D01*
X128806809Y-81742022D01*
X128797789Y-81745759D01*
X128796483Y-81742606D01*
X128739371Y-81757913D01*
X125569049Y-81757913D01*
X125511929Y-81742607D01*
X125510624Y-81745759D01*
X125501603Y-81742022D01*
X125374305Y-81707913D01*
X125242521Y-81707913D01*
X125115223Y-81742022D01*
X124998999Y-81809124D01*
X124924499Y-81829086D01*
X124849999Y-81809123D01*
X124795462Y-81754585D01*
X124775500Y-81680086D01*
X124775500Y-80270200D01*
X124773923Y-80266392D01*
X124745841Y-80198599D01*
X124733557Y-80168941D01*
X124519141Y-79954525D01*
X124480577Y-79887730D01*
X124475500Y-79849166D01*
X124475500Y-79801840D01*
X124495462Y-79727340D01*
X124550000Y-79672802D01*
X124578457Y-79660132D01*
X124683226Y-79626091D01*
X124872555Y-79529622D01*
X124872557Y-79529620D01*
X124926716Y-79490270D01*
X124294408Y-78857962D01*
X124357993Y-78840925D01*
X124472007Y-78775099D01*
X124565099Y-78682007D01*
X124630925Y-78567993D01*
X124647962Y-78504409D01*
X125280269Y-79136716D01*
X125280270Y-79136716D01*
X125319620Y-79082557D01*
X125319622Y-79082555D01*
X125416091Y-78893226D01*
X125452401Y-78781474D01*
X125494408Y-78716789D01*
X125563129Y-78681773D01*
X125640152Y-78685809D01*
X125704837Y-78727816D01*
X125731767Y-78770497D01*
X125774057Y-78872595D01*
X125889022Y-79044654D01*
X126035345Y-79190977D01*
X126207403Y-79305942D01*
X126285692Y-79338370D01*
X126398580Y-79385130D01*
X126601535Y-79425500D01*
X126808465Y-79425500D01*
X127011420Y-79385130D01*
X127179402Y-79315548D01*
X127202596Y-79305942D01*
X127202596Y-79305941D01*
X127202598Y-79305941D01*
X127374655Y-79190977D01*
X127520977Y-79044655D01*
X127635941Y-78872598D01*
X127715130Y-78681420D01*
X127755500Y-78478465D01*
X127755500Y-78271535D01*
X127755500Y-78271534D01*
X128194499Y-78271534D01*
X128194499Y-78478465D01*
X128234868Y-78681417D01*
X128314056Y-78872596D01*
X128429021Y-79044654D01*
X128575344Y-79190977D01*
X128747402Y-79305942D01*
X128825691Y-79338370D01*
X128938579Y-79385130D01*
X129141534Y-79425500D01*
X129348464Y-79425500D01*
X129551419Y-79385130D01*
X129719401Y-79315548D01*
X129742595Y-79305942D01*
X129742595Y-79305941D01*
X129742597Y-79305941D01*
X129914654Y-79190977D01*
X130060976Y-79044655D01*
X130175940Y-78872598D01*
X130255129Y-78681420D01*
X130295499Y-78478465D01*
X130295499Y-78271535D01*
X130255129Y-78068580D01*
X130201232Y-77938462D01*
X130175941Y-77877403D01*
X130060976Y-77705345D01*
X129914653Y-77559022D01*
X129742595Y-77444057D01*
X129584218Y-77378455D01*
X129551419Y-77364870D01*
X129551417Y-77364869D01*
X129551416Y-77364869D01*
X129348464Y-77324500D01*
X129141534Y-77324500D01*
X128938581Y-77364869D01*
X128747402Y-77444057D01*
X128575344Y-77559022D01*
X128429021Y-77705345D01*
X128314056Y-77877403D01*
X128234868Y-78068582D01*
X128194499Y-78271534D01*
X127755500Y-78271534D01*
X127715130Y-78068580D01*
X127661233Y-77938462D01*
X127635942Y-77877403D01*
X127520977Y-77705345D01*
X127374654Y-77559022D01*
X127202596Y-77444057D01*
X127044219Y-77378455D01*
X127011420Y-77364870D01*
X127011418Y-77364869D01*
X127011417Y-77364869D01*
X126808465Y-77324500D01*
X126601535Y-77324500D01*
X126398582Y-77364869D01*
X126207403Y-77444057D01*
X126035345Y-77559022D01*
X125889022Y-77705345D01*
X125774057Y-77877404D01*
X125731767Y-77979502D01*
X125684814Y-78040692D01*
X125613557Y-78070207D01*
X125537089Y-78060140D01*
X125475899Y-78013187D01*
X125452401Y-77968525D01*
X125416091Y-77856773D01*
X125319621Y-77667444D01*
X125280270Y-77613282D01*
X124647962Y-78245589D01*
X124630925Y-78182007D01*
X124565099Y-78067993D01*
X124472007Y-77974901D01*
X124357993Y-77909075D01*
X124294407Y-77892037D01*
X124926716Y-77259729D01*
X124926716Y-77259728D01*
X124872555Y-77220378D01*
X124872555Y-77220377D01*
X124683220Y-77123906D01*
X124581044Y-77090707D01*
X124516359Y-77048701D01*
X124481343Y-76979979D01*
X124485380Y-76902957D01*
X124527386Y-76838272D01*
X124596108Y-76803256D01*
X124627087Y-76800000D01*
X165160147Y-76800000D01*
X165234647Y-76819962D01*
X165289185Y-76874500D01*
X165309147Y-76949000D01*
X165309145Y-76949538D01*
X165215192Y-96182923D01*
X165139018Y-111776728D01*
X165118692Y-111851129D01*
X165063889Y-111905400D01*
X164990020Y-111925000D01*
X82776826Y-111925000D01*
X82702326Y-111905038D01*
X82647788Y-111850500D01*
X82627826Y-111776000D01*
X82627826Y-108829455D01*
X83350000Y-108829455D01*
X83350000Y-109065554D01*
X83386934Y-109298755D01*
X83459894Y-109523298D01*
X83459898Y-109523310D01*
X83567086Y-109733676D01*
X83567090Y-109733683D01*
X83627340Y-109816610D01*
X84326212Y-109117738D01*
X84337482Y-109159797D01*
X84409890Y-109285213D01*
X84512292Y-109387615D01*
X84637708Y-109460023D01*
X84679765Y-109471292D01*
X83980893Y-110170163D01*
X84063828Y-110230418D01*
X84274194Y-110337606D01*
X84274206Y-110337610D01*
X84498749Y-110410570D01*
X84731951Y-110447505D01*
X84968049Y-110447505D01*
X85201250Y-110410570D01*
X85425793Y-110337610D01*
X85425810Y-110337603D01*
X85636165Y-110230422D01*
X85703863Y-110181238D01*
X85703863Y-110181237D01*
X85719105Y-110170163D01*
X85020234Y-109471292D01*
X85062292Y-109460023D01*
X85187708Y-109387615D01*
X85290110Y-109285213D01*
X85362518Y-109159797D01*
X85373787Y-109117739D01*
X86072658Y-109816610D01*
X86072659Y-109816610D01*
X86132913Y-109733677D01*
X86132916Y-109733672D01*
X86240098Y-109523315D01*
X86240105Y-109523298D01*
X86313065Y-109298755D01*
X86350000Y-109065554D01*
X86350000Y-108853023D01*
X88149500Y-108853023D01*
X88149500Y-109041985D01*
X88179060Y-109228622D01*
X88237453Y-109408336D01*
X88237457Y-109408345D01*
X88237458Y-109408346D01*
X88254188Y-109441180D01*
X88323240Y-109576703D01*
X88434310Y-109729577D01*
X88567927Y-109863194D01*
X88720801Y-109974264D01*
X88889168Y-110060051D01*
X89068882Y-110118444D01*
X89255519Y-110148004D01*
X89255524Y-110148004D01*
X89444476Y-110148004D01*
X89444481Y-110148004D01*
X89631118Y-110118444D01*
X89810832Y-110060051D01*
X89979199Y-109974264D01*
X90132073Y-109863194D01*
X90265690Y-109729577D01*
X90376760Y-109576703D01*
X90462547Y-109408336D01*
X90520940Y-109228622D01*
X90550500Y-109041985D01*
X90550500Y-108853023D01*
X90520940Y-108666386D01*
X90462547Y-108486672D01*
X90376760Y-108318305D01*
X90265690Y-108165431D01*
X90132073Y-108031814D01*
X89979199Y-107920744D01*
X89810832Y-107834957D01*
X89631118Y-107776564D01*
X89444481Y-107747004D01*
X89255519Y-107747004D01*
X89068882Y-107776564D01*
X88889168Y-107834957D01*
X88889163Y-107834959D01*
X88889157Y-107834962D01*
X88720804Y-107920742D01*
X88720799Y-107920745D01*
X88567936Y-108031807D01*
X88567925Y-108031816D01*
X88434312Y-108165429D01*
X88434303Y-108165440D01*
X88323241Y-108318303D01*
X88323238Y-108318308D01*
X88237458Y-108486661D01*
X88237455Y-108486667D01*
X88237453Y-108486672D01*
X88179060Y-108666386D01*
X88149500Y-108853023D01*
X86350000Y-108853023D01*
X86350000Y-108829455D01*
X86313065Y-108596254D01*
X86240105Y-108371711D01*
X86240101Y-108371699D01*
X86132913Y-108161333D01*
X86132913Y-108161332D01*
X86072658Y-108078398D01*
X85373787Y-108777269D01*
X85362518Y-108735213D01*
X85290110Y-108609797D01*
X85187708Y-108507395D01*
X85062292Y-108434987D01*
X85020233Y-108423717D01*
X85719105Y-107724845D01*
X85719105Y-107724844D01*
X85636178Y-107664595D01*
X85636171Y-107664591D01*
X85425805Y-107557403D01*
X85425793Y-107557399D01*
X85201250Y-107484439D01*
X84968049Y-107447505D01*
X84731951Y-107447505D01*
X84498749Y-107484439D01*
X84274206Y-107557399D01*
X84274194Y-107557403D01*
X84063828Y-107664591D01*
X84063823Y-107664594D01*
X83980893Y-107724844D01*
X84679766Y-108423717D01*
X84637708Y-108434987D01*
X84512292Y-108507395D01*
X84409890Y-108609797D01*
X84337482Y-108735213D01*
X84326212Y-108777271D01*
X83627339Y-108078398D01*
X83567089Y-108161328D01*
X83567086Y-108161333D01*
X83459898Y-108371699D01*
X83459894Y-108371711D01*
X83386934Y-108596254D01*
X83350000Y-108829455D01*
X82627826Y-108829455D01*
X82627826Y-102353023D01*
X83649499Y-102353023D01*
X83649499Y-102541985D01*
X83679059Y-102728622D01*
X83737452Y-102908336D01*
X83823239Y-103076703D01*
X83934309Y-103229577D01*
X84067926Y-103363194D01*
X84220800Y-103474264D01*
X84389167Y-103560051D01*
X84568881Y-103618444D01*
X84755518Y-103648004D01*
X84755523Y-103648004D01*
X84944475Y-103648004D01*
X84944480Y-103648004D01*
X85131117Y-103618444D01*
X85310831Y-103560051D01*
X85479198Y-103474264D01*
X85632072Y-103363194D01*
X85765689Y-103229577D01*
X85876759Y-103076703D01*
X85962546Y-102908336D01*
X86020939Y-102728622D01*
X86050499Y-102541985D01*
X86050499Y-102353023D01*
X88149500Y-102353023D01*
X88149500Y-102541985D01*
X88179060Y-102728622D01*
X88237453Y-102908336D01*
X88323240Y-103076703D01*
X88434310Y-103229577D01*
X88567927Y-103363194D01*
X88720801Y-103474264D01*
X88889168Y-103560051D01*
X89068882Y-103618444D01*
X89255519Y-103648004D01*
X89255524Y-103648004D01*
X89444476Y-103648004D01*
X89444481Y-103648004D01*
X89631118Y-103618444D01*
X89810832Y-103560051D01*
X89979199Y-103474264D01*
X90132073Y-103363194D01*
X90265690Y-103229577D01*
X90376760Y-103076703D01*
X90462547Y-102908336D01*
X90520940Y-102728622D01*
X90550500Y-102541985D01*
X90550500Y-102353023D01*
X90520940Y-102166386D01*
X90462547Y-101986672D01*
X90376760Y-101818305D01*
X90265690Y-101665431D01*
X90132073Y-101531814D01*
X89979199Y-101420744D01*
X89810832Y-101334957D01*
X89631118Y-101276564D01*
X89444481Y-101247004D01*
X89255519Y-101247004D01*
X89068882Y-101276564D01*
X88889168Y-101334957D01*
X88889163Y-101334959D01*
X88889157Y-101334962D01*
X88720804Y-101420742D01*
X88720799Y-101420745D01*
X88567936Y-101531807D01*
X88567925Y-101531816D01*
X88434312Y-101665429D01*
X88434303Y-101665440D01*
X88323241Y-101818303D01*
X88323238Y-101818308D01*
X88237458Y-101986661D01*
X88237455Y-101986667D01*
X88237453Y-101986672D01*
X88179060Y-102166386D01*
X88149500Y-102353023D01*
X86050499Y-102353023D01*
X86020939Y-102166386D01*
X85962546Y-101986672D01*
X85876759Y-101818305D01*
X85765689Y-101665431D01*
X85632072Y-101531814D01*
X85479198Y-101420744D01*
X85310831Y-101334957D01*
X85131117Y-101276564D01*
X84944480Y-101247004D01*
X84755518Y-101247004D01*
X84568881Y-101276564D01*
X84389167Y-101334957D01*
X84389162Y-101334959D01*
X84389156Y-101334962D01*
X84220803Y-101420742D01*
X84220798Y-101420745D01*
X84067935Y-101531807D01*
X84067924Y-101531816D01*
X83934311Y-101665429D01*
X83934302Y-101665440D01*
X83823240Y-101818303D01*
X83823237Y-101818308D01*
X83737457Y-101986661D01*
X83737454Y-101986667D01*
X83737452Y-101986672D01*
X83679059Y-102166386D01*
X83649499Y-102353023D01*
X82627826Y-102353023D01*
X82627826Y-98041123D01*
X83049500Y-98041123D01*
X83049500Y-98193884D01*
X83079301Y-98343706D01*
X83079302Y-98343710D01*
X83137756Y-98484833D01*
X83137765Y-98484848D01*
X83190259Y-98563410D01*
X83222630Y-98611856D01*
X83330648Y-98719874D01*
X83330651Y-98719876D01*
X83457655Y-98804738D01*
X83457670Y-98804747D01*
X83557099Y-98845931D01*
X83598795Y-98863202D01*
X83748620Y-98893004D01*
X84551380Y-98893004D01*
X84701205Y-98863202D01*
X84769481Y-98834921D01*
X84842329Y-98804747D01*
X84842332Y-98804744D01*
X84842337Y-98804743D01*
X84969352Y-98719874D01*
X85077370Y-98611856D01*
X85162239Y-98484841D01*
X85162240Y-98484836D01*
X85162243Y-98484833D01*
X85200409Y-98392690D01*
X85220698Y-98343709D01*
X85250500Y-98193884D01*
X85250500Y-98041124D01*
X85220698Y-97891299D01*
X85211474Y-97869031D01*
X85162243Y-97750174D01*
X85162234Y-97750159D01*
X85077372Y-97623155D01*
X85077370Y-97623152D01*
X84969352Y-97515134D01*
X84939630Y-97495274D01*
X84842344Y-97430269D01*
X84842329Y-97430260D01*
X84701206Y-97371806D01*
X84701202Y-97371805D01*
X84551380Y-97342004D01*
X83748620Y-97342004D01*
X83598797Y-97371805D01*
X83598793Y-97371806D01*
X83457670Y-97430260D01*
X83457655Y-97430269D01*
X83330651Y-97515131D01*
X83330644Y-97515137D01*
X83222633Y-97623148D01*
X83222627Y-97623155D01*
X83137765Y-97750159D01*
X83137756Y-97750174D01*
X83079302Y-97891297D01*
X83079301Y-97891301D01*
X83049500Y-98041123D01*
X82627826Y-98041123D01*
X82627826Y-96673510D01*
X86199500Y-96673510D01*
X86199500Y-96811497D01*
X86226419Y-96946829D01*
X86226420Y-96946833D01*
X86279224Y-97074313D01*
X86279227Y-97074319D01*
X86351054Y-97181815D01*
X86355886Y-97189046D01*
X86453458Y-97286618D01*
X86453461Y-97286620D01*
X86568184Y-97363276D01*
X86568186Y-97363277D01*
X86568189Y-97363279D01*
X86695672Y-97416084D01*
X86695676Y-97416084D01*
X86695677Y-97416085D01*
X86707902Y-97418517D01*
X86777077Y-97452628D01*
X86819928Y-97516758D01*
X86824973Y-97593720D01*
X86816494Y-97621673D01*
X86785067Y-97697544D01*
X86785066Y-97697546D01*
X86749500Y-97876346D01*
X86749500Y-98058661D01*
X86785066Y-98237461D01*
X86785067Y-98237463D01*
X86829076Y-98343710D01*
X86854833Y-98405893D01*
X86956117Y-98557476D01*
X87085028Y-98686387D01*
X87236611Y-98787671D01*
X87405042Y-98857437D01*
X87583846Y-98893004D01*
X87583850Y-98893004D01*
X88316150Y-98893004D01*
X88316154Y-98893004D01*
X88494958Y-98857437D01*
X88663389Y-98787671D01*
X88814972Y-98686387D01*
X88943883Y-98557476D01*
X89045167Y-98405893D01*
X89114933Y-98237462D01*
X89150500Y-98058658D01*
X89150500Y-97876350D01*
X89114933Y-97697546D01*
X89045167Y-97529115D01*
X88943883Y-97377532D01*
X88814972Y-97248621D01*
X88663389Y-97147337D01*
X88663382Y-97147334D01*
X88663380Y-97147333D01*
X88494959Y-97077571D01*
X88494957Y-97077570D01*
X88316157Y-97042004D01*
X88316154Y-97042004D01*
X87736206Y-97042004D01*
X87661706Y-97022042D01*
X87607168Y-96967504D01*
X87587206Y-96893004D01*
X87590069Y-96863935D01*
X87591073Y-96858888D01*
X87600500Y-96811497D01*
X87600500Y-96673511D01*
X87597609Y-96658979D01*
X87574908Y-96544854D01*
X87573580Y-96538176D01*
X87520775Y-96410693D01*
X87510281Y-96394988D01*
X87444116Y-96295965D01*
X87444114Y-96295962D01*
X87346542Y-96198390D01*
X87346538Y-96198387D01*
X87231815Y-96121731D01*
X87231809Y-96121728D01*
X87104329Y-96068924D01*
X87104325Y-96068923D01*
X86968993Y-96042004D01*
X86831007Y-96042004D01*
X86695674Y-96068923D01*
X86695670Y-96068924D01*
X86568190Y-96121728D01*
X86568184Y-96121731D01*
X86453461Y-96198387D01*
X86453454Y-96198393D01*
X86355889Y-96295958D01*
X86355883Y-96295965D01*
X86279227Y-96410688D01*
X86279224Y-96410694D01*
X86226420Y-96538174D01*
X86226419Y-96538178D01*
X86199500Y-96673510D01*
X82627826Y-96673510D01*
X82627826Y-91673510D01*
X86199500Y-91673510D01*
X86199500Y-91811497D01*
X86226419Y-91946829D01*
X86226420Y-91946833D01*
X86279224Y-92074313D01*
X86279227Y-92074319D01*
X86340613Y-92166189D01*
X86355886Y-92189046D01*
X86453458Y-92286618D01*
X86453461Y-92286620D01*
X86568184Y-92363276D01*
X86568186Y-92363277D01*
X86568189Y-92363279D01*
X86695672Y-92416084D01*
X86831007Y-92443004D01*
X86968993Y-92443004D01*
X87013726Y-92434106D01*
X89999500Y-92434106D01*
X89999500Y-92434108D01*
X89999500Y-92565892D01*
X90033608Y-92693186D01*
X90037831Y-92700500D01*
X90099497Y-92807310D01*
X90099498Y-92807311D01*
X90099500Y-92807314D01*
X90192686Y-92900500D01*
X90306814Y-92966392D01*
X90434108Y-93000500D01*
X90565892Y-93000500D01*
X90693186Y-92966392D01*
X90693189Y-92966390D01*
X90693190Y-92966390D01*
X90702211Y-92962654D01*
X90703516Y-92965806D01*
X90760629Y-92950500D01*
X91251679Y-92950500D01*
X91326179Y-92970462D01*
X91357037Y-92994140D01*
X92973386Y-94610490D01*
X93076113Y-94669799D01*
X93100317Y-94676283D01*
X93100324Y-94676287D01*
X93100325Y-94676286D01*
X93124539Y-94682774D01*
X93190691Y-94700500D01*
X93664364Y-94700500D01*
X93721483Y-94715805D01*
X93722789Y-94712654D01*
X93731809Y-94716390D01*
X93731811Y-94716390D01*
X93731814Y-94716392D01*
X93859108Y-94750500D01*
X93990892Y-94750500D01*
X93990897Y-94750499D01*
X94019839Y-94742743D01*
X94036934Y-94738162D01*
X94114062Y-94738161D01*
X94180857Y-94776724D01*
X94219422Y-94843519D01*
X94224500Y-94882085D01*
X94224500Y-100444800D01*
X94232950Y-100465199D01*
X94251710Y-100510489D01*
X94266442Y-100546057D01*
X94266443Y-100546058D01*
X99575860Y-105855476D01*
X99614423Y-105922269D01*
X99619500Y-105960833D01*
X99619500Y-106075892D01*
X99653608Y-106203186D01*
X99673270Y-106237242D01*
X99719497Y-106317310D01*
X99719498Y-106317311D01*
X99719500Y-106317314D01*
X99812686Y-106410500D01*
X99926814Y-106476392D01*
X100054108Y-106510500D01*
X100185892Y-106510500D01*
X100313186Y-106476392D01*
X100427314Y-106410500D01*
X100520500Y-106317314D01*
X100586392Y-106203186D01*
X100620500Y-106075892D01*
X100620500Y-105944108D01*
X100586392Y-105816814D01*
X100526647Y-105713333D01*
X100520502Y-105702689D01*
X100520501Y-105702688D01*
X100520500Y-105702686D01*
X100427314Y-105609500D01*
X100427311Y-105609498D01*
X100427310Y-105609497D01*
X100340367Y-105559301D01*
X100313186Y-105543608D01*
X100185892Y-105509500D01*
X100070834Y-105509500D01*
X99996334Y-105489538D01*
X99965475Y-105465859D01*
X94819141Y-100319525D01*
X94780577Y-100252730D01*
X94775500Y-100214166D01*
X94775500Y-95734106D01*
X95174500Y-95734106D01*
X95174500Y-95734108D01*
X95174500Y-95865892D01*
X95208608Y-95993186D01*
X95233623Y-96036514D01*
X95274497Y-96107310D01*
X95274498Y-96107311D01*
X95274500Y-96107314D01*
X95367686Y-96200500D01*
X95367688Y-96200501D01*
X95367689Y-96200502D01*
X95375695Y-96205124D01*
X95481814Y-96266392D01*
X95609108Y-96300500D01*
X95740892Y-96300500D01*
X95868186Y-96266392D01*
X95982314Y-96200500D01*
X96075500Y-96107314D01*
X96141392Y-95993186D01*
X96141393Y-95993179D01*
X96145129Y-95984163D01*
X96148287Y-95985471D01*
X96177807Y-95934295D01*
X96177806Y-95934295D01*
X98167962Y-93944141D01*
X98234757Y-93905577D01*
X98273321Y-93900500D01*
X98739364Y-93900500D01*
X98796483Y-93915805D01*
X98797789Y-93912654D01*
X98806809Y-93916390D01*
X98806811Y-93916390D01*
X98806814Y-93916392D01*
X98934108Y-93950500D01*
X99065892Y-93950500D01*
X99193186Y-93916392D01*
X99307314Y-93850500D01*
X99400500Y-93757314D01*
X99466392Y-93643186D01*
X99500500Y-93515892D01*
X99500500Y-93384108D01*
X99466392Y-93256814D01*
X99400500Y-93142686D01*
X99307314Y-93049500D01*
X99307311Y-93049498D01*
X99307310Y-93049497D01*
X99231769Y-93005884D01*
X99193186Y-92983608D01*
X99065892Y-92949500D01*
X98934108Y-92949500D01*
X98806809Y-92983609D01*
X98797789Y-92987346D01*
X98796483Y-92984193D01*
X98739371Y-92999500D01*
X97965687Y-92999500D01*
X97875326Y-93023712D01*
X97875326Y-93023713D01*
X97851113Y-93030201D01*
X97748389Y-93089508D01*
X97748388Y-93089509D01*
X95540744Y-95297151D01*
X95489537Y-95326721D01*
X95490841Y-95329869D01*
X95481810Y-95333609D01*
X95367692Y-95399495D01*
X95367688Y-95399498D01*
X95274497Y-95492689D01*
X95236152Y-95559106D01*
X95208608Y-95606814D01*
X95192778Y-95665890D01*
X95174500Y-95734106D01*
X94775500Y-95734106D01*
X94775500Y-90945201D01*
X94775499Y-90945197D01*
X94770018Y-90931964D01*
X94756584Y-90899533D01*
X94733558Y-90843942D01*
X93998016Y-90108400D01*
X93294141Y-89404525D01*
X93255577Y-89337730D01*
X93250500Y-89299166D01*
X93250500Y-89184108D01*
X93250499Y-89184106D01*
X93216392Y-89056814D01*
X93160785Y-88960500D01*
X93150502Y-88942689D01*
X93150501Y-88942688D01*
X93150500Y-88942686D01*
X93057314Y-88849500D01*
X93057311Y-88849498D01*
X93057310Y-88849497D01*
X92986514Y-88808623D01*
X92943186Y-88783608D01*
X92815892Y-88749500D01*
X92684108Y-88749500D01*
X92556814Y-88783608D01*
X92556812Y-88783608D01*
X92556812Y-88783609D01*
X92442689Y-88849497D01*
X92349497Y-88942689D01*
X92297260Y-89033168D01*
X92283608Y-89056814D01*
X92273615Y-89094109D01*
X92249500Y-89184106D01*
X92249500Y-89184108D01*
X92249500Y-89315892D01*
X92283608Y-89443186D01*
X92283609Y-89443187D01*
X92349497Y-89557310D01*
X92349498Y-89557311D01*
X92349500Y-89557314D01*
X92442686Y-89650500D01*
X92556814Y-89716392D01*
X92684108Y-89750500D01*
X92799167Y-89750500D01*
X92873667Y-89770462D01*
X92904526Y-89794141D01*
X94180859Y-91070474D01*
X94219423Y-91137269D01*
X94224500Y-91175833D01*
X94224500Y-93617914D01*
X94204538Y-93692414D01*
X94150000Y-93746952D01*
X94075500Y-93766914D01*
X94036936Y-93761837D01*
X93990895Y-93749500D01*
X93990892Y-93749500D01*
X93859108Y-93749500D01*
X93731809Y-93783609D01*
X93722789Y-93787346D01*
X93721483Y-93784193D01*
X93664371Y-93799500D01*
X93498322Y-93799500D01*
X93423822Y-93779538D01*
X93392963Y-93755859D01*
X92989990Y-93352886D01*
X91776614Y-92139511D01*
X91776611Y-92139509D01*
X91776607Y-92139506D01*
X91673890Y-92080202D01*
X91673887Y-92080201D01*
X91649673Y-92073713D01*
X91559309Y-92049500D01*
X90760636Y-92049500D01*
X90703516Y-92034194D01*
X90702211Y-92037346D01*
X90693190Y-92033609D01*
X90565892Y-91999500D01*
X90434108Y-91999500D01*
X90306814Y-92033608D01*
X90306812Y-92033608D01*
X90306812Y-92033609D01*
X90192689Y-92099497D01*
X90099497Y-92192689D01*
X90037280Y-92300454D01*
X90033608Y-92306814D01*
X90018479Y-92363276D01*
X89999500Y-92434106D01*
X87013726Y-92434106D01*
X87104328Y-92416084D01*
X87231811Y-92363279D01*
X87346542Y-92286618D01*
X87444114Y-92189046D01*
X87520775Y-92074315D01*
X87573580Y-91946832D01*
X87600500Y-91811497D01*
X87600500Y-91673511D01*
X87590069Y-91621071D01*
X87595113Y-91544110D01*
X87637963Y-91479980D01*
X87707137Y-91445867D01*
X87736206Y-91443004D01*
X88316150Y-91443004D01*
X88316154Y-91443004D01*
X88494958Y-91407437D01*
X88663389Y-91337671D01*
X88814972Y-91236387D01*
X88943883Y-91107476D01*
X89045167Y-90955893D01*
X89114933Y-90787462D01*
X89150500Y-90608658D01*
X89150500Y-90426350D01*
X89114933Y-90247546D01*
X89045167Y-90079115D01*
X88943883Y-89927532D01*
X88814972Y-89798621D01*
X88663389Y-89697337D01*
X88663382Y-89697334D01*
X88663380Y-89697333D01*
X88494959Y-89627571D01*
X88494957Y-89627570D01*
X88316157Y-89592004D01*
X88316154Y-89592004D01*
X87583846Y-89592004D01*
X87583842Y-89592004D01*
X87405042Y-89627570D01*
X87405040Y-89627571D01*
X87236619Y-89697333D01*
X87236613Y-89697335D01*
X87236611Y-89697337D01*
X87236608Y-89697338D01*
X87236606Y-89697340D01*
X87085029Y-89798620D01*
X87085024Y-89798624D01*
X86956120Y-89927528D01*
X86956116Y-89927533D01*
X86854836Y-90079110D01*
X86854829Y-90079123D01*
X86785067Y-90247544D01*
X86785066Y-90247546D01*
X86749500Y-90426346D01*
X86749500Y-90608661D01*
X86785066Y-90787460D01*
X86785067Y-90787462D01*
X86815881Y-90861855D01*
X86816494Y-90863333D01*
X86826561Y-90939802D01*
X86797046Y-91011059D01*
X86735856Y-91058011D01*
X86707910Y-91066489D01*
X86695675Y-91068923D01*
X86695670Y-91068924D01*
X86568190Y-91121728D01*
X86568184Y-91121731D01*
X86453461Y-91198387D01*
X86453454Y-91198393D01*
X86355889Y-91295958D01*
X86355883Y-91295965D01*
X86279227Y-91410688D01*
X86279224Y-91410694D01*
X86226420Y-91538174D01*
X86226419Y-91538178D01*
X86199500Y-91673510D01*
X82627826Y-91673510D01*
X82627826Y-90291123D01*
X83049500Y-90291123D01*
X83049500Y-90443884D01*
X83079301Y-90593706D01*
X83079302Y-90593710D01*
X83137756Y-90734833D01*
X83137765Y-90734848D01*
X83218645Y-90855892D01*
X83222630Y-90861856D01*
X83330648Y-90969874D01*
X83330651Y-90969876D01*
X83457655Y-91054738D01*
X83457670Y-91054747D01*
X83568130Y-91100500D01*
X83598795Y-91113202D01*
X83748620Y-91143004D01*
X84551380Y-91143004D01*
X84701205Y-91113202D01*
X84772651Y-91083608D01*
X84842329Y-91054747D01*
X84842332Y-91054744D01*
X84842337Y-91054743D01*
X84969352Y-90969874D01*
X85077370Y-90861856D01*
X85162239Y-90734841D01*
X85162240Y-90734836D01*
X85162243Y-90734833D01*
X85200411Y-90642686D01*
X85220698Y-90593709D01*
X85250500Y-90443884D01*
X85250500Y-90291124D01*
X85242220Y-90249500D01*
X85232275Y-90199500D01*
X85220698Y-90141299D01*
X85194944Y-90079123D01*
X85162243Y-90000174D01*
X85162234Y-90000159D01*
X85077372Y-89873155D01*
X85077370Y-89873152D01*
X84969352Y-89765134D01*
X84959485Y-89758541D01*
X84842344Y-89680269D01*
X84842329Y-89680260D01*
X84701206Y-89621806D01*
X84701202Y-89621805D01*
X84551380Y-89592004D01*
X83748620Y-89592004D01*
X83598797Y-89621805D01*
X83598793Y-89621806D01*
X83457670Y-89680260D01*
X83457655Y-89680269D01*
X83330651Y-89765131D01*
X83330644Y-89765137D01*
X83222633Y-89873148D01*
X83222627Y-89873155D01*
X83137765Y-90000159D01*
X83137756Y-90000174D01*
X83079302Y-90141297D01*
X83079301Y-90141301D01*
X83049500Y-90291123D01*
X82627826Y-90291123D01*
X82627826Y-86079455D01*
X83350000Y-86079455D01*
X83350000Y-86315554D01*
X83386934Y-86548755D01*
X83459894Y-86773298D01*
X83459898Y-86773310D01*
X83567086Y-86983676D01*
X83567090Y-86983683D01*
X83627340Y-87066610D01*
X84326212Y-86367738D01*
X84337482Y-86409797D01*
X84409890Y-86535213D01*
X84512292Y-86637615D01*
X84637708Y-86710023D01*
X84679765Y-86721292D01*
X83980893Y-87420163D01*
X84063828Y-87480418D01*
X84274194Y-87587606D01*
X84274206Y-87587610D01*
X84498749Y-87660570D01*
X84731951Y-87697505D01*
X84968049Y-87697505D01*
X85201250Y-87660570D01*
X85425793Y-87587610D01*
X85425810Y-87587603D01*
X85636167Y-87480421D01*
X85636172Y-87480418D01*
X85719105Y-87420164D01*
X85719105Y-87420163D01*
X85020234Y-86721292D01*
X85062292Y-86710023D01*
X85187708Y-86637615D01*
X85290110Y-86535213D01*
X85362518Y-86409797D01*
X85373787Y-86367739D01*
X86072658Y-87066610D01*
X86072659Y-87066610D01*
X86132913Y-86983677D01*
X86132916Y-86983672D01*
X86240098Y-86773315D01*
X86240105Y-86773298D01*
X86313065Y-86548755D01*
X86350000Y-86315554D01*
X86350000Y-86103023D01*
X88149500Y-86103023D01*
X88149500Y-86291985D01*
X88179060Y-86478622D01*
X88237453Y-86658336D01*
X88323240Y-86826703D01*
X88434310Y-86979577D01*
X88567927Y-87113194D01*
X88720801Y-87224264D01*
X88889168Y-87310051D01*
X89068882Y-87368444D01*
X89255519Y-87398004D01*
X89255524Y-87398004D01*
X89444476Y-87398004D01*
X89444481Y-87398004D01*
X89631118Y-87368444D01*
X89810832Y-87310051D01*
X89979199Y-87224264D01*
X90132073Y-87113194D01*
X90265690Y-86979577D01*
X90376760Y-86826703D01*
X90462547Y-86658336D01*
X90520940Y-86478622D01*
X90550500Y-86291985D01*
X90550500Y-86103023D01*
X90520940Y-85916386D01*
X90462547Y-85736672D01*
X90403966Y-85621699D01*
X90376762Y-85568308D01*
X90376760Y-85568305D01*
X90330430Y-85504538D01*
X90310795Y-85477513D01*
X90265690Y-85415431D01*
X90132073Y-85281814D01*
X89979199Y-85170744D01*
X89925113Y-85143186D01*
X89810842Y-85084962D01*
X89810841Y-85084961D01*
X89810832Y-85084957D01*
X89631118Y-85026564D01*
X89444481Y-84997004D01*
X89255519Y-84997004D01*
X89068882Y-85026564D01*
X88889168Y-85084957D01*
X88889163Y-85084959D01*
X88889157Y-85084962D01*
X88720804Y-85170742D01*
X88720799Y-85170745D01*
X88567936Y-85281807D01*
X88567925Y-85281816D01*
X88434312Y-85415429D01*
X88434303Y-85415440D01*
X88323241Y-85568303D01*
X88323238Y-85568308D01*
X88237458Y-85736661D01*
X88237451Y-85736678D01*
X88208226Y-85826624D01*
X88179060Y-85916386D01*
X88149500Y-86103023D01*
X86350000Y-86103023D01*
X86350000Y-86079455D01*
X86313065Y-85846254D01*
X86240105Y-85621711D01*
X86240101Y-85621699D01*
X86132913Y-85411333D01*
X86132913Y-85411332D01*
X86072658Y-85328398D01*
X85373787Y-86027269D01*
X85362518Y-85985213D01*
X85290110Y-85859797D01*
X85187708Y-85757395D01*
X85062292Y-85684987D01*
X85020233Y-85673717D01*
X85719105Y-84974845D01*
X85719105Y-84974844D01*
X85636178Y-84914595D01*
X85636171Y-84914591D01*
X85425805Y-84807403D01*
X85425793Y-84807399D01*
X85201250Y-84734439D01*
X84968049Y-84697505D01*
X84731951Y-84697505D01*
X84498749Y-84734439D01*
X84274206Y-84807399D01*
X84274194Y-84807403D01*
X84063828Y-84914591D01*
X84063823Y-84914594D01*
X83980893Y-84974844D01*
X84679766Y-85673717D01*
X84637708Y-85684987D01*
X84512292Y-85757395D01*
X84409890Y-85859797D01*
X84337482Y-85985213D01*
X84326212Y-86027271D01*
X83627339Y-85328398D01*
X83567089Y-85411328D01*
X83567086Y-85411333D01*
X83459898Y-85621699D01*
X83459894Y-85621711D01*
X83386934Y-85846254D01*
X83350000Y-86079455D01*
X82627826Y-86079455D01*
X82627826Y-79603023D01*
X83649499Y-79603023D01*
X83649499Y-79791985D01*
X83679059Y-79978622D01*
X83737452Y-80158336D01*
X83737456Y-80158345D01*
X83737457Y-80158346D01*
X83757964Y-80198594D01*
X83823239Y-80326703D01*
X83934309Y-80479577D01*
X84067926Y-80613194D01*
X84220800Y-80724264D01*
X84389167Y-80810051D01*
X84568881Y-80868444D01*
X84755518Y-80898004D01*
X84755523Y-80898004D01*
X84944475Y-80898004D01*
X84944480Y-80898004D01*
X85131117Y-80868444D01*
X85310831Y-80810051D01*
X85479198Y-80724264D01*
X85632072Y-80613194D01*
X85765689Y-80479577D01*
X85876759Y-80326703D01*
X85962546Y-80158336D01*
X86020939Y-79978622D01*
X86050499Y-79791985D01*
X86050499Y-79603023D01*
X88149500Y-79603023D01*
X88149500Y-79791985D01*
X88179060Y-79978622D01*
X88237453Y-80158336D01*
X88237457Y-80158345D01*
X88237458Y-80158346D01*
X88257965Y-80198594D01*
X88323240Y-80326703D01*
X88434310Y-80479577D01*
X88567927Y-80613194D01*
X88720801Y-80724264D01*
X88889168Y-80810051D01*
X89068882Y-80868444D01*
X89255519Y-80898004D01*
X89255524Y-80898004D01*
X89444476Y-80898004D01*
X89444481Y-80898004D01*
X89631118Y-80868444D01*
X89810832Y-80810051D01*
X89979199Y-80724264D01*
X90132073Y-80613194D01*
X90265690Y-80479577D01*
X90376760Y-80326703D01*
X90462547Y-80158336D01*
X90520940Y-79978622D01*
X90550500Y-79791985D01*
X90550500Y-79603023D01*
X90520940Y-79416386D01*
X90462547Y-79236672D01*
X90376760Y-79068305D01*
X90265690Y-78915431D01*
X90132073Y-78781814D01*
X89979199Y-78670744D01*
X89810832Y-78584957D01*
X89631118Y-78526564D01*
X89444481Y-78497004D01*
X89255519Y-78497004D01*
X89068882Y-78526564D01*
X88889168Y-78584957D01*
X88889163Y-78584959D01*
X88889157Y-78584962D01*
X88720804Y-78670742D01*
X88720799Y-78670745D01*
X88567936Y-78781807D01*
X88567925Y-78781816D01*
X88434312Y-78915429D01*
X88434303Y-78915440D01*
X88323241Y-79068303D01*
X88323238Y-79068308D01*
X88237458Y-79236661D01*
X88237451Y-79236678D01*
X88214946Y-79305941D01*
X88179060Y-79416386D01*
X88149500Y-79603023D01*
X86050499Y-79603023D01*
X86020939Y-79416386D01*
X85962546Y-79236672D01*
X85876759Y-79068305D01*
X85765689Y-78915431D01*
X85632072Y-78781814D01*
X85479198Y-78670744D01*
X85310831Y-78584957D01*
X85131117Y-78526564D01*
X84944480Y-78497004D01*
X84755518Y-78497004D01*
X84568881Y-78526564D01*
X84389167Y-78584957D01*
X84389162Y-78584959D01*
X84389156Y-78584962D01*
X84220803Y-78670742D01*
X84220798Y-78670745D01*
X84067935Y-78781807D01*
X84067924Y-78781816D01*
X83934311Y-78915429D01*
X83934302Y-78915440D01*
X83823240Y-79068303D01*
X83823237Y-79068308D01*
X83737457Y-79236661D01*
X83737450Y-79236678D01*
X83714945Y-79305941D01*
X83679059Y-79416386D01*
X83649499Y-79603023D01*
X82627826Y-79603023D01*
X82627826Y-76949000D01*
X82647788Y-76874500D01*
X82702326Y-76819962D01*
X82776826Y-76800000D01*
X103382913Y-76800000D01*
X103457413Y-76819962D01*
G37*
%TD.AperFunction*%
%TA.AperFunction,Conductor*%
G36*
X113383458Y-99077986D02*
G01*
X113422023Y-99144780D01*
X113427100Y-99183345D01*
X113427100Y-104357400D01*
X113444953Y-104400500D01*
X113444952Y-104400500D01*
X113446138Y-104403361D01*
X113456216Y-104479827D01*
X113426711Y-104551089D01*
X113365527Y-104598050D01*
X113308488Y-104609400D01*
X112993500Y-104609400D01*
X112993500Y-105526388D01*
X112936493Y-105493475D01*
X112809326Y-105459400D01*
X112677674Y-105459400D01*
X112550507Y-105493475D01*
X112493500Y-105526388D01*
X112493500Y-104609400D01*
X112149233Y-104609400D01*
X112074733Y-104589438D01*
X112020195Y-104534900D01*
X112000233Y-104460400D01*
X112020195Y-104385900D01*
X112043874Y-104355041D01*
X112210431Y-104188484D01*
X112697557Y-103701359D01*
X112725641Y-103633557D01*
X112725642Y-103633555D01*
X112739500Y-103600101D01*
X112739500Y-99207085D01*
X112759462Y-99132585D01*
X112814000Y-99078047D01*
X112888500Y-99058085D01*
X112927064Y-99063162D01*
X112932932Y-99064735D01*
X112973102Y-99075499D01*
X112973108Y-99075500D01*
X113104892Y-99075500D01*
X113232186Y-99041392D01*
X113232188Y-99041390D01*
X113239535Y-99039422D01*
X113316663Y-99039422D01*
X113383458Y-99077986D01*
G37*
%TD.AperFunction*%
%TA.AperFunction,Conductor*%
G36*
X104971767Y-87695462D02*
G01*
X105002625Y-87719140D01*
X109067041Y-91783557D01*
X109089805Y-91792986D01*
X109168300Y-91825500D01*
X109505969Y-91825500D01*
X109580469Y-91845462D01*
X109611323Y-91869137D01*
X109692686Y-91950500D01*
X109692688Y-91950501D01*
X109692689Y-91950502D01*
X109703615Y-91956810D01*
X109806814Y-92016392D01*
X109934108Y-92050500D01*
X110050166Y-92050500D01*
X110124666Y-92070462D01*
X110179204Y-92125000D01*
X110199166Y-92199500D01*
X110179204Y-92274000D01*
X110155525Y-92304859D01*
X109910570Y-92549813D01*
X109843775Y-92588377D01*
X109766647Y-92588377D01*
X109699852Y-92549813D01*
X109676174Y-92518954D01*
X109650500Y-92474486D01*
X109557314Y-92381300D01*
X109557311Y-92381298D01*
X109557310Y-92381297D01*
X109486514Y-92340423D01*
X109443186Y-92315408D01*
X109315892Y-92281300D01*
X109184108Y-92281300D01*
X109056814Y-92315408D01*
X109056812Y-92315408D01*
X109056812Y-92315409D01*
X108942689Y-92381297D01*
X108942688Y-92381298D01*
X108942686Y-92381299D01*
X108942686Y-92381300D01*
X108861325Y-92462660D01*
X108794533Y-92501223D01*
X108755969Y-92506300D01*
X104141866Y-92506300D01*
X104067366Y-92486338D01*
X104012828Y-92431800D01*
X103992866Y-92357300D01*
X103997942Y-92318739D01*
X104025500Y-92215892D01*
X104025500Y-92084108D01*
X103991392Y-91956814D01*
X103991390Y-91956810D01*
X103970462Y-91920561D01*
X103950500Y-91846062D01*
X103950500Y-91249500D01*
X103970462Y-91175000D01*
X104025000Y-91120462D01*
X104099500Y-91100500D01*
X105089364Y-91100500D01*
X105146483Y-91115805D01*
X105147789Y-91112654D01*
X105156809Y-91116390D01*
X105156811Y-91116390D01*
X105156814Y-91116392D01*
X105284108Y-91150500D01*
X105415892Y-91150500D01*
X105543186Y-91116392D01*
X105657314Y-91050500D01*
X105750500Y-90957314D01*
X105816392Y-90843186D01*
X105850500Y-90715892D01*
X105850500Y-90584108D01*
X105816392Y-90456814D01*
X105750500Y-90342686D01*
X105657314Y-90249500D01*
X105657311Y-90249498D01*
X105657310Y-90249497D01*
X105586514Y-90208623D01*
X105543186Y-90183608D01*
X105415892Y-90149500D01*
X105284108Y-90149500D01*
X105156809Y-90183609D01*
X105147789Y-90187346D01*
X105146483Y-90184193D01*
X105089371Y-90199500D01*
X103885746Y-90199500D01*
X103822776Y-90185540D01*
X103759487Y-90156028D01*
X103709902Y-90149500D01*
X103290102Y-90149500D01*
X103290101Y-90149500D01*
X103290100Y-90149501D01*
X103265306Y-90152764D01*
X103240512Y-90156028D01*
X103212823Y-90168940D01*
X103149853Y-90182900D01*
X102794999Y-90182900D01*
X102720499Y-90162938D01*
X102665961Y-90108400D01*
X102645999Y-90033900D01*
X102645999Y-89948957D01*
X102645998Y-89948951D01*
X102635720Y-89878391D01*
X102635720Y-89878390D01*
X102635720Y-89878389D01*
X102586640Y-89777994D01*
X102571500Y-89712554D01*
X102571500Y-89104476D01*
X102571604Y-89102868D01*
X102571590Y-89094111D01*
X102571591Y-89094109D01*
X102571500Y-89035761D01*
X102571500Y-88976191D01*
X102571500Y-88976189D01*
X102571408Y-88975499D01*
X102556145Y-88918885D01*
X102556085Y-88918664D01*
X102540799Y-88861614D01*
X102540794Y-88861606D01*
X102540529Y-88860967D01*
X102540528Y-88860961D01*
X102510806Y-88809665D01*
X102510690Y-88809464D01*
X102481483Y-88758875D01*
X102481065Y-88758332D01*
X102474302Y-88751590D01*
X102435635Y-88684854D01*
X102431746Y-88655490D01*
X102430818Y-88655551D01*
X102430499Y-88650696D01*
X102430499Y-88650684D01*
X102424067Y-88601827D01*
X102374064Y-88494596D01*
X102364295Y-88484827D01*
X102353770Y-88459588D01*
X102350716Y-88436817D01*
X102342858Y-88415225D01*
X102345677Y-88399234D01*
X102343520Y-88383144D01*
X102352260Y-88361897D01*
X102356251Y-88339269D01*
X102369148Y-88320850D01*
X102372865Y-88311817D01*
X102378536Y-88307443D01*
X102385932Y-88296881D01*
X102400500Y-88282314D01*
X102466392Y-88168186D01*
X102500500Y-88040892D01*
X102500500Y-87909108D01*
X102488163Y-87863064D01*
X102488163Y-87785936D01*
X102526727Y-87719141D01*
X102593522Y-87680577D01*
X102632086Y-87675500D01*
X104897267Y-87675500D01*
X104971767Y-87695462D01*
G37*
%TD.AperFunction*%
%TA.AperFunction,Conductor*%
G36*
X123777413Y-76819962D02*
G01*
X123831951Y-76874500D01*
X123851913Y-76949000D01*
X123831951Y-77023500D01*
X123777413Y-77078038D01*
X123748956Y-77090707D01*
X123646779Y-77123906D01*
X123457444Y-77220378D01*
X123403282Y-77259728D01*
X123403282Y-77259729D01*
X124035590Y-77892037D01*
X123972007Y-77909075D01*
X123857993Y-77974901D01*
X123764901Y-78067993D01*
X123699075Y-78182007D01*
X123682037Y-78245591D01*
X123049727Y-77613280D01*
X123046792Y-77613512D01*
X122970955Y-77599455D01*
X122929747Y-77570331D01*
X122413773Y-77054358D01*
X122375210Y-76987564D01*
X122375210Y-76910436D01*
X122413774Y-76843641D01*
X122480569Y-76805077D01*
X122519133Y-76800000D01*
X123702913Y-76800000D01*
X123777413Y-76819962D01*
G37*
%TD.AperFunction*%
%TD*%
M02*
