M48
; DRILL file KiCad 10.0.5-1.fc44 date 2026-08-14T11:34:12
; FORMAT={-:-/ absolute / metric / decimal}
; #@! TF.CreationDate,2026-08-14T11:34:12+02:00
; #@! TF.GenerationSoftware,Kicad,Pcbnew,10.0.5-1.fc44
; #@! TF.FileFunction,Plated,1,2,PTH
FMAT,2
METRIC
; #@! TA.AperFunction,Plated,PTH,ViaDrill
T1C0.300
; #@! TA.AperFunction,Plated,PTH,ComponentDrill
T2C0.550
; #@! TA.AperFunction,Plated,PTH,ComponentDrill
T3C0.850
; #@! TA.AperFunction,Plated,PTH,ComponentDrill
T4C1.000
; #@! TA.AperFunction,Plated,PTH,ComponentDrill
T5C1.100
%
G90
G05
T1
X129.581Y-120.76
X129.581Y-130.761
X129.581Y-135.761
X129.96Y-126.16
X130.831Y-113.26
X130.831Y-118.26
X130.831Y-123.26
X130.831Y-133.261
X130.831Y-138.261
X132.081Y-115.76
X132.081Y-120.76
X133.331Y-113.26
X133.331Y-118.26
X133.331Y-123.26
X133.331Y-138.261
X134.581Y-110.76
X134.581Y-115.76
X134.581Y-120.76
X134.581Y-130.761
X135.326Y-133.15
X135.6Y-135.4
X135.831Y-113.26
X135.831Y-123.26
X135.831Y-138.261
X135.87Y-118.11
X136.8Y-131.0
X137.0Y-126.0
X137.081Y-120.76
X137.081Y-135.761
X138.23Y-117.27
X138.331Y-113.26
X138.331Y-118.26
X138.331Y-138.261
X139.407Y-128.704
X139.45Y-120.23
X139.45Y-123.19
X139.581Y-130.761
X139.581Y-135.761
X140.831Y-118.26
X140.831Y-138.261
X142.081Y-115.76
X142.081Y-120.76
X142.081Y-130.761
X142.081Y-135.761
X142.8Y-119.2
X143.331Y-128.261
X143.331Y-138.261
X144.581Y-110.76
X144.581Y-115.76
X144.581Y-135.761
X145.017Y-130.637
X145.127Y-129.427
X145.68Y-134.45
X145.8Y-133.2
X145.831Y-118.26
X145.831Y-138.261
X146.6Y-132.2
X147.081Y-110.76
X147.081Y-115.76
X147.081Y-125.76
X147.081Y-135.761
X148.331Y-113.26
X148.331Y-133.261
X148.331Y-138.261
X148.425Y-123.05
X148.93Y-115.0
X149.047Y-113.503
X149.075Y-122.485
X149.08Y-119.86
X149.581Y-110.76
X149.581Y-115.76
X149.581Y-135.761
X149.725Y-120.37
X150.397Y-120.804
X150.831Y-133.261
X150.831Y-138.261
X151.08Y-122.81
X152.081Y-110.76
X152.081Y-135.761
X152.28Y-120.44
X153.331Y-113.26
X153.331Y-138.261
X154.376Y-118.524
X154.581Y-110.76
X154.581Y-115.76
X155.831Y-113.26
X155.831Y-138.261
X156.254Y-118.7
X156.325Y-132.425
X157.081Y-110.76
X157.2Y-114.2
X157.445Y-127.997
X157.7Y-125.33
X158.331Y-113.26
X158.331Y-138.261
X158.4Y-120.0
X158.47Y-127.95
X159.4Y-118.8
X159.4Y-122.2
X159.484Y-125.796
X159.581Y-110.76
X160.46Y-127.38
X160.504Y-129.774
X160.831Y-138.261
X161.185Y-120.415
X162.081Y-110.76
X162.081Y-115.76
X162.12Y-131.15
X162.643Y-119.806
X162.67Y-128.25
X162.99Y-125.92
X163.03Y-120.84
X163.331Y-138.261
X163.45Y-131.16
X164.581Y-110.76
X165.831Y-138.261
X167.081Y-120.76
X168.331Y-118.26
X168.331Y-128.261
X168.331Y-138.261
X169.581Y-110.76
X169.581Y-115.76
X169.581Y-120.76
X169.581Y-125.76
X169.581Y-130.761
X170.831Y-118.26
X170.831Y-123.26
X170.831Y-128.261
X170.831Y-138.261
X172.081Y-110.76
X172.081Y-115.76
X172.081Y-120.76
X172.081Y-125.76
X172.081Y-130.761
X173.331Y-118.26
X173.331Y-123.26
X173.331Y-128.261
X173.331Y-138.261
X174.581Y-110.76
X174.581Y-115.76
X174.581Y-120.76
X174.581Y-125.76
X174.581Y-130.761
X175.831Y-118.26
X175.831Y-123.26
X175.831Y-128.261
X175.831Y-138.261
X176.475Y-115.65
X177.081Y-120.76
X177.081Y-125.76
X177.665Y-127.415
X177.81Y-132.69
X178.331Y-118.26
X178.331Y-123.26
X178.331Y-138.261
X179.581Y-120.76
X179.581Y-125.76
X180.229Y-131.417
X180.831Y-118.26
X180.831Y-138.261
X181.529Y-131.892
X182.081Y-110.76
X182.081Y-120.76
X182.081Y-125.76
X182.3Y-113.75
X182.769Y-131.417
X183.331Y-118.26
X183.331Y-138.261
X183.34Y-112.99
X184.069Y-131.892
X184.581Y-110.76
X184.581Y-120.76
X184.581Y-125.76
X184.581Y-135.761
X185.275Y-116.975
X185.831Y-113.26
X185.831Y-118.26
X185.831Y-123.26
X185.831Y-138.261
X186.609Y-131.892
X187.081Y-110.76
X187.081Y-120.76
X187.081Y-125.76
X187.081Y-135.761
X188.331Y-113.26
X188.331Y-118.26
X188.331Y-123.26
X188.331Y-128.261
X188.331Y-133.261
X188.331Y-138.261
X189.581Y-110.76
X189.581Y-115.76
X189.581Y-120.76
X189.581Y-125.76
X189.581Y-130.761
X189.581Y-135.761
X190.831Y-113.26
X190.831Y-118.26
X190.831Y-123.26
X190.831Y-128.261
X190.831Y-133.261
X190.831Y-138.261
X192.081Y-110.76
X192.081Y-120.76
X192.081Y-125.76
X192.081Y-135.761
X192.145Y-127.325
X192.16Y-116.89
X193.331Y-113.26
X193.331Y-118.26
X193.331Y-123.26
X193.331Y-133.261
X193.331Y-138.261
X194.581Y-110.76
X194.581Y-120.76
X194.581Y-135.761
X195.023Y-124.7
X195.023Y-126.9
X195.831Y-113.26
X195.831Y-118.26
X195.831Y-133.261
X195.831Y-138.261
X195.945Y-124.7
X195.945Y-126.9
X196.846Y-123.068
X196.866Y-124.7
X196.866Y-126.9
X197.081Y-110.76
X197.081Y-115.76
X197.081Y-120.76
X197.081Y-130.761
X197.081Y-135.761
X197.64Y-124.7
X197.64Y-126.9
X198.331Y-113.26
X198.331Y-118.26
X198.331Y-133.261
X198.331Y-138.261
X199.577Y-130.2
X199.581Y-110.76
X199.581Y-115.76
X199.581Y-135.761
X199.602Y-121.45
X200.831Y-113.26
X200.831Y-118.26
X200.831Y-133.261
X200.831Y-138.261
T4
X141.856Y-112.241
X144.396Y-112.241
X146.936Y-112.241
X160.01Y-112.25
X162.55Y-112.25
X165.09Y-112.25
X166.973Y-122.019
X166.973Y-124.559
X166.973Y-127.099
X166.973Y-129.639
X167.63Y-112.25
T5
X130.54Y-110.59
X130.54Y-115.09
X137.04Y-110.59
X137.04Y-115.09
T2
X130.225Y-129.275G85X129.575Y-129.275
G05
X130.225Y-137.025G85X129.575Y-137.025
G05
T3
X133.975Y-129.425G85X133.425Y-129.425
G05
X133.975Y-136.875G85X133.425Y-136.875
G05
M30
