%TF.GenerationSoftware,KiCad,Pcbnew,10.0.5-1.fc44*%
%TF.CreationDate,2026-08-14T11:34:10+02:00*%
%TF.ProjectId,stm_lora,73746d5f-6c6f-4726-912e-6b696361645f,rev?*%
%TF.SameCoordinates,Original*%
%TF.FileFunction,Paste,Top*%
%TF.FilePolarity,Positive*%
%FSLAX46Y46*%
G04 Gerber Fmt 4.6, Leading zero omitted, Abs format (unit mm)*
G04 Created by KiCad (PCBNEW 10.0.5-1.fc44) date 2026-08-14 11:34:10*
%MOMM*%
%LPD*%
G01*
G04 APERTURE LIST*
G04 Aperture macros list*
%AMRoundRect*
0 Rectangle with rounded corners*
0 $1 Rounding radius*
0 $2 $3 $4 $5 $6 $7 $8 $9 X,Y pos of 4 corners*
0 Add a 4 corners polygon primitive as box body*
4,1,4,$2,$3,$4,$5,$6,$7,$8,$9,$2,$3,0*
0 Add four circle primitives for the rounded corners*
1,1,$1+$1,$2,$3*
1,1,$1+$1,$4,$5*
1,1,$1+$1,$6,$7*
1,1,$1+$1,$8,$9*
0 Add four rect primitives between the rounded corners*
20,1,$1+$1,$2,$3,$4,$5,0*
20,1,$1+$1,$4,$5,$6,$7,0*
20,1,$1+$1,$6,$7,$8,$9,0*
20,1,$1+$1,$8,$9,$2,$3,0*%
G04 Aperture macros list end*
%ADD10RoundRect,0.135000X0.035355X-0.226274X0.226274X-0.035355X-0.035355X0.226274X-0.226274X0.035355X0*%
%ADD11RoundRect,0.140000X-0.219203X-0.021213X-0.021213X-0.219203X0.219203X0.021213X0.021213X0.219203X0*%
%ADD12RoundRect,0.250000X0.250000X0.475000X-0.250000X0.475000X-0.250000X-0.475000X0.250000X-0.475000X0*%
%ADD13RoundRect,0.140000X-0.170000X0.140000X-0.170000X-0.140000X0.170000X-0.140000X0.170000X0.140000X0*%
%ADD14RoundRect,0.147500X0.172500X-0.147500X0.172500X0.147500X-0.172500X0.147500X-0.172500X-0.147500X0*%
%ADD15RoundRect,0.140000X0.219203X0.021213X0.021213X0.219203X-0.219203X-0.021213X-0.021213X-0.219203X0*%
%ADD16RoundRect,0.140000X0.021213X-0.219203X0.219203X-0.021213X-0.021213X0.219203X-0.219203X0.021213X0*%
%ADD17RoundRect,0.135000X-0.185000X0.135000X-0.185000X-0.135000X0.185000X-0.135000X0.185000X0.135000X0*%
%ADD18RoundRect,0.225000X0.017678X-0.335876X0.335876X-0.017678X-0.017678X0.335876X-0.335876X0.017678X0*%
%ADD19RoundRect,0.112500X-0.537500X0.112500X-0.537500X-0.112500X0.537500X-0.112500X0.537500X0.112500X0*%
%ADD20RoundRect,0.140000X0.140000X0.170000X-0.140000X0.170000X-0.140000X-0.170000X0.140000X-0.170000X0*%
%ADD21RoundRect,0.150000X-0.512500X-0.150000X0.512500X-0.150000X0.512500X0.150000X-0.512500X0.150000X0*%
%ADD22RoundRect,0.250000X0.565685X-0.070711X-0.070711X0.565685X-0.565685X0.070711X0.070711X-0.565685X0*%
%ADD23RoundRect,0.218750X-0.218750X-0.256250X0.218750X-0.256250X0.218750X0.256250X-0.218750X0.256250X0*%
%ADD24RoundRect,0.147500X-0.147500X-0.172500X0.147500X-0.172500X0.147500X0.172500X-0.147500X0.172500X0*%
%ADD25R,3.500000X1.500000*%
%ADD26RoundRect,0.075000X0.441942X0.548008X-0.548008X-0.441942X-0.441942X-0.548008X0.548008X0.441942X0*%
%ADD27RoundRect,0.075000X-0.441942X0.548008X-0.548008X0.441942X0.441942X-0.548008X0.548008X-0.441942X0*%
%ADD28RoundRect,0.135000X0.226274X0.035355X0.035355X0.226274X-0.226274X-0.035355X-0.035355X-0.226274X0*%
%ADD29RoundRect,0.140000X-0.021213X0.219203X-0.219203X0.021213X0.021213X-0.219203X0.219203X-0.021213X0*%
%ADD30RoundRect,0.135000X-0.035355X0.226274X-0.226274X0.035355X0.035355X-0.226274X0.226274X-0.035355X0*%
%ADD31R,0.800000X2.000000*%
%ADD32RoundRect,0.135000X0.135000X0.185000X-0.135000X0.185000X-0.135000X-0.185000X0.135000X-0.185000X0*%
G04 APERTURE END LIST*
D10*
%TO.C,R4*%
X153139376Y-131535624D03*
X153860624Y-130814376D03*
%TD*%
D11*
%TO.C,C11*%
X157139447Y-118887366D03*
X157818269Y-119566188D03*
%TD*%
D12*
%TO.C,C18*%
X179430000Y-111560000D03*
X177530000Y-111560000D03*
%TD*%
D13*
%TO.C,C13*%
X130000000Y-124320000D03*
X130000000Y-125280000D03*
%TD*%
D14*
%TO.C,FB1*%
X151805000Y-114935000D03*
X151805000Y-113965000D03*
%TD*%
D15*
%TO.C,C4*%
X147839411Y-132389411D03*
X147160589Y-131710589D03*
%TD*%
D16*
%TO.C,C3*%
X142035589Y-121864411D03*
X142714411Y-121185589D03*
%TD*%
D17*
%TO.C,R2*%
X141260000Y-133780000D03*
X141260000Y-134800000D03*
%TD*%
D11*
%TO.C,C12*%
X155575036Y-117297955D03*
X156253858Y-117976777D03*
%TD*%
D18*
%TO.C,C6*%
X140926992Y-121098008D03*
X142023008Y-120001992D03*
%TD*%
D11*
%TO.C,C1*%
X157810589Y-121685589D03*
X158489411Y-122364411D03*
%TD*%
D19*
%TO.C,J2*%
X133750000Y-131850000D03*
X133750000Y-132500000D03*
X133750000Y-133150000D03*
X133750000Y-133800000D03*
X133750000Y-134450000D03*
%TD*%
D20*
%TO.C,C19*%
X180220000Y-113170000D03*
X179260000Y-113170000D03*
%TD*%
D13*
%TO.C,C14*%
X135650000Y-124265000D03*
X135650000Y-125225000D03*
%TD*%
D21*
%TO.C,U2*%
X131562500Y-124300000D03*
X131562500Y-125250000D03*
X131562500Y-126200000D03*
X133837500Y-126200000D03*
X133837500Y-124300000D03*
%TD*%
D13*
%TO.C,C15*%
X139402849Y-126943560D03*
X139402849Y-127903560D03*
%TD*%
D22*
%TO.C,Y1*%
X159703858Y-116826777D03*
X158148223Y-115271142D03*
X156946142Y-116473223D03*
X158501777Y-118028858D03*
%TD*%
D23*
%TO.C,D1*%
X136337500Y-128225000D03*
X137912500Y-128225000D03*
%TD*%
D20*
%TO.C,C10*%
X137010000Y-117250000D03*
X136050000Y-117250000D03*
%TD*%
D13*
%TO.C,C17*%
X140577849Y-126948560D03*
X140577849Y-127908560D03*
%TD*%
D20*
%TO.C,C9*%
X150760000Y-114000000D03*
X149800000Y-114000000D03*
%TD*%
D24*
%TO.C,FB2*%
X138400818Y-124225000D03*
X139370818Y-124225000D03*
%TD*%
D25*
%TO.C,J6*%
X199930000Y-125800000D03*
X199930000Y-128500000D03*
X199930000Y-123100000D03*
%TD*%
D26*
%TO.C,U1*%
X156664481Y-122838819D03*
X156310928Y-122485266D03*
X155957375Y-122131713D03*
X155603821Y-121778159D03*
X155250268Y-121424606D03*
X154896714Y-121071052D03*
X154543161Y-120717499D03*
X154189608Y-120363946D03*
X153836054Y-120010392D03*
X153482501Y-119656839D03*
X153128948Y-119303286D03*
X152775394Y-118949732D03*
X152421841Y-118596179D03*
X152068287Y-118242625D03*
X151714734Y-117889072D03*
X151361181Y-117535519D03*
D27*
X148638819Y-117535519D03*
X148285266Y-117889072D03*
X147931713Y-118242625D03*
X147578159Y-118596179D03*
X147224606Y-118949732D03*
X146871052Y-119303286D03*
X146517499Y-119656839D03*
X146163946Y-120010392D03*
X145810392Y-120363946D03*
X145456839Y-120717499D03*
X145103286Y-121071052D03*
X144749732Y-121424606D03*
X144396179Y-121778159D03*
X144042625Y-122131713D03*
X143689072Y-122485266D03*
X143335519Y-122838819D03*
D26*
X143335519Y-125561181D03*
X143689072Y-125914734D03*
X144042625Y-126268287D03*
X144396179Y-126621841D03*
X144749732Y-126975394D03*
X145103286Y-127328948D03*
X145456839Y-127682501D03*
X145810392Y-128036054D03*
X146163946Y-128389608D03*
X146517499Y-128743161D03*
X146871052Y-129096714D03*
X147224606Y-129450268D03*
X147578159Y-129803821D03*
X147931713Y-130157375D03*
X148285266Y-130510928D03*
X148638819Y-130864481D03*
D27*
X151361181Y-130864481D03*
X151714734Y-130510928D03*
X152068287Y-130157375D03*
X152421841Y-129803821D03*
X152775394Y-129450268D03*
X153128948Y-129096714D03*
X153482501Y-128743161D03*
X153836054Y-128389608D03*
X154189608Y-128036054D03*
X154543161Y-127682501D03*
X154896714Y-127328948D03*
X155250268Y-126975394D03*
X155603821Y-126621841D03*
X155957375Y-126268287D03*
X156310928Y-125914734D03*
X156664481Y-125561181D03*
%TD*%
D13*
%TO.C,C16*%
X137025000Y-124265000D03*
X137025000Y-125225000D03*
%TD*%
D28*
%TO.C,R1*%
X157160624Y-128810624D03*
X156439376Y-128089376D03*
%TD*%
D11*
%TO.C,C7*%
X153410589Y-117285589D03*
X154089411Y-117964411D03*
%TD*%
D21*
%TO.C,U3*%
X136445000Y-132420000D03*
X136445000Y-133370000D03*
X136445000Y-134320000D03*
X138720000Y-134320000D03*
X138720000Y-133370000D03*
X138720000Y-132420000D03*
%TD*%
D16*
%TO.C,C2*%
X146635589Y-117214411D03*
X147314411Y-116535589D03*
%TD*%
D29*
%TO.C,C5*%
X158028822Y-126496178D03*
X157350000Y-127175000D03*
%TD*%
D30*
%TO.C,R5*%
X155635624Y-128864376D03*
X154914376Y-129585624D03*
%TD*%
D31*
%TO.C,IC1*%
X194700000Y-115250000D03*
X193430000Y-115250000D03*
X192160000Y-115250000D03*
X186590000Y-115250000D03*
X185320000Y-115250000D03*
X184050000Y-115250000D03*
X182780000Y-115250000D03*
X181510000Y-115250000D03*
X180240000Y-115250000D03*
X178970000Y-115250000D03*
X177700000Y-115250000D03*
X177700000Y-129250000D03*
X178970000Y-129250000D03*
X180240000Y-129250000D03*
X181510000Y-129250000D03*
X182780000Y-129250000D03*
X184050000Y-129250000D03*
X185320000Y-129250000D03*
X186590000Y-129250000D03*
X192160000Y-129250000D03*
X193430000Y-129250000D03*
X194700000Y-129250000D03*
%TD*%
D32*
%TO.C,R3*%
X137382500Y-130025000D03*
X136362500Y-130025000D03*
%TD*%
D20*
%TO.C,C8*%
X150760000Y-115000000D03*
X149800000Y-115000000D03*
%TD*%
M02*
